<svg xmlns="http://www.w3.org/2000/svg" xmlns:xlink="http://www.w3.org/1999/xlink" width="619" zoomAndPan="magnify" viewBox="0 0 464.25 460.499995" height="614" preserveAspectRatio="xMidYMid meet" version="1.0"><defs><clipPath id="5c249b0557"><path d="M 0 0.121094 L 463.5 0.121094 L 463.5 459.878906 L 0 459.878906 Z M 0 0.121094 " clip-rule="nonzero"/></clipPath><clipPath id="129d49754b"><path d="M 0 80 L 461 80 L 461 459.878906 L 0 459.878906 Z M 0 80 " clip-rule="nonzero"/></clipPath><clipPath id="72b9d3d6e9"><path d="M 0 94 L 453 94 L 453 459.878906 L 0 459.878906 Z M 0 94 " clip-rule="nonzero"/></clipPath></defs><g clip-path="url(#5c249b0557)"><path fill="#f9e6b8" d="M 306.644531 370.601562 C 182.707031 370.601562 82.234375 272.296875 82.234375 151.035156 C 82.234375 92.582031 105.578125 39.472656 143.644531 0.125 C 59.074219 37.25 0.0078125 121.691406 0.0078125 219.925781 C 0.0078125 352.449219 107.507812 459.882812 240.113281 459.882812 C 341.582031 459.882812 428.351562 396.976562 463.5 308.054688 C 423.042969 346.75 367.691406 370.601562 306.644531 370.601562 " fill-opacity="1" fill-rule="nonzero"/></g><path fill="#e9cf97" d="M 143.070312 384.664062 C 141.335938 388.226562 145.433594 393.785156 152.21875 397.089844 C 159.007812 400.390625 165.914062 400.179688 167.648438 396.617188 C 169.382812 393.054688 165.285156 387.492188 158.5 384.191406 C 151.710938 380.886719 144.804688 381.101562 143.070312 384.664062 " fill-opacity="1" fill-rule="nonzero"/><g clip-path="url(#129d49754b)"><path fill="#e3c17e" d="M 265.199219 415.449219 C 132.597656 415.449219 25.101562 308.019531 25.101562 175.496094 C 25.101562 141.792969 32.054688 109.710938 44.605469 80.609375 C 16.53125 119.886719 0.0078125 167.976562 0.0078125 219.925781 C 0.0078125 352.449219 107.507812 459.882812 240.113281 459.882812 C 338.976562 459.882812 423.878906 400.15625 460.683594 314.84375 C 417.140625 375.75 345.8125 415.449219 265.199219 415.449219 " fill-opacity="1" fill-rule="nonzero"/></g><g clip-path="url(#72b9d3d6e9)"><path fill="#cea560" d="M 247.855469 446.300781 C 115.25 446.300781 7.753906 338.871094 7.753906 206.347656 C 7.753906 166 17.722656 127.988281 35.324219 94.617188 C 12.929688 131.09375 0.0078125 173.996094 0.0078125 219.925781 C 0.0078125 352.449219 107.507812 459.882812 240.113281 459.882812 C 332.285156 459.882812 412.3125 407.964844 452.550781 331.796875 C 410.316406 400.488281 334.441406 446.300781 247.855469 446.300781 " fill-opacity="1" fill-rule="nonzero"/></g><path fill="#e9cf97" d="M 124.75 314.5625 C 123.015625 318.125 127.113281 323.6875 133.902344 326.988281 C 140.691406 330.289062 147.597656 330.078125 149.332031 326.515625 C 151.066406 322.957031 146.96875 317.390625 140.179688 314.09375 C 133.394531 310.789062 126.484375 311 124.75 314.5625 " fill-opacity="1" fill-rule="nonzero"/><path fill="#cea560" d="M 144.566406 383.007812 C 143.90625 383.441406 143.394531 383.992188 143.070312 384.664062 C 141.335938 388.226562 145.433594 393.785156 152.21875 397.089844 C 159.007812 400.390625 165.914062 400.179688 167.648438 396.617188 C 167.898438 396.109375 168.019531 395.5625 168.042969 394.992188 C 159.972656 391.417969 152.140625 387.410156 144.566406 383.007812 " fill-opacity="1" fill-rule="nonzero"/><path fill="#e9cf97" d="M 51.476562 252.257812 C 47.6875 257.75 53.105469 268.050781 63.574219 275.261719 C 74.046875 282.472656 85.605469 283.863281 89.390625 278.371094 C 93.179688 272.878906 87.761719 262.578125 77.292969 255.371094 C 66.824219 248.160156 55.261719 246.765625 51.476562 252.257812 " fill-opacity="1" fill-rule="nonzero"/><path fill="#e9cf97" d="M 59.320312 288.058594 C 55.535156 293.550781 60.953125 303.851562 71.417969 311.0625 C 81.890625 318.277344 93.449219 319.667969 97.238281 314.171875 C 101.027344 308.679688 95.609375 298.382812 85.140625 291.167969 C 74.667969 283.960938 63.109375 282.566406 59.320312 288.058594 " fill-opacity="1" fill-rule="nonzero"/><path fill="#e9cf97" d="M 68.769531 101.980469 C 62.199219 100.796875 55.042969 109.976562 52.785156 122.480469 C 50.527344 134.984375 54.023438 146.085938 60.59375 147.269531 C 67.160156 148.453125 74.316406 139.277344 76.578125 126.769531 C 78.832031 114.261719 75.339844 103.164062 68.769531 101.980469 " fill-opacity="1" fill-rule="nonzero"/><path fill="#e9cf97" d="M 42.878906 137.984375 C 39.066406 137.980469 35.964844 143.863281 35.957031 151.125 C 35.945312 158.386719 39.03125 164.277344 42.847656 164.285156 C 46.660156 164.289062 49.761719 158.40625 49.773438 151.144531 C 49.78125 143.882812 46.695312 137.988281 42.878906 137.984375 " fill-opacity="1" fill-rule="nonzero"/><path fill="#e9cf97" d="M 70.453125 167.949219 C 66.636719 167.941406 63.535156 173.828125 63.527344 181.089844 C 63.515625 188.351562 66.601562 194.242188 70.417969 194.25 C 74.230469 194.253906 77.332031 188.367188 77.34375 181.109375 C 77.351562 173.84375 74.265625 167.953125 70.453125 167.949219 " fill-opacity="1" fill-rule="nonzero"/><path fill="#e9cf97" d="M 315.21875 397.957031 C 314.789062 394.167969 308.589844 391.757812 301.371094 392.574219 C 294.148438 393.386719 288.640625 397.121094 289.066406 400.910156 C 289.496094 404.699219 295.695312 407.109375 302.917969 406.292969 C 310.136719 405.476562 315.644531 401.746094 315.21875 397.957031 " fill-opacity="1" fill-rule="nonzero"/><path fill="#cea560" d="M 273.71875 426.707031 C 273.289062 422.917969 267.085938 420.507812 259.867188 421.324219 C 252.648438 422.136719 247.140625 425.871094 247.566406 429.660156 C 247.996094 433.449219 254.199219 435.859375 261.417969 435.042969 C 268.640625 434.226562 274.144531 430.496094 273.71875 426.707031 " fill-opacity="1" fill-rule="nonzero"/><path fill="#cea560" d="M 371.269531 398.421875 C 369.65625 392.820312 359.699219 390.773438 349.027344 393.835938 C 338.347656 396.90625 331 403.933594 332.613281 409.535156 C 334.226562 415.132812 344.183594 417.1875 354.859375 414.121094 C 365.535156 411.050781 372.882812 404.023438 371.269531 398.421875 " fill-opacity="1" fill-rule="nonzero"/><path fill="#cea560" d="M 383.773438 381.890625 C 382.75 378.332031 376.421875 377.027344 369.636719 378.976562 C 362.851562 380.925781 358.183594 385.390625 359.210938 388.949219 C 360.230469 392.511719 366.5625 393.8125 373.347656 391.867188 C 380.125 389.914062 384.800781 385.449219 383.773438 381.890625 " fill-opacity="1" fill-rule="nonzero"/><path fill="#eaceea" d="M 191.191406 226.605469 C 191.191406 226.605469 248.859375 214.6875 237.746094 143.109375 L 256.59375 140.761719 C 256.59375 140.761719 289.988281 227.730469 204.207031 261.558594 " fill-opacity="1" fill-rule="nonzero"/><path fill="#eaceea" d="M 204.207031 261.558594 L 191.191406 226.605469 " fill-opacity="1" fill-rule="nonzero"/><path fill="#9654a8" d="M 202.148438 228.417969 C 202.210938 228.390625 212.332031 223.808594 222.480469 213.636719 C 232.632812 203.480469 242.820312 187.667969 242.816406 165.339844 C 242.816406 161.078125 242.441406 156.574219 241.632812 151.832031 L 239.808594 152.148438 C 240.601562 156.789062 240.964844 161.183594 240.964844 165.339844 C 240.957031 187.082031 231.085938 202.386719 221.171875 212.328125 C 216.214844 217.296875 211.253906 220.90625 207.539062 223.265625 C 205.679688 224.449219 204.132812 225.320312 203.054688 225.890625 C 202.515625 226.175781 202.09375 226.390625 201.808594 226.53125 C 201.667969 226.597656 201.558594 226.652344 201.488281 226.6875 L 201.382812 226.734375 L 202.148438 228.417969 " fill-opacity="1" fill-rule="nonzero"/><path fill="#d198d2" d="M 204.207031 261.558594 L 198.207031 245.449219 C 198.746094 245.09375 199.289062 244.742188 199.84375 244.382812 C 257.289062 207.1875 253.359375 159.636719 249.320312 141.667969 L 256.59375 140.761719 C 256.59375 140.761719 289.988281 227.730469 204.207031 261.558594 " fill-opacity="1" fill-rule="nonzero"/><path fill="#b471bf" d="M 254.324219 141.042969 L 256.59375 140.761719 C 256.59375 140.761719 289.988281 227.730469 204.207031 261.558594 L 199.539062 249.023438 C 207.75 245.253906 273.339844 212.671875 254.324219 141.042969 " fill-opacity="1" fill-rule="nonzero"/><path fill="#eaceea" d="M 239.25 149.640625 C 239.25 149.640625 234.441406 146.730469 231.96875 142.464844 C 229.492188 138.199219 220.59375 134.675781 220.59375 134.675781 C 220.59375 134.675781 217.730469 134.246094 217.972656 131.589844 C 218.210938 128.933594 223.792969 130.300781 225.5 130.652344 C 227.207031 131 231.589844 131.667969 232.496094 131.140625 C 233.398438 130.613281 232.992188 127.332031 232.71875 126.261719 C 232.445312 125.1875 225.484375 110.152344 225.15625 109.914062 C 224.824219 109.679688 224.722656 107.75 226.753906 107.355469 C 228.78125 106.964844 230.347656 109.058594 232.082031 111.195312 C 233.824219 113.335938 238.082031 123.128906 239.429688 122.824219 C 239.429688 122.824219 236.144531 103.691406 236.261719 102.429688 C 236.496094 99.871094 239.875 99.550781 240.699219 101.160156 C 241.453125 102.636719 245.996094 121.078125 246.402344 121.671875 C 246.808594 122.265625 247.421875 103.8125 247.660156 102.671875 C 248.355469 99.359375 251.496094 98.96875 252.574219 101.785156 C 253.433594 104.027344 252.25 122.75 253.273438 123.175781 C 254.296875 123.605469 259.984375 108.0625 259.984375 108.0625 C 259.984375 108.0625 261.792969 105.898438 263.378906 107.5 C 264.96875 109.105469 264.949219 111.1875 264.230469 114.328125 C 263.511719 117.464844 258.753906 127.070312 258.730469 129.148438 C 258.714844 131.230469 261.664062 146.023438 258.890625 148.167969 L 239.25 149.640625 " fill-opacity="1" fill-rule="nonzero"/><path fill="#3f97b5" d="M 239.148438 154.832031 L 260.53125 152.167969 C 260.53125 152.167969 264.160156 148.132812 258.605469 147.109375 L 238.496094 149.621094 C 238.496094 149.621094 233.574219 152.882812 239.148438 154.832031 " fill-opacity="1" fill-rule="nonzero"/><path fill="#327a93" d="M 260.53125 152.167969 L 239.148438 154.832031 C 233.574219 152.882812 238.496094 149.621094 238.496094 149.621094 L 238.5625 149.609375 C 238.734375 150.625 239.257812 151.78125 240.722656 151.988281 C 243.191406 152.34375 256.320312 150.726562 261.691406 149.527344 C 261.714844 150.847656 260.53125 152.167969 260.53125 152.167969 " fill-opacity="1" fill-rule="nonzero"/><path fill="#d198d2" d="M 220.265625 131.007812 C 221.582031 129.914062 233.535156 133.503906 234.34375 132.46875 C 235.144531 131.433594 229.316406 116.308594 228.054688 113.667969 C 226.789062 111.027344 225.976562 108.640625 228.144531 108.578125 C 230.316406 108.515625 237.777344 123.4375 238.054688 124.027344 C 238.335938 124.613281 239.5 125.609375 239.976562 125.265625 C 240.453125 124.929688 237.574219 101.910156 237.941406 101.503906 C 238.304688 101.097656 239.46875 101.261719 240.167969 101.898438 C 240.867188 102.539062 245.449219 121.859375 245.449219 121.859375 C 245.449219 121.859375 245.738281 124.933594 246.320312 125.417969 C 246.894531 125.90625 248.960938 101.734375 249.546875 101.453125 C 250.132812 101.171875 251.230469 101.65625 251.765625 102.628906 C 252.304688 103.597656 251.171875 124.460938 251.40625 125.46875 C 251.632812 126.476562 252.199219 126.824219 253.382812 126.363281 C 254.570312 125.902344 260.175781 109.351562 261.640625 108.652344 C 262.480469 108.25 263.714844 109.117188 264.617188 109.9375 C 264.816406 111.136719 264.632812 112.566406 264.230469 114.328125 C 263.511719 117.464844 258.753906 127.070312 258.730469 129.148438 C 258.71875 130.632812 260.21875 138.589844 260.066406 143.804688 C 259.253906 146.234375 258.457031 147.902344 258.457031 147.902344 C 258.457031 147.902344 257.289062 148.121094 255.585938 148.414062 L 241.476562 149.476562 C 240.429688 148.453125 239.4375 146.523438 237.835938 144.671875 C 235.652344 142.144531 223.238281 134.886719 221.59375 134.171875 C 219.949219 133.457031 218.953125 132.105469 220.265625 131.007812 " fill-opacity="1" fill-rule="nonzero"/><path fill="#7c438f" d="M 189.613281 345.042969 C 189.613281 345.042969 167.5625 360.332031 157.605469 360.300781 C 147.648438 360.273438 74.597656 261.929688 83.570312 252.363281 C 92.546875 242.800781 140.824219 228.75 142.925781 227.582031 C 145.027344 226.414062 189.613281 345.042969 189.613281 345.042969 " fill-opacity="1" fill-rule="nonzero"/><path fill="#eaceea" d="M 142.085938 245.960938 C 142.085938 245.960938 135.199219 254.890625 136.992188 267.101562 C 138.785156 279.308594 185.585938 351.1875 193.300781 355.199219 C 201.019531 359.214844 262.894531 326.625 269.9375 313.3125 C 276.984375 300 230.75 227.042969 218.703125 221.746094 C 206.65625 216.449219 198.539062 222.34375 198.539062 222.34375 L 142.085938 245.960938 " fill-opacity="1" fill-rule="nonzero"/><path fill="#eaceea" d="M 142.085938 245.960938 C 142.085938 245.960938 135.199219 254.890625 136.992188 267.101562 C 138.785156 279.308594 185.585938 351.1875 193.300781 355.199219 C 201.019531 359.214844 262.894531 326.625 269.9375 313.3125 C 276.984375 300 230.75 227.042969 218.703125 221.746094 C 206.65625 216.449219 198.539062 222.34375 198.539062 222.34375 L 142.085938 245.960938 " fill-opacity="1" fill-rule="nonzero"/><path fill="#eaceea" d="M 142.085938 245.960938 C 142.085938 245.960938 135.199219 254.890625 136.992188 267.101562 C 138.785156 279.308594 185.585938 351.1875 193.300781 355.199219 C 201.019531 359.214844 262.894531 326.625 269.9375 313.3125 C 276.984375 300 230.75 227.042969 218.703125 221.746094 C 206.65625 216.449219 198.539062 222.34375 198.539062 222.34375 L 142.085938 245.960938 " fill-opacity="1" fill-rule="nonzero"/><path fill="#d198d2" d="M 193.300781 355.199219 C 201.019531 359.214844 262.894531 326.625 269.9375 313.3125 C 271.96875 309.476562 269.570312 300.695312 264.855469 290.007812 C 254.132812 300.453125 231.535156 313.140625 231.535156 313.140625 C 221.84375 290.777344 185.316406 245.769531 185.316406 245.769531 L 139.558594 250.347656 C 137.808594 254.121094 135.957031 260.0625 136.992188 267.101562 C 138.785156 279.308594 185.585938 351.1875 193.300781 355.199219 " fill-opacity="1" fill-rule="nonzero"/><path fill="#b471bf" d="M 176.421875 246.65625 L 165.480469 247.75 L 136.941406 259.324219 C 136.628906 261.703125 136.582031 264.3125 136.992188 267.101562 C 138.785156 279.308594 185.585938 351.1875 193.300781 355.199219 C 196.644531 356.9375 210.136719 351.8125 224.9375 344.363281 C 218.359375 321.527344 184.113281 260.269531 176.421875 246.65625 " fill-opacity="1" fill-rule="nonzero"/><path fill="#d198d2" d="M 235.515625 240.097656 C 230.789062 244.707031 224.308594 249.679688 218.496094 249.425781 C 210.140625 249.050781 170.433594 236.035156 148.59375 243.234375 L 144.5 244.949219 C 143.421875 245.511719 142.410156 246.136719 141.476562 246.84375 C 139.898438 249.28125 135.851562 256.566406 136.851562 265.984375 C 145.441406 268.757812 170.65625 251.78125 170.65625 251.78125 C 170.65625 251.78125 211.652344 265.910156 230.582031 259.078125 C 230.582031 259.078125 236.847656 280.28125 242.886719 279.804688 C 246.039062 279.554688 251.878906 276.566406 256.75 273.765625 C 250.308594 261.992188 242.542969 249.769531 235.515625 240.097656 " fill-opacity="1" fill-rule="nonzero"/><path fill="#9654a8" d="M 170.375 325.542969 C 197.6875 307.039062 242.546875 282.703125 257.316406 274.804688 C 256.925781 274.085938 256.53125 273.363281 256.132812 272.636719 C 241.308594 280.570312 196.40625 304.929688 169.003906 323.496094 C 169.460938 324.183594 169.917969 324.863281 170.375 325.542969 " fill-opacity="1" fill-rule="nonzero"/><path fill="#9654a8" d="M 236.371094 338.28125 C 218.839844 302.976562 179.386719 242.527344 178.96875 241.894531 L 176.902344 243.246094 C 177.316406 243.878906 216.785156 304.34375 234.210938 339.480469 C 234.933594 339.082031 235.652344 338.683594 236.371094 338.28125 " fill-opacity="1" fill-rule="nonzero"/><path fill="#d2a1d6" d="M 256.378906 256.828125 C 258.441406 260.359375 257.246094 264.890625 253.710938 266.949219 L 241.515625 274.054688 C 237.980469 276.117188 233.445312 274.925781 231.382812 271.390625 L 212.804688 239.546875 C 210.746094 236.011719 211.9375 231.480469 215.472656 229.421875 L 227.667969 222.316406 C 231.203125 220.253906 235.738281 221.449219 237.796875 224.980469 L 256.378906 256.828125 " fill-opacity="1" fill-rule="nonzero"/><path fill="#b471bf" d="M 230.550781 228.726562 C 226.347656 224.933594 217.992188 232.753906 213.933594 235.121094 C 212.863281 235.746094 212.253906 236.46875 211.933594 237.203125 C 212.085938 238.007812 212.367188 238.800781 212.804688 239.546875 L 231.382812 271.390625 C 233.445312 274.925781 237.980469 276.117188 241.515625 274.054688 L 253.710938 266.949219 C 253.933594 266.820312 254.148438 266.679688 254.359375 266.527344 C 251.082031 256.953125 234.121094 231.945312 230.550781 228.726562 " fill-opacity="1" fill-rule="nonzero"/><path fill="#2b5e9d" d="M 255.824219 262.859375 C 256.523438 264.027344 258.039062 264.414062 259.210938 263.71875 C 260.382812 263.023438 260.769531 261.507812 260.070312 260.335938 L 235.777344 219.5 C 235.082031 218.328125 233.566406 217.941406 232.394531 218.640625 C 231.222656 219.335938 230.835938 220.851562 231.53125 222.023438 L 255.824219 262.859375 " fill-opacity="1" fill-rule="nonzero"/><path fill="#3f97b5" d="M 224.023438 248.457031 C 224.53125 252.519531 228.234375 255.402344 232.300781 254.890625 C 236.367188 254.386719 239.25 250.683594 238.742188 246.621094 C 238.238281 242.558594 234.53125 239.675781 230.464844 240.179688 C 226.398438 240.691406 223.515625 244.394531 224.023438 248.457031 " fill-opacity="1" fill-rule="nonzero"/><path fill="#101d2d" d="M 166.585938 224.726562 C 149.433594 232.117188 137.015625 242.410156 136.773438 248.972656 C 141.71875 253.296875 157.730469 251.335938 174.878906 243.941406 C 192.03125 236.546875 204.445312 226.253906 204.691406 219.691406 C 199.746094 215.363281 183.734375 217.332031 166.585938 224.726562 " fill-opacity="1" fill-rule="nonzero"/><path fill="#192e4e" d="M 134.421875 244.699219 C 137.140625 250.996094 154.738281 249.464844 173.730469 241.277344 C 192.722656 233.089844 205.914062 221.347656 203.195312 215.050781 C 200.476562 208.75 182.878906 210.28125 163.886719 218.472656 C 144.894531 226.660156 131.703125 238.402344 134.421875 244.699219 " fill-opacity="1" fill-rule="nonzero"/><path fill="#101d2d" d="M 134.1875 243.945312 C 139.8125 247.570312 155.175781 245.46875 171.589844 238.394531 C 189.847656 230.519531 202.738281 219.363281 201.289062 212.917969 C 195.664062 209.296875 180.296875 211.394531 163.886719 218.472656 C 145.625 226.34375 132.734375 237.5 134.1875 243.945312 " fill-opacity="1" fill-rule="nonzero"/><path fill="#345890" d="M 198.539062 222.34375 C 198.539062 222.34375 200.191406 222.800781 198.367188 224.546875 C 196.542969 226.292969 193.6875 228.757812 193.023438 228.257812 C 192.359375 227.761719 196.363281 223.28125 198.539062 222.34375 " fill-opacity="1" fill-rule="nonzero"/><path fill="#345890" d="M 190.65625 229.527344 C 190.65625 229.527344 191.234375 230.597656 189.210938 232.144531 C 187.1875 233.683594 170.808594 242.203125 166.945312 242.859375 C 166.945312 242.859375 165.644531 242.445312 167.574219 241.207031 C 169.503906 239.96875 182.769531 233.796875 187.445312 230.914062 C 190.71875 228.890625 190.65625 229.527344 190.65625 229.527344 " fill-opacity="1" fill-rule="nonzero"/><path fill="#254984" d="M 138.585938 247.832031 C 138.585938 247.832031 144.425781 237.148438 158.574219 236.375 C 172.726562 235.597656 197.84375 243.347656 204.1875 244.25 C 212.101562 245.382812 229.375 242.792969 230.824219 243.046875 C 230.824219 243.046875 236.117188 243.40625 235.941406 246.96875 C 235.941406 246.96875 235.613281 253.453125 230.546875 252.734375 C 230.546875 252.734375 212.21875 256.265625 196.457031 252.941406 C 182.582031 250.011719 158.226562 244.355469 150.289062 249.539062 L 138.585938 247.832031 " fill-opacity="1" fill-rule="nonzero"/><path fill="#3f97b5" d="M 175.621094 298.164062 C 175.621094 298.164062 183.03125 297.675781 184.246094 290.902344 C 185.890625 281.734375 181.128906 236.800781 150.207031 245.363281 C 125.738281 252.136719 127.277344 300.769531 175.621094 298.164062 " fill-opacity="1" fill-rule="nonzero"/><path fill="#348099" d="M 154.914062 251.121094 C 140.148438 255.207031 134.863281 274.535156 143.605469 288.648438 C 150.21875 294.882812 160.683594 298.972656 175.621094 298.164062 C 175.621094 298.164062 183.03125 297.675781 184.246094 290.902344 C 185.21875 285.484375 183.949219 267.570312 176.363281 255.589844 C 171.246094 250.847656 164.285156 248.523438 154.914062 251.121094 " fill-opacity="1" fill-rule="nonzero"/><path fill="#286675" d="M 150.765625 293.050781 C 150.765625 293.050781 151.375 293.632812 152.464844 294.496094 C 158.496094 297.21875 166.160156 298.675781 175.621094 298.164062 C 175.621094 298.164062 181.773438 297.757812 183.78125 292.5625 C 184.230469 279.277344 170.457031 255.632812 170.457031 255.632812 L 150.765625 293.050781 " fill-opacity="1" fill-rule="nonzero"/><path fill="#97dde8" d="M 157.9375 247.210938 C 157.9375 247.210938 140.777344 251.84375 138.828125 265.417969 C 138.828125 265.417969 136.371094 246.097656 157.9375 247.210938 " fill-opacity="1" fill-rule="nonzero"/><path fill="#eaceea" d="M 171.28125 256.796875 C 171.28125 256.796875 184.527344 286.535156 168.601562 293.90625 C 156.886719 299.328125 17.53125 289.726562 90.035156 188.496094 L 109.988281 201.542969 C 109.988281 201.542969 113.792969 233.367188 123.003906 241.011719 C 130.761719 247.449219 170.652344 251.765625 171.28125 256.796875 " fill-opacity="1" fill-rule="nonzero"/><path fill="#d198d2" d="M 168.601562 293.90625 C 184.527344 286.535156 171.28125 256.796875 171.28125 256.796875 C 171.128906 255.597656 168.761719 254.445312 165.140625 253.292969 C 162.371094 253.503906 159.207031 255.15625 156.019531 259.757812 C 146.902344 272.914062 139.546875 272.824219 131.027344 269.828125 C 122.503906 266.839844 63.792969 248.558594 83.304688 213.335938 C 90.554688 200.238281 91.304688 193.3125 89.148438 189.757812 C 18.703125 289.804688 156.9375 299.304688 168.601562 293.90625 " fill-opacity="1" fill-rule="nonzero"/><path fill="#9654a8" d="M 173.421875 262.523438 C 162.851562 261.152344 99.863281 252.148438 90.132812 231.148438 C 87.9375 226.414062 88.621094 221.496094 92.214844 216.125 L 90.675781 215.097656 C 86.746094 220.964844 86 226.632812 88.453125 231.925781 C 99.03125 254.757812 166.070312 263.503906 174.03125 264.46875 C 173.828125 263.785156 173.625 263.136719 173.421875 262.523438 " fill-opacity="1" fill-rule="nonzero"/><path fill="#eaceea" d="M 212.207031 148.042969 C 209.953125 146.375 201.308594 147.316406 200.015625 147.46875 C 185.132812 128.386719 158.445312 117.96875 123.652344 132.96875 C 88.539062 148.109375 77.933594 175.011719 81.910156 199.09375 C 79.613281 201.160156 75.816406 204.867188 75.5625 206.953125 C 75.203125 209.960938 84.121094 228.289062 87.902344 232.371094 C 87.902344 232.371094 95.402344 233.070312 99.734375 231.132812 C 116.355469 244.25 142.574219 247.097656 168.15625 236.066406 C 193.847656 224.992188 209.789062 203.847656 211.539062 182.675781 C 216.316406 182.019531 222.242188 174.449219 222.242188 174.449219 C 221.863281 168.902344 214.644531 149.839844 212.207031 148.042969 " fill-opacity="1" fill-rule="nonzero"/><path fill="#d198d2" d="M 212.207031 148.042969 C 209.953125 146.375 201.308594 147.316406 200.015625 147.46875 C 195.785156 142.046875 190.601562 137.328125 184.550781 133.6875 C 177.28125 140.222656 192.199219 162.285156 187.835938 185.347656 C 182.78125 212.058594 114.222656 210.019531 100.367188 188.671875 C 92.773438 176.96875 86.113281 178.335938 81.648438 181.953125 C 80.859375 187.699219 80.980469 193.472656 81.910156 199.09375 C 79.613281 201.160156 75.816406 204.867188 75.5625 206.953125 C 75.203125 209.960938 84.121094 228.289062 87.902344 232.371094 C 87.902344 232.371094 95.402344 233.070312 99.734375 231.132812 C 116.355469 244.25 142.574219 247.097656 168.15625 236.066406 C 193.847656 224.992188 209.789062 203.847656 211.539062 182.675781 C 216.316406 182.019531 222.242188 174.449219 222.242188 174.449219 C 221.863281 168.902344 214.644531 149.839844 212.207031 148.042969 " fill-opacity="1" fill-rule="nonzero"/><path fill="#b471bf" d="M 211.539062 182.675781 C 216.316406 182.019531 222.242188 174.449219 222.242188 174.449219 C 222.03125 171.359375 219.699219 164.085938 217.257812 157.925781 C 201.761719 150.9375 206.027344 201.8125 166.65625 217.273438 C 127.230469 232.765625 91.320312 214.070312 86.347656 212.929688 C 83.417969 212.261719 80.816406 214.875 79.171875 217.136719 C 81.988281 223.207031 85.765625 230.0625 87.902344 232.371094 C 87.902344 232.371094 95.402344 233.070312 99.734375 231.132812 C 116.355469 244.25 142.574219 247.097656 168.15625 236.066406 C 193.847656 224.992188 209.789062 203.847656 211.539062 182.675781 " fill-opacity="1" fill-rule="nonzero"/><path fill="#7c438f" d="M 211.902344 179.160156 C 209.890625 200.445312 193.339844 221.851562 166.910156 233.246094 C 140.589844 244.589844 113.765625 242.007812 96.882812 229.003906 C 93.71875 230.417969 88.933594 230.511719 86.425781 230.449219 C 86.96875 231.246094 87.46875 231.902344 87.902344 232.371094 C 87.902344 232.371094 95.402344 233.070312 99.734375 231.132812 C 116.355469 244.25 142.574219 247.097656 168.15625 236.066406 C 193.847656 224.992188 209.789062 203.847656 211.539062 182.675781 C 216.316406 182.019531 222.242188 174.449219 222.242188 174.449219 C 222.199219 173.816406 222.058594 173 221.859375 172.054688 C 219.875 174.269531 215.546875 178.632812 211.902344 179.160156 " fill-opacity="1" fill-rule="nonzero"/><path fill="#b37abe" d="M 166.570312 126.855469 C 165.953125 126.738281 165.335938 126.632812 164.710938 126.535156 C 163.40625 132.492188 162.40625 141.691406 163.832031 154.296875 L 165.671875 154.089844 C 164.273438 141.726562 165.292969 132.660156 166.570312 126.855469 " fill-opacity="1" fill-rule="nonzero"/><path fill="#b37abe" d="M 111.898438 177.273438 L 113.3125 176.074219 C 104.671875 165.867188 96.933594 160.210938 91.671875 157.175781 C 91.300781 157.6875 90.929688 158.203125 90.578125 158.71875 C 95.699219 161.660156 103.386719 167.214844 111.898438 177.273438 " fill-opacity="1" fill-rule="nonzero"/><path fill="#3d8dc4" d="M 94.371094 212.652344 C 103.863281 234.648438 135.597656 242.117188 165.25 229.328125 C 194.898438 216.546875 211.242188 188.351562 201.746094 166.355469 C 192.25 144.359375 160.519531 136.894531 130.867188 149.679688 C 101.214844 162.464844 84.871094 190.65625 94.371094 212.652344 " fill-opacity="1" fill-rule="nonzero"/><path fill="#254984" d="M 99.171875 210.582031 C 107.816406 230.609375 136.710938 237.414062 163.710938 225.765625 C 190.710938 214.128906 205.589844 188.457031 196.945312 168.429688 C 188.300781 148.398438 159.402344 141.601562 132.402344 153.242188 C 105.402344 164.882812 90.523438 190.554688 99.171875 210.582031 " fill-opacity="1" fill-rule="nonzero"/><path fill="#1d1121" d="M 78.132812 205.847656 C 78.132812 205.847656 89.324219 219.3125 88.277344 229.347656 C 88.277344 229.347656 79.890625 220.042969 78.132812 205.847656 " fill-opacity="1" fill-rule="nonzero"/><path fill="#1d1121" d="M 209.640625 149.148438 C 209.640625 149.148438 211.761719 166.523438 219.785156 172.648438 C 219.785156 172.648438 218.765625 160.167969 209.640625 149.148438 " fill-opacity="1" fill-rule="nonzero"/><path fill="#192e4e" d="M 134.691406 231.398438 C 143.914062 231.769531 153.9375 229.988281 163.710938 225.765625 C 190.710938 214.128906 205.589844 188.457031 196.945312 168.429688 C 192.472656 158.066406 182.570312 151.257812 170.320312 148.699219 C 174.726562 163.828125 184.136719 211.699219 134.691406 231.398438 " fill-opacity="1" fill-rule="nonzero"/><path fill="#35629e" d="M 137.347656 158.535156 C 137.347656 158.535156 93.550781 170.929688 101.722656 209.617188 C 101.722656 209.617188 116.171875 231.800781 136.082031 222.40625 C 155.988281 213.011719 169.191406 162.667969 137.347656 158.535156 " fill-opacity="1" fill-rule="nonzero"/><path fill="#4d7dac" d="M 117.007812 172.578125 C 117.007812 172.578125 98.308594 191.113281 109.449219 211.519531 C 120.589844 231.921875 137.320312 167.878906 117.007812 172.578125 " fill-opacity="1" fill-rule="nonzero"/><path fill="#93bdd3" d="M 109.257812 190.34375 C 108.375 195.695312 110.214844 200.460938 113.363281 200.980469 C 116.515625 201.496094 119.785156 197.574219 120.667969 192.222656 C 121.550781 186.863281 119.710938 182.101562 116.558594 181.585938 C 113.410156 181.066406 110.140625 184.988281 109.257812 190.34375 " fill-opacity="1" fill-rule="nonzero"/><path fill="#eaceea" d="M 83.511719 202.347656 C 83.511719 202.347656 94 217.296875 95.363281 226.289062 C 95.363281 226.289062 95.714844 229.503906 97.40625 229.109375 C 99.097656 228.71875 95.558594 214.289062 83.511719 202.347656 " fill-opacity="1" fill-rule="nonzero"/><path fill="#eaceea" d="M 200.960938 149.695312 C 200.960938 149.695312 205.457031 172.246094 210.140625 176.804688 C 214.828125 181.367188 215.433594 176.210938 213.257812 173.117188 C 211.082031 170.023438 202.960938 155.886719 200.960938 149.695312 " fill-opacity="1" fill-rule="nonzero"/><path fill="#192e4e" d="M 96.816406 201.039062 C 99.164062 190.707031 100.222656 187.527344 104.015625 181.707031 C 134.464844 134.996094 181.917969 155.027344 181.917969 155.027344 L 182.625 153.160156 C 169.492188 145.933594 150.523438 145.429688 132.402344 153.242188 C 109.546875 163.097656 95.382812 183.003906 96.816406 201.039062 " fill-opacity="1" fill-rule="nonzero"/><path fill="#fef8fc" d="M 96.613281 155.042969 C 96.613281 155.042969 103.59375 164.460938 105.207031 163.09375 C 106.820312 161.726562 124.308594 148.503906 137.523438 143.296875 C 137.523438 143.296875 110.644531 149.390625 106.949219 147.226562 C 106.949219 147.226562 98.542969 151.046875 96.613281 155.042969 " fill-opacity="1" fill-rule="nonzero"/><path fill="#fef8fc" d="M 90.714844 161.792969 C 90.714844 161.792969 98.726562 166.335938 98.832031 168.921875 C 98.941406 171.507812 93.472656 178.304688 92.746094 177.402344 C 92.023438 176.503906 87.914062 163.0625 90.714844 161.792969 " fill-opacity="1" fill-rule="nonzero"/><path fill="#fef8fc" d="M 169.320312 129.742188 C 169.320312 129.742188 164.109375 140.25 167.480469 141.046875 C 170.847656 141.847656 178.644531 145.878906 178.128906 142.742188 C 177.613281 139.601562 172.863281 128.253906 169.320312 129.742188 " fill-opacity="1" fill-rule="nonzero"/><path fill="#b471bf" d="M 175.824219 272.050781 C 171.09375 272.929688 163.371094 274.328125 150.871094 276.269531 C 106.347656 283.183594 87.027344 245.289062 77.007812 247.910156 C 74.046875 248.6875 72.273438 250.570312 71.242188 252.832031 C 84.558594 293.871094 160.109375 297.835938 168.601562 293.90625 C 176.734375 290.140625 177.257812 280.546875 175.824219 272.050781 " fill-opacity="1" fill-rule="nonzero"/><path fill="#b471bf" d="M 161.136719 348.59375 C 156.765625 343.59375 124.839844 297.15625 124.839844 297.15625 L 101.101562 291.75 C 121.195312 322.710938 151.453125 360.285156 157.605469 360.300781 C 162.074219 360.3125 168.96875 357.242188 175.21875 353.855469 C 169.621094 352.824219 163.363281 351.144531 161.136719 348.59375 " fill-opacity="1" fill-rule="nonzero"/><path fill="#eaceea" d="M 101.101562 291.75 C 121.195312 322.710938 151.453125 360.285156 157.605469 360.300781 C 159.234375 360.308594 161.1875 359.898438 163.3125 359.214844 C 148.957031 346.003906 119.070312 307.117188 108.738281 293.492188 L 101.101562 291.75 " fill-opacity="1" fill-rule="nonzero"/><path fill="#2c4f82" d="M 264.855469 290.007812 L 181.714844 341.753906 C 181.714844 341.753906 179.828125 349.003906 187.386719 349.136719 C 187.386719 349.136719 260.863281 301.480469 268.5 297.324219 L 264.855469 290.007812 " fill-opacity="1" fill-rule="nonzero"/><path fill="#1a3453" d="M 187.386719 349.136719 C 187.386719 349.136719 260.863281 301.480469 268.5 297.324219 L 266.792969 293.902344 L 184.230469 348.484375 C 185.035156 348.867188 186.0625 349.113281 187.386719 349.136719 " fill-opacity="1" fill-rule="nonzero"/><path fill="#3f97b5" d="M 269.550781 357.503906 C 269.550781 357.503906 263.480469 370.289062 254.835938 375.503906 C 219.097656 397.058594 187.753906 376.722656 196.3125 346.429688 C 205.316406 314.550781 238.792969 317.949219 250.074219 318.652344 L 269.550781 357.503906 " fill-opacity="1" fill-rule="nonzero"/><path fill="#348099" d="M 269.550781 357.503906 L 253.492188 325.472656 C 248.734375 323.257812 244.386719 321.816406 241.953125 322.398438 C 241.953125 322.398438 214.734375 329.101562 207.277344 342.84375 C 200.714844 354.925781 204.292969 375.714844 219.527344 383.972656 C 229.609375 385.601562 241.933594 383.28125 254.835938 375.503906 C 263.480469 370.289062 269.550781 357.503906 269.550781 357.503906 " fill-opacity="1" fill-rule="nonzero"/><path fill="#276675" d="M 262.523438 343.484375 L 237.726562 332.675781 L 220.417969 336.722656 C 220.417969 336.722656 205.257812 346.664062 212.449219 367.734375 C 216.933594 380.863281 233.492188 382.347656 247.515625 379.375 C 249.921875 378.273438 252.371094 376.992188 254.835938 375.503906 C 263.480469 370.289062 269.550781 357.503906 269.550781 357.503906 L 262.523438 343.484375 " fill-opacity="1" fill-rule="nonzero"/><path fill="#4278c5" d="M 265.363281 291.027344 L 264.855469 290.007812 L 181.714844 341.753906 C 181.714844 341.753906 181.570312 342.308594 181.523438 343.117188 L 265.363281 291.027344 " fill-opacity="1" fill-rule="nonzero"/><path fill="#eaceea" d="M 244.648438 316.28125 C 244.648438 316.28125 202.417969 340.160156 216.742188 363.375 C 231.0625 386.585938 265.441406 366.414062 287.503906 344.800781 C 303.054688 329.566406 320.351562 298.570312 329.410156 296.359375 C 338.464844 294.144531 314.1875 271.574219 290.320312 282.222656 C 266.453125 292.871094 244.648438 316.28125 244.648438 316.28125 " fill-opacity="1" fill-rule="nonzero"/><path fill="#d198d2" d="M 329.410156 296.359375 C 330.671875 296.046875 331.285156 295.34375 331.339844 294.390625 C 325.71875 291.179688 313.5 285.28125 305.285156 289.144531 C 294.316406 294.304688 244.050781 349.90625 234.597656 349.015625 C 227.730469 348.367188 223.417969 339.871094 221.574219 335.265625 C 214.792969 343.492188 210.644531 353.492188 216.742188 363.375 C 231.0625 386.585938 265.441406 366.414062 287.503906 344.800781 C 303.054688 329.566406 320.351562 298.570312 329.410156 296.359375 " fill-opacity="1" fill-rule="nonzero"/><path fill="#b471bf" d="M 287.503906 344.800781 C 302.734375 329.886719 319.144531 300.214844 328.816406 296.546875 C 324.351562 294.308594 315.773438 291.339844 308.273438 296.492188 C 297.578125 303.84375 255.546875 365.46875 239.757812 365.367188 C 226.4375 365.28125 216.792969 355.945312 214.207031 349.253906 C 213.25 353.847656 213.8125 358.625 216.742188 363.375 C 231.0625 386.585938 265.441406 366.414062 287.503906 344.800781 " fill-opacity="1" fill-rule="nonzero"/><path fill="#97dde8" d="M 196.3125 346.429688 C 192.605469 359.546875 196.386719 370.792969 204.761719 377.582031 C 202.007812 372.976562 199.722656 367.105469 198.796875 359.699219 C 196.699219 342.894531 207.277344 329.625 216.652344 322.335938 C 207.894531 326.144531 200.023438 333.292969 196.3125 346.429688 " fill-opacity="1" fill-rule="nonzero"/><path fill="#9654a8" d="M 323.457031 285.226562 C 322.734375 284.765625 321.96875 284.320312 321.171875 283.894531 C 314.820312 288.679688 305.074219 299.222656 291.730469 313.847656 C 274.839844 332.355469 255.691406 353.335938 245.980469 356.8125 C 232.230469 361.734375 219.71875 352.46875 214.5625 347.808594 C 214.304688 348.742188 214.101562 349.679688 213.972656 350.625 C 219.171875 355.125 229.238281 361.992188 241.054688 360.519531 C 242.933594 360.285156 244.859375 359.835938 246.8125 359.136719 C 257.101562 355.449219 275.632812 335.144531 293.554688 315.511719 C 305.109375 302.847656 316.980469 289.828125 323.457031 285.226562 " fill-opacity="1" fill-rule="nonzero"/><path fill="#9654a8" d="M 301.195312 328.703125 C 301.773438 327.945312 302.347656 327.183594 302.925781 326.421875 C 296.0625 310.804688 280.648438 298.789062 271.863281 292.902344 C 271.125 293.414062 270.398438 293.933594 269.679688 294.453125 C 278.28125 300.171875 294.730469 312.722656 301.195312 328.703125 " fill-opacity="1" fill-rule="nonzero"/><path fill="#eaceea" d="M 328.980469 297.867188 C 328.980469 297.867188 293.28125 290.300781 301.195312 328.703125 C 301.195312 328.703125 342.722656 358.125 346.695312 360.042969 L 363.507812 345.246094 C 363.507812 345.246094 337.097656 301.832031 328.980469 297.867188 " fill-opacity="1" fill-rule="nonzero"/><path fill="#eaceea" d="M 350.785156 319.355469 C 350.785156 319.355469 343.671875 317.90625 337.910156 322.484375 C 330.234375 328.578125 323.945312 344.375 323.945312 344.375 C 323.945312 344.375 349.847656 369.558594 354.125 370.417969 C 358.402344 371.277344 401.605469 350.914062 397.398438 339.972656 C 392.328125 326.796875 363.101562 335.617188 363.101562 335.617188 L 350.785156 319.355469 " fill-opacity="1" fill-rule="nonzero"/><path fill="#d198d2" d="M 350.785156 319.355469 L 355.15625 325.125 C 351.957031 325.800781 344.667969 327.460938 342.316406 329.09375 C 339.277344 331.210938 335.828125 338.691406 335.828125 338.691406 C 335.828125 338.691406 352.289062 357.757812 355.746094 359.164062 C 359.207031 360.570312 372.183594 356.011719 375.453125 353.464844 C 378.726562 350.910156 387.90625 334.300781 397.660156 341.035156 C 398.933594 352.171875 358.273438 371.25 354.125 370.417969 C 349.847656 369.558594 323.945312 344.375 323.945312 344.375 C 323.945312 344.375 330.234375 328.578125 337.914062 322.484375 C 343.671875 317.90625 350.785156 319.355469 350.785156 319.355469 " fill-opacity="1" fill-rule="nonzero"/><path fill="#b471bf" d="M 362.398438 367.9375 C 358.25 369.664062 355.125 370.621094 354.121094 370.417969 C 349.847656 369.5625 323.941406 344.378906 323.941406 344.378906 C 323.941406 344.378906 324.773438 342.289062 326.195312 339.347656 L 330.195312 338.734375 C 330.195312 338.734375 348.96875 360.335938 362.398438 367.9375 " fill-opacity="1" fill-rule="nonzero"/><path fill="#3f97b5" d="M 394.816406 337.589844 C 394.816406 337.589844 392.144531 338.398438 387.691406 342.101562 C 383.234375 345.808594 381.007812 352.113281 378.265625 354.679688 C 375.527344 357.242188 353.222656 368.609375 350.988281 368.621094 C 350.988281 368.621094 354.070312 373.183594 357.394531 374.183594 C 357.394531 374.183594 390.476562 361.128906 399.273438 352.066406 C 399.273438 352.066406 403.785156 345.859375 402.53125 342.488281 C 401.28125 339.121094 395.519531 335.632812 394.816406 337.589844 " fill-opacity="1" fill-rule="nonzero"/><path fill="#3f97b5" d="M 363.101562 335.617188 C 363.101562 335.617188 350.726562 349.53125 352.855469 355.035156 C 352.855469 355.035156 353.382812 357.398438 357.492188 356.886719 C 361.601562 356.378906 367.171875 354.960938 367.382812 353.027344 C 369.03125 337.847656 376 334.941406 380.90625 332.742188 L 382.726562 332.738281 C 382.726562 332.738281 382.820312 330.648438 381.136719 330.78125 C 379.449219 330.914062 366.183594 333.566406 366.183594 333.566406 C 366.183594 333.566406 363.984375 334.585938 363.101562 335.617188 " fill-opacity="1" fill-rule="nonzero"/><path fill="#3576aa" d="M 357.394531 374.183594 C 356.085938 373.789062 354.820312 372.84375 353.757812 371.84375 C 360.351562 369.183594 378.980469 361.570312 382.257812 359.1875 C 386.257812 356.28125 387.925781 348.746094 391.546875 345.101562 C 391.546875 345.101562 396.535156 341.042969 400.609375 339.738281 C 401.46875 340.582031 402.179688 341.539062 402.53125 342.488281 C 403.785156 345.859375 399.273438 352.066406 399.273438 352.066406 C 390.476562 361.128906 357.394531 374.183594 357.394531 374.183594 " fill-opacity="1" fill-rule="nonzero"/><path fill="#3f97b5" d="M 323.941406 344.378906 C 323.941406 344.378906 330.230469 328.582031 337.910156 322.484375 C 343.667969 317.910156 350.78125 319.355469 350.78125 319.355469 L 354.054688 323.679688 C 349.382812 324.042969 341.890625 325.019531 339.476562 327.617188 C 336.457031 330.871094 329.976562 344.078125 327.96875 348.242188 C 325.527344 345.917969 323.941406 344.378906 323.941406 344.378906 " fill-opacity="1" fill-rule="nonzero"/><path fill="#fef8fc" d="M 340.578125 336.765625 C 340.578125 336.765625 349.578125 350.207031 350.914062 349.242188 C 352.246094 348.273438 357.15625 336.441406 357.558594 335.144531 C 357.964844 333.84375 353.421875 328.472656 352.101562 329.101562 C 350.773438 329.734375 341.457031 334.449219 340.578125 336.765625 " fill-opacity="1" fill-rule="nonzero"/><path fill="#fef8fc" d="M 370.511719 346.746094 C 370.511719 346.746094 376.28125 334.257812 382.046875 334.375 C 387.8125 334.492188 392.148438 335.066406 390.664062 336.546875 C 389.179688 338.027344 376.066406 348.660156 374.058594 350.898438 C 372.050781 353.136719 369.675781 348.398438 370.511719 346.746094 " fill-opacity="1" fill-rule="nonzero"/><path fill="#3576aa" d="M 352.855469 355.035156 C 352.679688 354.585938 352.609375 354.078125 352.617188 353.53125 C 355.859375 354.199219 363.691406 351.71875 363.691406 351.71875 C 363.691406 351.71875 362.976562 348.792969 367.175781 340.5625 C 369.703125 335.601562 375.144531 332.660156 379.074219 331.097656 C 380.070312 330.921875 380.816406 330.808594 381.136719 330.78125 C 382.820312 330.648438 382.726562 332.738281 382.726562 332.738281 L 380.90625 332.742188 C 376 334.941406 369.03125 337.847656 367.382812 353.027344 C 367.171875 354.960938 361.601562 356.378906 357.492188 356.886719 C 353.382812 357.398438 352.855469 355.035156 352.855469 355.035156 " fill-opacity="1" fill-rule="nonzero"/></svg>