<svg xmlns="http://www.w3.org/2000/svg" xmlns:xlink="http://www.w3.org/1999/xlink" width="204" zoomAndPan="magnify" viewBox="0 0 153 153.000002" height="204" preserveAspectRatio="xMidYMid meet" version="1.0"><defs><g/><clipPath id="f107c84811"><path d="M 0.496094 57 L 26 57 L 26 92 L 0.496094 92 Z M 0.496094 57 " clip-rule="nonzero"/></clipPath><clipPath id="93fc20f9f6"><path d="M 143 57 L 152.503906 57 L 152.503906 85 L 143 85 Z M 143 57 " clip-rule="nonzero"/></clipPath></defs><g clip-path="url(#f107c84811)"><g fill="#ffffff" fill-opacity="1"><g transform="translate(0.496752, 91.115741)"><g><path d="M 18.328125 -9.824219 C 20.257812 -10.621094 22.324219 -11.890625 24.441406 -13.535156 C 24.675781 -13.722656 24.816406 -13.957031 24.816406 -14.242188 C 24.816406 -14.429688 24.722656 -14.617188 24.582031 -14.851562 C 24.441406 -15.085938 24.203125 -15.179688 23.875 -15.179688 C 23.640625 -15.179688 23.40625 -15.132812 23.265625 -14.992188 C 21.761719 -13.816406 20.351562 -12.925781 18.988281 -12.21875 C 19.503906 -14.242188 19.738281 -16.449219 19.738281 -18.566406 C 19.738281 -22.511719 18.941406 -26.320312 17.109375 -29.328125 C 15.179688 -32.523438 12.644531 -33.792969 10.152344 -33.792969 C 5.027344 -33.792969 0 -28.199219 0 -21.761719 C 0 -19.550781 0.609375 -17.203125 1.972656 -14.992188 C 1.644531 -13.347656 1.503906 -11.796875 1.503906 -10.433594 C 1.503906 -3.761719 4.792969 0 8.601562 0 C 12.03125 0 15.933594 -3.054688 18.328125 -9.824219 Z M 16.824219 -11.28125 C 15.652344 -10.855469 14.429688 -10.667969 13.207031 -10.667969 C 9.210938 -10.667969 5.828125 -12.785156 3.996094 -15.367188 C 4.417969 -17.390625 5.171875 -19.410156 6.109375 -21.242188 C 6.15625 -21.433594 6.203125 -21.574219 6.203125 -21.667969 C 6.203125 -21.996094 6.0625 -22.230469 5.734375 -22.464844 C 5.59375 -22.558594 5.40625 -22.605469 5.265625 -22.605469 C 4.886719 -22.605469 4.605469 -22.417969 4.464844 -22.089844 C 3.714844 -20.726562 3.195312 -19.269531 2.679688 -17.8125 C 2.160156 -19.175781 1.925781 -20.539062 1.925781 -21.902344 C 1.925781 -27.402344 6.0625 -31.867188 10.152344 -31.867188 C 13.160156 -31.867188 16.167969 -29.421875 17.4375 -23.21875 C 17.765625 -21.714844 17.90625 -20.210938 17.90625 -18.566406 C 17.90625 -16.121094 17.53125 -13.675781 16.824219 -11.28125 Z M 16.027344 -9.117188 C 13.816406 -4.042969 11.09375 -1.878906 8.648438 -1.878906 C 5.78125 -1.878906 3.429688 -4.980469 3.429688 -10.480469 C 3.429688 -11.234375 3.476562 -12.078125 3.570312 -12.972656 C 5.96875 -10.527344 9.351562 -8.789062 13.160156 -8.789062 C 14.148438 -8.789062 15.132812 -8.882812 16.027344 -9.117188 Z M 16.027344 -9.117188 "/></g></g></g></g><g fill="#ffffff" fill-opacity="1"><g transform="translate(23.240126, 91.115741)"><g><path d="M 4.277344 -6.25 C 7.191406 -6.25 10.386719 -11.28125 11.75 -13.769531 C 11.796875 -13.863281 11.84375 -14.007812 11.84375 -14.242188 C 11.84375 -14.617188 11.703125 -14.898438 11.375 -15.085938 C 11.1875 -15.132812 11.046875 -15.179688 10.949219 -15.179688 C 10.574219 -15.179688 10.292969 -14.992188 10.105469 -14.664062 C 8.367188 -11.5625 5.734375 -8.132812 4.324219 -8.132812 C 4.183594 -8.132812 4.089844 -8.179688 3.949219 -8.226562 C 3.335938 -8.601562 2.351562 -9.164062 2.351562 -13.488281 C 2.351562 -17.390625 3.148438 -23.546875 4.980469 -32.570312 C 5.074219 -33.183594 4.839844 -33.558594 4.230469 -33.699219 C 3.714844 -33.839844 3.289062 -33.464844 3.148438 -32.945312 C 2.019531 -27.261719 0.46875 -19.550781 0.46875 -13.910156 C 0.46875 -9.445312 1.410156 -6.25 4.277344 -6.25 Z M 4.277344 -6.25 "/></g></g></g><g fill="#ffffff" fill-opacity="1"><g transform="translate(32.826175, 91.115741)"><g><path d="M -1.269531 14.054688 C -0.753906 14.289062 -0.234375 14.382812 0.1875 14.382812 C 1.644531 14.382812 3.335938 13.535156 4.980469 10.949219 C 8.414062 5.5 9.398438 -0.46875 9.589844 -6.910156 C 11.65625 -8.976562 13.816406 -10.902344 15.839844 -12.832031 C 16.027344 -13.019531 16.121094 -13.253906 16.121094 -13.535156 C 16.121094 -13.769531 16.027344 -14.007812 15.839844 -14.195312 C 15.652344 -14.382812 15.414062 -14.476562 15.179688 -14.476562 C 14.945312 -14.476562 14.710938 -14.382812 14.523438 -14.195312 L 9.589844 -9.539062 C 9.589844 -12.125 9.492188 -14.664062 9.445312 -17.34375 L 9.445312 -17.53125 C 9.398438 -18.140625 9.070312 -18.425781 8.507812 -18.425781 C 7.988281 -18.472656 7.613281 -18.140625 7.566406 -17.625 C 7.050781 -13.488281 3.949219 -8.414062 1.738281 -7.566406 C 1.503906 -7.472656 1.316406 -7.425781 1.175781 -7.425781 C 0.5625 -7.425781 0.28125 -7.894531 0.28125 -8.882812 C 0.28125 -11.328125 2.492188 -15.839844 6.109375 -16.589844 C 6.628906 -16.683594 6.863281 -16.96875 6.863281 -17.484375 L 6.863281 -17.671875 C 6.722656 -18.1875 6.34375 -18.425781 5.921875 -18.425781 L 5.734375 -18.425781 C 1.410156 -17.578125 -1.597656 -12.453125 -1.597656 -8.929688 C -1.597656 -7.753906 -1.222656 -6.722656 -0.46875 -6.109375 C 0 -5.734375 0.5625 -5.546875 1.175781 -5.546875 C 3.570312 -5.546875 6.25 -8.882812 7.707031 -11.84375 L 7.707031 -7.707031 C 3.242188 -3.242188 -0.988281 1.832031 -2.632812 7.988281 C -2.960938 8.929688 -3.101562 9.964844 -3.101562 10.855469 C -3.101562 12.21875 -2.632812 13.441406 -1.269531 14.054688 Z M -0.515625 12.3125 C -0.988281 12.125 -1.222656 11.5625 -1.222656 10.621094 C -1.222656 7.753906 1.363281 1.550781 7.613281 -4.933594 C 7.285156 0.65625 6.203125 5.40625 3.382812 9.917969 C 2.304688 11.609375 1.222656 12.453125 0.1875 12.453125 C -0.046875 12.453125 -0.28125 12.40625 -0.515625 12.3125 Z M -0.515625 12.3125 "/></g></g></g><g fill="#ffffff" fill-opacity="1"><g transform="translate(46.829335, 91.115741)"><g><path d="M -0.140625 -6.675781 C 0.28125 -6.390625 0.753906 -6.25 1.269531 -6.25 C 3.007812 -6.25 5.027344 -8.273438 6.109375 -10.011719 C 5.96875 -7.800781 7.003906 -6.25 8.648438 -6.25 C 10.527344 -6.25 13.253906 -8.273438 16.261719 -13.769531 C 16.308594 -13.957031 16.355469 -14.101562 16.355469 -14.195312 C 16.355469 -14.570312 16.167969 -14.851562 15.839844 -15.039062 C 15.746094 -15.085938 15.605469 -15.132812 15.414062 -15.132812 C 15.039062 -15.132812 14.757812 -14.992188 14.570312 -14.664062 C 13.066406 -11.65625 10.292969 -8.179688 8.929688 -8.179688 C 8.414062 -8.179688 8.132812 -8.601562 8.132812 -9.871094 C 8.132812 -10.480469 8.179688 -11.234375 8.367188 -12.171875 C 8.507812 -13.160156 8.695312 -14.148438 9.023438 -15.039062 C 9.257812 -15.746094 8.835938 -16.355469 8.132812 -16.355469 C 7.800781 -16.355469 7.519531 -16.167969 7.285156 -15.792969 C 6.15625 -13.628906 4.324219 -10.058594 2.398438 -8.648438 C 1.972656 -8.320312 1.644531 -8.179688 1.316406 -8.179688 C 0.800781 -8.179688 0.5625 -8.554688 0.5625 -9.351562 C 0.5625 -11.796875 3.335938 -17.25 8.367188 -17.25 C 8.882812 -17.25 9.304688 -17.671875 9.304688 -18.1875 C 9.304688 -18.707031 8.882812 -19.128906 8.367188 -19.128906 C 2.492188 -19.128906 -1.269531 -13.160156 -1.269531 -9.351562 C -1.269531 -8.179688 -0.894531 -7.191406 -0.140625 -6.675781 Z M -0.140625 -6.675781 "/></g></g></g><g fill="#ffffff" fill-opacity="1"><g transform="translate(60.87946, 91.115741)"><g/></g></g><g fill="#ffffff" fill-opacity="1"><g transform="translate(70.277533, 91.115741)"><g><path d="M 9.070312 -1.691406 C 11.84375 -4.324219 12.878906 -8.414062 13.535156 -12.21875 C 15.179688 -12.738281 16.777344 -13.066406 18.425781 -13.394531 C 18.894531 -13.535156 19.128906 -13.816406 19.128906 -14.335938 L 19.128906 -14.523438 C 18.988281 -15.039062 18.707031 -15.273438 18.234375 -15.273438 C 18.09375 -15.273438 18.140625 -15.226562 18 -15.226562 C 16.636719 -14.898438 15.273438 -14.664062 13.816406 -14.242188 C 14.570312 -20.398438 14.664062 -25.757812 16.308594 -32.523438 C 16.449219 -33.039062 16.121094 -33.511719 15.605469 -33.652344 C 15.085938 -33.792969 14.617188 -33.464844 14.476562 -32.945312 C 12.972656 -26.929688 7.941406 -18.046875 4.042969 -18.046875 C 3.523438 -18.046875 3.007812 -18.1875 2.585938 -18.519531 C 2.113281 -18.847656 1.878906 -19.550781 1.878906 -20.539062 C 1.878906 -23.171875 3.382812 -27.355469 4.136719 -29.65625 C 4.277344 -30.175781 4.042969 -30.644531 3.523438 -30.832031 C 3.007812 -30.972656 2.492188 -30.738281 2.351562 -30.222656 C 1.082031 -26.507812 0 -23.125 0 -20.539062 C 0 -18.894531 0.421875 -17.71875 1.503906 -16.96875 C 2.351562 -16.402344 3.195312 -16.121094 4.042969 -16.121094 C 7.613281 -16.121094 10.808594 -20.539062 12.972656 -24.347656 C 12.550781 -20.585938 12.359375 -16.96875 11.84375 -13.628906 C 7.800781 -12.125 1.691406 -7.988281 1.691406 -3.617188 C 1.691406 -1.410156 3.289062 0 5.3125 0 C 6.484375 0 7.800781 -0.515625 9.070312 -1.691406 Z M 7.800781 -3.054688 C 6.957031 -2.257812 6.109375 -1.832031 5.3125 -1.832031 C 4.324219 -1.832031 3.617188 -2.585938 3.617188 -3.714844 C 3.617188 -5.640625 5.640625 -8.789062 11.46875 -11.421875 C 10.902344 -8.414062 10.011719 -5.171875 7.800781 -3.054688 Z M 7.800781 -3.054688 "/></g></g></g><g fill="#ffffff" fill-opacity="1"><g transform="translate(87.898934, 91.115741)"><g><path d="M -0.140625 -6.675781 C 0.28125 -6.390625 0.753906 -6.25 1.269531 -6.25 C 3.007812 -6.25 5.027344 -8.273438 6.109375 -10.011719 C 5.96875 -7.800781 7.003906 -6.25 8.648438 -6.25 C 10.527344 -6.25 13.253906 -8.273438 16.261719 -13.769531 C 16.308594 -13.957031 16.355469 -14.101562 16.355469 -14.195312 C 16.355469 -14.570312 16.167969 -14.851562 15.839844 -15.039062 C 15.746094 -15.085938 15.605469 -15.132812 15.414062 -15.132812 C 15.039062 -15.132812 14.757812 -14.992188 14.570312 -14.664062 C 13.066406 -11.65625 10.292969 -8.179688 8.929688 -8.179688 C 8.414062 -8.179688 8.132812 -8.601562 8.132812 -9.871094 C 8.132812 -10.480469 8.179688 -11.234375 8.367188 -12.171875 C 8.507812 -13.160156 8.695312 -14.148438 9.023438 -15.039062 C 9.257812 -15.746094 8.835938 -16.355469 8.132812 -16.355469 C 7.800781 -16.355469 7.519531 -16.167969 7.285156 -15.792969 C 6.15625 -13.628906 4.324219 -10.058594 2.398438 -8.648438 C 1.972656 -8.320312 1.644531 -8.179688 1.316406 -8.179688 C 0.800781 -8.179688 0.5625 -8.554688 0.5625 -9.351562 C 0.5625 -11.796875 3.335938 -17.25 8.367188 -17.25 C 8.882812 -17.25 9.304688 -17.671875 9.304688 -18.1875 C 9.304688 -18.707031 8.882812 -19.128906 8.367188 -19.128906 C 2.492188 -19.128906 -1.269531 -13.160156 -1.269531 -9.351562 C -1.269531 -8.179688 -0.894531 -7.191406 -0.140625 -6.675781 Z M -0.140625 -6.675781 "/></g></g></g><g fill="#ffffff" fill-opacity="1"><g transform="translate(101.949059, 91.115741)"><g><path d="M 4.277344 -6.34375 C 6.25 -6.34375 6.816406 -8.648438 7.191406 -10.152344 C 7.566406 -11.421875 7.847656 -12.359375 8.179688 -13.628906 C 9.023438 -13.113281 10.011719 -12.878906 11.140625 -12.878906 C 12.078125 -12.878906 13.066406 -13.066406 14.054688 -13.488281 C 14.476562 -13.628906 14.664062 -13.910156 14.664062 -14.335938 C 14.664062 -14.382812 14.617188 -14.523438 14.570312 -14.710938 C 14.429688 -15.085938 14.101562 -15.273438 13.675781 -15.273438 C 13.535156 -15.273438 13.394531 -15.273438 13.347656 -15.226562 C 12.597656 -14.898438 11.84375 -14.757812 11.140625 -14.757812 C 9.777344 -14.757812 8.742188 -15.320312 8.601562 -15.746094 C 8.601562 -15.886719 8.695312 -16.027344 8.695312 -16.261719 C 8.695312 -16.636719 8.554688 -17.015625 7.988281 -17.203125 C 7.472656 -17.34375 7.097656 -17.15625 6.863281 -16.636719 L 6.722656 -15.980469 C 6.4375 -14.054688 4.980469 -8.082031 4.230469 -8.226562 C 3.476562 -8.601562 2.445312 -12.125 2.445312 -15.792969 C 2.445312 -16.589844 2.492188 -17.390625 2.585938 -18.140625 C 2.632812 -18.707031 2.257812 -19.222656 1.644531 -19.222656 C 1.128906 -19.222656 0.800781 -18.941406 0.703125 -18.425781 C 0.609375 -17.765625 0.5625 -16.96875 0.5625 -16.027344 C 0.5625 -11.984375 1.503906 -6.34375 4.277344 -6.34375 Z M 4.277344 -6.34375 "/></g></g></g><g fill="#ffffff" fill-opacity="1"><g transform="translate(114.824439, 91.115741)"><g><path d="M 0.941406 -6.296875 C 1.363281 -6.296875 1.644531 -6.484375 1.785156 -6.910156 C 3.523438 -11.796875 5.59375 -16.921875 6.675781 -16.921875 C 6.863281 -16.921875 7.003906 -16.777344 7.144531 -16.449219 C 7.285156 -16.027344 7.378906 -15.464844 7.378906 -14.757812 C 7.378906 -13.019531 7.050781 -10.808594 9.070312 -9.539062 C 9.589844 -9.210938 10.152344 -9.023438 10.855469 -9.023438 C 13.347656 -9.023438 15.746094 -11.46875 17.15625 -13.769531 C 17.25 -13.910156 17.296875 -14.054688 17.296875 -14.242188 C 17.296875 -14.617188 17.15625 -14.898438 16.824219 -15.039062 C 16.683594 -15.132812 16.496094 -15.179688 16.308594 -15.179688 C 15.980469 -15.179688 15.699219 -15.039062 15.558594 -14.710938 C 14.664062 -13.160156 12.597656 -10.902344 10.949219 -10.902344 C 10.621094 -10.902344 10.339844 -10.996094 10.105469 -11.140625 C 9.023438 -11.84375 9.257812 -13.253906 9.257812 -14.804688 C 9.257812 -15.605469 9.210938 -16.449219 8.882812 -17.203125 C 8.460938 -18.28125 7.566406 -18.847656 6.578125 -18.847656 C 4.605469 -18.847656 3.523438 -16.355469 2.304688 -13.394531 C 2.492188 -15.226562 2.632812 -16.777344 2.820312 -18.09375 C 2.960938 -18.613281 2.539062 -19.128906 2.019531 -19.175781 C 1.503906 -19.316406 1.035156 -18.894531 0.988281 -18.375 C 0.46875 -14.757812 0.140625 -10.292969 0 -7.285156 C -0.046875 -6.769531 0.375 -6.296875 0.941406 -6.296875 Z M 0.941406 -6.296875 "/></g></g></g><g fill="#ffffff" fill-opacity="1"><g transform="translate(129.814367, 91.115741)"><g><path d="M 4.933594 -6.25 C 7.988281 -6.25 11.75 -7.988281 15.273438 -13.769531 C 15.367188 -13.910156 15.414062 -14.054688 15.414062 -14.242188 C 15.414062 -14.664062 15.273438 -14.898438 14.945312 -15.039062 C 14.804688 -15.132812 14.617188 -15.179688 14.476562 -15.179688 C 14.148438 -15.179688 13.863281 -15.039062 13.675781 -14.757812 C 12.03125 -11.984375 10.246094 -10.152344 8.367188 -9.070312 C 7.285156 -8.507812 6.015625 -8.132812 4.746094 -8.132812 C 3.007812 -8.132812 1.503906 -8.882812 1.503906 -10.902344 C 1.503906 -11.140625 1.550781 -11.375 1.597656 -11.703125 C 4.746094 -11.9375 8.460938 -14.242188 8.460938 -16.730469 C 8.460938 -18.09375 7.425781 -19.175781 5.921875 -19.175781 C 4.980469 -19.175781 3.855469 -18.753906 2.679688 -17.625 C 0.847656 -15.886719 -0.328125 -13.207031 -0.328125 -10.902344 C -0.328125 -8.414062 1.128906 -6.25 4.933594 -6.25 Z M 2.257812 -13.722656 C 3.523438 -16.355469 5.074219 -17.296875 5.96875 -17.296875 C 6.296875 -17.296875 6.484375 -17.203125 6.53125 -16.96875 C 6.769531 -15.886719 4.558594 -14.101562 2.257812 -13.722656 Z M 2.257812 -13.722656 "/></g></g></g><g clip-path="url(#93fc20f9f6)"><g fill="#ffffff" fill-opacity="1"><g transform="translate(142.877685, 91.115741)"><g><path d="M 4.277344 -6.25 C 7.191406 -6.25 10.386719 -11.28125 11.75 -13.769531 C 11.796875 -13.863281 11.84375 -14.007812 11.84375 -14.242188 C 11.84375 -14.617188 11.703125 -14.898438 11.375 -15.085938 C 11.1875 -15.132812 11.046875 -15.179688 10.949219 -15.179688 C 10.574219 -15.179688 10.292969 -14.992188 10.105469 -14.664062 C 8.367188 -11.5625 5.734375 -8.132812 4.324219 -8.132812 C 4.183594 -8.132812 4.089844 -8.179688 3.949219 -8.226562 C 3.335938 -8.601562 2.351562 -9.164062 2.351562 -13.488281 C 2.351562 -17.390625 3.148438 -23.546875 4.980469 -32.570312 C 5.074219 -33.183594 4.839844 -33.558594 4.230469 -33.699219 C 3.714844 -33.839844 3.289062 -33.464844 3.148438 -32.945312 C 2.019531 -27.261719 0.46875 -19.550781 0.46875 -13.910156 C 0.46875 -9.445312 1.410156 -6.25 4.277344 -6.25 Z M 4.277344 -6.25 "/></g></g></g></g></svg>