<svg xmlns="http://www.w3.org/2000/svg" xmlns:xlink="http://www.w3.org/1999/xlink" width="204" zoomAndPan="magnify" viewBox="0 0 153 153.000002" height="204" preserveAspectRatio="xMidYMid meet" version="1.0"><path fill="#ffffff" d="M 74.714844 9.390625 L 74.847656 9.390625 C 73.855469 9.390625 72.871094 9.390625 71.886719 9.441406 C 72.824219 9.410156 73.773438 9.390625 74.714844 9.390625 Z M 69.574219 142.84375 L 68.835938 142.84375 C 69.457031 142.84375 70.078125 142.84375 70.699219 142.84375 C 70.316406 142.828125 69.96875 142.84375 69.574219 142.84375 Z M 69.574219 142.84375 " fill-opacity="1" fill-rule="nonzero"/><path fill="#8dbddb" d="M 104.875 15.988281 C 137.285156 31.671875 151.757812 73.824219 132.96875 105.324219 C 114.457031 136.324219 75.957031 152.4375 43.558594 136.757812 C 11.160156 121.074219 0.488281 81.574219 13.808594 48.007812 C 27.632812 13.191406 72.476562 0.3125 104.875 15.988281 Z M 104.875 15.988281 " fill-opacity="1" fill-rule="nonzero"/><path fill="#a4cfea" d="M 104.105469 19.058594 C 75.933594 5.4375 36.9375 16.597656 24.929688 46.898438 C 13.34375 76.117188 22.621094 110.425781 50.792969 124.0625 C 78.964844 137.703125 112.464844 123.683594 128.53125 96.730469 C 144.84375 69.335938 132.277344 32.691406 104.105469 19.058594 Z M 104.105469 19.058594 " fill-opacity="1" fill-rule="nonzero"/><path fill="#b5dff4" d="M 104.921875 22.445312 C 83.09375 11.882812 52.871094 20.5625 43.566406 44.019531 C 34.585938 66.636719 41.773438 93.226562 63.609375 103.820312 C 85.441406 114.414062 111.40625 103.53125 123.851562 82.640625 C 136.5 61.414062 126.761719 33.011719 104.921875 22.445312 Z M 104.921875 22.445312 " fill-opacity="1" fill-rule="nonzero"/><path fill="#559ec6" d="M 49.949219 104.050781 L 50.613281 104.410156 C 50.871094 104.550781 51.117188 104.707031 51.355469 104.882812 C 51.695312 105.113281 52.023438 105.359375 52.339844 105.628906 C 53.195312 106.347656 53.9375 107.171875 54.558594 108.105469 C 55.394531 109.355469 55.988281 110.707031 56.34375 112.167969 C 56.757812 113.992188 56.757812 115.820312 56.34375 117.644531 C 56.300781 117.890625 56.210938 118.128906 56.144531 118.386719 L 56.035156 118.761719 L 55.972656 118.945312 C 55.972656 118.945312 55.972656 118.945312 55.972656 119.027344 L 55.972656 119.152344 C 55.804688 119.628906 55.601562 120.085938 55.359375 120.53125 C 54.832031 121.542969 54.171875 122.457031 53.375 123.277344 C 52.542969 124.132812 51.605469 124.84375 50.5625 125.417969 C 49.453125 126.027344 48.277344 126.449219 47.035156 126.679688 C 45.792969 126.910156 44.542969 126.941406 43.292969 126.773438 C 42.003906 126.589844 40.769531 126.226562 39.589844 125.679688 L 39.300781 125.523438 L 39.128906 125.425781 L 38.789062 125.230469 C 38.664062 125.15625 38.582031 125.128906 38.417969 125.015625 L 37.984375 124.71875 C 37.421875 124.351562 36.90625 123.933594 36.429688 123.460938 C 35.507812 122.5625 34.742188 121.546875 34.132812 120.410156 C 33.5625 119.300781 33.164062 118.132812 32.933594 116.90625 C 32.730469 115.726562 32.699219 114.539062 32.84375 113.351562 C 33.125 111.167969 33.941406 109.207031 35.296875 107.472656 C 35.898438 106.691406 36.589844 106.003906 37.375 105.40625 C 39.289062 103.902344 41.460938 103.066406 43.882812 102.898438 C 45.003906 102.8125 46.117188 102.886719 47.214844 103.121094 C 47.617188 103.203125 48.011719 103.3125 48.398438 103.441406 C 48.691406 103.523438 48.976562 103.628906 49.25 103.753906 Z M 49.949219 104.050781 L 49.242188 103.769531 C 48.964844 103.648438 48.679688 103.550781 48.386719 103.480469 C 47.996094 103.351562 47.597656 103.261719 47.191406 103.210938 C 46.101562 103.039062 45.011719 103.058594 43.929688 103.269531 C 42.542969 103.546875 41.28125 104.101562 40.136719 104.9375 C 39.519531 105.40625 38.964844 105.941406 38.480469 106.542969 C 37.976562 107.160156 37.558594 107.828125 37.226562 108.550781 C 37.144531 108.722656 37.058594 108.96875 36.976562 109.171875 L 36.84375 109.496094 L 36.777344 109.660156 C 36.777344 109.714844 36.777344 109.601562 36.777344 109.625 L 36.777344 109.757812 C 36.652344 110.15625 36.558594 110.558594 36.496094 110.96875 C 36.355469 111.796875 36.328125 112.625 36.414062 113.457031 C 36.496094 114.285156 36.683594 115.089844 36.96875 115.875 C 37.265625 116.640625 37.644531 117.367188 38.101562 118.054688 C 38.578125 118.714844 39.125 119.316406 39.738281 119.851562 C 40.0625 120.089844 40.375 120.375 40.648438 120.539062 L 40.863281 120.6875 C 40.914062 120.730469 41.078125 120.804688 41.171875 120.863281 L 41.527344 121.050781 L 41.699219 121.140625 L 41.789062 121.183594 L 41.832031 121.183594 L 41.742188 121.140625 C 42.480469 121.472656 43.246094 121.722656 44.039062 121.882812 C 44.839844 122.023438 45.648438 122.078125 46.460938 122.046875 C 47.269531 122.003906 48.0625 121.867188 48.84375 121.644531 C 49.628906 121.378906 50.367188 121.023438 51.066406 120.574219 C 51.75 120.125 52.371094 119.597656 52.921875 118.992188 C 53.226562 118.664062 53.5 118.3125 53.738281 117.933594 L 53.789062 117.867188 L 53.789062 117.828125 C 53.738281 117.933594 53.789062 117.828125 53.789062 117.828125 L 53.863281 117.695312 L 54.019531 117.429688 C 54.117188 117.25 54.242188 117.078125 54.324219 116.890625 C 54.664062 116.222656 54.917969 115.523438 55.089844 114.792969 C 55.261719 114.0625 55.34375 113.324219 55.335938 112.570312 C 55.332031 111.820312 55.234375 111.082031 55.050781 110.355469 C 54.867188 109.628906 54.601562 108.933594 54.25 108.269531 C 53.742188 107.285156 53.078125 106.414062 52.265625 105.664062 C 51.96875 105.386719 51.652344 105.140625 51.308594 104.921875 C 51.074219 104.742188 50.828125 104.578125 50.570312 104.429688 C 50.167969 104.183594 49.949219 104.050781 49.949219 104.050781 Z M 49.949219 104.050781 " fill-opacity="1" fill-rule="nonzero"/><path fill="#559ec6" d="M 30.421875 49.996094 L 30.859375 50.226562 C 31.269531 50.4375 31.652344 50.683594 32.015625 50.96875 C 32.578125 51.4375 33.070312 51.96875 33.496094 52.5625 C 34.097656 53.390625 34.539062 54.296875 34.820312 55.285156 C 35.160156 56.511719 35.222656 57.75 35.007812 59.003906 C 35.007812 59.183594 34.933594 59.347656 34.894531 59.515625 C 34.851562 59.707031 34.800781 59.894531 34.730469 60.074219 C 34.640625 60.402344 34.519531 60.722656 34.371094 61.027344 C 33.824219 62.191406 33.050781 63.171875 32.046875 63.96875 C 31.042969 64.765625 29.914062 65.296875 28.660156 65.558594 C 27.761719 65.746094 26.855469 65.785156 25.945312 65.675781 C 25.023438 65.5625 24.140625 65.316406 23.292969 64.933594 L 23.0625 64.816406 L 22.929688 64.6875 L 22.707031 64.5625 C 22.628906 64.507812 22.582031 64.496094 22.464844 64.414062 L 22.191406 64.210938 C 21.785156 63.941406 21.410156 63.632812 21.066406 63.289062 C 20.585938 62.828125 20.167969 62.316406 19.8125 61.75 C 19.460938 61.1875 19.175781 60.589844 18.964844 59.957031 C 18.757812 59.324219 18.625 58.675781 18.570312 58.011719 C 18.519531 57.347656 18.542969 56.6875 18.652344 56.027344 C 18.90625 54.511719 19.535156 53.175781 20.539062 52.019531 C 20.96875 51.5 21.460938 51.050781 22.019531 50.671875 C 22.503906 50.328125 23.019531 50.039062 23.566406 49.808594 C 25.207031 49.121094 26.890625 48.972656 28.625 49.371094 C 29.082031 49.464844 29.527344 49.605469 29.957031 49.785156 Z M 30.421875 49.996094 L 29.964844 49.808594 C 29.53125 49.640625 29.085938 49.523438 28.625 49.460938 C 27.910156 49.351562 27.207031 49.386719 26.507812 49.554688 C 25.089844 49.859375 23.960938 50.601562 23.121094 51.789062 C 22.839844 52.191406 22.617188 52.625 22.457031 53.089844 C 22.066406 54.082031 21.980469 55.101562 22.191406 56.148438 C 22.378906 57.097656 22.773438 57.953125 23.367188 58.714844 C 23.652344 59.0625 23.96875 59.382812 24.316406 59.671875 C 24.5 59.792969 24.679688 59.957031 24.796875 60.015625 L 24.890625 60.089844 C 24.890625 60.089844 25.035156 60.164062 25.09375 60.203125 L 25.320312 60.3125 L 25.433594 60.378906 L 25.492188 60.378906 L 25.386719 60.328125 C 25.792969 60.515625 26.214844 60.664062 26.648438 60.773438 C 27.085938 60.867188 27.53125 60.921875 27.980469 60.929688 C 28.945312 60.921875 29.859375 60.691406 30.71875 60.246094 C 31.152344 60.019531 31.550781 59.742188 31.917969 59.421875 C 32.128906 59.230469 32.316406 59.019531 32.480469 58.789062 C 32.527344 58.789062 32.621094 58.601562 32.6875 58.519531 C 32.753906 58.4375 32.84375 58.3125 32.902344 58.199219 C 33.238281 57.632812 33.472656 57.027344 33.605469 56.382812 C 33.734375 55.738281 33.753906 55.085938 33.664062 54.433594 C 33.570312 53.78125 33.375 53.160156 33.074219 52.578125 C 32.773438 51.992188 32.382812 51.472656 31.902344 51.019531 C 31.71875 50.828125 31.511719 50.65625 31.289062 50.507812 C 31.136719 50.386719 30.972656 50.28125 30.800781 50.1875 Z M 30.421875 49.996094 " fill-opacity="1" fill-rule="nonzero"/><path fill="#559ec6" d="M 90.039062 57.554688 L 90.410156 57.753906 C 90.765625 57.941406 91.097656 58.164062 91.410156 58.417969 C 91.90625 58.800781 92.34375 59.246094 92.726562 59.75 C 93.242188 60.445312 93.625 61.203125 93.882812 62.03125 C 94.199219 63.097656 94.277344 64.183594 94.117188 65.285156 C 94.117188 65.433594 94.058594 65.582031 94.03125 65.730469 C 93.996094 65.902344 93.949219 66.070312 93.890625 66.234375 C 93.816406 66.523438 93.71875 66.804688 93.59375 67.078125 C 93.300781 67.730469 92.917969 68.328125 92.453125 68.871094 C 91.410156 70.0625 90.117188 70.832031 88.574219 71.175781 C 86.90625 71.527344 85.304688 71.335938 83.769531 70.601562 L 83.5625 70.5 L 83.464844 70.4375 L 83.273438 70.335938 L 83.058594 70.199219 L 82.761719 70 C 82.398438 69.757812 82.058594 69.480469 81.746094 69.175781 C 81.167969 68.589844 80.695312 67.925781 80.324219 67.1875 C 79.980469 66.480469 79.75 65.734375 79.636719 64.957031 C 79.539062 64.210938 79.554688 63.464844 79.6875 62.722656 C 79.933594 61.390625 80.511719 60.222656 81.421875 59.21875 C 81.816406 58.769531 82.265625 58.382812 82.769531 58.058594 C 83.613281 57.492188 84.535156 57.117188 85.53125 56.933594 C 86.53125 56.753906 87.527344 56.78125 88.515625 57.019531 C 88.902344 57.105469 89.28125 57.226562 89.648438 57.382812 Z M 90.039062 57.554688 L 89.648438 57.398438 C 89.488281 57.335938 89.328125 57.28125 89.164062 57.242188 C 88.949219 57.171875 88.726562 57.125 88.5 57.097656 C 87.886719 57.019531 87.285156 57.054688 86.683594 57.203125 C 85.929688 57.390625 85.257812 57.742188 84.671875 58.261719 C 84.359375 58.539062 84.085938 58.855469 83.855469 59.203125 C 83.628906 59.550781 83.453125 59.921875 83.339844 60.320312 C 83.054688 61.152344 83.019531 61.992188 83.234375 62.84375 C 83.421875 63.601562 83.769531 64.277344 84.273438 64.875 C 84.5 65.140625 84.746094 65.390625 85.011719 65.617188 C 85.160156 65.707031 85.300781 65.832031 85.382812 65.871094 L 85.441406 65.914062 L 85.613281 66.011719 L 85.804688 66.117188 L 85.90625 66.160156 L 85.953125 66.160156 L 85.855469 66.109375 C 86.167969 66.253906 86.492188 66.375 86.824219 66.464844 C 87.171875 66.546875 87.523438 66.597656 87.878906 66.613281 C 88.652344 66.636719 89.390625 66.488281 90.097656 66.167969 C 90.457031 65.992188 90.796875 65.78125 91.113281 65.535156 C 91.300781 65.382812 91.464844 65.210938 91.609375 65.015625 C 91.746094 64.875 91.871094 64.71875 91.980469 64.554688 C 92.460938 63.832031 92.722656 63.035156 92.765625 62.164062 C 92.792969 61.386719 92.648438 60.640625 92.320312 59.933594 C 92.0625 59.371094 91.710938 58.878906 91.269531 58.445312 C 91.109375 58.28125 90.933594 58.132812 90.742188 58.007812 C 90.609375 57.902344 90.46875 57.808594 90.320312 57.730469 Z M 90.039062 57.554688 " fill-opacity="1" fill-rule="nonzero"/><path fill="#559ec6" d="M 74.238281 92.140625 L 74.527344 92.3125 C 74.8125 92.460938 75.078125 92.636719 75.328125 92.839844 C 75.484375 92.972656 75.675781 93.109375 75.859375 93.285156 C 76.046875 93.464844 76.222656 93.671875 76.421875 93.902344 C 76.625 94.132812 76.765625 94.425781 76.957031 94.714844 C 77.148438 95.003906 77.261719 95.363281 77.421875 95.734375 C 77.714844 96.613281 77.8125 97.511719 77.71875 98.433594 L 77.660156 98.820312 L 77.660156 99.117188 C 77.710938 99.023438 77.585938 99.261719 77.601562 99.238281 L 77.601562 99.3125 C 77.542969 99.511719 77.476562 99.722656 77.414062 99.9375 C 77.386719 100.050781 77.347656 100.160156 77.296875 100.265625 L 76.980469 100.667969 C 76.808594 100.957031 76.621094 101.238281 76.410156 101.5 C 75.53125 102.527344 74.441406 103.203125 73.136719 103.53125 C 71.707031 103.835938 70.332031 103.683594 69.003906 103.070312 L 68.753906 102.929688 L 68.679688 102.875 L 68.53125 102.785156 L 68.226562 102.59375 L 68.078125 102.496094 L 68.011719 102.445312 L 67.894531 102.347656 C 67.730469 102.214844 67.574219 102.074219 67.421875 101.929688 C 66.648438 101.21875 66.105469 100.355469 65.789062 99.351562 C 65.46875 98.347656 65.421875 97.328125 65.644531 96.300781 C 65.886719 95.167969 66.414062 94.191406 67.226562 93.367188 C 67.558594 93.042969 67.917969 92.746094 68.300781 92.484375 C 68.667969 92.265625 69.050781 92.074219 69.449219 91.917969 C 69.839844 91.804688 70.191406 91.710938 70.539062 91.640625 C 70.886719 91.574219 71.210938 91.574219 71.507812 91.558594 C 71.804688 91.546875 72.085938 91.605469 72.335938 91.613281 C 72.589844 91.621094 72.808594 91.714844 73.011719 91.753906 C 73.324219 91.820312 73.628906 91.925781 73.921875 92.058594 Z M 74.238281 92.140625 L 73.921875 92.027344 L 73.535156 91.902344 C 73.367188 91.832031 73.1875 91.796875 73.003906 91.796875 C 72.777344 91.785156 72.554688 91.785156 72.328125 91.796875 L 71.589844 91.933594 C 71.3125 92.027344 71.042969 92.140625 70.78125 92.265625 C 70.523438 92.4375 70.277344 92.621094 70.042969 92.824219 C 69.824219 93.054688 69.632812 93.300781 69.464844 93.570312 C 69.3125 93.871094 69.195312 94.179688 69.109375 94.507812 C 68.953125 95.140625 68.980469 95.769531 69.191406 96.386719 C 69.394531 96.902344 69.6875 97.359375 70.0625 97.765625 C 70.207031 97.902344 70.359375 98.023438 70.523438 98.128906 C 70.546875 98.140625 70.566406 98.160156 70.574219 98.1875 L 70.648438 98.234375 L 70.804688 98.316406 L 71.109375 98.492188 L 71.253906 98.582031 L 71.335938 98.636719 C 71.242188 98.582031 71.558594 98.761719 71.121094 98.523438 C 71.558594 98.703125 72.007812 98.835938 72.46875 98.925781 C 73.019531 98.964844 73.5625 98.90625 74.089844 98.746094 C 74.226562 98.703125 74.304688 98.664062 74.4375 98.628906 L 74.640625 98.574219 C 74.722656 98.515625 74.800781 98.445312 74.867188 98.367188 L 75.34375 97.914062 C 75.34375 97.914062 75.230469 98.113281 75.289062 98.019531 L 75.289062 97.972656 L 75.363281 97.875 L 75.519531 97.683594 C 75.734375 97.425781 75.90625 97.140625 76.03125 96.828125 C 76.140625 96.515625 76.21875 96.195312 76.269531 95.867188 C 76.289062 95.554688 76.289062 95.238281 76.269531 94.921875 C 76.203125 94.636719 76.117188 94.355469 76.015625 94.082031 C 75.882812 93.835938 75.773438 93.597656 75.640625 93.390625 C 75.5 93.210938 75.355469 93.042969 75.195312 92.882812 C 75.078125 92.742188 74.941406 92.625 74.789062 92.527344 C 74.648438 92.445312 74.535156 92.371094 74.4375 92.304688 Z M 74.238281 92.140625 " fill-opacity="1" fill-rule="nonzero"/><path fill="#559ec6" d="M 24.773438 81.167969 L 25.0625 81.339844 C 25.347656 81.480469 25.617188 81.65625 25.863281 81.859375 C 26.019531 82 26.21875 82.132812 26.402344 82.304688 C 26.589844 82.476562 26.757812 82.699219 26.957031 82.921875 C 27.15625 83.144531 27.296875 83.445312 27.5 83.742188 C 27.699219 84.039062 27.800781 84.386719 27.957031 84.761719 C 28.246094 85.636719 28.335938 86.53125 28.230469 87.445312 L 28.179688 87.832031 L 28.179688 88.128906 L 28.121094 88.25 L 28.121094 88.285156 C 28.0625 88.496094 28.003906 88.703125 27.933594 88.910156 C 27.910156 89.027344 27.871094 89.136719 27.824219 89.246094 L 27.582031 89.664062 C 27.414062 89.957031 27.226562 90.230469 27.011719 90.488281 C 26.121094 91.546875 25.007812 92.230469 23.671875 92.550781 C 22.246094 92.851562 20.871094 92.699219 19.546875 92.097656 L 19.289062 91.953125 L 19.25 91.953125 L 19.175781 91.902344 L 19.027344 91.8125 L 18.726562 91.621094 L 18.585938 91.523438 L 18.511719 91.472656 L 18.390625 91.375 C 18.230469 91.242188 18.082031 91.097656 17.925781 90.949219 C 17.375 90.4375 16.933594 89.84375 16.609375 89.164062 C 16.039062 87.9375 15.882812 86.65625 16.140625 85.324219 C 16.390625 84.183594 16.929688 83.199219 17.746094 82.371094 C 18.09375 82.039062 18.464844 81.738281 18.867188 81.472656 C 19.234375 81.25 19.621094 81.058594 20.019531 80.898438 C 20.414062 80.796875 20.761719 80.699219 21.109375 80.632812 L 22.070312 80.542969 C 22.375 80.542969 22.65625 80.59375 22.902344 80.601562 C 23.144531 80.609375 23.382812 80.707031 23.582031 80.742188 C 23.894531 80.8125 24.199219 80.910156 24.492188 81.039062 Z M 24.773438 81.167969 L 24.457031 81.046875 L 24.070312 80.921875 C 23.898438 80.859375 23.722656 80.824219 23.539062 80.824219 C 23.3125 80.8125 23.089844 80.8125 22.863281 80.824219 C 22.628906 80.824219 22.367188 80.914062 22.125 80.957031 C 21.847656 81.050781 21.578125 81.164062 21.316406 81.292969 C 21.058594 81.460938 20.808594 81.648438 20.574219 81.851562 C 20.355469 82.078125 20.164062 82.324219 20 82.59375 C 19.835938 82.902344 19.703125 83.222656 19.597656 83.554688 C 19.433594 84.191406 19.460938 84.824219 19.679688 85.445312 C 19.886719 85.957031 20.175781 86.414062 20.546875 86.820312 C 20.753906 86.96875 20.9375 87.179688 21.011719 87.179688 C 21.035156 87.199219 21.050781 87.21875 21.066406 87.246094 L 21.140625 87.289062 L 21.597656 87.558594 L 21.753906 87.648438 L 21.828125 87.691406 L 21.863281 87.691406 C 21.769531 87.640625 22.085938 87.8125 21.65625 87.574219 C 22.089844 87.753906 22.535156 87.890625 22.996094 87.972656 C 23.550781 88.015625 24.09375 87.957031 24.625 87.796875 L 24.964844 87.683594 L 25.167969 87.625 C 25.242188 87.625 25.328125 87.492188 25.402344 87.421875 L 25.878906 86.96875 C 25.863281 87.003906 25.84375 87.039062 25.824219 87.074219 L 25.824219 87.023438 L 25.898438 86.933594 L 26.054688 86.738281 C 26.269531 86.480469 26.441406 86.195312 26.566406 85.882812 C 26.679688 85.570312 26.761719 85.253906 26.808594 84.925781 C 26.816406 84.609375 26.804688 84.292969 26.765625 83.980469 C 26.703125 83.691406 26.621094 83.410156 26.519531 83.132812 C 26.386719 82.894531 26.269531 82.65625 26.144531 82.445312 C 26.019531 82.238281 25.832031 82.097656 25.699219 81.941406 C 25.582031 81.796875 25.441406 81.679688 25.285156 81.582031 L 24.945312 81.359375 Z M 24.773438 81.167969 " fill-opacity="1" fill-rule="nonzero"/><path fill="#559ec6" d="M 78.59375 22.726562 L 78.800781 22.847656 C 79.003906 22.949219 79.191406 23.066406 79.371094 23.203125 C 79.480469 23.300781 79.621094 23.390625 79.753906 23.515625 L 80.175781 23.941406 C 80.3125 24.105469 80.445312 24.289062 80.597656 24.5 C 80.753906 24.707031 80.851562 24.960938 80.984375 25.242188 C 81.25 25.890625 81.363281 26.5625 81.332031 27.257812 L 81.332031 27.757812 C 81.390625 27.660156 81.257812 27.898438 81.273438 27.875 L 81.273438 27.921875 L 81.183594 28.390625 C 81.171875 28.476562 81.148438 28.5625 81.117188 28.644531 L 80.949219 28.984375 C 80.824219 29.230469 80.679688 29.460938 80.511719 29.675781 C 79.851562 30.527344 79.007812 31.097656 77.972656 31.378906 C 76.828125 31.652344 75.722656 31.542969 74.652344 31.046875 L 74.402344 30.910156 L 74.351562 30.910156 L 74.246094 30.851562 L 74.039062 30.710938 L 73.9375 30.644531 L 73.882812 30.605469 L 73.78125 30.523438 C 73.648438 30.414062 73.519531 30.292969 73.394531 30.175781 C 72.945312 29.746094 72.59375 29.253906 72.335938 28.6875 C 71.90625 27.691406 71.816406 26.667969 72.070312 25.613281 C 72.300781 24.734375 72.753906 23.988281 73.433594 23.382812 C 73.71875 23.152344 74.019531 22.945312 74.335938 22.757812 C 74.621094 22.601562 74.921875 22.480469 75.230469 22.386719 C 75.527344 22.320312 75.800781 22.265625 76.046875 22.230469 L 76.785156 22.230469 L 77.378906 22.296875 C 77.550781 22.296875 77.710938 22.378906 77.851562 22.410156 C 78.070312 22.460938 78.285156 22.535156 78.488281 22.632812 Z M 78.59375 22.726562 L 78.371094 22.644531 C 78.164062 22.558594 77.945312 22.507812 77.71875 22.496094 C 77.5625 22.484375 77.410156 22.484375 77.253906 22.496094 C 77.082031 22.496094 76.898438 22.570312 76.710938 22.617188 C 76.523438 22.695312 76.34375 22.785156 76.171875 22.890625 C 75.996094 23.019531 75.835938 23.164062 75.691406 23.324219 C 75.554688 23.5 75.445312 23.695312 75.363281 23.902344 L 75.230469 24.566406 C 75.199219 24.992188 75.296875 25.378906 75.535156 25.734375 C 75.71875 25.980469 75.945312 26.179688 76.207031 26.335938 C 76.335938 26.382812 76.445312 26.46875 76.410156 26.382812 C 76.371094 26.292969 76.410156 26.382812 76.410156 26.382812 L 76.46875 26.382812 L 76.570312 26.441406 L 76.785156 26.566406 L 76.898438 26.625 L 76.949219 26.625 C 76.851562 26.574219 77.171875 26.753906 76.734375 26.515625 C 76.917969 26.589844 77.097656 26.679688 77.269531 26.78125 C 77.558594 26.894531 77.859375 26.949219 78.171875 26.9375 C 78.253906 26.9375 78.289062 26.9375 78.378906 26.9375 L 78.511719 26.9375 C 78.5625 26.9375 78.636719 26.851562 78.695312 26.8125 L 79.066406 26.523438 C 79.066406 26.523438 78.957031 26.730469 79.007812 26.625 L 79.066406 26.574219 L 79.191406 26.46875 C 79.558594 26.1875 79.808594 25.820312 79.941406 25.375 C 79.957031 25.160156 79.957031 24.945312 79.941406 24.730469 C 79.914062 24.523438 79.875 24.324219 79.816406 24.125 C 79.734375 23.957031 79.660156 23.785156 79.570312 23.628906 C 79.480469 23.503906 79.378906 23.382812 79.273438 23.269531 C 79.125 23.101562 78.949219 22.960938 78.75 22.855469 Z M 78.59375 22.726562 " fill-opacity="1" fill-rule="nonzero"/><path fill="#559ec6" d="M 74.328125 126.578125 L 74.558594 126.71875 C 74.777344 126.828125 74.988281 126.960938 75.179688 127.113281 C 75.304688 127.226562 75.460938 127.332031 75.609375 127.457031 C 75.757812 127.582031 75.890625 127.761719 76.0625 127.933594 C 76.230469 128.105469 76.347656 128.328125 76.511719 128.558594 C 76.675781 128.789062 76.777344 129.0625 76.917969 129.363281 C 77.183594 130.0625 77.292969 130.789062 77.246094 131.542969 L 77.246094 132.113281 C 77.304688 132.015625 77.179688 132.253906 77.1875 132.234375 L 77.1875 132.277344 L 77.074219 132.785156 C 77.058594 132.878906 77.035156 132.96875 77 133.058594 L 76.800781 133.421875 C 76.671875 133.6875 76.519531 133.933594 76.34375 134.167969 C 75.628906 135.066406 74.71875 135.660156 73.609375 135.953125 C 72.394531 136.234375 71.222656 136.113281 70.09375 135.589844 L 69.839844 135.453125 L 69.78125 135.417969 L 69.664062 135.34375 L 69.433594 135.195312 L 69.324219 135.121094 L 69.265625 135.121094 L 69.160156 135.03125 C 69.019531 134.917969 68.886719 134.792969 68.753906 134.664062 C 68.28125 134.222656 67.90625 133.707031 67.628906 133.117188 C 67.167969 132.066406 67.0625 130.980469 67.316406 129.859375 C 67.550781 128.921875 68.023438 128.121094 68.730469 127.464844 C 68.996094 127.191406 69.277344 126.9375 69.574219 126.707031 C 69.882812 126.535156 70.203125 126.394531 70.539062 126.28125 C 70.855469 126.207031 71.152344 126.148438 71.417969 126.101562 C 71.683594 126.058594 71.953125 126.101562 72.160156 126.101562 L 72.808594 126.164062 C 73.003906 126.164062 73.179688 126.25 73.335938 126.28125 C 73.589844 126.339844 73.835938 126.421875 74.078125 126.527344 Z M 74.328125 126.578125 L 74.082031 126.496094 C 73.847656 126.398438 73.601562 126.339844 73.34375 126.324219 C 73.171875 126.3125 73 126.3125 72.824219 126.324219 C 72.632812 126.324219 72.433594 126.398438 72.226562 126.445312 C 72.019531 126.488281 71.824219 126.636719 71.617188 126.734375 C 71.421875 126.878906 71.238281 127.035156 71.0625 127.203125 C 70.90625 127.394531 70.777344 127.601562 70.679688 127.828125 C 70.613281 128.066406 70.574219 128.179688 70.492188 128.574219 C 70.425781 129.050781 70.511719 129.5 70.746094 129.917969 C 70.945312 130.230469 71.191406 130.496094 71.484375 130.714844 C 71.632812 130.78125 71.757812 130.902344 71.75 130.835938 L 71.8125 130.871094 L 71.9375 130.929688 L 72.171875 131.074219 L 72.292969 131.140625 L 72.351562 131.175781 L 72.144531 131.066406 C 72.382812 131.148438 72.582031 131.257812 72.882812 131.363281 C 73.238281 131.460938 73.601562 131.484375 73.964844 131.4375 L 74.359375 131.4375 C 74.417969 131.4375 74.492188 131.339844 74.550781 131.296875 L 74.949219 130.960938 L 74.890625 131.074219 L 74.949219 131.011719 L 75.082031 130.878906 C 75.457031 130.519531 75.6875 130.082031 75.78125 129.570312 C 75.796875 129.320312 75.796875 129.074219 75.78125 128.824219 C 75.738281 128.601562 75.683594 128.382812 75.617188 128.164062 C 75.527344 127.96875 75.429688 127.792969 75.34375 127.621094 C 75.238281 127.484375 75.128906 127.351562 75.007812 127.226562 C 74.839844 127.042969 74.644531 126.890625 74.425781 126.773438 Z M 74.328125 126.578125 " fill-opacity="1" fill-rule="nonzero"/><path fill="#559ec6" d="M 53.351562 67.492188 L 53.839844 67.746094 C 53.996094 67.828125 54.183594 67.945312 54.40625 68.089844 C 54.660156 68.253906 54.90625 68.433594 55.144531 68.625 C 55.785156 69.132812 56.34375 69.722656 56.816406 70.394531 C 57.453125 71.304688 57.917969 72.296875 58.210938 73.371094 C 58.5625 74.71875 58.617188 76.082031 58.367188 77.453125 C 58.367188 77.640625 58.277344 77.820312 58.230469 78.003906 C 58.1875 78.214844 58.125 78.417969 58.046875 78.613281 C 57.941406 78.972656 57.804688 79.316406 57.632812 79.648438 C 57.242188 80.441406 56.75 81.160156 56.152344 81.808594 C 55.527344 82.472656 54.820312 83.035156 54.027344 83.488281 C 52.285156 84.484375 50.417969 84.855469 48.429688 84.613281 C 47.429688 84.476562 46.472656 84.191406 45.558594 83.761719 L 45.320312 83.636719 L 45.195312 83.570312 L 44.941406 83.429688 C 44.851562 83.367188 44.800781 83.355469 44.675781 83.273438 L 44.328125 83.035156 C 43.886719 82.753906 43.480469 82.429688 43.105469 82.066406 C 42.394531 81.367188 41.8125 80.574219 41.359375 79.6875 C 40.476562 77.964844 40.183594 76.148438 40.476562 74.234375 C 40.742188 72.582031 41.410156 71.121094 42.484375 69.84375 C 42.953125 69.269531 43.496094 68.773438 44.105469 68.355469 C 44.632812 67.976562 45.191406 67.652344 45.785156 67.386719 C 47.59375 66.605469 49.457031 66.429688 51.375 66.851562 C 51.667969 66.917969 51.953125 66.996094 52.234375 67.089844 C 52.449219 67.152344 52.65625 67.226562 52.855469 67.3125 Z M 53.351562 67.492188 L 52.851562 67.285156 C 52.648438 67.199219 52.441406 67.132812 52.226562 67.082031 C 51.945312 66.992188 51.65625 66.929688 51.363281 66.898438 C 50.464844 66.765625 49.578125 66.816406 48.703125 67.054688 C 47.828125 67.289062 47.035156 67.691406 46.328125 68.257812 C 45.898438 68.613281 45.519531 69.011719 45.1875 69.457031 C 44.859375 69.90625 44.597656 70.386719 44.402344 70.90625 C 43.953125 72.011719 43.828125 73.148438 44.023438 74.324219 C 44.210938 75.417969 44.640625 76.410156 45.304688 77.296875 C 45.632812 77.710938 45.996094 78.089844 46.394531 78.4375 C 46.617188 78.585938 46.824219 78.765625 46.972656 78.847656 L 47.089844 78.933594 L 47.320312 79.0625 L 47.570312 79.1875 L 47.695312 79.253906 L 47.753906 79.253906 C 47.710938 79.253906 47.882812 79.316406 47.660156 79.203125 C 48.136719 79.425781 48.628906 79.597656 49.140625 79.714844 C 49.65625 79.820312 50.175781 79.875 50.703125 79.871094 C 51.820312 79.871094 52.878906 79.609375 53.871094 79.089844 C 54.355469 78.8125 54.796875 78.484375 55.203125 78.101562 C 55.433594 77.875 55.640625 77.628906 55.820312 77.359375 C 55.878906 77.359375 55.972656 77.148438 56.046875 77.046875 C 56.121094 76.941406 56.210938 76.808594 56.277344 76.679688 C 56.851562 75.6875 57.140625 74.617188 57.152344 73.46875 C 57.144531 72.558594 56.960938 71.6875 56.597656 70.855469 C 56.234375 70.023438 55.722656 69.296875 55.0625 68.675781 C 54.855469 68.46875 54.625 68.28125 54.382812 68.117188 C 54.207031 67.984375 54.023438 67.863281 53.835938 67.753906 Z M 53.351562 67.492188 " fill-opacity="1" fill-rule="nonzero"/><path fill="#559ec6" d="M 58.121094 28.820312 L 58.75 29.15625 C 59.011719 29.285156 59.257812 29.433594 59.492188 29.601562 C 59.816406 29.8125 60.125 30.042969 60.421875 30.292969 C 61.242188 30.96875 61.953125 31.742188 62.546875 32.621094 C 63.34375 33.796875 63.914062 35.070312 64.257812 36.445312 C 64.664062 38.179688 64.679688 39.914062 64.304688 41.65625 C 64.257812 41.886719 64.175781 42.109375 64.117188 42.347656 L 64.015625 42.695312 L 63.957031 42.875 C 63.957031 42.832031 63.957031 42.957031 63.957031 42.949219 L 63.957031 43.023438 C 63.792969 43.472656 63.605469 43.910156 63.386719 44.332031 C 62.863281 45.316406 62.210938 46.203125 61.429688 46.996094 C 60.640625 47.808594 59.746094 48.492188 58.757812 49.042969 C 57.714844 49.605469 56.613281 50.003906 55.457031 50.238281 C 54.257812 50.460938 53.050781 50.496094 51.84375 50.34375 C 50.613281 50.1875 49.433594 49.847656 48.304688 49.332031 L 48.03125 49.191406 L 47.867188 49.09375 L 47.546875 48.914062 C 47.429688 48.839844 47.347656 48.8125 47.199219 48.707031 L 46.777344 48.425781 C 46.25 48.066406 45.757812 47.667969 45.296875 47.226562 C 43.527344 45.5 42.425781 43.417969 41.988281 40.976562 C 41.804688 39.851562 41.78125 38.722656 41.921875 37.59375 C 42.203125 35.519531 42.988281 33.664062 44.285156 32.027344 C 44.859375 31.289062 45.519531 30.644531 46.265625 30.085938 C 46.925781 29.582031 47.625 29.148438 48.371094 28.792969 C 49.65625 28.199219 51.003906 27.855469 52.414062 27.757812 C 53.46875 27.679688 54.515625 27.753906 55.550781 27.980469 C 55.929688 28.054688 56.300781 28.15625 56.664062 28.277344 C 56.941406 28.355469 57.207031 28.453125 57.46875 28.574219 C 57.898438 28.71875 58.121094 28.820312 58.121094 28.820312 Z M 58.121094 28.820312 L 57.460938 28.554688 C 57.199219 28.441406 56.929688 28.347656 56.65625 28.277344 C 56.28125 28.15625 55.898438 28.074219 55.507812 28.03125 C 54.332031 27.847656 53.167969 27.898438 52.011719 28.183594 C 50.855469 28.46875 49.800781 28.964844 48.84375 29.675781 C 48.265625 30.109375 47.742188 30.605469 47.28125 31.164062 C 46.816406 31.746094 46.4375 32.378906 46.132812 33.0625 C 46.054688 33.21875 45.980469 33.449219 45.898438 33.640625 L 45.773438 33.945312 L 45.71875 34.101562 C 45.71875 34.164062 45.71875 34.050781 45.71875 34.101562 L 45.71875 34.230469 C 45.613281 34.605469 45.527344 34.984375 45.46875 35.367188 C 45.351562 36.136719 45.332031 36.910156 45.417969 37.683594 C 45.503906 38.449219 45.6875 39.191406 45.957031 39.914062 C 46.234375 40.628906 46.589844 41.300781 47.023438 41.929688 C 47.464844 42.542969 47.972656 43.097656 48.539062 43.597656 C 48.835938 43.8125 49.132812 44.074219 49.382812 44.222656 L 49.570312 44.355469 C 49.667969 44.417969 49.769531 44.472656 49.875 44.519531 L 50.199219 44.699219 L 50.363281 44.78125 L 50.445312 44.824219 L 50.355469 44.78125 C 51.730469 45.449219 53.183594 45.738281 54.707031 45.648438 C 55.464844 45.597656 56.203125 45.460938 56.929688 45.242188 C 57.660156 44.996094 58.351562 44.671875 59.007812 44.265625 C 59.65625 43.847656 60.238281 43.351562 60.757812 42.777344 C 61.035156 42.476562 61.28125 42.148438 61.496094 41.796875 C 61.605469 41.65625 61.699219 41.507812 61.777344 41.351562 C 61.882812 41.1875 61.980469 41.023438 62.066406 40.851562 C 62.390625 40.226562 62.636719 39.570312 62.804688 38.886719 C 62.972656 38.203125 63.058594 37.507812 63.058594 36.804688 C 63.058594 36.097656 62.972656 35.40625 62.804688 34.71875 C 62.636719 34.035156 62.390625 33.382812 62.066406 32.757812 C 61.59375 31.824219 60.96875 31.007812 60.203125 30.300781 C 59.925781 30.027344 59.625 29.777344 59.304688 29.558594 C 59.070312 29.382812 58.824219 29.230469 58.566406 29.097656 Z M 58.121094 28.820312 " fill-opacity="1" fill-rule="nonzero"/></svg>