<svg xmlns="http://www.w3.org/2000/svg" xmlns:xlink="http://www.w3.org/1999/xlink" width="204" zoomAndPan="magnify" viewBox="0 0 153 153.000002" height="204" preserveAspectRatio="xMidYMid meet" version="1.0"><defs><clipPath id="db8d544414"><path d="M 32 27 L 124 27 L 124 123 L 32 123 Z M 32 27 " clip-rule="nonzero"/></clipPath><clipPath id="49e6bb229f"><path d="M 74.1875 27.96875 C 76.242188 27.890625 78.453125 28.394531 80.277344 30.175781 C 84.851562 34.742188 89.582031 30.871094 93.34375 31.800781 C 97.105469 32.769531 98.734375 36.675781 99.277344 38.84375 C 99.820312 41.011719 106.609375 39.464844 108.042969 41.785156 C 109.476562 44.109375 105.40625 52.816406 109.128906 53.980469 C 112.851562 55.140625 116.378906 54.484375 117.117188 56.300781 C 117.890625 58.121094 115.488281 60.328125 117.117188 61.644531 C 118.746094 62.960938 120.839844 63.230469 121.109375 65.359375 C 121.382812 67.488281 114.984375 68.609375 116.417969 71.9375 C 117.855469 75.269531 125.183594 75.808594 122.933594 80.996094 C 120.683594 86.183594 115.683594 82.507812 114.675781 88.117188 C 113.664062 93.730469 118.164062 96.867188 116.882812 99.769531 C 115.605469 102.671875 109.789062 101.125 107.265625 102.867188 C 104.707031 104.605469 106.917969 108.863281 103.816406 110.492188 C 100.714844 112.117188 93.925781 108.710938 91.949219 113.933594 C 89.972656 119.160156 86.945312 117.304688 83.496094 117.535156 C 80.042969 117.804688 80.277344 121.753906 76.671875 122.21875 C 73.0625 122.683594 74.03125 116.527344 68.992188 117.652344 C 63.949219 118.773438 62.476562 117.691406 61.234375 115.40625 C 59.996094 113.121094 58.210938 110.566406 52.9375 111.1875 C 47.625 111.804688 46.074219 105.808594 46.578125 103.097656 C 47.082031 100.386719 38.78125 100.234375 37.308594 97.253906 C 35.835938 94.234375 41.070312 88.96875 40.179688 86.917969 C 39.25 84.867188 33.199219 84.597656 33.355469 81.964844 C 33.507812 79.371094 36.765625 78.519531 36.457031 75.925781 C 36.03125 73.449219 29.4375 67.371094 33.390625 65.4375 C 37.308594 63.5 41.808594 64.121094 42.039062 59.980469 C 42.3125 55.875 37.621094 50.960938 41.1875 48.871094 C 44.753906 46.78125 48.4375 48.210938 49.71875 45.425781 C 51 42.636719 49.757812 39.230469 52.316406 38.804688 C 54.875 38.378906 58.597656 39.078125 60.460938 35.710938 C 62.359375 32.34375 62.59375 31.605469 64.53125 31.492188 C 67.089844 31.375 68.835938 28.164062 74.1875 27.96875 Z M 74.1875 27.96875 " clip-rule="evenodd"/></clipPath><linearGradient x1="11775.81106" gradientTransform="matrix(0.0109939, 0, 0, -0.0109732, -14.875955, -14.812119)" y1="-13198.324241" x2="4903.639763" gradientUnits="userSpaceOnUse" y2="-3286.368665" id="40c630bc21"><stop stop-opacity="1" stop-color="rgb(100%, 59.999084%, 100%)" offset="0"/><stop stop-opacity="1" stop-color="rgb(100%, 59.999084%, 100%)" offset="0.25"/><stop stop-opacity="1" stop-color="rgb(100%, 59.999084%, 100%)" offset="0.28125"/><stop stop-opacity="1" stop-color="rgb(100%, 59.999084%, 100%)" offset="0.296875"/><stop stop-opacity="1" stop-color="rgb(99.67804%, 59.999084%, 100%)" offset="0.300781"/><stop stop-opacity="1" stop-color="rgb(99.356079%, 59.999084%, 100%)" offset="0.304687"/><stop stop-opacity="1" stop-color="rgb(98.709106%, 59.999084%, 100%)" offset="0.308594"/><stop stop-opacity="1" stop-color="rgb(98.062134%, 59.999084%, 100%)" offset="0.3125"/><stop stop-opacity="1" stop-color="rgb(97.415161%, 59.999084%, 100%)" offset="0.316406"/><stop stop-opacity="1" stop-color="rgb(96.768188%, 59.999084%, 100%)" offset="0.320312"/><stop stop-opacity="1" stop-color="rgb(96.11969%, 59.999084%, 100%)" offset="0.324219"/><stop stop-opacity="1" stop-color="rgb(95.472717%, 59.999084%, 100%)" offset="0.328125"/><stop stop-opacity="1" stop-color="rgb(94.825745%, 59.999084%, 100%)" offset="0.332031"/><stop stop-opacity="1" stop-color="rgb(94.178772%, 59.999084%, 100%)" offset="0.335937"/><stop stop-opacity="1" stop-color="rgb(93.531799%, 59.999084%, 100%)" offset="0.339844"/><stop stop-opacity="1" stop-color="rgb(92.884827%, 59.999084%, 100%)" offset="0.34375"/><stop stop-opacity="1" stop-color="rgb(92.236328%, 59.999084%, 100%)" offset="0.347656"/><stop stop-opacity="1" stop-color="rgb(91.589355%, 59.999084%, 100%)" offset="0.351562"/><stop stop-opacity="1" stop-color="rgb(90.942383%, 59.999084%, 100%)" offset="0.355469"/><stop stop-opacity="1" stop-color="rgb(90.29541%, 59.999084%, 100%)" offset="0.359375"/><stop stop-opacity="1" stop-color="rgb(89.648438%, 59.999084%, 100%)" offset="0.363281"/><stop stop-opacity="1" stop-color="rgb(89.001465%, 59.999084%, 100%)" offset="0.367187"/><stop stop-opacity="1" stop-color="rgb(88.354492%, 59.999084%, 100%)" offset="0.371094"/><stop stop-opacity="1" stop-color="rgb(87.70752%, 59.999084%, 100%)" offset="0.375"/><stop stop-opacity="1" stop-color="rgb(87.059021%, 59.999084%, 100%)" offset="0.378906"/><stop stop-opacity="1" stop-color="rgb(86.412048%, 59.999084%, 100%)" offset="0.382812"/><stop stop-opacity="1" stop-color="rgb(85.765076%, 59.999084%, 100%)" offset="0.386719"/><stop stop-opacity="1" stop-color="rgb(85.118103%, 59.999084%, 100%)" offset="0.390625"/><stop stop-opacity="1" stop-color="rgb(84.47113%, 59.999084%, 100%)" offset="0.394531"/><stop stop-opacity="1" stop-color="rgb(83.824158%, 59.999084%, 100%)" offset="0.398438"/><stop stop-opacity="1" stop-color="rgb(83.175659%, 59.999084%, 100%)" offset="0.402344"/><stop stop-opacity="1" stop-color="rgb(82.528687%, 59.999084%, 100%)" offset="0.40625"/><stop stop-opacity="1" stop-color="rgb(81.881714%, 59.999084%, 100%)" offset="0.410156"/><stop stop-opacity="1" stop-color="rgb(81.234741%, 59.999084%, 100%)" offset="0.414062"/><stop stop-opacity="1" stop-color="rgb(80.587769%, 59.999084%, 100%)" offset="0.417969"/><stop stop-opacity="1" stop-color="rgb(79.940796%, 59.999084%, 100%)" offset="0.421875"/><stop stop-opacity="1" stop-color="rgb(79.293823%, 59.999084%, 100%)" offset="0.425781"/><stop stop-opacity="1" stop-color="rgb(78.646851%, 59.999084%, 100%)" offset="0.429688"/><stop stop-opacity="1" stop-color="rgb(77.998352%, 59.999084%, 100%)" offset="0.433594"/><stop stop-opacity="1" stop-color="rgb(77.351379%, 59.999084%, 100%)" offset="0.4375"/><stop stop-opacity="1" stop-color="rgb(76.704407%, 59.999084%, 100%)" offset="0.441406"/><stop stop-opacity="1" stop-color="rgb(76.057434%, 59.999084%, 100%)" offset="0.445312"/><stop stop-opacity="1" stop-color="rgb(75.410461%, 59.999084%, 100%)" offset="0.449219"/><stop stop-opacity="1" stop-color="rgb(74.763489%, 59.999084%, 100%)" offset="0.453125"/><stop stop-opacity="1" stop-color="rgb(74.11499%, 59.999084%, 100%)" offset="0.457031"/><stop stop-opacity="1" stop-color="rgb(73.468018%, 59.999084%, 100%)" offset="0.460937"/><stop stop-opacity="1" stop-color="rgb(72.821045%, 59.999084%, 100%)" offset="0.464844"/><stop stop-opacity="1" stop-color="rgb(72.174072%, 59.999084%, 100%)" offset="0.46875"/><stop stop-opacity="1" stop-color="rgb(71.5271%, 59.999084%, 100%)" offset="0.472656"/><stop stop-opacity="1" stop-color="rgb(70.880127%, 59.999084%, 100%)" offset="0.476562"/><stop stop-opacity="1" stop-color="rgb(70.233154%, 59.999084%, 100%)" offset="0.480469"/><stop stop-opacity="1" stop-color="rgb(69.586182%, 59.999084%, 100%)" offset="0.484375"/><stop stop-opacity="1" stop-color="rgb(68.937683%, 59.999084%, 100%)" offset="0.488281"/><stop stop-opacity="1" stop-color="rgb(68.29071%, 59.999084%, 100%)" offset="0.492188"/><stop stop-opacity="1" stop-color="rgb(67.643738%, 59.999084%, 100%)" offset="0.496094"/><stop stop-opacity="1" stop-color="rgb(66.996765%, 59.999084%, 100%)" offset="0.5"/><stop stop-opacity="1" stop-color="rgb(66.349792%, 59.999084%, 100%)" offset="0.503906"/><stop stop-opacity="1" stop-color="rgb(65.70282%, 59.999084%, 100%)" offset="0.507812"/><stop stop-opacity="1" stop-color="rgb(65.054321%, 59.999084%, 100%)" offset="0.511719"/><stop stop-opacity="1" stop-color="rgb(64.407349%, 59.999084%, 100%)" offset="0.515625"/><stop stop-opacity="1" stop-color="rgb(63.760376%, 59.999084%, 100%)" offset="0.519531"/><stop stop-opacity="1" stop-color="rgb(63.113403%, 59.999084%, 100%)" offset="0.523438"/><stop stop-opacity="1" stop-color="rgb(62.466431%, 59.999084%, 100%)" offset="0.527344"/><stop stop-opacity="1" stop-color="rgb(61.819458%, 59.999084%, 100%)" offset="0.53125"/><stop stop-opacity="1" stop-color="rgb(61.172485%, 59.999084%, 100%)" offset="0.535156"/><stop stop-opacity="1" stop-color="rgb(60.525513%, 59.999084%, 100%)" offset="0.539062"/><stop stop-opacity="1" stop-color="rgb(59.877014%, 59.999084%, 100%)" offset="0.542969"/><stop stop-opacity="1" stop-color="rgb(59.230042%, 59.999084%, 100%)" offset="0.546875"/><stop stop-opacity="1" stop-color="rgb(58.583069%, 59.999084%, 100%)" offset="0.550781"/><stop stop-opacity="1" stop-color="rgb(57.936096%, 59.999084%, 100%)" offset="0.554687"/><stop stop-opacity="1" stop-color="rgb(57.289124%, 59.999084%, 100%)" offset="0.558594"/><stop stop-opacity="1" stop-color="rgb(56.642151%, 59.999084%, 100%)" offset="0.5625"/><stop stop-opacity="1" stop-color="rgb(55.993652%, 59.999084%, 100%)" offset="0.566406"/><stop stop-opacity="1" stop-color="rgb(55.34668%, 59.999084%, 100%)" offset="0.570312"/><stop stop-opacity="1" stop-color="rgb(54.699707%, 59.999084%, 100%)" offset="0.574219"/><stop stop-opacity="1" stop-color="rgb(54.052734%, 59.999084%, 100%)" offset="0.578125"/><stop stop-opacity="1" stop-color="rgb(53.405762%, 59.999084%, 100%)" offset="0.582031"/><stop stop-opacity="1" stop-color="rgb(52.758789%, 59.999084%, 100%)" offset="0.585938"/><stop stop-opacity="1" stop-color="rgb(52.110291%, 59.999084%, 100%)" offset="0.589844"/><stop stop-opacity="1" stop-color="rgb(51.463318%, 59.999084%, 100%)" offset="0.59375"/><stop stop-opacity="1" stop-color="rgb(50.816345%, 59.999084%, 100%)" offset="0.597656"/><stop stop-opacity="1" stop-color="rgb(50.169373%, 59.999084%, 100%)" offset="0.601562"/><stop stop-opacity="1" stop-color="rgb(49.5224%, 59.999084%, 100%)" offset="0.605469"/><stop stop-opacity="1" stop-color="rgb(48.875427%, 59.999084%, 100%)" offset="0.609375"/><stop stop-opacity="1" stop-color="rgb(48.228455%, 59.999084%, 100%)" offset="0.613281"/><stop stop-opacity="1" stop-color="rgb(47.581482%, 59.999084%, 100%)" offset="0.617188"/><stop stop-opacity="1" stop-color="rgb(46.932983%, 59.999084%, 100%)" offset="0.621094"/><stop stop-opacity="1" stop-color="rgb(46.286011%, 59.999084%, 100%)" offset="0.625"/><stop stop-opacity="1" stop-color="rgb(45.639038%, 59.999084%, 100%)" offset="0.628906"/><stop stop-opacity="1" stop-color="rgb(44.992065%, 59.999084%, 100%)" offset="0.632812"/><stop stop-opacity="1" stop-color="rgb(44.345093%, 59.999084%, 100%)" offset="0.636719"/><stop stop-opacity="1" stop-color="rgb(43.69812%, 59.999084%, 100%)" offset="0.640625"/><stop stop-opacity="1" stop-color="rgb(43.049622%, 59.999084%, 100%)" offset="0.644531"/><stop stop-opacity="1" stop-color="rgb(42.402649%, 59.999084%, 100%)" offset="0.648437"/><stop stop-opacity="1" stop-color="rgb(41.755676%, 59.999084%, 100%)" offset="0.652344"/><stop stop-opacity="1" stop-color="rgb(41.108704%, 59.999084%, 100%)" offset="0.65625"/><stop stop-opacity="1" stop-color="rgb(40.553284%, 59.999084%, 100%)" offset="0.660156"/><stop stop-opacity="1" stop-color="rgb(39.99939%, 59.999084%, 100%)" offset="0.664062"/><stop stop-opacity="1" stop-color="rgb(39.99939%, 59.999084%, 100%)" offset="0.671875"/><stop stop-opacity="1" stop-color="rgb(39.99939%, 59.999084%, 100%)" offset="0.6875"/><stop stop-opacity="1" stop-color="rgb(39.99939%, 59.999084%, 100%)" offset="0.75"/><stop stop-opacity="1" stop-color="rgb(39.99939%, 59.999084%, 100%)" offset="1"/></linearGradient><clipPath id="f0d7d3f86e"><path d="M 40 36 L 115 36 L 115 114 L 40 114 Z M 40 36 " clip-rule="nonzero"/></clipPath><clipPath id="bb50229cfa"><path d="M 80.625 113.472656 C 78.957031 113.546875 77.175781 113.121094 75.699219 111.652344 C 71.976562 107.9375 68.140625 111.070312 65.113281 110.335938 C 62.050781 109.5625 60.730469 106.386719 60.265625 104.605469 C 59.800781 102.828125 54.292969 104.105469 53.132812 102.207031 C 51.96875 100.3125 55.304688 93.226562 52.277344 92.296875 C 49.253906 91.332031 46.382812 91.871094 45.761719 90.402344 C 45.144531 88.929688 47.082031 87.152344 45.761719 86.066406 C 44.445312 84.984375 42.738281 84.789062 42.542969 83.046875 C 42.351562 81.304688 47.507812 80.414062 46.34375 77.707031 C 45.179688 74.996094 39.210938 74.570312 41.03125 70.351562 C 42.855469 66.132812 46.925781 69.113281 47.742188 64.585938 C 48.554688 60.054688 44.910156 57.5 45.957031 55.140625 C 47.003906 52.78125 51.695312 54.019531 53.789062 52.625 C 55.847656 51.230469 54.0625 47.746094 56.621094 46.433594 C 59.140625 45.117188 64.648438 47.863281 66.277344 43.605469 C 67.90625 39.347656 70.347656 40.898438 73.140625 40.664062 C 75.972656 40.472656 75.738281 37.21875 78.6875 36.871094 C 81.632812 36.484375 80.859375 41.515625 84.929688 40.585938 C 89.039062 39.695312 90.242188 40.546875 91.210938 42.40625 C 92.21875 44.265625 93.65625 46.316406 97.960938 45.851562 C 102.265625 45.347656 103.542969 50.226562 103.117188 52.429688 C 102.691406 54.636719 109.4375 54.753906 110.640625 57.191406 C 111.84375 59.628906 107.578125 63.925781 108.3125 65.589844 C 109.050781 67.253906 113.976562 67.488281 113.859375 69.617188 C 113.742188 71.707031 111.066406 72.441406 111.339844 74.53125 C 111.570312 76.621094 116.921875 81.539062 113.742188 83.125 C 110.5625 84.710938 106.917969 84.207031 106.722656 87.539062 C 106.53125 90.867188 110.332031 94.851562 107.421875 96.554688 C 104.515625 98.257812 101.527344 97.097656 100.519531 99.382812 C 99.472656 101.664062 100.480469 104.414062 98.425781 104.761719 C 96.371094 105.109375 93.34375 104.570312 91.792969 107.277344 C 90.28125 109.988281 90.050781 110.605469 88.496094 110.722656 C 86.402344 110.722656 84.96875 113.316406 80.625 113.472656 Z M 80.625 113.472656 " clip-rule="evenodd"/></clipPath><linearGradient x1="5699.977682" gradientTransform="matrix(0.0109939, 0, 0, -0.0109732, -14.875955, -14.812119)" y1="-4133.611371" x2="11283.169468" gradientUnits="userSpaceOnUse" y2="-12186.519478" id="8aed0a13f6"><stop stop-opacity="1" stop-color="rgb(100%, 59.999084%, 100%)" offset="0"/><stop stop-opacity="1" stop-color="rgb(100%, 59.999084%, 100%)" offset="0.25"/><stop stop-opacity="1" stop-color="rgb(100%, 59.999084%, 100%)" offset="0.28125"/><stop stop-opacity="1" stop-color="rgb(100%, 59.999084%, 100%)" offset="0.296875"/><stop stop-opacity="1" stop-color="rgb(99.755859%, 59.999084%, 100%)" offset="0.300781"/><stop stop-opacity="1" stop-color="rgb(99.513245%, 59.999084%, 100%)" offset="0.304688"/><stop stop-opacity="1" stop-color="rgb(98.864746%, 59.999084%, 100%)" offset="0.308594"/><stop stop-opacity="1" stop-color="rgb(98.217773%, 59.999084%, 100%)" offset="0.3125"/><stop stop-opacity="1" stop-color="rgb(97.569275%, 59.999084%, 100%)" offset="0.316406"/><stop stop-opacity="1" stop-color="rgb(96.922302%, 59.999084%, 100%)" offset="0.320312"/><stop stop-opacity="1" stop-color="rgb(96.273804%, 59.999084%, 100%)" offset="0.324219"/><stop stop-opacity="1" stop-color="rgb(95.626831%, 59.999084%, 100%)" offset="0.328125"/><stop stop-opacity="1" stop-color="rgb(94.979858%, 59.999084%, 100%)" offset="0.332031"/><stop stop-opacity="1" stop-color="rgb(94.332886%, 59.999084%, 100%)" offset="0.335938"/><stop stop-opacity="1" stop-color="rgb(93.684387%, 59.999084%, 100%)" offset="0.339844"/><stop stop-opacity="1" stop-color="rgb(93.037415%, 59.999084%, 100%)" offset="0.34375"/><stop stop-opacity="1" stop-color="rgb(92.388916%, 59.999084%, 100%)" offset="0.347656"/><stop stop-opacity="1" stop-color="rgb(91.741943%, 59.999084%, 100%)" offset="0.351562"/><stop stop-opacity="1" stop-color="rgb(91.093445%, 59.999084%, 100%)" offset="0.355469"/><stop stop-opacity="1" stop-color="rgb(90.446472%, 59.999084%, 100%)" offset="0.359375"/><stop stop-opacity="1" stop-color="rgb(89.797974%, 59.999084%, 100%)" offset="0.363281"/><stop stop-opacity="1" stop-color="rgb(89.151001%, 59.999084%, 100%)" offset="0.367188"/><stop stop-opacity="1" stop-color="rgb(88.502502%, 59.999084%, 100%)" offset="0.371094"/><stop stop-opacity="1" stop-color="rgb(87.85553%, 59.999084%, 100%)" offset="0.375"/><stop stop-opacity="1" stop-color="rgb(87.207031%, 59.999084%, 100%)" offset="0.378906"/><stop stop-opacity="1" stop-color="rgb(86.560059%, 59.999084%, 100%)" offset="0.382812"/><stop stop-opacity="1" stop-color="rgb(85.91156%, 59.999084%, 100%)" offset="0.386719"/><stop stop-opacity="1" stop-color="rgb(85.264587%, 59.999084%, 100%)" offset="0.390625"/><stop stop-opacity="1" stop-color="rgb(84.617615%, 59.999084%, 100%)" offset="0.394531"/><stop stop-opacity="1" stop-color="rgb(83.970642%, 59.999084%, 100%)" offset="0.398438"/><stop stop-opacity="1" stop-color="rgb(83.322144%, 59.999084%, 100%)" offset="0.402344"/><stop stop-opacity="1" stop-color="rgb(82.675171%, 59.999084%, 100%)" offset="0.40625"/><stop stop-opacity="1" stop-color="rgb(82.026672%, 59.999084%, 100%)" offset="0.410156"/><stop stop-opacity="1" stop-color="rgb(81.3797%, 59.999084%, 100%)" offset="0.414062"/><stop stop-opacity="1" stop-color="rgb(80.731201%, 59.999084%, 100%)" offset="0.417969"/><stop stop-opacity="1" stop-color="rgb(80.084229%, 59.999084%, 100%)" offset="0.421875"/><stop stop-opacity="1" stop-color="rgb(79.43573%, 59.999084%, 100%)" offset="0.425781"/><stop stop-opacity="1" stop-color="rgb(78.788757%, 59.999084%, 100%)" offset="0.429688"/><stop stop-opacity="1" stop-color="rgb(78.140259%, 59.999084%, 100%)" offset="0.433594"/><stop stop-opacity="1" stop-color="rgb(77.493286%, 59.999084%, 100%)" offset="0.4375"/><stop stop-opacity="1" stop-color="rgb(76.844788%, 59.999084%, 100%)" offset="0.441406"/><stop stop-opacity="1" stop-color="rgb(76.197815%, 59.999084%, 100%)" offset="0.445312"/><stop stop-opacity="1" stop-color="rgb(75.550842%, 59.999084%, 100%)" offset="0.449219"/><stop stop-opacity="1" stop-color="rgb(74.90387%, 59.999084%, 100%)" offset="0.453125"/><stop stop-opacity="1" stop-color="rgb(74.255371%, 59.999084%, 100%)" offset="0.457031"/><stop stop-opacity="1" stop-color="rgb(73.608398%, 59.999084%, 100%)" offset="0.460938"/><stop stop-opacity="1" stop-color="rgb(72.9599%, 59.999084%, 100%)" offset="0.464844"/><stop stop-opacity="1" stop-color="rgb(72.312927%, 59.999084%, 100%)" offset="0.46875"/><stop stop-opacity="1" stop-color="rgb(71.664429%, 59.999084%, 100%)" offset="0.472656"/><stop stop-opacity="1" stop-color="rgb(71.017456%, 59.999084%, 100%)" offset="0.476562"/><stop stop-opacity="1" stop-color="rgb(70.368958%, 59.999084%, 100%)" offset="0.480469"/><stop stop-opacity="1" stop-color="rgb(69.721985%, 59.999084%, 100%)" offset="0.484375"/><stop stop-opacity="1" stop-color="rgb(69.073486%, 59.999084%, 100%)" offset="0.488281"/><stop stop-opacity="1" stop-color="rgb(68.426514%, 59.999084%, 100%)" offset="0.492188"/><stop stop-opacity="1" stop-color="rgb(67.778015%, 59.999084%, 100%)" offset="0.496094"/><stop stop-opacity="1" stop-color="rgb(67.131042%, 59.999084%, 100%)" offset="0.5"/><stop stop-opacity="1" stop-color="rgb(66.48407%, 59.999084%, 100%)" offset="0.503906"/><stop stop-opacity="1" stop-color="rgb(65.837097%, 59.999084%, 100%)" offset="0.507812"/><stop stop-opacity="1" stop-color="rgb(65.188599%, 59.999084%, 100%)" offset="0.511719"/><stop stop-opacity="1" stop-color="rgb(64.541626%, 59.999084%, 100%)" offset="0.515625"/><stop stop-opacity="1" stop-color="rgb(63.893127%, 59.999084%, 100%)" offset="0.519531"/><stop stop-opacity="1" stop-color="rgb(63.246155%, 59.999084%, 100%)" offset="0.523438"/><stop stop-opacity="1" stop-color="rgb(62.597656%, 59.999084%, 100%)" offset="0.527344"/><stop stop-opacity="1" stop-color="rgb(61.950684%, 59.999084%, 100%)" offset="0.53125"/><stop stop-opacity="1" stop-color="rgb(61.302185%, 59.999084%, 100%)" offset="0.535156"/><stop stop-opacity="1" stop-color="rgb(60.655212%, 59.999084%, 100%)" offset="0.539063"/><stop stop-opacity="1" stop-color="rgb(60.006714%, 59.999084%, 100%)" offset="0.542969"/><stop stop-opacity="1" stop-color="rgb(59.359741%, 59.999084%, 100%)" offset="0.546875"/><stop stop-opacity="1" stop-color="rgb(58.711243%, 59.999084%, 100%)" offset="0.550781"/><stop stop-opacity="1" stop-color="rgb(58.06427%, 59.999084%, 100%)" offset="0.554688"/><stop stop-opacity="1" stop-color="rgb(57.417297%, 59.999084%, 100%)" offset="0.558594"/><stop stop-opacity="1" stop-color="rgb(56.770325%, 59.999084%, 100%)" offset="0.5625"/><stop stop-opacity="1" stop-color="rgb(56.121826%, 59.999084%, 100%)" offset="0.566406"/><stop stop-opacity="1" stop-color="rgb(55.474854%, 59.999084%, 100%)" offset="0.570313"/><stop stop-opacity="1" stop-color="rgb(54.826355%, 59.999084%, 100%)" offset="0.574219"/><stop stop-opacity="1" stop-color="rgb(54.179382%, 59.999084%, 100%)" offset="0.578125"/><stop stop-opacity="1" stop-color="rgb(53.530884%, 59.999084%, 100%)" offset="0.582031"/><stop stop-opacity="1" stop-color="rgb(52.883911%, 59.999084%, 100%)" offset="0.585938"/><stop stop-opacity="1" stop-color="rgb(52.235413%, 59.999084%, 100%)" offset="0.589844"/><stop stop-opacity="1" stop-color="rgb(51.58844%, 59.999084%, 100%)" offset="0.59375"/><stop stop-opacity="1" stop-color="rgb(50.939941%, 59.999084%, 100%)" offset="0.597656"/><stop stop-opacity="1" stop-color="rgb(50.292969%, 59.999084%, 100%)" offset="0.601563"/><stop stop-opacity="1" stop-color="rgb(49.64447%, 59.999084%, 100%)" offset="0.605469"/><stop stop-opacity="1" stop-color="rgb(48.997498%, 59.999084%, 100%)" offset="0.609375"/><stop stop-opacity="1" stop-color="rgb(48.350525%, 59.999084%, 100%)" offset="0.613281"/><stop stop-opacity="1" stop-color="rgb(47.703552%, 59.999084%, 100%)" offset="0.617188"/><stop stop-opacity="1" stop-color="rgb(47.055054%, 59.999084%, 100%)" offset="0.621094"/><stop stop-opacity="1" stop-color="rgb(46.408081%, 59.999084%, 100%)" offset="0.625"/><stop stop-opacity="1" stop-color="rgb(45.759583%, 59.999084%, 100%)" offset="0.628906"/><stop stop-opacity="1" stop-color="rgb(45.11261%, 59.999084%, 100%)" offset="0.632813"/><stop stop-opacity="1" stop-color="rgb(44.464111%, 59.999084%, 100%)" offset="0.636719"/><stop stop-opacity="1" stop-color="rgb(43.817139%, 59.999084%, 100%)" offset="0.640625"/><stop stop-opacity="1" stop-color="rgb(43.16864%, 59.999084%, 100%)" offset="0.644531"/><stop stop-opacity="1" stop-color="rgb(42.521667%, 59.999084%, 100%)" offset="0.648438"/><stop stop-opacity="1" stop-color="rgb(41.873169%, 59.999084%, 100%)" offset="0.652344"/><stop stop-opacity="1" stop-color="rgb(41.226196%, 59.999084%, 100%)" offset="0.65625"/><stop stop-opacity="1" stop-color="rgb(40.612793%, 59.999084%, 100%)" offset="0.660156"/><stop stop-opacity="1" stop-color="rgb(39.99939%, 59.999084%, 100%)" offset="0.664063"/><stop stop-opacity="1" stop-color="rgb(39.99939%, 59.999084%, 100%)" offset="0.671875"/><stop stop-opacity="1" stop-color="rgb(39.99939%, 59.999084%, 100%)" offset="0.6875"/><stop stop-opacity="1" stop-color="rgb(39.99939%, 59.999084%, 100%)" offset="0.75"/><stop stop-opacity="1" stop-color="rgb(39.99939%, 59.999084%, 100%)" offset="1"/></linearGradient><clipPath id="a84443c1eb"><path d="M 5.472656 0 L 147.792969 0 L 147.792969 152 L 5.472656 152 Z M 5.472656 0 " clip-rule="nonzero"/></clipPath><clipPath id="5a1e98e089"><path d="M 25 21 L 130 21 L 130 129 L 25 129 Z M 25 21 " clip-rule="nonzero"/></clipPath><clipPath id="889e1dd93f"><path d="M 73.761719 21.582031 C 75.082031 21.542969 76.4375 21.699219 77.792969 22.164062 C 78.917969 22.589844 80.042969 23.246094 81.050781 24.253906 C 84.15625 27.347656 87.375 26.730469 90.320312 26.1875 C 92.105469 25.839844 93.8125 25.53125 95.4375 25.957031 C 97.300781 26.421875 98.734375 27.503906 99.820312 28.78125 C 101.332031 30.601562 102.1875 32.808594 102.535156 34.316406 C 102.730469 35.128906 104.550781 35.285156 106.492188 35.4375 C 108.855469 35.632812 111.339844 35.863281 112.308594 37.453125 C 113.082031 38.691406 112.695312 41.050781 112.269531 43.527344 C 111.726562 46.78125 111.183594 50.261719 113.160156 50.882812 C 114.75 51.386719 116.300781 51.578125 117.660156 51.734375 C 120.023438 52.042969 121.886719 52.277344 122.546875 53.863281 C 123.011719 54.984375 122.664062 56.109375 122.3125 57.152344 C 122.003906 58.121094 121.691406 59.050781 122.390625 59.589844 C 122.933594 60.015625 123.515625 60.367188 124.097656 60.675781 C 125.53125 61.488281 126.851562 62.222656 127.082031 64.160156 C 127.238281 65.550781 125.882812 66.441406 124.40625 67.449219 C 122.816406 68.496094 121.074219 69.695312 121.769531 71.359375 C 122.3125 72.597656 123.785156 73.488281 125.261719 74.417969 C 128.050781 76.15625 130.882812 77.898438 129.101562 82.003906 C 127.78125 85.097656 125.6875 85.601562 123.75 86.105469 C 122.003906 86.570312 120.414062 86.957031 119.871094 89.859375 C 119.289062 93.074219 120.414062 95.550781 121.382812 97.640625 C 122.3125 99.652344 123.050781 101.316406 122.273438 103.097656 C 121.304688 105.304688 118.589844 105.535156 115.875 105.808594 C 114.09375 105.960938 112.308594 106.117188 111.222656 106.851562 C 110.097656 107.625 109.941406 109.019531 109.789062 110.453125 C 109.59375 112.386719 109.398438 114.324219 107.265625 115.445312 C 105.832031 116.179688 103.933594 116.101562 101.914062 115.988281 C 98.8125 115.832031 95.476562 115.675781 94.199219 119.007812 C 92.335938 123.921875 89.738281 123.726562 86.753906 123.535156 C 85.9375 123.457031 85.046875 123.417969 84.191406 123.457031 C 82.527344 123.574219 81.710938 124.65625 80.859375 125.742188 C 79.851562 127.058594 78.84375 128.410156 76.554688 128.683594 C 74.34375 128.953125 73.453125 127.519531 72.519531 125.972656 C 71.628906 124.503906 70.660156 122.914062 67.984375 123.535156 C 65.035156 124.191406 63.097656 124.191406 61.703125 123.6875 C 60.226562 123.148438 59.375 122.140625 58.636719 120.710938 C 57.980469 119.507812 57.203125 118.191406 55.882812 117.339844 C 54.566406 116.453125 52.703125 115.988281 49.914062 116.296875 C 49.136719 116.375 48.4375 116.375 47.78125 116.21875 C 45.917969 115.871094 44.5625 114.75 43.628906 113.355469 C 42.738281 112 42.234375 110.375 42.039062 108.902344 C 41.925781 108.011719 41.960938 107.160156 42.078125 106.464844 C 42.273438 105.421875 40.179688 104.683594 37.851562 103.910156 C 35.332031 103.058594 32.617188 102.128906 31.726562 100.273438 C 30.679688 98.144531 32.152344 95.316406 33.46875 92.800781 C 34.402344 91.019531 35.253906 89.394531 34.945312 88.660156 C 34.59375 87.886719 33.121094 87.304688 31.609375 86.6875 C 29.359375 85.796875 27.070312 84.90625 27.226562 82.816406 C 27.304688 81.230469 28.273438 80.183594 29.203125 79.175781 C 30.058594 78.25 30.871094 77.359375 30.714844 76.121094 C 30.601562 75.269531 29.707031 73.875 28.777344 72.402344 C 28.078125 71.359375 27.382812 70.234375 26.839844 69.152344 C 25.714844 66.867188 25.402344 64.777344 27.730469 63.617188 C 29.164062 62.921875 30.640625 62.496094 31.996094 62.109375 C 34.710938 61.371094 36.921875 60.753906 37.117188 58.003906 C 37.230469 56.300781 36.496094 54.445312 35.835938 52.664062 C 34.671875 49.566406 33.585938 46.78125 36.457031 45.078125 C 38.277344 43.992188 40.101562 43.722656 41.730469 43.453125 C 43.589844 43.179688 45.105469 42.910156 45.761719 41.4375 C 46.265625 40.316406 46.421875 39.039062 46.539062 37.917969 C 46.769531 35.789062 46.925781 34.007812 49.175781 33.660156 C 49.835938 33.542969 50.53125 33.503906 51.230469 33.464844 C 53.636719 33.308594 56.386719 33.15625 57.902344 30.484375 L 58.40625 29.59375 C 60.226562 26.34375 60.65625 25.53125 62.980469 25.414062 C 63.988281 25.375 64.957031 24.757812 66.082031 24.058594 C 67.789062 23.089844 70 21.738281 73.761719 21.582031 Z M 77.367188 23.324219 C 76.203125 22.898438 74.964844 22.78125 73.800781 22.820312 C 70.386719 22.9375 68.332031 24.214844 66.625 25.257812 C 65.347656 26.035156 64.261719 26.730469 62.941406 26.769531 C 61.273438 26.847656 60.925781 27.542969 59.375 30.328125 L 58.871094 31.21875 C 57.046875 34.472656 53.945312 34.664062 51.230469 34.820312 C 50.53125 34.859375 49.875 34.898438 49.292969 35.011719 C 48.011719 35.207031 47.855469 36.5625 47.703125 38.1875 C 47.585938 39.425781 47.429688 40.78125 46.847656 42.097656 C 45.917969 44.1875 44.09375 44.457031 41.886719 44.804688 C 40.371094 45.039062 38.707031 45.308594 37.039062 46.277344 C 35.058594 47.4375 35.953125 49.800781 36.921875 52.390625 C 37.660156 54.289062 38.433594 56.300781 38.277344 58.238281 C 38.046875 61.835938 35.449219 62.570312 32.269531 63.460938 C 30.949219 63.8125 29.554688 64.238281 28.195312 64.855469 C 26.722656 65.589844 27.03125 67.101562 27.847656 68.765625 C 28.351562 69.773438 29.050781 70.855469 29.707031 71.902344 C 30.753906 73.527344 31.726562 74.996094 31.839844 76.15625 C 32.035156 77.9375 31.027344 79.0625 30.019531 80.183594 C 29.242188 81.035156 28.429688 81.886719 28.351562 83.085938 C 28.273438 84.285156 30.136719 85.023438 31.996094 85.757812 C 33.742188 86.453125 35.410156 87.113281 35.992188 88.351562 C 36.574219 89.628906 35.601562 91.523438 34.515625 93.574219 C 33.316406 95.820312 31.996094 98.335938 32.8125 99.921875 C 33.507812 101.316406 35.953125 102.167969 38.238281 102.941406 C 41.070312 103.910156 43.667969 104.800781 43.28125 106.890625 C 43.164062 107.472656 43.164062 108.167969 43.242188 108.941406 C 43.398438 110.21875 43.824219 111.691406 44.636719 112.851562 C 45.414062 114.011719 46.5 114.902344 47.972656 115.175781 C 48.515625 115.289062 49.097656 115.289062 49.757812 115.210938 C 52.898438 114.863281 55.03125 115.445312 56.542969 116.453125 C 58.054688 117.457031 58.949219 118.890625 59.683594 120.246094 C 60.304688 121.40625 60.964844 122.257812 62.089844 122.644531 C 63.292969 123.070312 64.996094 123.03125 67.710938 122.449219 C 71.242188 121.675781 72.441406 123.613281 73.566406 125.46875 C 74.304688 126.667969 74.964844 127.792969 76.4375 127.597656 C 78.222656 127.367188 79.074219 126.242188 79.925781 125.121094 C 80.9375 123.804688 81.90625 122.488281 84.15625 122.335938 C 85.125 122.257812 86.015625 122.335938 86.90625 122.410156 C 89.429688 122.605469 91.601562 122.761719 93.152344 118.695312 C 94.742188 114.554688 98.542969 114.75 102.070312 114.902344 C 103.894531 114.980469 105.636719 115.058594 106.761719 114.476562 C 108.3125 113.664062 108.46875 112.039062 108.664062 110.453125 C 108.855469 108.75 109.011719 107.046875 110.601562 105.960938 C 111.960938 105.03125 113.898438 104.878906 115.796875 104.722656 C 118.164062 104.53125 120.492188 104.296875 121.1875 102.75 C 121.730469 101.472656 121.074219 100.039062 120.296875 98.296875 C 119.25 96.054688 118.046875 93.382812 118.707031 89.78125 C 119.367188 86.144531 121.34375 85.640625 123.476562 85.058594 C 125.144531 84.632812 126.929688 84.171875 128.015625 81.65625 C 129.371094 78.519531 127.003906 77.046875 124.640625 75.578125 C 123.011719 74.570312 121.34375 73.527344 120.683594 71.976562 C 119.558594 69.382812 121.769531 67.914062 123.75 66.558594 C 124.910156 65.785156 125.957031 65.089844 125.882812 64.429688 C 125.726562 63.074219 124.679688 62.496094 123.515625 61.875 C 122.894531 61.527344 122.234375 61.179688 121.652344 60.675781 C 120.335938 59.589844 120.761719 58.277344 121.1875 56.882812 C 121.460938 56.03125 121.769531 55.140625 121.460938 54.40625 C 121.074219 53.476562 119.558594 53.28125 117.582031 53.050781 C 116.1875 52.855469 114.558594 52.664062 112.890625 52.160156 C 109.902344 51.230469 110.5625 47.167969 111.183594 43.453125 C 111.53125 41.207031 111.882812 39.078125 111.378906 38.1875 C 110.71875 37.140625 108.546875 36.949219 106.492188 36.753906 C 104.125 36.5625 101.875 36.328125 101.449219 34.703125 C 101.101562 33.308594 100.324219 31.296875 98.96875 29.671875 C 98.039062 28.550781 96.796875 27.621094 95.207031 27.234375 C 93.847656 26.886719 92.257812 27.195312 90.628906 27.503906 C 87.375 28.125 83.804688 28.78125 80.277344 25.257812 C 79.308594 24.253906 78.335938 23.671875 77.367188 23.324219 Z M 77.367188 23.324219 " clip-rule="nonzero"/></clipPath><linearGradient x1="12199.223075" gradientTransform="matrix(0.0109939, 0, 0, -0.0109732, -14.875955, -14.812119)" y1="-13835.012182" x2="4506.591682" gradientUnits="userSpaceOnUse" y2="-2729.369779" id="c84d398198"><stop stop-opacity="1" stop-color="rgb(100%, 59.999084%, 100%)" offset="0"/><stop stop-opacity="1" stop-color="rgb(100%, 59.999084%, 100%)" offset="0.25"/><stop stop-opacity="1" stop-color="rgb(100%, 59.999084%, 100%)" offset="0.28125"/><stop stop-opacity="1" stop-color="rgb(100%, 59.999084%, 100%)" offset="0.296875"/><stop stop-opacity="1" stop-color="rgb(99.710083%, 59.999084%, 100%)" offset="0.300781"/><stop stop-opacity="1" stop-color="rgb(99.421692%, 59.999084%, 100%)" offset="0.304688"/><stop stop-opacity="1" stop-color="rgb(98.782349%, 59.999084%, 100%)" offset="0.308594"/><stop stop-opacity="1" stop-color="rgb(98.144531%, 59.999084%, 100%)" offset="0.3125"/><stop stop-opacity="1" stop-color="rgb(97.506714%, 59.999084%, 100%)" offset="0.316406"/><stop stop-opacity="1" stop-color="rgb(96.868896%, 59.999084%, 100%)" offset="0.320312"/><stop stop-opacity="1" stop-color="rgb(96.229553%, 59.999084%, 100%)" offset="0.324219"/><stop stop-opacity="1" stop-color="rgb(95.591736%, 59.999084%, 100%)" offset="0.328125"/><stop stop-opacity="1" stop-color="rgb(94.952393%, 59.999084%, 100%)" offset="0.332031"/><stop stop-opacity="1" stop-color="rgb(94.314575%, 59.999084%, 100%)" offset="0.335938"/><stop stop-opacity="1" stop-color="rgb(93.676758%, 59.999084%, 100%)" offset="0.339844"/><stop stop-opacity="1" stop-color="rgb(93.03894%, 59.999084%, 100%)" offset="0.34375"/><stop stop-opacity="1" stop-color="rgb(92.399597%, 59.999084%, 100%)" offset="0.347656"/><stop stop-opacity="1" stop-color="rgb(91.76178%, 59.999084%, 100%)" offset="0.351562"/><stop stop-opacity="1" stop-color="rgb(91.122437%, 59.999084%, 100%)" offset="0.355469"/><stop stop-opacity="1" stop-color="rgb(90.484619%, 59.999084%, 100%)" offset="0.359375"/><stop stop-opacity="1" stop-color="rgb(89.846802%, 59.999084%, 100%)" offset="0.363281"/><stop stop-opacity="1" stop-color="rgb(89.208984%, 59.999084%, 100%)" offset="0.367188"/><stop stop-opacity="1" stop-color="rgb(88.569641%, 59.999084%, 100%)" offset="0.371094"/><stop stop-opacity="1" stop-color="rgb(87.931824%, 59.999084%, 100%)" offset="0.375"/><stop stop-opacity="1" stop-color="rgb(87.29248%, 59.999084%, 100%)" offset="0.378906"/><stop stop-opacity="1" stop-color="rgb(86.654663%, 59.999084%, 100%)" offset="0.382812"/><stop stop-opacity="1" stop-color="rgb(86.016846%, 59.999084%, 100%)" offset="0.386719"/><stop stop-opacity="1" stop-color="rgb(85.379028%, 59.999084%, 100%)" offset="0.390625"/><stop stop-opacity="1" stop-color="rgb(84.739685%, 59.999084%, 100%)" offset="0.394531"/><stop stop-opacity="1" stop-color="rgb(84.101868%, 59.999084%, 100%)" offset="0.398438"/><stop stop-opacity="1" stop-color="rgb(83.462524%, 59.999084%, 100%)" offset="0.402344"/><stop stop-opacity="1" stop-color="rgb(82.824707%, 59.999084%, 100%)" offset="0.40625"/><stop stop-opacity="1" stop-color="rgb(82.18689%, 59.999084%, 100%)" offset="0.410156"/><stop stop-opacity="1" stop-color="rgb(81.549072%, 59.999084%, 100%)" offset="0.414063"/><stop stop-opacity="1" stop-color="rgb(80.909729%, 59.999084%, 100%)" offset="0.417969"/><stop stop-opacity="1" stop-color="rgb(80.271912%, 59.999084%, 100%)" offset="0.421875"/><stop stop-opacity="1" stop-color="rgb(79.632568%, 59.999084%, 100%)" offset="0.425781"/><stop stop-opacity="1" stop-color="rgb(78.994751%, 59.999084%, 100%)" offset="0.429688"/><stop stop-opacity="1" stop-color="rgb(78.356934%, 59.999084%, 100%)" offset="0.433594"/><stop stop-opacity="1" stop-color="rgb(77.719116%, 59.999084%, 100%)" offset="0.4375"/><stop stop-opacity="1" stop-color="rgb(77.079773%, 59.999084%, 100%)" offset="0.441406"/><stop stop-opacity="1" stop-color="rgb(76.441956%, 59.999084%, 100%)" offset="0.445312"/><stop stop-opacity="1" stop-color="rgb(75.802612%, 59.999084%, 100%)" offset="0.449219"/><stop stop-opacity="1" stop-color="rgb(75.164795%, 59.999084%, 100%)" offset="0.453125"/><stop stop-opacity="1" stop-color="rgb(74.526978%, 59.999084%, 100%)" offset="0.457031"/><stop stop-opacity="1" stop-color="rgb(73.88916%, 59.999084%, 100%)" offset="0.460938"/><stop stop-opacity="1" stop-color="rgb(73.249817%, 59.999084%, 100%)" offset="0.464844"/><stop stop-opacity="1" stop-color="rgb(72.612%, 59.999084%, 100%)" offset="0.46875"/><stop stop-opacity="1" stop-color="rgb(71.974182%, 59.999084%, 100%)" offset="0.472656"/><stop stop-opacity="1" stop-color="rgb(71.336365%, 59.999084%, 100%)" offset="0.476563"/><stop stop-opacity="1" stop-color="rgb(70.697021%, 59.999084%, 100%)" offset="0.480469"/><stop stop-opacity="1" stop-color="rgb(70.059204%, 59.999084%, 100%)" offset="0.484375"/><stop stop-opacity="1" stop-color="rgb(69.419861%, 59.999084%, 100%)" offset="0.488281"/><stop stop-opacity="1" stop-color="rgb(68.782043%, 59.999084%, 100%)" offset="0.492188"/><stop stop-opacity="1" stop-color="rgb(68.144226%, 59.999084%, 100%)" offset="0.496094"/><stop stop-opacity="1" stop-color="rgb(67.506409%, 59.999084%, 100%)" offset="0.5"/><stop stop-opacity="1" stop-color="rgb(66.867065%, 59.999084%, 100%)" offset="0.503906"/><stop stop-opacity="1" stop-color="rgb(66.229248%, 59.999084%, 100%)" offset="0.507813"/><stop stop-opacity="1" stop-color="rgb(65.589905%, 59.999084%, 100%)" offset="0.511719"/><stop stop-opacity="1" stop-color="rgb(64.952087%, 59.999084%, 100%)" offset="0.515625"/><stop stop-opacity="1" stop-color="rgb(64.31427%, 59.999084%, 100%)" offset="0.519531"/><stop stop-opacity="1" stop-color="rgb(63.676453%, 59.999084%, 100%)" offset="0.523438"/><stop stop-opacity="1" stop-color="rgb(63.037109%, 59.999084%, 100%)" offset="0.527344"/><stop stop-opacity="1" stop-color="rgb(62.399292%, 59.999084%, 100%)" offset="0.53125"/><stop stop-opacity="1" stop-color="rgb(61.759949%, 59.999084%, 100%)" offset="0.535156"/><stop stop-opacity="1" stop-color="rgb(61.122131%, 59.999084%, 100%)" offset="0.539062"/><stop stop-opacity="1" stop-color="rgb(60.484314%, 59.999084%, 100%)" offset="0.542969"/><stop stop-opacity="1" stop-color="rgb(59.846497%, 59.999084%, 100%)" offset="0.546875"/><stop stop-opacity="1" stop-color="rgb(59.207153%, 59.999084%, 100%)" offset="0.550781"/><stop stop-opacity="1" stop-color="rgb(58.569336%, 59.999084%, 100%)" offset="0.554688"/><stop stop-opacity="1" stop-color="rgb(57.929993%, 59.999084%, 100%)" offset="0.558594"/><stop stop-opacity="1" stop-color="rgb(57.292175%, 59.999084%, 100%)" offset="0.5625"/><stop stop-opacity="1" stop-color="rgb(56.654358%, 59.999084%, 100%)" offset="0.566406"/><stop stop-opacity="1" stop-color="rgb(56.016541%, 59.999084%, 100%)" offset="0.570312"/><stop stop-opacity="1" stop-color="rgb(55.377197%, 59.999084%, 100%)" offset="0.574219"/><stop stop-opacity="1" stop-color="rgb(54.73938%, 59.999084%, 100%)" offset="0.578125"/><stop stop-opacity="1" stop-color="rgb(54.100037%, 59.999084%, 100%)" offset="0.582031"/><stop stop-opacity="1" stop-color="rgb(53.462219%, 59.999084%, 100%)" offset="0.585938"/><stop stop-opacity="1" stop-color="rgb(52.824402%, 59.999084%, 100%)" offset="0.589844"/><stop stop-opacity="1" stop-color="rgb(52.186584%, 59.999084%, 100%)" offset="0.59375"/><stop stop-opacity="1" stop-color="rgb(51.547241%, 59.999084%, 100%)" offset="0.597656"/><stop stop-opacity="1" stop-color="rgb(50.909424%, 59.999084%, 100%)" offset="0.601563"/><stop stop-opacity="1" stop-color="rgb(50.270081%, 59.999084%, 100%)" offset="0.605469"/><stop stop-opacity="1" stop-color="rgb(49.632263%, 59.999084%, 100%)" offset="0.609375"/><stop stop-opacity="1" stop-color="rgb(48.994446%, 59.999084%, 100%)" offset="0.613281"/><stop stop-opacity="1" stop-color="rgb(48.356628%, 59.999084%, 100%)" offset="0.617188"/><stop stop-opacity="1" stop-color="rgb(47.717285%, 59.999084%, 100%)" offset="0.621094"/><stop stop-opacity="1" stop-color="rgb(47.079468%, 59.999084%, 100%)" offset="0.625"/><stop stop-opacity="1" stop-color="rgb(46.440125%, 59.999084%, 100%)" offset="0.628906"/><stop stop-opacity="1" stop-color="rgb(45.802307%, 59.999084%, 100%)" offset="0.632812"/><stop stop-opacity="1" stop-color="rgb(45.16449%, 59.999084%, 100%)" offset="0.636719"/><stop stop-opacity="1" stop-color="rgb(44.526672%, 59.999084%, 100%)" offset="0.640625"/><stop stop-opacity="1" stop-color="rgb(43.887329%, 59.999084%, 100%)" offset="0.644531"/><stop stop-opacity="1" stop-color="rgb(43.249512%, 59.999084%, 100%)" offset="0.648438"/><stop stop-opacity="1" stop-color="rgb(42.610168%, 59.999084%, 100%)" offset="0.652344"/><stop stop-opacity="1" stop-color="rgb(41.972351%, 59.999084%, 100%)" offset="0.65625"/><stop stop-opacity="1" stop-color="rgb(41.334534%, 59.999084%, 100%)" offset="0.660156"/><stop stop-opacity="1" stop-color="rgb(40.696716%, 59.999084%, 100%)" offset="0.664062"/><stop stop-opacity="1" stop-color="rgb(40.34729%, 59.999084%, 100%)" offset="0.667969"/><stop stop-opacity="1" stop-color="rgb(39.99939%, 59.999084%, 100%)" offset="0.671875"/><stop stop-opacity="1" stop-color="rgb(39.99939%, 59.999084%, 100%)" offset="0.6875"/><stop stop-opacity="1" stop-color="rgb(39.99939%, 59.999084%, 100%)" offset="0.75"/><stop stop-opacity="1" stop-color="rgb(39.99939%, 59.999084%, 100%)" offset="1"/></linearGradient></defs><g clip-path="url(#db8d544414)"><g clip-path="url(#49e6bb229f)"><path fill="url(#40c630bc21)" d="M 29.4375 122.683594 L 29.4375 27.890625 L 125.183594 27.890625 L 125.183594 122.683594 Z M 29.4375 122.683594 " fill-rule="nonzero"/></g></g><g clip-path="url(#f0d7d3f86e)"><g clip-path="url(#bb50229cfa)"><path fill="url(#8aed0a13f6)" d="M 39.210938 113.546875 L 39.210938 36.484375 L 116.921875 36.484375 L 116.921875 113.546875 Z M 39.210938 113.546875 " fill-rule="nonzero"/></g></g><g clip-path="url(#a84443c1eb)"><path fill="#99ffff" d="M 76.632812 0.0234375 L 80.433594 71.863281 L 147.792969 76.003906 L 80.507812 80.027344 L 76.632812 151.984375 L 72.832031 80.105469 L 5.472656 76.003906 L 72.753906 71.9375 Z M 76.632812 0.0234375 " fill-opacity="0.302" fill-rule="evenodd"/></g><path fill="#ff99ff" d="M 76.632812 64.042969 C 83.261719 64.042969 88.613281 69.382812 88.613281 76.003906 C 88.613281 82.621094 83.261719 87.964844 76.632812 87.964844 C 70 87.964844 64.648438 82.621094 64.648438 76.003906 C 64.648438 69.382812 70 64.042969 76.632812 64.042969 Z M 76.632812 64.042969 " fill-opacity="0.102" fill-rule="evenodd"/><path fill="#ff99ff" d="M 76.632812 68.144531 C 80.976562 68.144531 84.464844 71.667969 84.464844 75.964844 C 84.464844 80.300781 80.9375 83.785156 76.632812 83.785156 C 72.289062 83.785156 68.796875 80.261719 68.796875 75.964844 C 68.796875 71.667969 72.289062 68.144531 76.632812 68.144531 Z M 76.632812 68.144531 " fill-opacity="0.2" fill-rule="evenodd"/><path fill="#99ffff" d="M 76.632812 14.730469 L 78.648438 73.71875 L 134.023438 76.003906 L 78.765625 78.132812 L 76.632812 137.238281 L 74.613281 78.285156 L 19.238281 76.003906 L 74.5 73.875 Z M 76.632812 14.730469 " fill-opacity="0.302" fill-rule="evenodd"/><path fill="#ffffff" d="M 76.632812 43.296875 L 77.484375 75.152344 L 107.265625 76.003906 L 77.40625 76.894531 L 76.632812 108.710938 L 75.777344 76.816406 L 45.996094 76.003906 L 75.855469 75.113281 Z M 76.632812 43.296875 " fill-opacity="1" fill-rule="evenodd"/><path fill="#ffffff" d="M 82.253906 76.003906 C 82.253906 76.371094 82.21875 76.738281 82.144531 77.097656 C 82.074219 77.460938 81.96875 77.8125 81.828125 78.152344 C 81.683594 78.492188 81.511719 78.816406 81.308594 79.121094 C 81.101562 79.425781 80.867188 79.710938 80.609375 79.972656 C 80.347656 80.230469 80.0625 80.464844 79.753906 80.667969 C 79.449219 80.875 79.125 81.046875 78.785156 81.1875 C 78.441406 81.328125 78.089844 81.4375 77.726562 81.507812 C 77.367188 81.578125 77 81.617188 76.632812 81.617188 C 76.261719 81.617188 75.898438 81.578125 75.535156 81.507812 C 75.171875 81.4375 74.820312 81.328125 74.480469 81.1875 C 74.136719 81.046875 73.8125 80.875 73.507812 80.667969 C 73.199219 80.464844 72.917969 80.230469 72.65625 79.972656 C 72.394531 79.710938 72.160156 79.425781 71.957031 79.121094 C 71.75 78.816406 71.578125 78.492188 71.4375 78.152344 C 71.296875 77.8125 71.1875 77.460938 71.117188 77.097656 C 71.042969 76.738281 71.007812 76.371094 71.007812 76.003906 C 71.007812 75.632812 71.042969 75.269531 71.117188 74.910156 C 71.1875 74.546875 71.296875 74.195312 71.4375 73.855469 C 71.578125 73.515625 71.75 73.191406 71.957031 72.886719 C 72.160156 72.578125 72.394531 72.296875 72.65625 72.035156 C 72.917969 71.773438 73.199219 71.542969 73.507812 71.335938 C 73.8125 71.132812 74.136719 70.960938 74.480469 70.816406 C 74.820312 70.675781 75.171875 70.570312 75.535156 70.5 C 75.898438 70.425781 76.261719 70.390625 76.632812 70.390625 C 77 70.390625 77.367188 70.425781 77.726562 70.5 C 78.089844 70.570312 78.441406 70.675781 78.785156 70.816406 C 79.125 70.960938 79.449219 71.132812 79.753906 71.335938 C 80.0625 71.542969 80.347656 71.773438 80.609375 72.035156 C 80.867188 72.296875 81.101562 72.578125 81.308594 72.886719 C 81.511719 73.191406 81.683594 73.515625 81.828125 73.855469 C 81.96875 74.195312 82.074219 74.546875 82.144531 74.910156 C 82.21875 75.269531 82.253906 75.632812 82.253906 76.003906 Z M 82.253906 76.003906 " fill-opacity="1" fill-rule="nonzero"/><path fill="#ffffff" d="M 76.632812 64.042969 C 77.792969 64.042969 78.765625 69.382812 78.765625 76.003906 C 78.765625 82.582031 77.832031 87.964844 76.632812 87.964844 C 75.46875 87.964844 74.5 82.621094 74.5 76.003906 C 74.5 69.382812 75.46875 64.042969 76.632812 64.042969 Z M 76.632812 64.042969 " fill-opacity="0.549" fill-rule="evenodd"/><path fill="#ffffff" d="M 64.648438 76.003906 C 64.648438 74.84375 70 73.875 76.632812 73.875 C 83.222656 73.875 88.613281 74.804688 88.613281 76.003906 C 88.613281 77.164062 83.261719 78.132812 76.632812 78.132812 C 70.039062 78.09375 64.648438 77.164062 64.648438 76.003906 Z M 64.648438 76.003906 " fill-opacity="0.549" fill-rule="evenodd"/><path fill="#99ffff" d="M 76.632812 53.242188 C 89.234375 53.242188 99.433594 63.421875 99.433594 76.003906 C 99.433594 88.582031 89.234375 98.761719 76.632812 98.761719 C 64.027344 98.761719 53.828125 88.582031 53.828125 76.003906 C 53.828125 63.421875 64.027344 53.242188 76.632812 53.242188 Z M 76.632812 53.242188 " fill-opacity="0.102" fill-rule="evenodd"/><g clip-path="url(#5a1e98e089)"><g clip-path="url(#889e1dd93f)"><path fill="url(#c84d398198)" d="M 25.402344 128.953125 L 25.402344 21.542969 L 130.882812 21.542969 L 130.882812 128.953125 Z M 25.402344 128.953125 " fill-rule="nonzero"/></g></g></svg>