<svg xmlns="http://www.w3.org/2000/svg" xmlns:xlink="http://www.w3.org/1999/xlink" width="204" zoomAndPan="magnify" viewBox="0 0 153 153.000002" height="204" preserveAspectRatio="xMidYMid meet" version="1.0"><defs><clipPath id="a76e803f6a"><path d="M 15 31.367188 L 121 31.367188 L 121 114 L 15 114 Z M 15 31.367188 " clip-rule="nonzero"/></clipPath><clipPath id="864c465ef4"><path d="M 0.496094 54 L 152.503906 54 L 152.503906 111 L 0.496094 111 Z M 0.496094 54 " clip-rule="nonzero"/></clipPath><clipPath id="af1417cc46"><path d="M 39 44 L 123 44 L 123 120.785156 L 39 120.785156 Z M 39 44 " clip-rule="nonzero"/></clipPath></defs><g clip-path="url(#a76e803f6a)"><path fill="#9573f0" d="M 70.917969 44.714844 C 71.660156 44.457031 72.433594 44.488281 73.210938 44.457031 C 74.273438 44.390625 75.304688 44.457031 76.371094 44.519531 C 78.015625 44.648438 79.660156 44.875 81.273438 45.199219 C 82.402344 45.425781 83.53125 45.714844 84.628906 46.136719 C 84.597656 46.460938 84.339844 46.621094 84.144531 46.816406 C 82.953125 48.011719 81.757812 49.207031 80.566406 50.402344 C 79.210938 51.757812 77.597656 52.761719 75.789062 53.375 C 74.402344 53.828125 72.984375 54.085938 71.5625 54.410156 C 69.5 54.894531 67.757812 55.796875 66.433594 57.511719 C 65.433594 58.773438 64.335938 59.933594 63.015625 60.871094 C 61.53125 61.9375 60.175781 63.199219 58.59375 64.199219 C 58.335938 64.363281 58.175781 64.621094 58.304688 64.945312 C 58.464844 65.300781 58.757812 65.171875 59.046875 65.074219 C 60.949219 64.523438 62.726562 63.617188 64.304688 62.457031 C 65.015625 61.9375 65.757812 61.453125 66.46875 60.9375 C 67.917969 59.902344 69.5625 59.386719 71.339844 59.417969 C 72.953125 59.449219 74.339844 58.964844 75.660156 58.125 C 77.53125 56.960938 79.4375 55.960938 81.628906 55.574219 C 82.210938 55.476562 82.789062 55.183594 83.4375 55.410156 C 83.46875 55.703125 83.308594 55.832031 83.210938 56.023438 C 82.339844 57.480469 81.113281 58.511719 79.597656 59.257812 C 78.242188 59.933594 76.886719 60.582031 75.5625 61.292969 C 74.046875 62.101562 72.628906 63.039062 71.5 64.363281 C 70.242188 65.816406 69.046875 67.335938 67.46875 68.433594 C 67.210938 68.59375 66.949219 68.886719 67.113281 69.210938 C 67.304688 69.597656 67.691406 69.4375 68.015625 69.304688 C 69.015625 68.949219 69.949219 68.402344 70.789062 67.753906 C 72.433594 66.460938 74.242188 65.492188 76.273438 64.847656 C 77.597656 64.425781 78.984375 64.136719 80.273438 63.652344 C 81.242188 63.296875 82.144531 62.875 82.953125 62.261719 C 84.050781 61.453125 84.984375 60.484375 85.726562 59.351562 C 86.660156 57.898438 87.984375 57.089844 89.628906 56.734375 C 90.726562 56.507812 91.855469 56.316406 92.984375 56.121094 C 94.824219 55.796875 96.628906 55.410156 98.308594 54.507812 C 98.566406 54.375 98.792969 54.214844 99.113281 54.214844 C 101.210938 56.152344 103.082031 58.285156 104.4375 60.773438 C 102.371094 61.324219 100.371094 62.003906 98.40625 62.8125 C 96.148438 63.75 94.210938 65.074219 92.792969 67.078125 C 91.4375 68.949219 89.792969 70.46875 87.757812 71.472656 C 86.210938 72.246094 84.628906 72.992188 83.015625 73.605469 C 82.628906 73.734375 82.242188 73.894531 81.855469 74.058594 C 81.628906 74.152344 81.46875 74.347656 81.53125 74.605469 C 81.597656 74.863281 81.789062 74.898438 81.984375 74.960938 C 82.082031 74.992188 82.210938 74.992188 82.308594 74.960938 C 82.917969 74.800781 83.53125 74.863281 84.144531 74.734375 C 86.113281 74.378906 87.886719 73.476562 89.597656 72.539062 C 91.402344 71.535156 93.273438 70.761719 95.277344 70.308594 C 95.695312 70.210938 96.148438 69.984375 96.695312 70.210938 C 96.308594 70.40625 96.015625 70.566406 95.695312 70.726562 C 94.40625 71.472656 93.144531 72.28125 92.179688 73.410156 C 91.5 74.21875 90.855469 75.058594 90.210938 75.898438 C 90.015625 76.058594 89.792969 76.125 89.597656 76.191406 C 86.660156 77.222656 83.695312 78.097656 80.660156 78.839844 C 77.144531 79.710938 73.691406 80.679688 70.339844 82.007812 C 67.691406 83.039062 65.015625 83.878906 62.304688 84.6875 C 59.402344 85.527344 56.464844 86.335938 53.59375 87.339844 C 52.109375 87.855469 50.628906 88.40625 49.078125 88.824219 C 49.628906 88.179688 50.238281 87.597656 50.789062 86.949219 C 51.949219 85.527344 53.53125 84.589844 55.113281 83.6875 C 55.820312 83.265625 56.53125 82.78125 57.304688 82.554688 C 57.886719 82.363281 58.402344 82.101562 58.917969 81.8125 C 60.53125 80.90625 62.144531 79.96875 63.886719 79.257812 C 65.628906 78.582031 67.371094 77.933594 68.984375 76.996094 C 70.371094 76.191406 71.5625 75.1875 72.5625 73.925781 C 72.691406 73.734375 72.886719 73.605469 73.082031 73.441406 C 73.789062 72.894531 74.628906 72.636719 75.5 72.441406 C 76.046875 72.3125 76.242188 72.117188 76.175781 71.859375 C 76.113281 71.570312 75.824219 71.503906 75.304688 71.632812 C 73.917969 71.988281 72.597656 72.472656 71.304688 73.085938 C 70.273438 73.605469 69.339844 74.21875 68.371094 74.832031 C 67.660156 75.285156 66.917969 75.738281 66.078125 75.738281 C 65.144531 75.769531 64.207031 75.898438 63.304688 75.929688 C 62.53125 75.964844 61.757812 76.125 61.046875 76.382812 C 59.175781 77.03125 57.402344 77.871094 55.820312 79.066406 C 55.207031 79.550781 54.464844 79.710938 53.722656 79.839844 C 52.433594 80.066406 51.109375 80.195312 49.820312 80.453125 C 49.5 80.519531 49.144531 80.746094 48.691406 80.550781 C 49.402344 80.003906 50.109375 79.582031 50.851562 79.226562 C 52.433594 78.453125 54.046875 77.707031 55.628906 76.902344 C 56.433594 76.511719 57.144531 75.996094 57.757812 75.347656 C 58.464844 74.605469 59.015625 73.765625 59.53125 72.894531 C 60.144531 71.925781 60.820312 71.019531 61.757812 70.339844 C 62.273438 69.984375 62.757812 69.628906 63.371094 69.402344 C 63.757812 69.273438 63.886719 68.949219 63.757812 68.691406 C 63.5625 68.335938 63.273438 68.433594 63.015625 68.59375 C 62.433594 68.949219 61.820312 69.242188 61.207031 69.5 C 60.789062 69.695312 60.335938 69.855469 59.917969 70.082031 C 58.5 70.859375 57.207031 71.792969 55.917969 72.796875 C 54.242188 74.121094 52.402344 75.1875 50.304688 75.769531 C 46.851562 76.738281 43.496094 77.96875 40.273438 79.550781 C 39.851562 79.746094 39.53125 79.808594 39.109375 79.710938 C 39.046875 77.515625 39.433594 75.382812 39.917969 73.25 C 40.496094 70.726562 41.367188 68.273438 42.496094 65.945312 C 42.660156 65.589844 42.917969 65.234375 43.109375 64.878906 C 43.207031 64.878906 43.273438 64.816406 43.304688 64.71875 C 43.496094 64.75 43.660156 64.621094 43.789062 64.523438 C 45.015625 63.359375 46.464844 62.488281 47.980469 61.710938 C 50.109375 60.679688 52.207031 59.578125 54.304688 58.546875 C 55.722656 57.835938 56.949219 56.898438 57.820312 55.574219 C 58.820312 54.019531 60.273438 53.050781 61.917969 52.339844 C 62.855469 51.953125 63.820312 51.628906 64.757812 51.308594 C 66.207031 50.789062 67.757812 50.464844 69.242188 50.078125 C 69.53125 50.015625 69.855469 49.917969 70.113281 49.789062 C 70.53125 49.59375 70.53125 49.335938 70.242188 48.980469 C 69.949219 48.65625 69.597656 48.527344 69.210938 48.527344 C 67.5625 48.464844 65.917969 48.496094 64.304688 49.011719 C 62.402344 49.625 60.59375 50.464844 58.820312 51.371094 C 57.949219 51.824219 57.175781 52.339844 56.5 53.050781 C 55.402344 54.183594 54.144531 55.085938 52.691406 55.703125 C 52.53125 55.765625 52.402344 55.929688 52.175781 55.734375 C 52.917969 54.894531 53.757812 54.152344 54.628906 53.472656 C 56.5 51.984375 58.402344 50.5 60.53125 49.304688 C 62.691406 48.140625 64.917969 47.203125 67.242188 46.460938 C 68.273438 46.136719 69.304688 45.8125 70.304688 45.359375 C 70.53125 45.265625 70.917969 45.167969 70.917969 44.714844 Z M 49.335938 74.058594 C 49.433594 73.476562 49.367188 72.957031 49.304688 72.441406 C 49.109375 70.792969 49.238281 69.242188 50.722656 68.175781 C 50.820312 68.109375 50.949219 68.015625 50.886719 67.851562 C 50.851562 67.691406 50.691406 67.691406 50.5625 67.691406 C 49.273438 67.59375 48.433594 66.851562 47.851562 65.75 C 47.789062 65.621094 47.722656 65.527344 47.660156 65.394531 C 47.59375 65.265625 47.53125 65.136719 47.367188 65.171875 C 47.175781 65.203125 47.175781 65.394531 47.175781 65.527344 C 47.175781 65.6875 47.175781 65.847656 47.175781 65.976562 C 47.273438 66.980469 46.886719 67.820312 46.238281 68.53125 C 46.015625 68.789062 45.789062 69.046875 45.59375 69.304688 C 45.464844 69.46875 45.238281 69.597656 45.367188 69.824219 C 45.496094 70.050781 45.757812 69.921875 45.949219 69.953125 C 46.046875 69.953125 46.144531 69.984375 46.273438 69.953125 C 47.015625 69.886719 47.496094 70.210938 47.886719 70.824219 C 48.367188 71.570312 48.628906 72.441406 48.886719 73.25 C 48.980469 73.570312 48.949219 73.863281 49.335938 74.058594 Z M 49.820312 101.6875 C 51.5 101.332031 53.144531 101.363281 54.851562 101.558594 C 56.464844 101.75 58.046875 102.136719 59.660156 102.363281 C 60.015625 102.429688 60.371094 102.429688 60.757812 102.332031 C 60.917969 102.300781 61.113281 102.234375 61.304688 102.234375 C 62.660156 102.300781 63.984375 101.914062 65.304688 101.6875 C 66.339844 101.492188 67.339844 101.363281 68.371094 101.265625 C 69.691406 101.136719 71.046875 100.976562 72.371094 100.847656 C 72.726562 100.8125 73.082031 100.8125 73.46875 100.8125 C 73.660156 100.8125 73.855469 100.878906 73.886719 101.105469 C 73.917969 101.332031 73.757812 101.460938 73.597656 101.523438 C 73.371094 101.621094 73.113281 101.6875 72.855469 101.71875 C 71.304688 102.042969 70.113281 102.882812 69.273438 104.238281 C 69.175781 104.433594 69.046875 104.59375 68.917969 104.757812 C 68.5 105.304688 68.046875 105.789062 67.304688 105.855469 C 66.433594 105.917969 65.597656 106.082031 64.691406 106.015625 C 62.820312 105.917969 61.046875 106.242188 59.789062 107.957031 C 59.175781 108.796875 58.402344 109.601562 57.335938 109.894531 C 57.5 110.089844 57.722656 110.21875 57.984375 110.347656 C 59.242188 110.960938 60.53125 111.542969 61.855469 111.996094 C 62.5 112.222656 63.113281 112.511719 63.789062 112.542969 C 65.207031 111.898438 66.691406 111.476562 68.273438 111.414062 C 71.5625 111.25 74.597656 112.222656 77.597656 113.417969 C 77.695312 113.449219 77.757812 113.546875 77.855469 113.609375 C 78.046875 113.609375 78.273438 113.609375 78.46875 113.578125 C 80.015625 113.289062 81.53125 112.996094 83.015625 112.480469 C 82.953125 111.929688 83.210938 111.574219 83.660156 111.25 C 84.726562 110.445312 85.855469 109.796875 87.050781 109.183594 C 88.664062 108.375 90.273438 107.535156 91.726562 106.4375 C 93.210938 105.304688 94.535156 103.980469 95.628906 102.460938 C 95.695312 102.363281 95.757812 102.300781 95.726562 102.171875 C 95.535156 101.976562 95.40625 102.171875 95.242188 102.234375 C 94.210938 102.753906 93.144531 103.269531 92.113281 103.820312 C 90.402344 104.722656 88.597656 105.113281 86.695312 105.335938 C 83.789062 105.691406 81.015625 106.371094 78.402344 107.695312 C 78.175781 107.824219 77.953125 107.988281 77.695312 107.988281 C 77.53125 107.988281 77.371094 107.921875 77.304688 107.761719 C 77.242188 107.632812 77.339844 107.503906 77.402344 107.40625 C 77.757812 107.019531 78.242188 106.757812 78.660156 106.5 C 80.015625 105.628906 81.402344 104.820312 82.855469 104.140625 C 84.242188 103.496094 85.660156 102.945312 87.082031 102.363281 C 89.4375 101.460938 91.597656 100.265625 93.273438 98.359375 C 93.953125 97.613281 94.792969 97.03125 95.5 96.289062 C 95.597656 96.160156 95.757812 96.09375 95.921875 96.09375 C 95.46875 95.351562 94.855469 94.898438 93.953125 94.964844 C 93.824219 94.964844 93.695312 94.933594 93.566406 94.898438 C 93.273438 94.804688 93.242188 94.671875 93.46875 94.449219 C 93.695312 94.253906 93.953125 94.058594 94.210938 93.898438 C 95.082031 93.382812 95.371094 92.574219 95.4375 91.636719 C 95.46875 91.054688 95.4375 90.441406 95.597656 89.859375 C 95.46875 89.695312 95.339844 89.761719 95.179688 89.828125 C 93.597656 90.570312 92.082031 91.378906 90.664062 92.410156 C 89.953125 92.929688 89.308594 93.542969 88.695312 94.1875 C 87.179688 95.707031 85.46875 96.96875 83.566406 97.90625 C 82.015625 98.679688 80.339844 99.035156 78.660156 99.359375 C 78.242188 99.457031 77.789062 99.585938 77.371094 99.519531 C 77.113281 99.488281 76.824219 99.457031 76.757812 99.164062 C 76.660156 98.84375 76.886719 98.617188 77.144531 98.488281 C 77.660156 98.226562 78.175781 98.035156 78.726562 97.808594 C 79.824219 97.386719 80.726562 96.710938 81.4375 95.804688 C 82.113281 94.933594 82.855469 94.15625 83.789062 93.574219 C 83.855469 93.542969 83.917969 93.476562 83.917969 93.382812 C 83.824219 93.21875 83.628906 93.285156 83.5 93.316406 C 82.113281 93.542969 80.660156 93.605469 79.304688 94.027344 C 77.628906 94.542969 76.015625 95.289062 74.46875 96.128906 C 73.175781 96.839844 71.886719 97.582031 70.433594 97.90625 C 69.273438 98.164062 68.113281 98.164062 66.886719 98.066406 C 65.53125 97.96875 64.304688 97.582031 63.015625 97.257812 C 62.789062 97.195312 62.464844 97.226562 62.464844 96.9375 C 62.433594 96.582031 62.726562 96.484375 63.015625 96.417969 C 63.5 96.320312 63.984375 96.191406 64.46875 96.128906 C 65.820312 95.933594 67.175781 95.738281 68.53125 95.515625 C 70.242188 95.222656 71.726562 94.480469 73.175781 93.640625 C 75.371094 92.378906 77.339844 90.828125 79.402344 89.40625 C 81.144531 88.242188 83.046875 87.402344 85.113281 87.046875 C 86.4375 86.820312 87.757812 86.820312 89.082031 86.851562 C 89.339844 86.851562 89.53125 86.984375 89.757812 87.046875 C 90.597656 87.339844 91.402344 87.660156 92.308594 87.660156 C 92.953125 87.660156 93.535156 87.5 94.082031 87.242188 C 95.339844 86.628906 96.535156 85.851562 97.921875 85.527344 C 100.148438 84.945312 102.371094 84.882812 104.5 85.980469 C 104.632812 86.046875 104.792969 86.109375 104.921875 86.207031 C 105.277344 86.496094 105.148438 87.015625 104.664062 87.175781 C 104.210938 87.339844 103.726562 87.433594 103.242188 87.5 C 100.984375 87.886719 98.824219 88.5 96.664062 89.246094 C 96.339844 89.339844 95.953125 89.40625 95.792969 89.792969 C 96.082031 90.085938 96.144531 90.472656 96.277344 90.828125 C 96.535156 91.472656 96.886719 92.023438 97.4375 92.445312 C 97.824219 92.765625 98.242188 92.992188 98.757812 93.058594 C 98.953125 93.089844 99.179688 93.058594 99.339844 93.285156 C 99.210938 93.769531 98.5 93.703125 98.4375 94.222656 C 98.953125 94.1875 99.339844 93.867188 99.757812 93.640625 C 101.628906 92.636719 103.597656 92.089844 105.695312 91.765625 C 105.824219 91.636719 105.890625 91.472656 105.953125 91.28125 C 106.597656 89.792969 107.179688 88.273438 107.597656 86.757812 C 108.4375 83.816406 108.953125 80.84375 108.890625 77.773438 C 107.40625 78.289062 105.890625 78.773438 104.40625 79.292969 C 98.46875 81.359375 92.5 83.429688 86.53125 85.429688 C 80.953125 87.304688 75.402344 89.210938 69.820312 91.085938 C 64.402344 92.894531 58.984375 94.609375 53.53125 96.289062 C 50.820312 97.097656 48.109375 97.9375 45.433594 98.746094 C 45.273438 98.808594 45.109375 98.875 44.917969 98.9375 C 45.722656 100.167969 46.59375 101.363281 47.628906 102.398438 C 48.335938 102.332031 49.015625 101.847656 49.820312 101.6875 Z M 114.179688 31.5625 C 114.339844 32.433594 114.179688 33.339844 114.117188 34.210938 C 113.921875 36.34375 113.117188 38.121094 111.308594 39.382812 C 110.855469 39.707031 110.40625 39.996094 109.953125 40.320312 C 109.855469 40.382812 109.726562 40.480469 109.761719 40.644531 C 109.792969 40.804688 109.921875 40.835938 110.050781 40.835938 C 111.179688 40.773438 112.082031 41.355469 112.953125 41.96875 C 114.148438 42.808594 114.988281 43.875 115.4375 45.265625 C 115.632812 45.847656 115.792969 46.394531 115.988281 46.976562 C 116.050781 47.136719 116.050781 47.398438 116.277344 47.363281 C 116.535156 47.332031 116.503906 47.074219 116.535156 46.878906 C 116.535156 46.847656 116.535156 46.816406 116.535156 46.816406 C 116.792969 44.910156 117.246094 43.035156 118.148438 41.320312 C 118.730469 40.253906 119.4375 39.316406 120.535156 38.703125 C 120.632812 38.640625 120.730469 38.605469 120.792969 38.542969 C 120.953125 38.382812 120.953125 38.21875 120.730469 38.121094 C 120.566406 38.058594 120.375 37.992188 120.210938 37.960938 C 119.277344 37.703125 118.4375 37.25 117.597656 36.765625 C 116.597656 36.183594 115.859375 35.375 115.375 34.339844 C 114.988281 33.5 114.535156 32.660156 114.503906 31.691406 C 114.503906 31.5625 114.46875 31.433594 114.277344 31.433594 C 114.179688 31.367188 114.148438 31.464844 114.179688 31.5625 Z M 18.238281 74.28125 C 18.269531 75.316406 17.980469 76.285156 17.558594 77.222656 C 17.042969 78.355469 16.398438 79.421875 15.6875 80.457031 C 15.558594 80.648438 15.429688 80.84375 15.335938 81.070312 C 15.207031 81.328125 15.335938 81.519531 15.625 81.585938 C 15.785156 81.617188 15.980469 81.617188 16.171875 81.617188 C 17.109375 81.585938 17.882812 81.941406 18.527344 82.621094 C 19.335938 83.429688 19.914062 84.363281 20.367188 85.398438 C 20.59375 85.917969 20.785156 86.464844 20.980469 86.984375 C 21.042969 87.113281 21.078125 87.304688 21.269531 87.273438 C 21.433594 87.242188 21.367188 87.078125 21.367188 86.949219 C 21.238281 86.109375 21.269531 85.238281 21.300781 84.363281 C 21.367188 82.878906 21.753906 81.488281 22.691406 80.324219 C 23.078125 79.839844 23.527344 79.390625 23.949219 78.9375 C 24.65625 78.226562 24.625 78.226562 23.722656 77.871094 C 21.65625 77.09375 19.820312 75.996094 18.882812 73.863281 C 18.820312 73.667969 18.753906 73.441406 18.464844 73.410156 C 18.238281 73.636719 18.238281 73.960938 18.238281 74.28125 Z M 18.238281 74.28125 " fill-opacity="1" fill-rule="nonzero"/></g><g clip-path="url(#864c465ef4)"><path fill="#e49726" d="M 108.792969 77.804688 C 107.308594 78.324219 105.792969 78.808594 104.308594 79.324219 C 98.371094 81.390625 92.40625 83.460938 86.4375 85.464844 C 80.855469 87.339844 75.304688 89.246094 69.726562 91.117188 C 64.304688 92.929688 58.886719 94.640625 53.433594 96.320312 C 50.722656 97.128906 48.015625 97.96875 45.335938 98.777344 C 45.175781 98.84375 45.015625 98.90625 44.820312 98.972656 C 43.109375 99.359375 41.433594 99.941406 39.753906 100.457031 C 32.398438 102.6875 25.078125 104.886719 17.691406 106.984375 C 14.980469 107.761719 12.269531 108.570312 9.527344 109.34375 C 7.527344 109.894531 5.460938 110.152344 3.398438 110.28125 C 2.753906 110.3125 2.109375 110.28125 1.496094 110.023438 C 0.753906 109.667969 0.527344 109.085938 0.945312 108.375 C 1.851562 106.824219 2.882812 105.402344 4.203125 104.207031 C 7.6875 101.039062 11.527344 98.421875 15.625 96.160156 C 18.753906 94.414062 21.949219 92.832031 25.140625 91.152344 C 27.011719 90.183594 28.753906 89.019531 30.65625 88.113281 C 33.335938 86.851562 35.851562 85.269531 38.5625 84.074219 C 38.789062 83.976562 39.011719 83.847656 39.304688 83.847656 C 39.367188 84.140625 39.53125 84.429688 39.433594 84.753906 C 37.949219 85.300781 36.53125 86.046875 35.207031 86.886719 C 31.207031 89.375 27.109375 91.636719 23.109375 94.09375 C 21.5625 95.027344 20.011719 96 18.558594 97.097656 C 16.464844 98.648438 14.367188 100.167969 12.527344 102.007812 C 12.300781 102.269531 11.945312 102.398438 12.078125 102.816406 C 12.171875 103.171875 12.527344 103.203125 12.816406 103.269531 C 13.753906 103.464844 14.6875 103.429688 15.625 103.300781 C 17.078125 103.109375 18.496094 102.882812 19.914062 102.589844 C 24.140625 101.71875 28.335938 100.78125 32.398438 99.359375 C 36.207031 98.003906 40.011719 96.804688 43.917969 95.773438 C 48.367188 94.578125 52.757812 93.089844 57.175781 91.796875 C 58.949219 91.28125 60.726562 90.632812 62.53125 90.117188 C 65.691406 89.148438 68.917969 88.339844 72.082031 87.304688 C 74.339844 86.5625 76.660156 85.949219 78.886719 85.109375 C 80.175781 84.625 81.46875 84.171875 82.789062 83.75 C 86.242188 82.683594 89.695312 81.714844 93.113281 80.550781 C 95.792969 79.648438 98.4375 78.679688 101.148438 77.835938 C 104.082031 76.902344 106.984375 75.867188 109.855469 74.671875 C 112.246094 73.667969 114.695312 72.828125 117.082031 71.761719 C 118.695312 71.019531 120.339844 70.277344 122.019531 69.660156 C 126.019531 68.109375 129.890625 66.300781 133.792969 64.523438 C 135.632812 63.683594 137.441406 62.777344 139.050781 61.519531 C 139.246094 61.355469 139.503906 61.226562 139.472656 60.90625 C 139.441406 60.613281 139.183594 60.484375 138.957031 60.386719 C 138.792969 60.324219 138.601562 60.257812 138.441406 60.257812 C 136.3125 60.257812 134.179688 60.257812 132.050781 60.453125 C 130.792969 60.582031 129.535156 60.773438 128.277344 60.871094 C 126.632812 60.96875 124.988281 61.226562 123.34375 61.421875 C 121.082031 61.679688 118.824219 62.066406 116.597656 62.457031 C 113.726562 62.972656 110.824219 63.457031 107.984375 64.105469 C 107.46875 64.234375 106.984375 64.328125 106.46875 64.363281 C 106.277344 64.136719 106.148438 63.910156 106.179688 63.585938 C 113.40625 62.164062 120.503906 60.195312 127.730469 58.804688 C 130.730469 58.222656 133.699219 57.480469 136.699219 56.929688 C 140.761719 56.152344 144.859375 55.410156 148.988281 54.992188 C 149.570312 54.925781 150.117188 54.925781 150.699219 54.992188 C 151.957031 55.085938 152.472656 55.960938 151.988281 57.125 C 151.667969 57.898438 151.117188 58.511719 150.503906 59.128906 C 149.054688 60.550781 147.34375 61.648438 145.570312 62.648438 C 142.40625 64.492188 139.085938 66.011719 135.730469 67.496094 C 128.40625 70.792969 120.824219 73.507812 113.277344 76.222656 C 111.695312 76.707031 110.246094 77.257812 108.792969 77.804688 Z M 89.597656 76.285156 C 86.660156 77.320312 83.695312 78.191406 80.660156 78.9375 C 77.144531 79.808594 73.691406 80.777344 70.339844 82.101562 C 67.691406 83.136719 65.015625 83.976562 62.304688 84.785156 C 59.402344 85.625 56.464844 86.433594 53.59375 87.433594 C 52.109375 87.953125 50.628906 88.5 49.078125 88.921875 C 47.917969 89.277344 46.757812 89.632812 45.59375 89.957031 C 44.015625 90.375 42.433594 90.894531 40.789062 91.183594 C 39.691406 91.605469 38.5625 91.863281 37.433594 92.152344 C 35.949219 92.574219 34.464844 93.089844 32.917969 93.25 C 32.175781 93.347656 31.433594 93.382812 30.691406 93.21875 C 30.140625 93.089844 30.109375 92.929688 30.433594 92.476562 C 30.691406 92.121094 31.046875 91.828125 31.367188 91.570312 C 32.691406 90.472656 34.175781 89.632812 35.660156 88.761719 C 36.980469 87.984375 38.304688 87.207031 39.5625 86.335938 C 39.625 86.011719 39.660156 85.65625 39.433594 85.367188 C 38.046875 85.980469 36.820312 86.851562 35.496094 87.5625 C 32.851562 89.019531 30.304688 90.570312 27.753906 92.21875 C 26.078125 93.316406 24.464844 94.578125 22.980469 95.933594 C 22.238281 96.582031 21.527344 97.257812 20.820312 97.96875 C 20.722656 98.066406 20.59375 98.195312 20.496094 98.292969 C 20.300781 98.488281 20.140625 98.714844 20.300781 99.003906 C 20.429688 99.261719 20.691406 99.230469 20.914062 99.261719 C 21.851562 99.292969 22.753906 99.070312 23.691406 98.875 C 25.820312 98.488281 27.851562 97.777344 29.882812 97.128906 C 32.046875 96.484375 34.238281 95.964844 36.402344 95.351562 C 37.949219 94.933594 39.464844 94.351562 40.980469 93.800781 C 43.5625 92.894531 46.238281 92.21875 48.886719 91.441406 C 50.949219 90.828125 52.980469 90.148438 55.046875 89.566406 C 57.113281 88.984375 59.113281 88.113281 61.207031 87.628906 C 63.335938 87.144531 65.371094 86.335938 67.46875 85.722656 C 69.691406 85.074219 71.886719 84.429688 74.082031 83.71875 C 76.015625 83.105469 77.953125 82.328125 79.886719 81.746094 C 83.015625 80.8125 86.144531 79.839844 89.210938 78.773438 C 91.597656 77.933594 93.984375 77.03125 96.40625 76.285156 C 100.210938 75.125 103.921875 73.734375 107.695312 72.539062 C 109.46875 71.988281 111.148438 71.148438 112.855469 70.40625 C 115.308594 69.304688 117.730469 68.238281 120.210938 67.238281 C 123.019531 66.074219 125.824219 64.910156 128.535156 63.523438 C 128.828125 63.359375 129.308594 63.296875 129.214844 62.8125 C 129.117188 62.261719 128.632812 62.390625 128.246094 62.390625 C 126.957031 62.390625 125.632812 62.359375 124.34375 62.421875 C 123.179688 62.488281 122.019531 62.585938 120.859375 62.777344 C 119.824219 62.941406 118.761719 63.003906 117.695312 63.167969 C 116.503906 63.328125 115.308594 63.554688 114.082031 63.714844 C 111.597656 64.070312 109.179688 64.75 106.726562 65.265625 C 106.726562 65.589844 106.855469 65.882812 107.019531 66.140625 C 108.664062 65.785156 110.308594 65.394531 111.953125 65.136719 C 112.921875 64.976562 113.921875 65.007812 114.890625 64.847656 C 115.246094 64.78125 115.566406 64.878906 115.726562 65.265625 C 115.859375 65.589844 115.726562 65.882812 115.308594 66.171875 C 114.792969 66.496094 114.277344 66.753906 113.726562 67.042969 C 111.855469 68.015625 109.953125 68.886719 107.984375 69.597656 C 106.082031 70.566406 104.148438 71.40625 102.113281 72.085938 C 98.371094 73.347656 94.566406 74.476562 90.855469 75.898438 C 90.628906 75.996094 90.4375 76.09375 90.179688 76.058594 C 90.050781 76.125 89.824219 76.222656 89.597656 76.285156 Z M 89.597656 76.285156 " fill-opacity="1" fill-rule="nonzero"/></g><g clip-path="url(#af1417cc46)"><path fill="#d178d5" d="M 99.113281 54.246094 C 98.824219 54.246094 98.566406 54.375 98.308594 54.539062 C 96.628906 55.441406 94.824219 55.832031 92.984375 56.152344 C 91.855469 56.347656 90.757812 56.542969 89.628906 56.769531 C 87.984375 57.125 86.660156 57.929688 85.726562 59.386719 C 84.984375 60.515625 84.015625 61.484375 82.953125 62.292969 C 82.144531 62.90625 81.210938 63.328125 80.273438 63.683594 C 78.953125 64.167969 77.597656 64.460938 76.273438 64.878906 C 74.273438 65.492188 72.46875 66.496094 70.789062 67.789062 C 69.949219 68.433594 69.015625 68.984375 68.015625 69.339844 C 67.691406 69.46875 67.304688 69.597656 67.113281 69.242188 C 66.949219 68.917969 67.242188 68.660156 67.46875 68.464844 C 69.082031 67.367188 70.273438 65.847656 71.5 64.394531 C 72.628906 63.070312 74.046875 62.132812 75.5625 61.324219 C 76.886719 60.613281 78.242188 59.96875 79.597656 59.289062 C 81.082031 58.546875 82.339844 57.511719 83.210938 56.058594 C 83.308594 55.894531 83.46875 55.734375 83.4375 55.441406 C 82.824219 55.21875 82.242188 55.507812 81.628906 55.605469 C 79.4375 55.992188 77.53125 56.996094 75.660156 58.15625 C 74.339844 58.964844 72.953125 59.484375 71.339844 59.449219 C 69.5625 59.417969 67.917969 59.933594 66.46875 60.96875 C 65.757812 61.484375 65.015625 61.9375 64.304688 62.488281 C 62.691406 63.652344 60.949219 64.554688 59.046875 65.105469 C 58.757812 65.171875 58.464844 65.332031 58.304688 64.976562 C 58.175781 64.652344 58.335938 64.394531 58.59375 64.234375 C 60.144531 63.230469 61.5 61.972656 63.015625 60.90625 C 64.335938 59.96875 65.46875 58.804688 66.433594 57.542969 C 67.757812 55.832031 69.53125 54.925781 71.5625 54.441406 C 72.984375 54.117188 74.402344 53.859375 75.789062 53.40625 C 77.628906 52.792969 79.210938 51.824219 80.566406 50.433594 C 81.757812 49.238281 82.953125 48.042969 84.144531 46.847656 C 84.339844 46.652344 84.597656 46.492188 84.628906 46.167969 C 87.339844 46.945312 89.921875 48.074219 92.40625 49.398438 C 94.664062 50.597656 96.695312 52.082031 98.597656 53.761719 C 98.792969 53.890625 98.984375 54.054688 99.113281 54.246094 Z M 39.433594 85.367188 C 39.625 85.691406 39.59375 86.011719 39.5625 86.335938 C 39.820312 87.984375 40.175781 89.632812 40.820312 91.183594 C 42.433594 90.859375 44.015625 90.375 45.625 89.957031 C 46.789062 89.632812 47.949219 89.277344 49.109375 88.921875 C 49.660156 88.273438 50.273438 87.695312 50.820312 87.046875 C 51.980469 85.625 53.5625 84.6875 55.144531 83.785156 C 55.851562 83.363281 56.5625 82.878906 57.335938 82.652344 C 57.917969 82.457031 58.433594 82.199219 58.949219 81.910156 C 60.5625 81.003906 62.175781 80.066406 63.917969 79.355469 C 65.660156 78.679688 67.402344 78.03125 69.015625 77.09375 C 70.402344 76.285156 71.597656 75.285156 72.597656 74.023438 C 72.726562 73.832031 72.917969 73.703125 73.113281 73.539062 C 73.824219 72.992188 74.660156 72.730469 75.53125 72.539062 C 76.082031 72.410156 76.273438 72.214844 76.210938 71.957031 C 76.144531 71.664062 75.855469 71.601562 75.339844 71.730469 C 73.953125 72.085938 72.628906 72.570312 71.339844 73.183594 C 70.304688 73.703125 69.371094 74.316406 68.402344 74.929688 C 67.691406 75.382812 66.949219 75.835938 66.113281 75.835938 C 65.175781 75.867188 64.242188 75.996094 63.335938 76.027344 C 62.5625 76.058594 61.789062 76.222656 61.078125 76.480469 C 59.207031 77.125 57.433594 77.96875 55.851562 79.164062 C 55.242188 79.648438 54.5 79.808594 53.757812 79.9375 C 52.464844 80.164062 51.144531 80.292969 49.851562 80.550781 C 49.53125 80.617188 49.175781 80.84375 48.722656 80.648438 C 49.433594 80.101562 50.144531 79.679688 50.886719 79.324219 C 52.464844 78.546875 54.078125 77.804688 55.660156 76.996094 C 56.464844 76.609375 57.175781 76.09375 57.789062 75.445312 C 58.5 74.703125 59.046875 73.863281 59.5625 72.992188 C 60.175781 72.019531 60.855469 71.117188 61.789062 70.4375 C 62.304688 70.082031 62.789062 69.726562 63.402344 69.5 C 63.789062 69.371094 63.917969 69.046875 63.789062 68.789062 C 63.597656 68.433594 63.304688 68.53125 63.046875 68.691406 C 62.464844 69.046875 61.855469 69.339844 61.242188 69.597656 C 60.820312 69.792969 60.371094 69.953125 59.949219 70.179688 C 58.53125 70.953125 57.242188 71.890625 55.949219 72.894531 C 54.273438 74.21875 52.433594 75.285156 50.335938 75.867188 C 46.886719 76.835938 43.53125 78.0625 40.304688 79.648438 C 39.882812 79.839844 39.5625 79.90625 39.144531 79.808594 C 39.078125 81.164062 39.078125 82.523438 39.273438 83.878906 C 39.335938 84.171875 39.496094 84.460938 39.402344 84.785156 C 39.402344 84.914062 39.402344 85.140625 39.433594 85.367188 Z M 105.535156 62.746094 C 105.179688 62.101562 104.921875 61.421875 104.4375 60.839844 C 102.371094 61.390625 100.371094 62.066406 98.40625 62.875 C 96.148438 63.8125 94.210938 65.136719 92.792969 67.140625 C 91.4375 69.015625 89.792969 70.535156 87.757812 71.535156 C 86.210938 72.3125 84.628906 73.054688 83.015625 73.667969 C 82.628906 73.796875 82.242188 73.960938 81.855469 74.121094 C 81.628906 74.21875 81.46875 74.414062 81.53125 74.671875 C 81.597656 74.929688 81.789062 74.960938 81.984375 75.027344 C 82.082031 75.058594 82.210938 75.058594 82.308594 75.027344 C 82.917969 74.863281 83.53125 74.929688 84.144531 74.800781 C 86.113281 74.445312 87.886719 73.539062 89.597656 72.601562 C 91.402344 71.601562 93.273438 70.824219 95.277344 70.371094 C 95.695312 70.277344 96.148438 70.050781 96.695312 70.277344 C 96.308594 70.46875 96.015625 70.632812 95.695312 70.792969 C 94.40625 71.535156 93.144531 72.34375 92.179688 73.476562 C 91.5 74.28125 90.855469 75.125 90.210938 75.964844 C 90.46875 76.027344 90.664062 75.898438 90.886719 75.800781 C 94.597656 74.378906 98.40625 73.25 102.148438 71.988281 C 104.148438 71.308594 106.113281 70.46875 108.019531 69.5 C 107.695312 68.371094 107.375 67.238281 107.050781 66.074219 C 106.890625 65.816406 106.761719 65.527344 106.761719 65.203125 C 106.535156 64.910156 106.371094 64.589844 106.308594 64.234375 C 106.113281 64.007812 105.984375 63.78125 106.019531 63.457031 C 105.761719 63.296875 105.664062 63.003906 105.535156 62.746094 Z M 86.726562 111.121094 C 89.824219 109.765625 92.726562 108.117188 95.242188 105.855469 C 98.535156 102.882812 101.5 99.617188 103.664062 95.707031 C 104.371094 94.449219 105.113281 93.1875 105.566406 91.796875 C 103.5 92.121094 101.5 92.703125 99.628906 93.671875 C 99.210938 93.898438 98.792969 94.222656 98.308594 94.253906 L 98.339844 94.253906 C 98.308594 94.351562 98.210938 94.414062 98.113281 94.414062 C 97.597656 95.675781 97.308594 96.96875 97.5 98.359375 C 97.5 98.421875 97.535156 98.519531 97.535156 98.582031 C 97.566406 98.777344 97.535156 99.003906 97.339844 99.035156 C 97.148438 99.070312 97.113281 98.84375 97.082031 98.714844 C 96.921875 98.132812 96.757812 97.550781 96.46875 97.03125 C 96.308594 96.710938 96.148438 96.386719 95.855469 96.128906 C 95.695312 96.128906 95.566406 96.226562 95.4375 96.320312 C 94.726562 97.066406 93.886719 97.613281 93.210938 98.390625 C 91.5 100.296875 89.339844 101.492188 87.015625 102.398438 C 85.597656 102.945312 84.179688 103.527344 82.789062 104.175781 C 81.339844 104.851562 79.953125 105.691406 78.597656 106.535156 C 78.175781 106.792969 77.695312 107.050781 77.339844 107.4375 C 77.242188 107.535156 77.175781 107.664062 77.242188 107.792969 C 77.304688 107.957031 77.4375 108.019531 77.628906 108.019531 C 77.917969 108.019531 78.113281 107.859375 78.339844 107.730469 C 80.953125 106.402344 83.757812 105.691406 86.628906 105.371094 C 88.5 105.144531 90.339844 104.757812 92.050781 103.851562 C 93.082031 103.300781 94.144531 102.785156 95.179688 102.269531 C 95.308594 102.203125 95.46875 102.007812 95.664062 102.203125 C 95.695312 102.332031 95.597656 102.398438 95.566406 102.492188 C 94.46875 104.011719 93.144531 105.335938 91.664062 106.46875 C 90.210938 107.566406 88.597656 108.40625 86.984375 109.214844 C 85.789062 109.828125 84.660156 110.476562 83.597656 111.285156 C 83.179688 111.605469 82.917969 111.960938 82.953125 112.511719 C 84.242188 112.1875 85.46875 111.671875 86.726562 111.121094 Z M 47.691406 102.65625 C 49.59375 104.722656 51.660156 106.566406 54.015625 108.117188 C 55.046875 108.796875 56.046875 109.539062 57.242188 109.925781 C 58.335938 109.601562 59.078125 108.828125 59.691406 107.988281 C 60.949219 106.273438 62.726562 105.953125 64.597656 106.046875 C 65.5 106.082031 66.339844 105.953125 67.210938 105.886719 C 67.949219 105.824219 68.402344 105.335938 68.820312 104.789062 C 68.949219 104.625 69.046875 104.433594 69.175781 104.269531 C 69.984375 102.914062 71.210938 102.074219 72.757812 101.75 C 73.015625 101.6875 73.273438 101.652344 73.5 101.558594 C 73.660156 101.492188 73.824219 101.363281 73.789062 101.136719 C 73.757812 100.910156 73.5625 100.847656 73.371094 100.847656 C 73.015625 100.847656 72.628906 100.847656 72.273438 100.878906 C 70.953125 101.007812 69.597656 101.167969 68.273438 101.296875 C 67.242188 101.394531 66.207031 101.523438 65.207031 101.71875 C 63.886719 101.945312 62.597656 102.332031 61.207031 102.269531 C 61.046875 102.269531 60.855469 102.300781 60.660156 102.363281 C 60.304688 102.460938 59.917969 102.460938 59.5625 102.398438 C 57.949219 102.171875 56.371094 101.78125 54.757812 101.589844 C 53.078125 101.394531 51.402344 101.363281 49.722656 101.71875 C 48.917969 101.878906 48.238281 102.332031 47.433594 102.429688 C 47.5625 102.492188 47.628906 102.589844 47.691406 102.65625 Z M 69.433594 44.875 C 65.691406 45.394531 62.304688 46.78125 59.175781 48.882812 C 57.820312 49.789062 56.5 50.789062 55.175781 51.726562 C 52.5625 53.535156 50.109375 55.507812 48.015625 57.929688 C 46.433594 59.773438 44.917969 61.710938 43.660156 63.8125 C 43.496094 64.105469 43.273438 64.363281 43.304688 64.75 C 43.496094 64.78125 43.660156 64.652344 43.789062 64.554688 C 45.015625 63.394531 46.464844 62.519531 47.980469 61.746094 C 50.109375 60.710938 52.207031 59.613281 54.304688 58.578125 C 55.722656 57.867188 56.949219 56.929688 57.820312 55.605469 C 58.820312 54.054688 60.273438 53.085938 61.917969 52.375 C 62.855469 51.984375 63.820312 51.664062 64.757812 51.339844 C 66.207031 50.820312 67.757812 50.5 69.242188 50.109375 C 69.53125 50.046875 69.855469 49.949219 70.113281 49.820312 C 70.53125 49.625 70.53125 49.367188 70.242188 49.011719 C 69.949219 48.691406 69.597656 48.558594 69.210938 48.558594 C 67.5625 48.496094 65.917969 48.527344 64.304688 49.042969 C 62.402344 49.660156 60.59375 50.5 58.820312 51.402344 C 57.949219 51.855469 57.175781 52.375 56.5 53.085938 C 55.402344 54.214844 54.144531 55.121094 52.691406 55.734375 C 52.53125 55.796875 52.402344 55.960938 52.175781 55.765625 C 52.917969 54.925781 53.757812 54.183594 54.628906 53.503906 C 56.5 52.019531 58.402344 50.53125 60.53125 49.335938 C 62.691406 48.171875 64.917969 47.234375 67.242188 46.492188 C 68.273438 46.167969 69.304688 45.847656 70.304688 45.394531 C 70.597656 45.265625 70.984375 45.167969 70.984375 44.746094 C 70.402344 44.714844 69.917969 44.8125 69.433594 44.875 Z M 117.632812 120.363281 C 117.632812 119.816406 117.730469 119.265625 117.824219 118.75 C 118.308594 116.128906 119.535156 113.964844 121.730469 112.445312 C 121.953125 112.285156 122.179688 112.1875 122.40625 112.058594 C 122.601562 111.929688 122.859375 111.867188 122.792969 111.574219 C 122.730469 111.316406 122.503906 111.347656 122.277344 111.316406 C 122.117188 111.285156 121.953125 111.285156 121.824219 111.21875 C 119.953125 110.605469 118.695312 109.34375 117.988281 107.535156 C 117.664062 106.664062 117.375 105.757812 117.179688 104.851562 C 117.148438 104.691406 117.082031 104.496094 116.988281 104.335938 C 116.890625 104.175781 116.761719 103.949219 116.503906 104.011719 C 116.308594 104.078125 116.246094 104.269531 116.277344 104.464844 C 116.308594 104.886719 116.179688 105.304688 116.117188 105.691406 C 115.664062 108.632812 114.246094 110.765625 111.375 111.800781 C 111.019531 111.929688 110.695312 112.089844 110.375 112.253906 C 110.210938 112.316406 110.148438 112.480469 110.179688 112.640625 C 110.210938 112.835938 110.339844 112.898438 110.503906 112.929688 C 110.664062 112.964844 110.824219 112.964844 110.953125 112.964844 C 112.050781 113.027344 113.050781 113.417969 113.855469 114.128906 C 115.082031 115.195312 115.953125 116.484375 116.375 118.070312 C 116.566406 118.78125 116.695312 119.523438 116.859375 120.265625 C 116.921875 120.492188 116.953125 120.71875 117.246094 120.785156 C 117.535156 120.785156 117.632812 120.589844 117.632812 120.363281 Z M 64.5 112.835938 C 68.046875 113.707031 71.660156 114.03125 75.304688 113.902344 C 76.113281 113.867188 76.984375 113.902344 77.757812 113.640625 C 77.660156 113.578125 77.597656 113.480469 77.5 113.449219 C 74.5 112.253906 71.46875 111.285156 68.175781 111.445312 C 66.597656 111.511719 65.113281 111.929688 63.691406 112.578125 C 63.949219 112.738281 64.242188 112.769531 64.5 112.835938 Z M 95.695312 89.828125 C 95.855469 89.40625 96.242188 89.375 96.566406 89.277344 C 98.726562 88.566406 100.921875 87.917969 103.148438 87.53125 C 103.632812 87.433594 104.113281 87.371094 104.566406 87.207031 C 105.050781 87.046875 105.179688 86.53125 104.824219 86.238281 C 104.695312 86.140625 104.566406 86.078125 104.40625 86.011719 C 102.277344 84.945312 100.050781 85.011719 97.824219 85.5625 C 96.46875 85.917969 95.242188 86.660156 93.984375 87.273438 C 93.40625 87.5625 92.824219 87.726562 92.210938 87.695312 C 91.308594 87.695312 90.46875 87.402344 89.664062 87.078125 C 89.4375 87.015625 89.242188 86.886719 88.984375 86.886719 C 87.660156 86.851562 86.339844 86.851562 85.015625 87.078125 C 82.953125 87.433594 81.046875 88.242188 79.308594 89.4375 C 77.210938 90.828125 75.242188 92.410156 73.082031 93.671875 C 71.597656 94.511719 70.113281 95.253906 68.433594 95.546875 C 67.078125 95.773438 65.726562 95.964844 64.371094 96.160156 C 63.886719 96.226562 63.402344 96.355469 62.917969 96.449219 C 62.628906 96.515625 62.335938 96.613281 62.371094 96.96875 C 62.402344 97.257812 62.726562 97.226562 62.917969 97.292969 C 64.175781 97.648438 65.433594 98.003906 66.789062 98.097656 C 67.984375 98.195312 69.144531 98.164062 70.339844 97.9375 C 71.820312 97.613281 73.082031 96.871094 74.371094 96.160156 C 75.917969 95.320312 77.53125 94.578125 79.210938 94.058594 C 80.566406 93.640625 82.015625 93.574219 83.402344 93.347656 C 83.53125 93.316406 83.695312 93.25 83.824219 93.414062 C 83.824219 93.511719 83.789062 93.574219 83.695312 93.605469 C 82.757812 94.1875 82.015625 94.964844 81.339844 95.835938 C 80.628906 96.742188 79.726562 97.421875 78.628906 97.839844 C 78.082031 98.035156 77.566406 98.261719 77.046875 98.519531 C 76.789062 98.648438 76.566406 98.875 76.660156 99.199219 C 76.757812 99.488281 77.015625 99.519531 77.273438 99.554688 C 77.726562 99.617188 78.144531 99.488281 78.566406 99.390625 C 80.242188 99.070312 81.917969 98.714844 83.46875 97.9375 C 85.371094 96.96875 87.082031 95.707031 88.597656 94.222656 C 89.210938 93.605469 89.855469 92.992188 90.566406 92.445312 C 91.953125 91.410156 93.5 90.601562 95.082031 89.859375 C 95.242188 89.792969 95.371094 89.730469 95.5 89.890625 C 95.597656 89.890625 95.628906 89.859375 95.695312 89.828125 Z M 95.695312 89.828125 " fill-opacity="1" fill-rule="nonzero"/></g><path fill="#e5e17c" d="M 49.335938 74.058594 C 48.949219 73.863281 48.980469 73.570312 48.917969 73.347656 C 48.628906 72.503906 48.402344 71.664062 47.917969 70.921875 C 47.53125 70.339844 47.046875 69.984375 46.304688 70.050781 C 46.207031 70.050781 46.109375 70.050781 45.980469 70.050781 C 45.789062 70.015625 45.53125 70.148438 45.402344 69.921875 C 45.273438 69.695312 45.496094 69.566406 45.625 69.402344 C 45.851562 69.144531 46.046875 68.886719 46.273438 68.628906 C 46.949219 67.917969 47.304688 67.078125 47.207031 66.074219 C 47.207031 65.914062 47.207031 65.75 47.207031 65.621094 C 47.207031 65.460938 47.207031 65.300781 47.402344 65.265625 C 47.5625 65.234375 47.628906 65.363281 47.691406 65.492188 C 47.757812 65.621094 47.820312 65.71875 47.886719 65.847656 C 48.464844 66.949219 49.304688 67.691406 50.59375 67.789062 C 50.722656 67.789062 50.886719 67.789062 50.917969 67.949219 C 50.949219 68.109375 50.851562 68.175781 50.757812 68.273438 C 49.273438 69.339844 49.144531 70.890625 49.335938 72.539062 C 49.367188 72.957031 49.433594 73.476562 49.335938 74.058594 Z M 95.371094 91.636719 C 95.308594 92.574219 94.984375 93.382812 94.144531 93.898438 C 93.886719 94.058594 93.628906 94.253906 93.40625 94.449219 C 93.179688 94.640625 93.210938 94.804688 93.5 94.898438 C 93.628906 94.933594 93.757812 94.964844 93.886719 94.964844 C 94.792969 94.933594 95.40625 95.382812 95.855469 96.09375 C 96.148438 96.355469 96.277344 96.675781 96.46875 97 C 96.757812 97.515625 96.886719 98.097656 97.082031 98.679688 C 97.113281 98.808594 97.148438 99.035156 97.339844 99.003906 C 97.566406 98.972656 97.566406 98.746094 97.535156 98.550781 C 97.535156 98.488281 97.5 98.390625 97.5 98.324219 C 97.308594 96.9375 97.597656 95.644531 98.113281 94.382812 C 98.179688 94.285156 98.242188 94.222656 98.339844 94.222656 C 98.339844 94.222656 98.308594 94.222656 98.308594 94.222656 C 98.40625 93.703125 99.082031 93.769531 99.210938 93.285156 C 99.082031 93.058594 98.824219 93.089844 98.628906 93.058594 C 98.113281 92.992188 97.695312 92.765625 97.308594 92.445312 C 96.757812 92.023438 96.40625 91.472656 96.148438 90.828125 C 96.015625 90.472656 95.921875 90.085938 95.664062 89.792969 C 95.628906 89.828125 95.566406 89.828125 95.535156 89.828125 C 95.371094 90.441406 95.4375 91.054688 95.371094 91.636719 Z M 39.367188 84.71875 C 37.882812 85.269531 36.464844 86.011719 35.140625 86.851562 C 31.140625 89.339844 27.046875 91.605469 23.042969 94.058594 C 21.496094 94.996094 19.949219 95.964844 18.496094 97.066406 C 16.398438 98.617188 14.300781 100.136719 12.464844 101.976562 C 12.238281 102.234375 11.882812 102.363281 12.011719 102.785156 C 12.109375 103.140625 12.464844 103.171875 12.753906 103.238281 C 13.6875 103.429688 14.625 103.398438 15.558594 103.269531 C 17.011719 103.074219 18.429688 102.847656 19.851562 102.558594 C 24.078125 101.6875 28.269531 100.75 32.335938 99.328125 C 36.140625 97.96875 39.949219 96.773438 43.851562 95.738281 C 48.304688 94.542969 52.691406 93.058594 57.113281 91.765625 C 58.886719 91.25 60.660156 90.601562 62.464844 90.085938 C 65.628906 89.117188 68.855469 88.308594 72.015625 87.273438 C 74.273438 86.53125 76.597656 85.917969 78.824219 85.074219 C 80.113281 84.589844 81.402344 84.140625 82.726562 83.71875 C 86.179688 82.652344 89.628906 81.683594 93.050781 80.519531 C 95.726562 79.613281 98.371094 78.644531 101.082031 77.804688 C 104.019531 76.867188 106.921875 75.835938 109.792969 74.636719 C 112.179688 73.636719 114.632812 72.796875 117.019531 71.730469 C 118.632812 70.988281 120.277344 70.242188 121.953125 69.628906 C 125.953125 68.078125 129.828125 66.269531 133.730469 64.492188 C 135.570312 63.652344 137.375 62.746094 138.988281 61.484375 C 139.183594 61.324219 139.441406 61.195312 139.40625 60.871094 C 139.375 60.582031 139.117188 60.453125 138.890625 60.355469 C 138.730469 60.289062 138.535156 60.226562 138.375 60.226562 C 136.246094 60.226562 134.117188 60.226562 131.988281 60.417969 C 130.730469 60.550781 129.472656 60.742188 128.214844 60.839844 C 126.566406 60.9375 124.921875 61.195312 123.277344 61.390625 C 121.019531 61.648438 118.761719 62.035156 116.535156 62.421875 C 113.664062 62.941406 110.761719 63.425781 107.921875 64.070312 C 107.40625 64.199219 106.921875 64.296875 106.40625 64.328125 C 106.503906 64.683594 106.632812 65.007812 106.855469 65.300781 C 109.308594 64.78125 111.726562 64.105469 114.210938 63.75 C 115.40625 63.585938 116.597656 63.359375 117.824219 63.199219 C 118.890625 63.070312 119.921875 63.003906 120.988281 62.8125 C 122.148438 62.617188 123.308594 62.519531 124.472656 62.457031 C 125.761719 62.390625 127.050781 62.421875 128.375 62.421875 C 128.730469 62.421875 129.214844 62.261719 129.34375 62.84375 C 129.4375 63.328125 128.957031 63.425781 128.664062 63.554688 C 125.953125 64.945312 123.148438 66.105469 120.339844 67.269531 C 117.859375 68.273438 115.4375 69.371094 112.988281 70.4375 C 111.277344 71.214844 109.597656 72.019531 107.824219 72.570312 C 104.050781 73.765625 100.339844 75.15625 96.535156 76.320312 C 94.113281 77.0625 91.726562 77.96875 89.339844 78.808594 C 86.273438 79.90625 83.144531 80.84375 80.015625 81.78125 C 78.046875 82.363281 76.144531 83.136719 74.210938 83.75 C 72.015625 84.460938 69.789062 85.109375 67.597656 85.753906 C 65.5 86.367188 63.46875 87.144531 61.335938 87.660156 C 59.242188 88.144531 57.242188 89.019531 55.175781 89.601562 C 53.109375 90.183594 51.046875 90.828125 49.015625 91.472656 C 46.402344 92.28125 43.722656 92.929688 41.109375 93.832031 C 39.59375 94.382812 38.078125 94.933594 36.53125 95.382812 C 34.367188 96 32.175781 96.515625 30.011719 97.160156 C 27.949219 97.777344 25.914062 98.519531 23.820312 98.90625 C 22.914062 99.070312 22.011719 99.328125 21.042969 99.292969 C 20.820312 99.292969 20.5625 99.292969 20.429688 99.035156 C 20.300781 98.746094 20.464844 98.550781 20.625 98.324219 C 20.722656 98.195312 20.851562 98.097656 20.949219 98.003906 C 21.65625 97.292969 22.367188 96.644531 23.109375 95.964844 C 24.625 94.609375 26.207031 93.347656 27.882812 92.25 C 30.398438 90.601562 32.980469 89.050781 35.625 87.597656 C 36.949219 86.886719 38.175781 86.011719 39.5625 85.398438 C 39.402344 85.140625 39.402344 84.914062 39.367188 84.71875 Z M 39.367188 84.71875 " fill-opacity="1" fill-rule="nonzero"/></svg>