<svg xmlns="http://www.w3.org/2000/svg" xmlns:xlink="http://www.w3.org/1999/xlink" width="204" zoomAndPan="magnify" viewBox="0 0 153 153.000002" height="204" preserveAspectRatio="xMidYMid meet" version="1.0"><defs><clipPath id="4c7033bf5e"><path d="M 22 21 L 131 21 L 131 131 L 22 131 Z M 22 21 " clip-rule="nonzero"/></clipPath><clipPath id="de922763fd"><path d="M 38.164062 114.339844 C 59.335938 135.511719 93.625 135.511719 114.761719 114.339844 C 135.894531 93.167969 135.933594 58.878906 114.761719 37.742188 C 93.585938 16.570312 59.296875 16.570312 38.164062 37.742188 C 17.027344 58.878906 17.027344 93.167969 38.164062 114.339844 Z M 38.164062 114.339844 " clip-rule="evenodd"/></clipPath><linearGradient x1="13538.585485" gradientTransform="matrix(0.010874, 0, 0, -0.010874, -14.741487, -14.136256)" y1="-14046.414691" x2="3241.288853" gradientUnits="userSpaceOnUse" y2="-2537.789506" id="af22ee6976"><stop stop-opacity="1" stop-color="rgb(70.199585%, 70.199585%, 70.199585%)" offset="0"/><stop stop-opacity="1" stop-color="rgb(70.199585%, 70.199585%, 70.199585%)" offset="0.25"/><stop stop-opacity="1" stop-color="rgb(70.384216%, 70.384216%, 70.384216%)" offset="0.375"/><stop stop-opacity="1" stop-color="rgb(70.779419%, 70.779419%, 70.779419%)" offset="0.378906"/><stop stop-opacity="1" stop-color="rgb(70.98999%, 70.98999%, 70.98999%)" offset="0.382812"/><stop stop-opacity="1" stop-color="rgb(71.199036%, 71.199036%, 71.199036%)" offset="0.386719"/><stop stop-opacity="1" stop-color="rgb(71.409607%, 71.409607%, 71.409607%)" offset="0.390625"/><stop stop-opacity="1" stop-color="rgb(71.618652%, 71.618652%, 71.618652%)" offset="0.394531"/><stop stop-opacity="1" stop-color="rgb(71.829224%, 71.829224%, 71.829224%)" offset="0.398438"/><stop stop-opacity="1" stop-color="rgb(72.038269%, 72.038269%, 72.038269%)" offset="0.402344"/><stop stop-opacity="1" stop-color="rgb(72.24884%, 72.24884%, 72.24884%)" offset="0.40625"/><stop stop-opacity="1" stop-color="rgb(72.457886%, 72.457886%, 72.457886%)" offset="0.410156"/><stop stop-opacity="1" stop-color="rgb(72.668457%, 72.668457%, 72.668457%)" offset="0.414062"/><stop stop-opacity="1" stop-color="rgb(72.877502%, 72.877502%, 72.877502%)" offset="0.417969"/><stop stop-opacity="1" stop-color="rgb(73.088074%, 73.088074%, 73.088074%)" offset="0.421875"/><stop stop-opacity="1" stop-color="rgb(73.297119%, 73.297119%, 73.297119%)" offset="0.425781"/><stop stop-opacity="1" stop-color="rgb(73.50769%, 73.50769%, 73.50769%)" offset="0.429688"/><stop stop-opacity="1" stop-color="rgb(73.716736%, 73.716736%, 73.716736%)" offset="0.433594"/><stop stop-opacity="1" stop-color="rgb(73.927307%, 73.927307%, 73.927307%)" offset="0.4375"/><stop stop-opacity="1" stop-color="rgb(74.136353%, 74.136353%, 74.136353%)" offset="0.441406"/><stop stop-opacity="1" stop-color="rgb(74.346924%, 74.346924%, 74.346924%)" offset="0.445312"/><stop stop-opacity="1" stop-color="rgb(74.555969%, 74.555969%, 74.555969%)" offset="0.449219"/><stop stop-opacity="1" stop-color="rgb(74.766541%, 74.766541%, 74.766541%)" offset="0.453125"/><stop stop-opacity="1" stop-color="rgb(74.975586%, 74.975586%, 74.975586%)" offset="0.457031"/><stop stop-opacity="1" stop-color="rgb(75.186157%, 75.186157%, 75.186157%)" offset="0.460938"/><stop stop-opacity="1" stop-color="rgb(75.395203%, 75.395203%, 75.395203%)" offset="0.464844"/><stop stop-opacity="1" stop-color="rgb(75.605774%, 75.605774%, 75.605774%)" offset="0.46875"/><stop stop-opacity="1" stop-color="rgb(75.814819%, 75.814819%, 75.814819%)" offset="0.472656"/><stop stop-opacity="1" stop-color="rgb(76.025391%, 76.025391%, 76.025391%)" offset="0.476562"/><stop stop-opacity="1" stop-color="rgb(76.234436%, 76.234436%, 76.234436%)" offset="0.480469"/><stop stop-opacity="1" stop-color="rgb(76.445007%, 76.445007%, 76.445007%)" offset="0.484375"/><stop stop-opacity="1" stop-color="rgb(76.654053%, 76.654053%, 76.654053%)" offset="0.488281"/><stop stop-opacity="1" stop-color="rgb(76.864624%, 76.864624%, 76.864624%)" offset="0.492188"/><stop stop-opacity="1" stop-color="rgb(77.073669%, 77.073669%, 77.073669%)" offset="0.496094"/><stop stop-opacity="1" stop-color="rgb(77.284241%, 77.284241%, 77.284241%)" offset="0.5"/><stop stop-opacity="1" stop-color="rgb(77.493286%, 77.493286%, 77.493286%)" offset="0.503906"/><stop stop-opacity="1" stop-color="rgb(77.703857%, 77.703857%, 77.703857%)" offset="0.507812"/><stop stop-opacity="1" stop-color="rgb(77.912903%, 77.912903%, 77.912903%)" offset="0.511719"/><stop stop-opacity="1" stop-color="rgb(78.123474%, 78.123474%, 78.123474%)" offset="0.515625"/><stop stop-opacity="1" stop-color="rgb(78.33252%, 78.33252%, 78.33252%)" offset="0.519531"/><stop stop-opacity="1" stop-color="rgb(78.543091%, 78.543091%, 78.543091%)" offset="0.523438"/><stop stop-opacity="1" stop-color="rgb(78.752136%, 78.752136%, 78.752136%)" offset="0.527344"/><stop stop-opacity="1" stop-color="rgb(78.962708%, 78.962708%, 78.962708%)" offset="0.53125"/><stop stop-opacity="1" stop-color="rgb(79.171753%, 79.171753%, 79.171753%)" offset="0.535156"/><stop stop-opacity="1" stop-color="rgb(79.382324%, 79.382324%, 79.382324%)" offset="0.539062"/><stop stop-opacity="1" stop-color="rgb(79.59137%, 79.59137%, 79.59137%)" offset="0.542969"/><stop stop-opacity="1" stop-color="rgb(79.801941%, 79.801941%, 79.801941%)" offset="0.546875"/><stop stop-opacity="1" stop-color="rgb(80.010986%, 80.010986%, 80.010986%)" offset="0.550781"/><stop stop-opacity="1" stop-color="rgb(80.221558%, 80.221558%, 80.221558%)" offset="0.554688"/><stop stop-opacity="1" stop-color="rgb(80.430603%, 80.430603%, 80.430603%)" offset="0.558594"/><stop stop-opacity="1" stop-color="rgb(80.641174%, 80.641174%, 80.641174%)" offset="0.5625"/><stop stop-opacity="1" stop-color="rgb(80.85022%, 80.85022%, 80.85022%)" offset="0.566406"/><stop stop-opacity="1" stop-color="rgb(81.060791%, 81.060791%, 81.060791%)" offset="0.570312"/><stop stop-opacity="1" stop-color="rgb(81.269836%, 81.269836%, 81.269836%)" offset="0.574219"/><stop stop-opacity="1" stop-color="rgb(81.480408%, 81.480408%, 81.480408%)" offset="0.578125"/><stop stop-opacity="1" stop-color="rgb(81.689453%, 81.689453%, 81.689453%)" offset="0.582031"/><stop stop-opacity="1" stop-color="rgb(81.898499%, 81.898499%, 81.898499%)" offset="0.585938"/><stop stop-opacity="1" stop-color="rgb(82.107544%, 82.107544%, 82.107544%)" offset="0.589844"/><stop stop-opacity="1" stop-color="rgb(82.318115%, 82.318115%, 82.318115%)" offset="0.59375"/><stop stop-opacity="1" stop-color="rgb(82.527161%, 82.527161%, 82.527161%)" offset="0.597656"/><stop stop-opacity="1" stop-color="rgb(82.737732%, 82.737732%, 82.737732%)" offset="0.601563"/><stop stop-opacity="1" stop-color="rgb(82.946777%, 82.946777%, 82.946777%)" offset="0.605469"/><stop stop-opacity="1" stop-color="rgb(83.157349%, 83.157349%, 83.157349%)" offset="0.609375"/><stop stop-opacity="1" stop-color="rgb(83.366394%, 83.366394%, 83.366394%)" offset="0.613281"/><stop stop-opacity="1" stop-color="rgb(83.576965%, 83.576965%, 83.576965%)" offset="0.617188"/><stop stop-opacity="1" stop-color="rgb(83.786011%, 83.786011%, 83.786011%)" offset="0.621094"/><stop stop-opacity="1" stop-color="rgb(83.996582%, 83.996582%, 83.996582%)" offset="0.625"/><stop stop-opacity="1" stop-color="rgb(84.205627%, 84.205627%, 84.205627%)" offset="0.628906"/><stop stop-opacity="1" stop-color="rgb(84.416199%, 84.416199%, 84.416199%)" offset="0.632813"/><stop stop-opacity="1" stop-color="rgb(84.625244%, 84.625244%, 84.625244%)" offset="0.636719"/><stop stop-opacity="1" stop-color="rgb(84.835815%, 84.835815%, 84.835815%)" offset="0.640625"/><stop stop-opacity="1" stop-color="rgb(85.044861%, 85.044861%, 85.044861%)" offset="0.644531"/><stop stop-opacity="1" stop-color="rgb(85.255432%, 85.255432%, 85.255432%)" offset="0.648438"/><stop stop-opacity="1" stop-color="rgb(85.464478%, 85.464478%, 85.464478%)" offset="0.652344"/><stop stop-opacity="1" stop-color="rgb(85.675049%, 85.675049%, 85.675049%)" offset="0.65625"/><stop stop-opacity="1" stop-color="rgb(85.884094%, 85.884094%, 85.884094%)" offset="0.660156"/><stop stop-opacity="1" stop-color="rgb(86.094666%, 86.094666%, 86.094666%)" offset="0.664063"/><stop stop-opacity="1" stop-color="rgb(86.303711%, 86.303711%, 86.303711%)" offset="0.667969"/><stop stop-opacity="1" stop-color="rgb(86.514282%, 86.514282%, 86.514282%)" offset="0.671875"/><stop stop-opacity="1" stop-color="rgb(86.723328%, 86.723328%, 86.723328%)" offset="0.675781"/><stop stop-opacity="1" stop-color="rgb(86.933899%, 86.933899%, 86.933899%)" offset="0.679688"/><stop stop-opacity="1" stop-color="rgb(87.142944%, 87.142944%, 87.142944%)" offset="0.683594"/><stop stop-opacity="1" stop-color="rgb(87.353516%, 87.353516%, 87.353516%)" offset="0.6875"/><stop stop-opacity="1" stop-color="rgb(87.562561%, 87.562561%, 87.562561%)" offset="0.691406"/><stop stop-opacity="1" stop-color="rgb(87.773132%, 87.773132%, 87.773132%)" offset="0.695312"/><stop stop-opacity="1" stop-color="rgb(87.982178%, 87.982178%, 87.982178%)" offset="0.699219"/><stop stop-opacity="1" stop-color="rgb(88.192749%, 88.192749%, 88.192749%)" offset="0.703125"/><stop stop-opacity="1" stop-color="rgb(88.401794%, 88.401794%, 88.401794%)" offset="0.707031"/><stop stop-opacity="1" stop-color="rgb(88.612366%, 88.612366%, 88.612366%)" offset="0.710938"/><stop stop-opacity="1" stop-color="rgb(88.821411%, 88.821411%, 88.821411%)" offset="0.714844"/><stop stop-opacity="1" stop-color="rgb(89.031982%, 89.031982%, 89.031982%)" offset="0.71875"/><stop stop-opacity="1" stop-color="rgb(89.241028%, 89.241028%, 89.241028%)" offset="0.722656"/><stop stop-opacity="1" stop-color="rgb(89.451599%, 89.451599%, 89.451599%)" offset="0.726563"/><stop stop-opacity="1" stop-color="rgb(89.660645%, 89.660645%, 89.660645%)" offset="0.730469"/><stop stop-opacity="1" stop-color="rgb(89.871216%, 89.871216%, 89.871216%)" offset="0.734375"/><stop stop-opacity="1" stop-color="rgb(90.080261%, 90.080261%, 90.080261%)" offset="0.738281"/><stop stop-opacity="1" stop-color="rgb(90.290833%, 90.290833%, 90.290833%)" offset="0.742188"/><stop stop-opacity="1" stop-color="rgb(90.499878%, 90.499878%, 90.499878%)" offset="0.746094"/><stop stop-opacity="1" stop-color="rgb(90.710449%, 90.710449%, 90.710449%)" offset="0.75"/><stop stop-opacity="1" stop-color="rgb(90.919495%, 90.919495%, 90.919495%)" offset="0.753906"/><stop stop-opacity="1" stop-color="rgb(91.130066%, 91.130066%, 91.130066%)" offset="0.757812"/><stop stop-opacity="1" stop-color="rgb(91.339111%, 91.339111%, 91.339111%)" offset="0.761719"/><stop stop-opacity="1" stop-color="rgb(91.549683%, 91.549683%, 91.549683%)" offset="0.765625"/><stop stop-opacity="1" stop-color="rgb(91.758728%, 91.758728%, 91.758728%)" offset="0.769531"/><stop stop-opacity="1" stop-color="rgb(91.969299%, 91.969299%, 91.969299%)" offset="0.773438"/><stop stop-opacity="1" stop-color="rgb(92.178345%, 92.178345%, 92.178345%)" offset="0.777344"/><stop stop-opacity="1" stop-color="rgb(92.388916%, 92.388916%, 92.388916%)" offset="0.78125"/><stop stop-opacity="1" stop-color="rgb(92.597961%, 92.597961%, 92.597961%)" offset="0.785156"/><stop stop-opacity="1" stop-color="rgb(92.808533%, 92.808533%, 92.808533%)" offset="0.789063"/><stop stop-opacity="1" stop-color="rgb(93.017578%, 93.017578%, 93.017578%)" offset="0.792969"/><stop stop-opacity="1" stop-color="rgb(93.228149%, 93.228149%, 93.228149%)" offset="0.796875"/><stop stop-opacity="1" stop-color="rgb(93.437195%, 93.437195%, 93.437195%)" offset="0.800781"/><stop stop-opacity="1" stop-color="rgb(93.647766%, 93.647766%, 93.647766%)" offset="0.804687"/><stop stop-opacity="1" stop-color="rgb(93.856812%, 93.856812%, 93.856812%)" offset="0.808594"/><stop stop-opacity="1" stop-color="rgb(94.067383%, 94.067383%, 94.067383%)" offset="0.8125"/><stop stop-opacity="1" stop-color="rgb(94.276428%, 94.276428%, 94.276428%)" offset="0.816406"/><stop stop-opacity="1" stop-color="rgb(94.487%, 94.487%, 94.487%)" offset="0.820312"/><stop stop-opacity="1" stop-color="rgb(94.696045%, 94.696045%, 94.696045%)" offset="0.824219"/><stop stop-opacity="1" stop-color="rgb(94.906616%, 94.906616%, 94.906616%)" offset="0.828125"/><stop stop-opacity="1" stop-color="rgb(95.115662%, 95.115662%, 95.115662%)" offset="0.832031"/><stop stop-opacity="1" stop-color="rgb(95.326233%, 95.326233%, 95.326233%)" offset="0.835938"/><stop stop-opacity="1" stop-color="rgb(95.535278%, 95.535278%, 95.535278%)" offset="0.839844"/><stop stop-opacity="1" stop-color="rgb(95.74585%, 95.74585%, 95.74585%)" offset="0.84375"/><stop stop-opacity="1" stop-color="rgb(95.954895%, 95.954895%, 95.954895%)" offset="0.847656"/><stop stop-opacity="1" stop-color="rgb(96.165466%, 96.165466%, 96.165466%)" offset="0.851563"/><stop stop-opacity="1" stop-color="rgb(96.374512%, 96.374512%, 96.374512%)" offset="0.855469"/><stop stop-opacity="1" stop-color="rgb(96.585083%, 96.585083%, 96.585083%)" offset="0.859375"/><stop stop-opacity="1" stop-color="rgb(96.794128%, 96.794128%, 96.794128%)" offset="0.863281"/><stop stop-opacity="1" stop-color="rgb(97.0047%, 97.0047%, 97.0047%)" offset="0.867187"/><stop stop-opacity="1" stop-color="rgb(97.213745%, 97.213745%, 97.213745%)" offset="0.871094"/><stop stop-opacity="1" stop-color="rgb(97.424316%, 97.424316%, 97.424316%)" offset="0.875"/><stop stop-opacity="1" stop-color="rgb(97.633362%, 97.633362%, 97.633362%)" offset="0.878906"/><stop stop-opacity="1" stop-color="rgb(97.843933%, 97.843933%, 97.843933%)" offset="0.882812"/><stop stop-opacity="1" stop-color="rgb(98.052979%, 98.052979%, 98.052979%)" offset="0.886719"/><stop stop-opacity="1" stop-color="rgb(98.26355%, 98.26355%, 98.26355%)" offset="0.890625"/><stop stop-opacity="1" stop-color="rgb(98.472595%, 98.472595%, 98.472595%)" offset="0.894531"/><stop stop-opacity="1" stop-color="rgb(98.683167%, 98.683167%, 98.683167%)" offset="0.898438"/><stop stop-opacity="1" stop-color="rgb(98.892212%, 98.892212%, 98.892212%)" offset="0.902344"/><stop stop-opacity="1" stop-color="rgb(99.102783%, 99.102783%, 99.102783%)" offset="0.90625"/><stop stop-opacity="1" stop-color="rgb(99.311829%, 99.311829%, 99.311829%)" offset="0.910156"/><stop stop-opacity="1" stop-color="rgb(99.5224%, 99.5224%, 99.5224%)" offset="0.914063"/><stop stop-opacity="1" stop-color="rgb(99.731445%, 99.731445%, 99.731445%)" offset="0.917969"/><stop stop-opacity="1" stop-color="rgb(99.942017%, 99.942017%, 99.942017%)" offset="0.921875"/><stop stop-opacity="1" stop-color="rgb(99.971008%, 99.971008%, 99.971008%)" offset="0.9375"/><stop stop-opacity="1" stop-color="rgb(100%, 100%, 100%)" offset="1"/></linearGradient></defs><path fill="#e6e6e6" d="M 27.539062 124.964844 C 54.578125 152.007812 98.421875 152.007812 125.460938 124.964844 C 152.503906 97.925781 152.503906 54.082031 125.460938 27.042969 C 98.421875 0 54.578125 0 27.539062 27.042969 C 0.496094 54.121094 0.496094 97.925781 27.539062 124.964844 Z M 27.539062 124.964844 " fill-opacity="0.251" fill-rule="evenodd"/><path fill="#e6e6e6" d="M 33.175781 119.328125 C 57.109375 143.261719 95.851562 143.261719 119.785156 119.328125 C 143.71875 95.390625 143.71875 56.652344 119.785156 32.71875 C 95.851562 8.785156 57.109375 8.785156 33.175781 32.71875 C 9.242188 56.652344 9.242188 95.390625 33.175781 119.328125 Z M 33.175781 119.328125 " fill-opacity="0.549" fill-rule="evenodd"/><g clip-path="url(#4c7033bf5e)"><g clip-path="url(#de922763fd)"><path fill="url(#af22ee6976)" d="M 17.027344 135.511719 L 17.027344 16.570312 L 135.933594 16.570312 L 135.933594 135.511719 Z M 17.027344 135.511719 " fill-rule="nonzero"/></g></g><path fill="#010333" d="M 106.476562 30.914062 C 110.542969 37.472656 113.074219 44.722656 114.070312 52.125 C 116.488281 53.007812 118.597656 55.195312 118.558594 58.683594 C 118.519531 62.828125 116.5625 64.515625 114.300781 64.59375 C 113.265625 75.5625 108.855469 86.261719 101.144531 95.046875 C 106.667969 102.796875 97.691406 113.917969 86.53125 113.6875 C 82.578125 113.613281 79.625 112.691406 77.707031 110.695312 C 62.058594 115.953125 44.53125 113.878906 30.375 104.484375 C 32.523438 107.972656 35.132812 111.273438 38.164062 114.300781 C 59.335938 135.476562 93.625 135.476562 114.761719 114.300781 C 135.894531 93.128906 135.933594 58.839844 114.761719 37.703125 C 112.191406 35.132812 109.429688 32.871094 106.476562 30.914062 Z M 106.9375 45.757812 C 107.894531 44.492188 109.007812 45.335938 109.238281 46.144531 C 109.390625 46.792969 108.929688 47.5625 107.972656 47.675781 C 107.128906 47.714844 106.207031 46.71875 106.9375 45.757812 Z M 62.710938 29.152344 C 63.667969 27.886719 64.78125 28.730469 65.011719 29.535156 C 65.164062 30.1875 64.707031 30.953125 63.746094 31.070312 C 62.902344 31.105469 61.980469 30.109375 62.710938 29.152344 Z M 31.410156 87.875 C 32.371094 86.609375 33.484375 87.453125 33.714844 88.257812 C 33.867188 88.910156 33.40625 89.675781 32.449219 89.792969 C 31.605469 89.832031 30.683594 88.832031 31.410156 87.875 Z M 69.882812 106.09375 C 70.84375 104.828125 71.953125 105.671875 72.183594 106.476562 C 72.339844 107.128906 71.878906 107.898438 70.917969 108.011719 C 70.074219 108.050781 69.15625 107.015625 69.882812 106.09375 Z M 90.175781 50.785156 C 91.132812 49.519531 92.246094 50.363281 92.476562 51.167969 C 92.628906 51.820312 92.167969 52.585938 91.210938 52.703125 C 90.367188 52.738281 89.445312 51.742188 90.175781 50.785156 Z M 84.574219 55.769531 C 86.070312 57.765625 87.796875 56.421875 88.101562 55.195312 C 88.371094 54.160156 87.640625 52.96875 86.148438 52.855469 C 84.84375 52.738281 83.421875 54.3125 84.574219 55.769531 Z M 92.628906 36.398438 C 91.671875 37.894531 93.011719 39.160156 93.972656 39.199219 C 95.542969 39.238281 96.3125 37.820312 95.851562 36.746094 C 95.351562 35.632812 93.625 34.867188 92.628906 36.398438 Z M 84.382812 27.691406 C 82.617188 30.148438 85.417969 32.488281 87.449219 32.640625 C 91.476562 32.988281 92.128906 29.265625 90.367188 27.269531 C 89.101562 25.851562 86.109375 25.316406 84.382812 27.691406 Z M 31.949219 55.730469 C 29.953125 59.03125 32.679688 61.753906 34.941406 62.253906 C 39.925781 63.289062 41.539062 56.5 37.894531 54.234375 C 36.246094 53.199219 33.40625 53.316406 31.949219 55.730469 Z M 34.558594 71.574219 C 32.523438 79.207031 38.429688 82.773438 45.066406 83.847656 C 51.703125 84.921875 54.886719 78.4375 54.617188 73.492188 C 54.3125 67.777344 50.359375 64.59375 46.027344 64.015625 C 41.308594 63.363281 36.089844 65.859375 34.558594 71.574219 Z M 80.625 81.851562 C 78.972656 84.613281 82.082031 86.648438 84.382812 86.148438 C 86.644531 85.648438 88.101562 82.582031 85.53125 80.546875 C 84.265625 79.589844 81.964844 79.667969 80.625 81.851562 Z M 95.925781 79.667969 C 95.082031 82.734375 98.039062 83.769531 100.339844 82.964844 C 102.101562 82.351562 103.484375 80.703125 102.523438 78.09375 C 102.027344 76.75 100.914062 76.367188 99.726562 76.597656 C 98.074219 76.90625 96.3125 78.285156 95.925781 79.667969 Z M 96.769531 92.476562 C 94.96875 91.363281 92.476562 90.445312 89.175781 90.214844 C 79.894531 89.523438 75.789062 97.15625 76.210938 103.601562 C 76.632812 110.007812 80.164062 112.613281 86.722656 112.730469 C 98.613281 112.960938 107.78125 99.226562 96.769531 92.476562 Z M 108.238281 54.925781 C 105.171875 61.90625 117.40625 68.121094 117.523438 58.609375 C 117.5625 52.546875 109.851562 51.167969 108.238281 54.925781 Z M 108.238281 54.925781 " fill-opacity="0.2" fill-rule="evenodd"/><path fill="#ffffff" d="M 27.5 99.152344 C 27.382812 98.652344 24.199219 84.691406 33.445312 78.898438 C 42.878906 73.03125 41.230469 66.738281 41.5 62.367188 C 41.769531 57.996094 44.492188 55.273438 50.628906 54.734375 C 56.765625 54.199219 63.324219 48.597656 61.292969 40.542969 C 59.257812 32.488281 61.753906 30.109375 65.011719 29.535156 C 68.273438 28.960938 71.6875 29.648438 73.027344 26.773438 C 74.332031 24.050781 76.019531 21.863281 79.164062 21.941406 C 64.398438 21.171875 49.441406 26.464844 38.164062 37.703125 C 21.554688 54.351562 17.988281 79.050781 27.5 99.152344 Z M 27.5 99.152344 " fill-opacity="0.2392" fill-rule="evenodd"/></svg>