<svg xmlns="http://www.w3.org/2000/svg" xmlns:xlink="http://www.w3.org/1999/xlink" width="204" zoomAndPan="magnify" viewBox="0 0 153 153.000002" height="204" preserveAspectRatio="xMidYMid meet" version="1.0"><defs><clipPath id="c0833b5304"><path d="M 10.339844 13.089844 L 142.972656 13.089844 L 142.972656 139.015625 L 10.339844 139.015625 Z M 10.339844 13.089844 " clip-rule="nonzero"/></clipPath><clipPath id="a1c6feba8b"><path d="M 10.339844 13.089844 L 118 13.089844 L 118 139.015625 L 10.339844 139.015625 Z M 10.339844 13.089844 " clip-rule="nonzero"/></clipPath></defs><g clip-path="url(#c0833b5304)"><path fill="#f5c116" d="M 76.636719 13.085938 L 98 55.765625 L 142.949219 61.1875 L 111.203125 96.339844 L 117.621094 139.023438 L 76.636719 121.414062 L 35.65625 139.023438 L 42.074219 96.339844 L 10.328125 61.1875 L 55.273438 55.765625 L 76.636719 13.085938 " fill-opacity="1" fill-rule="nonzero"/></g><g clip-path="url(#a1c6feba8b)"><path fill="#d2a113" d="M 117.621094 139.023438 L 76.636719 121.414062 L 35.65625 139.023438 L 42.074219 96.339844 L 10.328125 61.1875 L 55.273438 55.765625 L 76.636719 13.085938 C 76.636719 13.085938 68.382812 44.128906 65.941406 50.300781 C 63.730469 55.878906 63.066406 60.34375 57.464844 61.949219 C 55.652344 62.472656 53.648438 62.578125 51.585938 62.578125 C 50.886719 62.578125 50.183594 62.566406 49.472656 62.554688 C 48.769531 62.539062 48.0625 62.527344 47.359375 62.527344 C 42.753906 62.527344 38.328125 63.046875 35.5625 67.457031 C 31.78125 73.496094 35.527344 78.570312 40.378906 82.449219 C 45.246094 86.339844 50.929688 88.832031 52.433594 93.945312 C 54.0625 99.511719 46.914062 108.078125 49.476562 113.363281 C 51.453125 117.445312 55.554688 120.0625 60.066406 120.0625 C 62.300781 120.0625 64.640625 119.417969 66.867188 117.988281 C 69.878906 116.054688 72.460938 114.203125 75.703125 114.203125 C 78.039062 114.203125 80.71875 115.164062 84.144531 117.753906 C 88.589844 121.109375 92.867188 124.078125 95.808594 125.285156 C 97.714844 126.066406 99.328125 126.410156 100.722656 126.410156 C 103.917969 126.410156 105.980469 124.609375 107.84375 122.125 C 111.503906 117.25 112.585938 108.769531 112.226562 103.136719 L 117.621094 139.023438 " fill-opacity="1" fill-rule="nonzero"/></g></svg>