<svg xmlns="http://www.w3.org/2000/svg" xmlns:xlink="http://www.w3.org/1999/xlink" width="204" zoomAndPan="magnify" viewBox="0 0 153 153.000002" height="204" preserveAspectRatio="xMidYMid meet" version="1.0"><defs><clipPath id="bf5a51062d"><path d="M 42 0 L 150.851562 0 L 150.851562 16 L 42 16 Z M 42 0 " clip-rule="nonzero"/></clipPath><clipPath id="7d6b595e14"><path d="M 27 71 L 107 71 L 107 152.007812 L 27 152.007812 Z M 27 71 " clip-rule="nonzero"/></clipPath></defs><path fill="#6eabed" d="M 39.824219 50.730469 L 41.433594 46.917969 L 141.601562 89.339844 L 139.992188 93.152344 Z M 39.824219 50.730469 " fill-opacity="1" fill-rule="nonzero"/><g clip-path="url(#bf5a51062d)"><path fill="#6eabed" d="M 42.042969 11.898438 L 150.191406 -0.0078125 L 150.59375 3.6875 L 42.449219 15.59375 Z M 42.042969 11.898438 " fill-opacity="1" fill-rule="nonzero"/></g><g clip-path="url(#7d6b595e14)"><path fill="#6eabed" d="M 27.152344 73.917969 L 29.957031 71.167969 L 106.1875 149.257812 L 103.382812 152.007812 Z M 27.152344 73.917969 " fill-opacity="1" fill-rule="nonzero"/></g><path fill="#6eabed" d="M 44.863281 42.441406 L 46.050781 38.746094 L 147.113281 71.476562 L 145.921875 75.167969 Z M 44.863281 42.441406 " fill-opacity="1" fill-rule="nonzero"/><path fill="#7ab5ea" d="M 37.246094 8.992188 C 38.375 9 39.5 9.058594 40.625 9.175781 C 41.746094 9.289062 42.863281 9.460938 43.96875 9.6875 C 45.078125 9.914062 46.167969 10.191406 47.25 10.527344 C 48.328125 10.859375 49.386719 11.246094 50.429688 11.683594 C 51.472656 12.121094 52.488281 12.609375 53.480469 13.148438 C 54.476562 13.683594 55.441406 14.269531 56.375 14.902344 C 57.3125 15.535156 58.214844 16.214844 59.085938 16.9375 C 59.957031 17.660156 60.789062 18.421875 61.582031 19.226562 C 62.378906 20.03125 63.132812 20.871094 63.84375 21.75 C 64.558594 22.625 65.226562 23.539062 65.847656 24.480469 C 66.472656 25.425781 67.046875 26.398438 67.574219 27.398438 C 68.101562 28.398438 68.578125 29.421875 69.007812 30.46875 C 69.433594 31.519531 69.808594 32.585938 70.132812 33.667969 C 70.457031 34.753906 70.726562 35.851562 70.941406 36.960938 C 71.15625 38.074219 71.316406 39.191406 71.421875 40.320312 C 71.527344 41.445312 71.578125 42.574219 71.574219 43.707031 C 71.566406 44.839844 71.507812 45.96875 71.390625 47.09375 C 71.273438 48.21875 71.105469 49.335938 70.878906 50.445312 C 70.652344 51.554688 70.375 52.648438 70.042969 53.730469 C 69.710938 54.8125 69.324219 55.875 68.886719 56.917969 C 68.449219 57.960938 67.964844 58.980469 67.425781 59.976562 C 66.890625 60.972656 66.304688 61.941406 65.675781 62.878906 C 65.042969 63.816406 64.367188 64.722656 63.644531 65.59375 C 62.925781 66.464844 62.164062 67.300781 61.363281 68.097656 C 60.558594 68.894531 59.71875 69.648438 58.84375 70.363281 C 57.96875 71.074219 57.058594 71.746094 56.117188 72.371094 C 55.175781 72.996094 54.203125 73.570312 53.207031 74.101562 C 52.207031 74.628906 51.1875 75.109375 50.140625 75.535156 C 49.09375 75.964844 48.03125 76.339844 46.949219 76.664062 C 45.867188 76.988281 44.769531 77.257812 43.664062 77.472656 C 42.554688 77.6875 41.4375 77.851562 40.3125 77.957031 C 39.1875 78.0625 38.0625 78.113281 36.933594 78.105469 C 35.800781 78.101562 34.675781 78.039062 33.554688 77.925781 C 32.429688 77.808594 31.3125 77.636719 30.207031 77.410156 C 29.101562 77.1875 28.007812 76.90625 26.929688 76.574219 C 25.847656 76.238281 24.789062 75.855469 23.746094 75.414062 C 22.707031 74.976562 21.6875 74.488281 20.695312 73.953125 C 19.703125 73.414062 18.738281 72.828125 17.800781 72.195312 C 16.863281 71.5625 15.960938 70.886719 15.089844 70.164062 C 14.222656 69.441406 13.390625 68.679688 12.59375 67.875 C 11.800781 67.070312 11.046875 66.230469 10.332031 65.351562 C 9.621094 64.472656 8.953125 63.5625 8.328125 62.617188 C 7.707031 61.675781 7.128906 60.703125 6.601562 59.703125 C 6.074219 58.699219 5.597656 57.675781 5.167969 56.628906 C 4.742188 55.582031 4.367188 54.515625 4.042969 53.429688 C 3.722656 52.347656 3.453125 51.25 3.238281 50.136719 C 3.019531 49.027344 2.859375 47.90625 2.753906 46.78125 C 2.648438 45.652344 2.597656 44.523438 2.605469 43.394531 C 2.609375 42.261719 2.671875 41.132812 2.785156 40.007812 C 2.902344 38.878906 3.074219 37.761719 3.296875 36.65625 C 3.523438 35.546875 3.800781 34.449219 4.136719 33.367188 C 4.46875 32.285156 4.851562 31.222656 5.289062 30.179688 C 5.726562 29.136719 6.214844 28.117188 6.75 27.121094 C 7.285156 26.125 7.871094 25.160156 8.503906 24.222656 C 9.136719 23.28125 9.8125 22.378906 10.53125 21.507812 C 11.25 20.632812 12.011719 19.800781 12.816406 19.003906 C 13.617188 18.207031 14.457031 17.453125 15.332031 16.738281 C 16.210938 16.023438 17.117188 15.355469 18.058594 14.730469 C 19.003906 14.105469 19.972656 13.527344 20.972656 13 C 21.96875 12.46875 22.992188 11.992188 24.035156 11.5625 C 25.082031 11.136719 26.144531 10.757812 27.226562 10.4375 C 28.308594 10.113281 29.40625 9.84375 30.515625 9.625 C 31.625 9.410156 32.738281 9.25 33.863281 9.144531 C 34.988281 9.039062 36.117188 8.988281 37.246094 8.992188 Z M 37.246094 8.992188 " fill-opacity="1" fill-rule="nonzero"/><path fill="#9ccdf2" d="M 61.976562 42.242188 C 61.976562 43.1875 61.929688 44.132812 61.835938 45.074219 C 61.742188 46.015625 61.605469 46.949219 61.421875 47.875 C 61.238281 48.804688 61.007812 49.71875 60.734375 50.625 C 60.460938 51.53125 60.144531 52.417969 59.78125 53.292969 C 59.421875 54.167969 59.019531 55.019531 58.574219 55.855469 C 58.128906 56.6875 57.644531 57.5 57.121094 58.285156 C 56.59375 59.070312 56.035156 59.832031 55.433594 60.5625 C 54.835938 61.292969 54.203125 61.992188 53.535156 62.660156 C 52.867188 63.332031 52.171875 63.964844 51.441406 64.5625 C 50.710938 65.164062 49.953125 65.726562 49.167969 66.253906 C 48.382812 66.777344 47.574219 67.261719 46.742188 67.710938 C 45.910156 68.15625 45.058594 68.558594 44.1875 68.921875 C 43.316406 69.28125 42.429688 69.601562 41.523438 69.875 C 40.621094 70.148438 39.707031 70.378906 38.78125 70.5625 C 37.855469 70.75 36.921875 70.886719 35.984375 70.980469 C 35.042969 71.074219 34.101562 71.121094 33.160156 71.121094 C 32.214844 71.121094 31.273438 71.074219 30.335938 70.980469 C 29.394531 70.886719 28.464844 70.75 27.539062 70.566406 C 26.613281 70.378906 25.699219 70.152344 24.796875 69.875 C 23.890625 69.601562 23.003906 69.285156 22.132812 68.921875 C 21.261719 68.558594 20.410156 68.15625 19.578125 67.710938 C 18.742188 67.265625 17.9375 66.777344 17.152344 66.253906 C 16.367188 65.726562 15.609375 65.164062 14.878906 64.566406 C 14.148438 63.964844 13.453125 63.332031 12.785156 62.664062 C 12.117188 61.992188 11.484375 61.292969 10.886719 60.5625 C 10.285156 59.832031 9.726562 59.074219 9.199219 58.285156 C 8.675781 57.5 8.191406 56.691406 7.746094 55.855469 C 7.300781 55.023438 6.898438 54.167969 6.539062 53.292969 C 6.175781 52.421875 5.859375 51.53125 5.585938 50.625 C 5.3125 49.722656 5.082031 48.804688 4.898438 47.875 C 4.714844 46.949219 4.574219 46.015625 4.484375 45.074219 C 4.390625 44.132812 4.34375 43.1875 4.34375 42.242188 C 4.34375 41.296875 4.390625 40.351562 4.484375 39.410156 C 4.578125 38.46875 4.714844 37.535156 4.898438 36.609375 C 5.082031 35.679688 5.3125 34.765625 5.585938 33.859375 C 5.859375 32.953125 6.179688 32.0625 6.539062 31.191406 C 6.902344 30.316406 7.304688 29.460938 7.75 28.628906 C 8.195312 27.792969 8.679688 26.984375 9.203125 26.199219 C 9.730469 25.410156 10.289062 24.652344 10.890625 23.921875 C 11.488281 23.191406 12.121094 22.488281 12.789062 21.820312 C 13.457031 21.152344 14.15625 20.519531 14.886719 19.917969 C 15.613281 19.316406 16.371094 18.753906 17.15625 18.230469 C 17.941406 17.703125 18.75 17.21875 19.582031 16.773438 C 20.414062 16.328125 21.269531 15.925781 22.140625 15.5625 C 23.011719 15.199219 23.898438 14.882812 24.800781 14.609375 C 25.707031 14.332031 26.621094 14.105469 27.546875 13.921875 C 28.472656 13.734375 29.402344 13.597656 30.34375 13.503906 C 31.28125 13.414062 32.222656 13.367188 33.167969 13.367188 C 34.113281 13.367188 35.054688 13.414062 35.992188 13.507812 C 36.929688 13.597656 37.863281 13.738281 38.789062 13.921875 C 39.714844 14.105469 40.628906 14.335938 41.53125 14.609375 C 42.433594 14.886719 43.320312 15.203125 44.195312 15.566406 C 45.066406 15.925781 45.917969 16.332031 46.75 16.777344 C 47.582031 17.222656 48.390625 17.707031 49.175781 18.234375 C 49.960938 18.757812 50.714844 19.320312 51.445312 19.921875 C 52.175781 20.523438 52.875 21.15625 53.539062 21.824219 C 54.207031 22.492188 54.839844 23.195312 55.4375 23.925781 C 56.039062 24.65625 56.597656 25.414062 57.125 26.199219 C 57.648438 26.988281 58.132812 27.796875 58.578125 28.632812 C 59.019531 29.464844 59.421875 30.320312 59.785156 31.191406 C 60.144531 32.066406 60.460938 32.957031 60.738281 33.863281 C 61.011719 34.765625 61.238281 35.683594 61.421875 36.609375 C 61.605469 37.539062 61.746094 38.472656 61.835938 39.414062 C 61.929688 40.355469 61.976562 41.296875 61.976562 42.242188 Z M 61.976562 42.242188 " fill-opacity="1" fill-rule="nonzero"/><path fill="#b7d8f9" d="M 49.730469 40.488281 C 49.730469 41.210938 49.695312 41.929688 49.625 42.648438 C 49.554688 43.371094 49.449219 44.082031 49.308594 44.792969 C 49.167969 45.5 48.992188 46.203125 48.78125 46.894531 C 48.574219 47.585938 48.328125 48.265625 48.054688 48.933594 C 47.777344 49.601562 47.46875 50.253906 47.128906 50.890625 C 46.789062 51.527344 46.417969 52.148438 46.019531 52.75 C 45.617188 53.351562 45.1875 53.929688 44.730469 54.488281 C 44.273438 55.046875 43.789062 55.582031 43.277344 56.09375 C 42.769531 56.605469 42.234375 57.089844 41.675781 57.550781 C 41.121094 58.007812 40.542969 58.4375 39.941406 58.839844 C 39.339844 59.242188 38.722656 59.613281 38.085938 59.953125 C 37.453125 60.292969 36.800781 60.601562 36.132812 60.878906 C 35.46875 61.15625 34.789062 61.398438 34.097656 61.609375 C 33.40625 61.820312 32.707031 61.992188 32 62.136719 C 31.292969 62.277344 30.582031 62.382812 29.863281 62.453125 C 29.144531 62.523438 28.425781 62.558594 27.703125 62.558594 C 26.984375 62.558594 26.261719 62.523438 25.546875 62.453125 C 24.828125 62.382812 24.113281 62.277344 23.40625 62.136719 C 22.699219 61.992188 22 61.820312 21.308594 61.609375 C 20.621094 61.398438 19.941406 61.15625 19.273438 60.878906 C 18.609375 60.601562 17.957031 60.292969 17.320312 59.953125 C 16.683594 59.613281 16.066406 59.242188 15.46875 58.839844 C 14.867188 58.4375 14.289062 58.007812 13.730469 57.550781 C 13.171875 57.089844 12.640625 56.605469 12.128906 56.09375 C 11.621094 55.582031 11.136719 55.046875 10.679688 54.488281 C 10.21875 53.929688 9.789062 53.351562 9.390625 52.75 C 8.988281 52.148438 8.617188 51.527344 8.277344 50.890625 C 7.9375 50.253906 7.628906 49.601562 7.355469 48.933594 C 7.078125 48.265625 6.835938 47.585938 6.625 46.894531 C 6.417969 46.203125 6.242188 45.5 6.101562 44.792969 C 5.960938 44.082031 5.855469 43.371094 5.785156 42.648438 C 5.714844 41.929688 5.679688 41.210938 5.679688 40.488281 C 5.679688 39.761719 5.714844 39.042969 5.785156 38.324219 C 5.855469 37.605469 5.960938 36.890625 6.101562 36.179688 C 6.242188 35.472656 6.417969 34.769531 6.625 34.078125 C 6.835938 33.386719 7.078125 32.707031 7.355469 32.039062 C 7.628906 31.371094 7.9375 30.71875 8.277344 30.082031 C 8.617188 29.445312 8.988281 28.824219 9.390625 28.222656 C 9.789062 27.621094 10.21875 27.042969 10.679688 26.484375 C 11.136719 25.925781 11.621094 25.390625 12.128906 24.878906 C 12.640625 24.367188 13.171875 23.882812 13.730469 23.425781 C 14.289062 22.964844 14.867188 22.535156 15.46875 22.132812 C 16.066406 21.730469 16.683594 21.359375 17.320312 21.019531 C 17.957031 20.679688 18.609375 20.371094 19.273438 20.09375 C 19.941406 19.816406 20.621094 19.574219 21.308594 19.363281 C 22 19.15625 22.699219 18.980469 23.40625 18.839844 C 24.113281 18.695312 24.828125 18.589844 25.546875 18.519531 C 26.261719 18.449219 26.984375 18.414062 27.703125 18.414062 C 28.425781 18.414062 29.144531 18.449219 29.863281 18.519531 C 30.582031 18.589844 31.292969 18.695312 32 18.839844 C 32.707031 18.980469 33.40625 19.15625 34.097656 19.363281 C 34.789062 19.574219 35.46875 19.816406 36.132812 20.09375 C 36.800781 20.371094 37.453125 20.679688 38.085938 21.019531 C 38.722656 21.359375 39.339844 21.730469 39.941406 22.132812 C 40.542969 22.535156 41.121094 22.964844 41.675781 23.425781 C 42.234375 23.882812 42.769531 24.367188 43.277344 24.878906 C 43.789062 25.390625 44.273438 25.925781 44.730469 26.484375 C 45.1875 27.042969 45.617188 27.621094 46.019531 28.222656 C 46.417969 28.824219 46.789062 29.445312 47.128906 30.082031 C 47.46875 30.71875 47.777344 31.371094 48.054688 32.039062 C 48.328125 32.707031 48.574219 33.386719 48.78125 34.078125 C 48.992188 34.769531 49.167969 35.472656 49.308594 36.179688 C 49.449219 36.890625 49.554688 37.605469 49.625 38.324219 C 49.695312 39.042969 49.730469 39.761719 49.730469 40.488281 Z M 49.730469 40.488281 " fill-opacity="1" fill-rule="nonzero"/></svg>