<svg xmlns="http://www.w3.org/2000/svg" xmlns:xlink="http://www.w3.org/1999/xlink" width="204" zoomAndPan="magnify" viewBox="0 0 153 153.000002" height="204" preserveAspectRatio="xMidYMid meet" version="1.0"><path fill="#ffffff" d="M 15.957031 120.597656 Z M 67.121094 118.648438 L 67.191406 118.648438 L 67.609375 118.71875 Z M 74.769531 119.335938 L 75.15625 119.335938 Z M 97.5625 38.820312 L 97.023438 38.476562 Z M 115.75 46.410156 L 116.804688 46.207031 Z M 131.023438 40.1875 L 131.828125 40.1875 Z M 145.140625 53.761719 L 145.339844 53.816406 Z M 145.140625 53.761719 " fill-opacity="1" fill-rule="nonzero"/><path fill="#e59ae1" d="M 51.925781 39.949219 C 71.367188 26.488281 99.703125 31.382812 111.140625 51.757812 C 122.402344 71.820312 118.726562 98.609375 99.277344 112.070312 C 79.828125 125.53125 54.199219 119.320312 39.84375 101.378906 C 24.925781 82.773438 32.488281 53.417969 51.925781 39.949219 Z M 51.925781 39.949219 " fill-opacity="1" fill-rule="nonzero"/><path fill="#efabed" d="M 49.609375 44.296875 C 65.910156 33 89.675781 37.109375 99.269531 54.195312 C 108.710938 71.011719 105.597656 93.476562 89.328125 104.769531 C 73.058594 116.058594 51.546875 110.847656 39.503906 95.804688 C 26.96875 80.214844 33.308594 55.582031 49.609375 44.296875 Z M 49.609375 44.296875 " fill-opacity="1" fill-rule="nonzero"/><path fill="#fcc5f9" d="M 47.386719 49.414062 C 59.464844 41.050781 77.0625 44.09375 84.171875 56.746094 C 91.164062 69.207031 88.878906 85.84375 76.808594 94.207031 C 64.738281 102.566406 48.828125 98.710938 39.890625 87.570312 C 30.621094 76.007812 35.3125 57.773438 47.386719 49.414062 Z M 47.386719 49.414062 " fill-opacity="1" fill-rule="nonzero"/><path fill="#e6edef" d="M 116.011719 57.855469 C 116.683594 58.8125 117.308594 59.816406 117.902344 60.863281 C 118.011719 61.058594 118.125 61.25 118.21875 61.449219 C 128.738281 58.550781 135.617188 57.804688 136.527344 59.863281 C 137.4375 61.921875 132.019531 66.554688 122.527344 72.3125 C 112.753906 78.242188 98.621094 85.410156 82.574219 92.34375 C 66.773438 99.21875 52.101562 104.515625 41.148438 107.601562 C 30.195312 110.691406 22.957031 111.5625 22.023438 109.390625 C 21.089844 107.222656 26.910156 102.394531 37.050781 96.359375 C 36.757812 94.847656 34.378906 93.871094 34.257812 92.328125 C 15.59375 103.320312 6.578125 112.710938 8.636719 117.609375 C 10.691406 122.511719 25.828125 121.152344 46.800781 114.984375 C 59.945312 111.027344 72.804688 106.296875 85.382812 100.800781 C 98.6875 95.121094 111.574219 88.613281 124.046875 81.28125 C 141.835938 70.648438 152.433594 61.085938 150.40625 56.308594 C 148.4375 51.660156 135.015625 52.605469 116.011719 57.855469 Z M 116.011719 57.855469 " fill-opacity="1" fill-rule="nonzero"/><path fill="#e6edef" d="M 107.9375 44.472656 C 108.621094 45.441406 109.25 46.445312 109.828125 47.480469 C 109.9375 47.671875 110.050781 47.867188 110.152344 48.066406 C 120.496094 45.273438 127.296875 44.589844 128.191406 46.671875 C 129.085938 48.753906 123.792969 53.292969 114.492188 58.929688 C 104.910156 64.742188 91.035156 71.757812 75.265625 78.519531 C 59.757812 85.179688 45.339844 90.339844 34.566406 93.320312 C 23.796875 96.296875 16.644531 97.070312 15.730469 94.902344 C 14.8125 92.734375 21.503906 86.4375 31.402344 80.523438 C 31.109375 79.011719 30.902344 77.488281 30.78125 75.953125 C 12.46875 86.722656 0.464844 98.070312 2.5625 102.960938 C 4.65625 107.855469 19.542969 106.628906 40.167969 100.667969 C 53.101562 96.84375 65.753906 92.25 78.128906 86.882812 C 91.195312 81.34375 103.851562 74.984375 116.089844 67.796875 C 133.539062 57.371094 143.898438 47.949219 141.867188 43.179688 C 139.855469 38.589844 126.632812 39.414062 107.9375 44.472656 Z M 107.9375 44.472656 " fill-opacity="1" fill-rule="nonzero"/></svg>