<svg xmlns="http://www.w3.org/2000/svg" xmlns:xlink="http://www.w3.org/1999/xlink" width="519" zoomAndPan="magnify" viewBox="0 0 389.25 284.999983" height="380" preserveAspectRatio="xMidYMid meet" version="1.0"><defs><clipPath id="fbd0653102"><path d="M 13 4.71875 L 314 4.71875 L 314 173 L 13 173 Z M 13 4.71875 " clip-rule="nonzero"/></clipPath></defs><path fill="#c8d0dd" d="M 63.277344 122.488281 L 239.65625 122.488281 C 242.183594 122.488281 242.191406 118.554688 239.65625 118.554688 L 63.277344 118.554688 C 60.742188 118.554688 60.742188 122.488281 63.277344 122.488281 Z M 63.277344 122.488281 " fill-opacity="1" fill-rule="nonzero"/><path fill="#c8d0dd" d="M 157.910156 153.046875 C 145.679688 152.476562 133.476562 152.808594 121.292969 154.042969 C 116.703125 154.515625 111.324219 155.378906 108.78125 159.746094 C 108.519531 160.222656 108.296875 160.714844 108.117188 161.226562 C 107.9375 161.742188 107.796875 162.261719 107.703125 162.796875 C 107.605469 163.332031 107.554688 163.871094 107.542969 164.414062 C 107.535156 164.957031 107.570312 165.496094 107.648438 166.035156 C 107.726562 166.570312 107.847656 167.097656 108.011719 167.617188 C 108.175781 168.132812 108.378906 168.636719 108.625 169.121094 C 108.871094 169.605469 109.152344 170.066406 109.472656 170.503906 C 109.789062 170.945312 110.144531 171.355469 110.527344 171.738281 C 113.859375 174.890625 119.273438 175.109375 123.085938 172.707031 C 123.570312 172.382812 124.027344 172.019531 124.453125 171.621094 C 124.878906 171.222656 125.273438 170.796875 125.632812 170.335938 C 125.992188 169.875 126.3125 169.390625 126.59375 168.882812 C 126.878906 168.371094 127.117188 167.84375 127.320312 167.296875 C 127.519531 166.75 127.675781 166.1875 127.785156 165.617188 C 127.898438 165.046875 127.964844 164.46875 127.984375 163.886719 C 128.007812 163.304688 127.980469 162.722656 127.910156 162.144531 C 127.839844 161.566406 127.726562 160.996094 127.566406 160.4375 C 124.878906 150.410156 112.785156 150.566406 104.519531 150.96875 C 90.78125 151.625 77.007812 151.511719 63.269531 152.226562 C 60.75 152.355469 60.734375 156.289062 63.269531 156.15625 C 74.113281 155.589844 84.984375 155.546875 95.835938 155.222656 C 100.707031 155.082031 105.597656 154.652344 110.46875 154.707031 C 114.011719 154.707031 117.980469 155.097656 120.910156 157.328125 C 121.605469 157.855469 122.195312 158.480469 122.683594 159.203125 C 123.171875 159.925781 123.527344 160.707031 123.753906 161.550781 C 123.980469 162.390625 124.0625 163.246094 124.003906 164.117188 C 123.945312 164.988281 123.75 165.824219 123.410156 166.628906 C 123.230469 167.003906 123.011719 167.363281 122.765625 167.699219 C 122.515625 168.035156 122.238281 168.347656 121.929688 168.632812 C 121.621094 168.917969 121.292969 169.171875 120.9375 169.394531 C 120.582031 169.617188 120.210938 169.808594 119.820312 169.960938 C 119.429688 170.117188 119.03125 170.234375 118.621094 170.3125 C 118.207031 170.394531 117.792969 170.433594 117.375 170.4375 C 116.953125 170.4375 116.539062 170.402344 116.125 170.328125 C 115.714844 170.253906 115.3125 170.140625 114.917969 169.992188 C 114.574219 169.832031 114.242188 169.640625 113.933594 169.414062 C 113.621094 169.191406 113.335938 168.941406 113.074219 168.664062 C 112.8125 168.386719 112.578125 168.085938 112.375 167.761719 C 112.167969 167.441406 111.996094 167.101562 111.855469 166.746094 C 111.714844 166.390625 111.609375 166.027344 111.539062 165.652344 C 111.472656 165.273438 111.4375 164.894531 111.4375 164.515625 C 111.441406 164.132812 111.480469 163.753906 111.554688 163.378906 C 111.628906 163.003906 111.738281 162.640625 111.886719 162.289062 C 113.398438 158.792969 118.191406 158.304688 121.503906 157.972656 C 133.617188 156.757812 145.753906 156.433594 157.910156 156.996094 C 160.4375 157.117188 160.429688 153.1875 157.910156 153.066406 Z M 157.910156 153.046875 " fill-opacity="1" fill-rule="nonzero"/><path fill="#c8d0dd" d="M 308.867188 169.386719 C 306.28125 169.457031 303.714844 169.730469 301.171875 170.207031 C 298.632812 170.683594 296.140625 171.359375 293.707031 172.230469 C 291.273438 173.101562 288.921875 174.160156 286.65625 175.40625 C 284.390625 176.652344 282.238281 178.070312 280.199219 179.660156 C 278.238281 181.222656 276.394531 182.910156 274.671875 184.726562 C 272.945312 186.542969 271.351562 188.464844 269.890625 190.5 C 268.429688 192.535156 267.117188 194.660156 265.949219 196.878906 C 264.78125 199.09375 263.773438 201.378906 262.917969 203.734375 C 262.066406 206.089844 261.382812 208.488281 260.863281 210.9375 C 260.339844 213.386719 259.992188 215.863281 259.8125 218.359375 C 259.632812 220.855469 259.625 223.355469 259.792969 225.851562 C 259.957031 228.351562 260.292969 230.824219 260.800781 233.277344 C 263.171875 244.4375 269.449219 254.578125 277.855469 262.238281 C 282.308594 266.296875 287.242188 269.65625 292.648438 272.316406 C 298.058594 274.976562 303.734375 276.832031 309.671875 277.882812 C 323.382812 280.238281 337.875 278.089844 349.171875 269.601562 C 359.667969 261.742188 367.195312 250.152344 371.316406 237.835938 C 375.433594 225.519531 376.003906 211.460938 370.808594 199.242188 C 366.4375 188.988281 358.269531 180.828125 348.429688 175.710938 C 343.492188 173.191406 338.316406 171.332031 332.898438 170.140625 C 327.484375 168.945312 322.007812 168.453125 316.464844 168.664062 C 313.75 168.765625 311.050781 169.03125 308.367188 169.457031 C 308.117188 169.53125 307.890625 169.644531 307.683594 169.804688 C 307.480469 169.96875 307.3125 170.160156 307.183594 170.386719 C 307.054688 170.613281 306.976562 170.855469 306.941406 171.113281 C 306.910156 171.371094 306.925781 171.625 306.992188 171.878906 C 307.070312 172.125 307.1875 172.351562 307.351562 172.550781 C 307.511719 172.753906 307.707031 172.917969 307.929688 173.046875 C 308.15625 173.175781 308.398438 173.253906 308.652344 173.289062 C 308.910156 173.324219 309.164062 173.3125 309.417969 173.25 C 314.492188 172.476562 319.585938 172.335938 324.699219 172.824219 C 329.808594 173.3125 334.785156 174.414062 339.621094 176.132812 C 349.09375 179.484375 357.832031 185.492188 363.480469 193.886719 C 370.195312 203.859375 371.9375 216.21875 369.828125 227.949219 C 368.714844 234.066406 366.761719 239.902344 363.964844 245.460938 C 361.171875 251.015625 357.652344 256.066406 353.40625 260.613281 C 351.269531 262.992188 348.898438 265.105469 346.292969 266.957031 C 343.6875 268.808594 340.910156 270.351562 337.960938 271.585938 C 335.011719 272.824219 331.960938 273.71875 328.8125 274.28125 C 325.664062 274.839844 322.492188 275.046875 319.296875 274.902344 C 313.46875 274.765625 307.78125 273.792969 302.238281 271.984375 C 296.691406 270.175781 291.527344 267.609375 286.738281 264.28125 C 277.75 258.097656 270.351562 249.242188 266.582031 238.953125 C 264.964844 234.507812 264.007812 229.921875 263.714844 225.199219 C 263.425781 220.476562 263.808594 215.808594 264.867188 211.199219 C 265.886719 206.675781 267.492188 202.371094 269.683594 198.285156 C 271.878906 194.199219 274.578125 190.480469 277.785156 187.128906 C 279.792969 185.003906 281.988281 183.101562 284.375 181.414062 C 286.761719 179.730469 289.289062 178.292969 291.960938 177.109375 C 294.632812 175.925781 297.394531 175.011719 300.246094 174.375 C 303.101562 173.738281 305.988281 173.382812 308.910156 173.320312 C 311.4375 173.25 311.445312 169.320312 308.910156 169.386719 Z M 308.867188 169.386719 " fill-opacity="1" fill-rule="nonzero"/><g clip-path="url(#fbd0653102)"><path fill="#c8d0dd" d="M 294.898438 63.253906 L 15.039062 63.253906 L 17.007812 65.21875 L 17.007812 25.15625 C 17.007812 22.414062 16.613281 19.234375 17.269531 16.535156 C 17.40625 15.976562 17.585938 15.4375 17.816406 14.910156 C 18.042969 14.382812 18.3125 13.878906 18.625 13.398438 C 18.9375 12.917969 19.289062 12.464844 19.679688 12.042969 C 20.066406 11.621094 20.488281 11.234375 20.945312 10.882812 C 21.398438 10.53125 21.878906 10.21875 22.386719 9.949219 C 22.890625 9.679688 23.417969 9.453125 23.960938 9.269531 C 24.507812 9.089844 25.0625 8.953125 25.628906 8.867188 C 26.199219 8.777344 26.769531 8.738281 27.34375 8.746094 L 299.410156 8.746094 C 300.375 8.722656 301.320312 8.832031 302.253906 9.070312 C 303.1875 9.3125 304.066406 9.675781 304.898438 10.164062 C 305.730469 10.648438 306.476562 11.242188 307.140625 11.9375 C 307.808594 12.632812 308.363281 13.40625 308.8125 14.253906 C 309.855469 16.253906 309.914062 18.335938 309.914062 20.5 L 309.914062 170.59375 C 309.914062 173.117188 313.851562 173.125 313.851562 170.59375 L 313.851562 19.933594 C 313.925781 18.246094 313.722656 16.589844 313.246094 14.972656 C 312.765625 13.351562 312.039062 11.851562 311.058594 10.472656 C 310.382812 9.582031 309.613281 8.777344 308.746094 8.066406 C 307.882812 7.355469 306.945312 6.753906 305.9375 6.261719 C 304.929688 5.769531 303.878906 5.398438 302.785156 5.152344 C 301.691406 4.90625 300.585938 4.792969 299.464844 4.804688 L 34.375 4.804688 C 31.96875 4.804688 29.617188 4.804688 27.167969 4.804688 C 26.355469 4.808594 25.546875 4.882812 24.742188 5.023438 C 23.941406 5.167969 23.15625 5.375 22.390625 5.652344 C 21.625 5.929688 20.890625 6.273438 20.183594 6.675781 C 19.476562 7.078125 18.808594 7.542969 18.179688 8.058594 C 17.554688 8.578125 16.976562 9.148438 16.445312 9.765625 C 15.917969 10.386719 15.445312 11.042969 15.03125 11.742188 C 14.613281 12.445312 14.261719 13.175781 13.972656 13.933594 C 13.683594 14.695312 13.460938 15.472656 13.308594 16.273438 C 12.808594 19.15625 13.070312 22.273438 13.070312 25.15625 L 13.070312 65.21875 C 13.074219 65.476562 13.125 65.726562 13.226562 65.964844 C 13.328125 66.207031 13.472656 66.417969 13.65625 66.601562 C 13.839844 66.785156 14.050781 66.925781 14.289062 67.027344 C 14.527344 67.128906 14.777344 67.179688 15.039062 67.183594 L 294.890625 67.183594 C 297.425781 67.183594 297.425781 63.253906 294.890625 63.253906 Z M 294.898438 63.253906 " fill-opacity="1" fill-rule="nonzero"/></g><path fill="#c8d0dd" d="M 13.070312 64.511719 L 13.070312 210.261719 C 13.070312 214.421875 12.949219 218.324219 14.75 222.28125 C 15.457031 223.796875 16.363281 225.191406 17.460938 226.457031 C 18.558594 227.71875 19.808594 228.8125 21.210938 229.726562 C 22.613281 230.644531 24.117188 231.351562 25.714844 231.851562 C 27.316406 232.347656 28.957031 232.617188 30.632812 232.65625 L 261.605469 232.65625 C 264.140625 232.65625 264.140625 228.726562 261.605469 228.726562 L 35.738281 228.726562 C 34.136719 228.726562 32.539062 228.726562 30.9375 228.726562 C 30.230469 228.722656 29.53125 228.664062 28.835938 228.554688 C 28.136719 228.441406 27.453125 228.28125 26.78125 228.066406 C 26.109375 227.855469 25.457031 227.59375 24.824219 227.28125 C 24.191406 226.96875 23.585938 226.613281 23.003906 226.210938 C 22.425781 225.808594 21.878906 225.367188 21.367188 224.882812 C 20.855469 224.398438 20.382812 223.878906 19.945312 223.324219 C 19.511719 222.769531 19.121094 222.183594 18.777344 221.570312 C 18.429688 220.957031 18.132812 220.320312 17.882812 219.660156 C 17.238281 217.761719 16.945312 215.804688 17.007812 213.800781 L 17.007812 64.511719 C 17.007812 61.988281 13.070312 61.976562 13.070312 64.511719 Z M 13.070312 64.511719 " fill-opacity="1" fill-rule="nonzero"/><path fill="#c8d0dd" d="M 44.640625 40.316406 C 49.707031 40.316406 49.714844 32.457031 44.640625 32.457031 C 39.570312 32.457031 39.570312 40.316406 44.640625 40.316406 Z M 44.640625 40.316406 " fill-opacity="1" fill-rule="nonzero"/><path fill="#c8d0dd" d="M 63.277344 40.316406 C 68.339844 40.316406 68.351562 32.457031 63.277344 32.457031 C 58.207031 32.457031 58.207031 40.316406 63.277344 40.316406 Z M 63.277344 40.316406 " fill-opacity="1" fill-rule="nonzero"/><path fill="#c8d0dd" d="M 81.914062 40.316406 C 86.976562 40.316406 86.988281 32.457031 81.914062 32.457031 C 76.84375 32.457031 76.84375 40.316406 81.914062 40.316406 Z M 81.914062 40.316406 " fill-opacity="1" fill-rule="nonzero"/><path fill="#c8d0dd" d="M 305.972656 203.398438 C 316.574219 205.761719 326.414062 209.921875 335.496094 215.878906 C 336.464844 216.453125 337.371094 217.109375 338.214844 217.851562 C 338.390625 217.984375 338.53125 218.144531 338.636719 218.335938 C 338.746094 218.523438 338.8125 218.730469 338.839844 218.945312 C 338.863281 219.164062 338.84375 219.375 338.78125 219.585938 C 338.71875 219.792969 338.617188 219.980469 338.476562 220.148438 C 337.199219 222.210938 335.128906 223.984375 333.40625 225.679688 C 329.726562 229.28125 325.765625 232.542969 321.527344 235.46875 C 316.734375 238.765625 311.675781 241.589844 306.355469 243.941406 L 309.25 245.121094 C 307.738281 235.308594 307.136719 225.441406 307.441406 215.519531 C 307.519531 212.988281 303.582031 212.988281 303.503906 215.519531 C 303.210938 225.792969 303.863281 236.007812 305.453125 246.160156 C 305.664062 247.539062 307.316406 247.785156 308.339844 247.339844 C 318.753906 242.710938 328.035156 236.414062 336.1875 228.457031 C 338.152344 226.535156 340.4375 224.5 341.878906 222.132812 C 342.246094 221.5625 342.5 220.945312 342.644531 220.285156 C 342.785156 219.621094 342.804688 218.953125 342.703125 218.285156 C 342.601562 217.613281 342.382812 216.984375 342.050781 216.394531 C 341.714844 215.804688 341.289062 215.292969 340.769531 214.855469 C 338.523438 213.011719 336.121094 211.410156 333.554688 210.042969 C 331.007812 208.558594 328.386719 207.1875 325.683594 205.949219 C 319.683594 203.164062 313.460938 201.039062 307.011719 199.574219 C 304.546875 199.023438 303.511719 202.804688 305.960938 203.363281 Z M 305.972656 203.398438 " fill-opacity="1" fill-rule="nonzero"/></svg>