<svg xmlns="http://www.w3.org/2000/svg" xmlns:xlink="http://www.w3.org/1999/xlink" width="519" zoomAndPan="magnify" viewBox="0 0 389.25 284.999983" height="380" preserveAspectRatio="xMidYMid meet" version="1.0"><defs><clipPath id="7bb6e8e10d"><path d="M 38.113281 0.273438 L 350 0.273438 L 350 284.726562 L 38.113281 284.726562 Z M 38.113281 0.273438 " clip-rule="nonzero"/></clipPath></defs><g clip-path="url(#7bb6e8e10d)"><path fill="#eaa860" d="M 138.46875 93.417969 L 171.386719 23.1875 L 180.796875 3.128906 L 178.03125 3.488281 C 186.226562 11.375 193.714844 19.878906 200.5 29.007812 C 207.285156 38.136719 213.269531 47.761719 218.453125 57.882812 C 223.730469 67.949219 228.085938 78.398438 231.519531 89.234375 C 234.726562 99.609375 236.980469 112.207031 231.015625 122.078125 C 227.199219 128.398438 218.820312 132.105469 211.5625 130.984375 C 209.84375 130.777344 208.25 130.21875 206.777344 129.308594 C 205.304688 128.398438 204.089844 127.222656 203.132812 125.777344 C 200.492188 121.503906 200.96875 116.046875 203.058594 111.648438 C 207.960938 101.335938 220.34375 97.027344 230.226562 93.175781 C 238.863281 89.824219 247.65625 86.945312 256.605469 84.546875 C 265.554688 82.148438 274.605469 80.242188 283.761719 78.824219 C 292.917969 77.40625 302.121094 76.488281 311.375 76.070312 C 320.628906 75.652344 329.882812 75.734375 339.125 76.320312 C 342.128906 76.511719 345.121094 76.753906 348.113281 77.054688 L 346.863281 74.046875 C 325.199219 96.175781 304.460938 119.160156 284.644531 142.992188 C 279.804688 148.808594 274.964844 154.636719 270.269531 160.597656 C 268.195312 163.269531 266.121094 166.132812 265.464844 169.554688 C 264.726562 173.21875 265.394531 176.921875 266.308594 180.488281 C 270.160156 195.621094 274.660156 210.621094 279.347656 225.511719 C 284.671875 242.417969 290.429688 259.183594 296.628906 275.8125 L 299.214844 273.820312 L 258.59375 251.078125 L 238.261719 239.703125 C 231.605469 235.984375 225.015625 232.097656 218.246094 228.539062 C 215.242188 226.839844 212.03125 225.757812 208.609375 225.296875 C 205.03125 225.058594 201.574219 225.601562 198.238281 226.921875 C 191.328125 229.40625 184.757812 232.890625 178.191406 236.03125 C 164.71875 242.449219 151.382812 249.144531 138.175781 256.121094 C 123.242188 264.019531 108.496094 272.261719 93.929688 280.851562 L 96.539062 282.84375 C 100.851562 255.71875 105.214844 228.527344 112.4375 202.003906 C 115.960938 188.847656 120.371094 175.996094 125.671875 163.449219 C 128.097656 157.503906 130.894531 151.738281 134.070312 146.160156 C 136.78125 141.585938 140.160156 137.097656 144.898438 134.46875 C 155.265625 128.722656 167.84375 135.667969 171.691406 146.074219 C 175.148438 155.460938 172.992188 166.734375 166.785156 174.5 C 159.636719 183.449219 148.230469 185.628906 137.339844 184.679688 C 131.25 184.113281 125.3125 182.835938 119.53125 180.851562 C 113.746094 178.863281 108.277344 176.21875 103.125 172.921875 C 92.175781 166.007812 82.757812 156.933594 73.335938 148.117188 C 64.078125 139.449219 55.09375 130.433594 47.378906 120.339844 C 45.414062 117.769531 43.53125 115.136719 41.730469 112.445312 L 40.679688 115.03125 L 115.894531 103.058594 C 118.136719 102.699219 117.179688 99.304688 114.960938 99.65625 L 39.757812 111.628906 C 39.496094 111.703125 39.265625 111.828125 39.0625 112.011719 C 38.859375 112.195312 38.703125 112.410156 38.601562 112.664062 C 38.5 112.917969 38.457031 113.179688 38.476562 113.449219 C 38.496094 113.722656 38.570312 113.976562 38.707031 114.214844 C 46.3125 125.550781 55.398438 135.695312 65.171875 145.183594 C 70.011719 149.871094 74.96875 154.421875 79.933594 158.972656 C 84.902344 163.605469 90.109375 167.945312 95.5625 171.996094 C 106.15625 179.707031 117.886719 185.0625 130.820312 187.320312 C 142.316406 189.328125 155.136719 189.03125 164.695312 181.503906 C 173.152344 174.859375 177.664062 163.523438 176.765625 152.867188 C 175.804688 141.496094 168.089844 130.976562 156.34375 129.132812 C 154.894531 128.902344 153.433594 128.832031 151.964844 128.910156 C 150.496094 128.992188 149.054688 129.226562 147.636719 129.613281 C 146.21875 130 144.855469 130.527344 143.550781 131.203125 C 142.242188 131.878906 141.019531 132.679688 139.882812 133.613281 C 135.265625 137.273438 131.96875 142.417969 129.246094 147.570312 C 122.699219 159.976562 117.625 173.269531 113.34375 186.609375 C 104.472656 214.203125 99.414062 242.828125 94.800781 271.386719 C 94.234375 274.882812 93.675781 278.386719 93.121094 281.890625 C 92.894531 283.335938 94.277344 284.734375 95.707031 283.882812 C 120.914062 269.007812 146.691406 255.175781 173.039062 242.386719 C 179.664062 239.160156 186.324219 236.011719 193.019531 232.945312 C 196.242188 231.464844 199.492188 229.964844 202.96875 229.183594 C 204.710938 228.800781 206.46875 228.691406 208.246094 228.851562 C 210.019531 229.015625 211.730469 229.445312 213.375 230.136719 C 216.574219 231.425781 219.554688 233.292969 222.554688 234.980469 L 232.730469 240.65625 L 252.507812 251.722656 L 297.410156 276.855469 C 298.65625 277.546875 300.5625 276.378906 299.996094 274.863281 C 289.234375 245.9375 279.777344 216.558594 271.617188 186.726562 C 270.636719 183.136719 269.480469 179.519531 268.886719 175.839844 C 268.5625 174.082031 268.570312 172.324219 268.921875 170.570312 C 269.269531 168.816406 269.929688 167.1875 270.90625 165.6875 C 272.839844 162.625 275.316406 159.871094 277.597656 157.070312 C 280.003906 154.097656 282.425781 151.140625 284.863281 148.199219 C 294.488281 136.570312 304.335938 125.132812 314.40625 113.890625 C 325.785156 101.1875 337.433594 88.738281 349.359375 76.542969 C 349.601562 76.289062 349.753906 75.988281 349.816406 75.640625 C 349.878906 75.296875 349.84375 74.960938 349.710938 74.636719 C 349.574219 74.3125 349.363281 74.050781 349.074219 73.847656 C 348.785156 73.648438 348.464844 73.542969 348.113281 73.535156 C 335.023438 72.257812 321.910156 71.976562 308.773438 72.691406 C 295.640625 73.40625 282.632812 75.109375 269.757812 77.800781 C 256.957031 80.472656 244.433594 84.097656 232.183594 88.679688 C 226.375 90.75 220.710938 93.152344 215.183594 95.886719 C 210.097656 98.507812 205.214844 101.917969 201.898438 106.660156 C 196.367188 114.574219 195.835938 127.140625 205.152344 132.480469 C 212.324219 136.628906 222.015625 134.664062 228.410156 129.941406 C 237.246094 123.410156 239.125 111.65625 237.824219 101.351562 C 236.324219 89.453125 231.605469 77.960938 226.765625 67.082031 C 221.859375 56.027344 216.046875 45.472656 209.328125 35.417969 C 202.609375 25.363281 195.082031 15.957031 186.742188 7.195312 C 184.71875 5.082031 182.636719 3.003906 180.519531 0.972656 C 179.765625 0.28125 178.246094 0.28125 177.753906 1.332031 L 144.828125 71.570312 L 135.417969 91.625 C 134.464844 93.703125 137.492188 95.464844 138.46875 93.410156 Z M 138.46875 93.417969 " fill-opacity="1" fill-rule="nonzero"/></g></svg>