<svg xmlns="http://www.w3.org/2000/svg" xmlns:xlink="http://www.w3.org/1999/xlink" width="520" zoomAndPan="magnify" viewBox="0 0 390 284.999983" height="380" preserveAspectRatio="xMidYMid meet" version="1.0"><defs><clipPath id="d269e2d325"><path d="M 88.179688 85 L 156 85 L 156 150 L 88.179688 150 Z M 88.179688 85 " clip-rule="nonzero"/></clipPath><clipPath id="bdff0bcbbc"><path d="M 114 91 L 123 91 L 123 99 L 114 99 Z M 114 91 " clip-rule="nonzero"/></clipPath><clipPath id="aab32c5c25"><path d="M 89.585938 118.324219 L 107.539062 109.054688 C 108.300781 108.664062 108.726562 108.039062 108.820312 107.1875 L 110.953125 87.300781 C 111.058594 86.335938 111.5625 85.675781 112.46875 85.328125 C 113.371094 84.976562 114.1875 85.121094 114.917969 85.761719 L 128.832031 98.054688 C 129.578125 98.714844 130.414062 98.851562 131.332031 98.46875 L 146.558594 92.136719 C 147.53125 91.738281 148.390625 91.902344 149.144531 92.636719 C 149.894531 93.371094 150.082031 94.226562 149.707031 95.207031 L 143.335938 111.726562 C 142.988281 112.628906 143.132812 113.441406 143.765625 114.164062 L 154.628906 126.566406 C 155.3125 127.347656 155.433594 128.210938 154.996094 129.148438 C 154.558594 130.089844 153.820312 130.550781 152.78125 130.53125 L 131.363281 130.09375 C 130.648438 130.082031 130.050781 130.335938 129.5625 130.855469 L 112.84375 148.824219 C 112.117188 149.601562 111.253906 149.804688 110.257812 149.433594 C 109.261719 149.066406 108.742188 148.347656 108.699219 147.285156 L 107.992188 128.492188 C 107.972656 127.945312 107.785156 127.464844 107.433594 127.046875 C 107.085938 126.628906 106.644531 126.359375 106.109375 126.246094 L 90.171875 122.785156 C 89.078125 122.546875 88.460938 121.871094 88.3125 120.761719 C 88.167969 119.652344 88.589844 118.839844 89.585938 118.324219 Z M 89.585938 118.324219 " clip-rule="nonzero"/></clipPath><clipPath id="1803be8d70"><path d="M 122 98 L 126 98 L 126 103 L 122 103 Z M 122 98 " clip-rule="nonzero"/></clipPath><clipPath id="4c2fe57d07"><path d="M 89.585938 118.324219 L 107.539062 109.054688 C 108.300781 108.664062 108.726562 108.039062 108.820312 107.1875 L 110.953125 87.300781 C 111.058594 86.335938 111.5625 85.675781 112.46875 85.328125 C 113.371094 84.976562 114.1875 85.121094 114.917969 85.761719 L 128.832031 98.054688 C 129.578125 98.714844 130.414062 98.851562 131.332031 98.46875 L 146.558594 92.136719 C 147.53125 91.738281 148.390625 91.902344 149.144531 92.636719 C 149.894531 93.371094 150.082031 94.226562 149.707031 95.207031 L 143.335938 111.726562 C 142.988281 112.628906 143.132812 113.441406 143.765625 114.164062 L 154.628906 126.566406 C 155.3125 127.347656 155.433594 128.210938 154.996094 129.148438 C 154.558594 130.089844 153.820312 130.550781 152.78125 130.53125 L 131.363281 130.09375 C 130.648438 130.082031 130.050781 130.335938 129.5625 130.855469 L 112.84375 148.824219 C 112.117188 149.601562 111.253906 149.804688 110.257812 149.433594 C 109.261719 149.066406 108.742188 148.347656 108.699219 147.285156 L 107.992188 128.492188 C 107.972656 127.945312 107.785156 127.464844 107.433594 127.046875 C 107.085938 126.628906 106.644531 126.359375 106.109375 126.246094 L 90.171875 122.785156 C 89.078125 122.546875 88.460938 121.871094 88.3125 120.761719 C 88.167969 119.652344 88.589844 118.839844 89.585938 118.324219 Z M 89.585938 118.324219 " clip-rule="nonzero"/></clipPath><clipPath id="fe2e85cc54"><path d="M 138 103 L 144 103 L 144 112 L 138 112 Z M 138 103 " clip-rule="nonzero"/></clipPath><clipPath id="3200c5a09d"><path d="M 89.585938 118.324219 L 107.539062 109.054688 C 108.300781 108.664062 108.726562 108.039062 108.820312 107.1875 L 110.953125 87.300781 C 111.058594 86.335938 111.5625 85.675781 112.46875 85.328125 C 113.371094 84.976562 114.1875 85.121094 114.917969 85.761719 L 128.832031 98.054688 C 129.578125 98.714844 130.414062 98.851562 131.332031 98.46875 L 146.558594 92.136719 C 147.53125 91.738281 148.390625 91.902344 149.144531 92.636719 C 149.894531 93.371094 150.082031 94.226562 149.707031 95.207031 L 143.335938 111.726562 C 142.988281 112.628906 143.132812 113.441406 143.765625 114.164062 L 154.628906 126.566406 C 155.3125 127.347656 155.433594 128.210938 154.996094 129.148438 C 154.558594 130.089844 153.820312 130.550781 152.78125 130.53125 L 131.363281 130.09375 C 130.648438 130.082031 130.050781 130.335938 129.5625 130.855469 L 112.84375 148.824219 C 112.117188 149.601562 111.253906 149.804688 110.257812 149.433594 C 109.261719 149.066406 108.742188 148.347656 108.699219 147.285156 L 107.992188 128.492188 C 107.972656 127.945312 107.785156 127.464844 107.433594 127.046875 C 107.085938 126.628906 106.644531 126.359375 106.109375 126.246094 L 90.171875 122.785156 C 89.078125 122.546875 88.460938 121.871094 88.3125 120.761719 C 88.167969 119.652344 88.589844 118.839844 89.585938 118.324219 Z M 89.585938 118.324219 " clip-rule="nonzero"/></clipPath><clipPath id="edefde62f8"><path d="M 141 99 L 146 99 L 146 103 L 141 103 Z M 141 99 " clip-rule="nonzero"/></clipPath><clipPath id="932c1634f7"><path d="M 89.585938 118.324219 L 107.539062 109.054688 C 108.300781 108.664062 108.726562 108.039062 108.820312 107.1875 L 110.953125 87.300781 C 111.058594 86.335938 111.5625 85.675781 112.46875 85.328125 C 113.371094 84.976562 114.1875 85.121094 114.917969 85.761719 L 128.832031 98.054688 C 129.578125 98.714844 130.414062 98.851562 131.332031 98.46875 L 146.558594 92.136719 C 147.53125 91.738281 148.390625 91.902344 149.144531 92.636719 C 149.894531 93.371094 150.082031 94.226562 149.707031 95.207031 L 143.335938 111.726562 C 142.988281 112.628906 143.132812 113.441406 143.765625 114.164062 L 154.628906 126.566406 C 155.3125 127.347656 155.433594 128.210938 154.996094 129.148438 C 154.558594 130.089844 153.820312 130.550781 152.78125 130.53125 L 131.363281 130.09375 C 130.648438 130.082031 130.050781 130.335938 129.5625 130.855469 L 112.84375 148.824219 C 112.117188 149.601562 111.253906 149.804688 110.257812 149.433594 C 109.261719 149.066406 108.742188 148.347656 108.699219 147.285156 L 107.992188 128.492188 C 107.972656 127.945312 107.785156 127.464844 107.433594 127.046875 C 107.085938 126.628906 106.644531 126.359375 106.109375 126.246094 L 90.171875 122.785156 C 89.078125 122.546875 88.460938 121.871094 88.3125 120.761719 C 88.167969 119.652344 88.589844 118.839844 89.585938 118.324219 Z M 89.585938 118.324219 " clip-rule="nonzero"/></clipPath><clipPath id="2eae1adb52"><path d="M 112 135 L 119 135 L 119 144 L 112 144 Z M 112 135 " clip-rule="nonzero"/></clipPath><clipPath id="93fe3851ad"><path d="M 89.585938 118.324219 L 107.539062 109.054688 C 108.300781 108.664062 108.726562 108.039062 108.820312 107.1875 L 110.953125 87.300781 C 111.058594 86.335938 111.5625 85.675781 112.46875 85.328125 C 113.371094 84.976562 114.1875 85.121094 114.917969 85.761719 L 128.832031 98.054688 C 129.578125 98.714844 130.414062 98.851562 131.332031 98.46875 L 146.558594 92.136719 C 147.53125 91.738281 148.390625 91.902344 149.144531 92.636719 C 149.894531 93.371094 150.082031 94.226562 149.707031 95.207031 L 143.335938 111.726562 C 142.988281 112.628906 143.132812 113.441406 143.765625 114.164062 L 154.628906 126.566406 C 155.3125 127.347656 155.433594 128.210938 154.996094 129.148438 C 154.558594 130.089844 153.820312 130.550781 152.78125 130.53125 L 131.363281 130.09375 C 130.648438 130.082031 130.050781 130.335938 129.5625 130.855469 L 112.84375 148.824219 C 112.117188 149.601562 111.253906 149.804688 110.257812 149.433594 C 109.261719 149.066406 108.742188 148.347656 108.699219 147.285156 L 107.992188 128.492188 C 107.972656 127.945312 107.785156 127.464844 107.433594 127.046875 C 107.085938 126.628906 106.644531 126.359375 106.109375 126.246094 L 90.171875 122.785156 C 89.078125 122.546875 88.460938 121.871094 88.3125 120.761719 C 88.167969 119.652344 88.589844 118.839844 89.585938 118.324219 Z M 89.585938 118.324219 " clip-rule="nonzero"/></clipPath><clipPath id="afeac15710"><path d="M 118 132 L 123 132 L 123 137 L 118 137 Z M 118 132 " clip-rule="nonzero"/></clipPath><clipPath id="3201b71556"><path d="M 89.585938 118.324219 L 107.539062 109.054688 C 108.300781 108.664062 108.726562 108.039062 108.820312 107.1875 L 110.953125 87.300781 C 111.058594 86.335938 111.5625 85.675781 112.46875 85.328125 C 113.371094 84.976562 114.1875 85.121094 114.917969 85.761719 L 128.832031 98.054688 C 129.578125 98.714844 130.414062 98.851562 131.332031 98.46875 L 146.558594 92.136719 C 147.53125 91.738281 148.390625 91.902344 149.144531 92.636719 C 149.894531 93.371094 150.082031 94.226562 149.707031 95.207031 L 143.335938 111.726562 C 142.988281 112.628906 143.132812 113.441406 143.765625 114.164062 L 154.628906 126.566406 C 155.3125 127.347656 155.433594 128.210938 154.996094 129.148438 C 154.558594 130.089844 153.820312 130.550781 152.78125 130.53125 L 131.363281 130.09375 C 130.648438 130.082031 130.050781 130.335938 129.5625 130.855469 L 112.84375 148.824219 C 112.117188 149.601562 111.253906 149.804688 110.257812 149.433594 C 109.261719 149.066406 108.742188 148.347656 108.699219 147.285156 L 107.992188 128.492188 C 107.972656 127.945312 107.785156 127.464844 107.433594 127.046875 C 107.085938 126.628906 106.644531 126.359375 106.109375 126.246094 L 90.171875 122.785156 C 89.078125 122.546875 88.460938 121.871094 88.3125 120.761719 C 88.167969 119.652344 88.589844 118.839844 89.585938 118.324219 Z M 89.585938 118.324219 " clip-rule="nonzero"/></clipPath><clipPath id="2ed9299c69"><path d="M 234 124 L 301.929688 124 L 301.929688 189 L 234 189 Z M 234 124 " clip-rule="nonzero"/></clipPath><clipPath id="dbab1c6a8f"><path d="M 270 175 L 279 175 L 279 183 L 270 183 Z M 270 175 " clip-rule="nonzero"/></clipPath><clipPath id="1f36745fd7"><path d="M 300.734375 153.132812 L 283.867188 164.257812 C 283.152344 164.730469 282.792969 165.394531 282.792969 166.253906 L 282.78125 186.253906 C 282.78125 187.226562 282.347656 187.933594 281.488281 188.378906 C 280.625 188.824219 279.796875 188.765625 279.007812 188.207031 L 263.863281 177.460938 C 263.050781 176.886719 262.207031 176.835938 261.332031 177.3125 L 246.863281 185.230469 C 245.941406 185.734375 245.066406 185.660156 244.242188 185.011719 C 243.414062 184.359375 243.136719 183.527344 243.40625 182.511719 L 247.988281 165.402344 C 248.238281 164.472656 248.007812 163.679688 247.300781 163.027344 L 235.179688 151.855469 C 234.417969 151.152344 234.207031 150.308594 234.542969 149.324219 C 234.878906 148.34375 235.566406 147.804688 236.601562 147.714844 L 257.945312 145.875 C 258.65625 145.8125 259.226562 145.496094 259.652344 144.925781 L 274.371094 125.28125 C 275.007812 124.429688 275.84375 124.136719 276.875 124.398438 C 277.902344 124.664062 278.496094 125.320312 278.652344 126.371094 L 281.351562 144.980469 C 281.429688 145.519531 281.664062 145.980469 282.058594 146.359375 C 282.453125 146.738281 282.917969 146.957031 283.460938 147.015625 L 299.679688 148.761719 C 300.785156 148.886719 301.472656 149.492188 301.734375 150.578125 C 301.996094 151.664062 301.660156 152.515625 300.734375 153.132812 Z M 300.734375 153.132812 " clip-rule="nonzero"/></clipPath><clipPath id="f8c5ef217a"><path d="M 266 172 L 271 172 L 271 177 L 266 177 Z M 266 172 " clip-rule="nonzero"/></clipPath><clipPath id="0b867741cb"><path d="M 300.734375 153.132812 L 283.867188 164.257812 C 283.152344 164.730469 282.792969 165.394531 282.792969 166.253906 L 282.78125 186.253906 C 282.78125 187.226562 282.347656 187.933594 281.488281 188.378906 C 280.625 188.824219 279.796875 188.765625 279.007812 188.207031 L 263.863281 177.460938 C 263.050781 176.886719 262.207031 176.835938 261.332031 177.3125 L 246.863281 185.230469 C 245.941406 185.734375 245.066406 185.660156 244.242188 185.011719 C 243.414062 184.359375 243.136719 183.527344 243.40625 182.511719 L 247.988281 165.402344 C 248.238281 164.472656 248.007812 163.679688 247.300781 163.027344 L 235.179688 151.855469 C 234.417969 151.152344 234.207031 150.308594 234.542969 149.324219 C 234.878906 148.34375 235.566406 147.804688 236.601562 147.714844 L 257.945312 145.875 C 258.65625 145.8125 259.226562 145.496094 259.652344 144.925781 L 274.371094 125.28125 C 275.007812 124.429688 275.84375 124.136719 276.875 124.398438 C 277.902344 124.664062 278.496094 125.320312 278.652344 126.371094 L 281.351562 144.980469 C 281.429688 145.519531 281.664062 145.980469 282.058594 146.359375 C 282.453125 146.738281 282.917969 146.957031 283.460938 147.015625 L 299.679688 148.761719 C 300.785156 148.886719 301.472656 149.492188 301.734375 150.578125 C 301.996094 151.664062 301.660156 152.515625 300.734375 153.132812 Z M 300.734375 153.132812 " clip-rule="nonzero"/></clipPath><clipPath id="d66a936322"><path d="M 248 165 L 253 165 L 253 174 L 248 174 Z M 248 165 " clip-rule="nonzero"/></clipPath><clipPath id="8147b469d5"><path d="M 300.734375 153.132812 L 283.867188 164.257812 C 283.152344 164.730469 282.792969 165.394531 282.792969 166.253906 L 282.78125 186.253906 C 282.78125 187.226562 282.347656 187.933594 281.488281 188.378906 C 280.625 188.824219 279.796875 188.765625 279.007812 188.207031 L 263.863281 177.460938 C 263.050781 176.886719 262.207031 176.835938 261.332031 177.3125 L 246.863281 185.230469 C 245.941406 185.734375 245.066406 185.660156 244.242188 185.011719 C 243.414062 184.359375 243.136719 183.527344 243.40625 182.511719 L 247.988281 165.402344 C 248.238281 164.472656 248.007812 163.679688 247.300781 163.027344 L 235.179688 151.855469 C 234.417969 151.152344 234.207031 150.308594 234.542969 149.324219 C 234.878906 148.34375 235.566406 147.804688 236.601562 147.714844 L 257.945312 145.875 C 258.65625 145.8125 259.226562 145.496094 259.652344 144.925781 L 274.371094 125.28125 C 275.007812 124.429688 275.84375 124.136719 276.875 124.398438 C 277.902344 124.664062 278.496094 125.320312 278.652344 126.371094 L 281.351562 144.980469 C 281.429688 145.519531 281.664062 145.980469 282.058594 146.359375 C 282.453125 146.738281 282.917969 146.957031 283.460938 147.015625 L 299.679688 148.761719 C 300.785156 148.886719 301.472656 149.492188 301.734375 150.578125 C 301.996094 151.664062 301.660156 152.515625 300.734375 153.132812 Z M 300.734375 153.132812 " clip-rule="nonzero"/></clipPath><clipPath id="b9b36e07a5"><path d="M 247 174 L 251 174 L 251 178 L 247 178 Z M 247 174 " clip-rule="nonzero"/></clipPath><clipPath id="973a052887"><path d="M 300.734375 153.132812 L 283.867188 164.257812 C 283.152344 164.730469 282.792969 165.394531 282.792969 166.253906 L 282.78125 186.253906 C 282.78125 187.226562 282.347656 187.933594 281.488281 188.378906 C 280.625 188.824219 279.796875 188.765625 279.007812 188.207031 L 263.863281 177.460938 C 263.050781 176.886719 262.207031 176.835938 261.332031 177.3125 L 246.863281 185.230469 C 245.941406 185.734375 245.066406 185.660156 244.242188 185.011719 C 243.414062 184.359375 243.136719 183.527344 243.40625 182.511719 L 247.988281 165.402344 C 248.238281 164.472656 248.007812 163.679688 247.300781 163.027344 L 235.179688 151.855469 C 234.417969 151.152344 234.207031 150.308594 234.542969 149.324219 C 234.878906 148.34375 235.566406 147.804688 236.601562 147.714844 L 257.945312 145.875 C 258.65625 145.8125 259.226562 145.496094 259.652344 144.925781 L 274.371094 125.28125 C 275.007812 124.429688 275.84375 124.136719 276.875 124.398438 C 277.902344 124.664062 278.496094 125.320312 278.652344 126.371094 L 281.351562 144.980469 C 281.429688 145.519531 281.664062 145.980469 282.058594 146.359375 C 282.453125 146.738281 282.917969 146.957031 283.460938 147.015625 L 299.679688 148.761719 C 300.785156 148.886719 301.472656 149.492188 301.734375 150.578125 C 301.996094 151.664062 301.660156 152.515625 300.734375 153.132812 Z M 300.734375 153.132812 " clip-rule="nonzero"/></clipPath><clipPath id="e72dbf0aab"><path d="M 269 130 L 276 130 L 276 139 L 269 139 Z M 269 130 " clip-rule="nonzero"/></clipPath><clipPath id="000be5238e"><path d="M 300.734375 153.132812 L 283.867188 164.257812 C 283.152344 164.730469 282.792969 165.394531 282.792969 166.253906 L 282.78125 186.253906 C 282.78125 187.226562 282.347656 187.933594 281.488281 188.378906 C 280.625 188.824219 279.796875 188.765625 279.007812 188.207031 L 263.863281 177.460938 C 263.050781 176.886719 262.207031 176.835938 261.332031 177.3125 L 246.863281 185.230469 C 245.941406 185.734375 245.066406 185.660156 244.242188 185.011719 C 243.414062 184.359375 243.136719 183.527344 243.40625 182.511719 L 247.988281 165.402344 C 248.238281 164.472656 248.007812 163.679688 247.300781 163.027344 L 235.179688 151.855469 C 234.417969 151.152344 234.207031 150.308594 234.542969 149.324219 C 234.878906 148.34375 235.566406 147.804688 236.601562 147.714844 L 257.945312 145.875 C 258.65625 145.8125 259.226562 145.496094 259.652344 144.925781 L 274.371094 125.28125 C 275.007812 124.429688 275.84375 124.136719 276.875 124.398438 C 277.902344 124.664062 278.496094 125.320312 278.652344 126.371094 L 281.351562 144.980469 C 281.429688 145.519531 281.664062 145.980469 282.058594 146.359375 C 282.453125 146.738281 282.917969 146.957031 283.460938 147.015625 L 299.679688 148.761719 C 300.785156 148.886719 301.472656 149.492188 301.734375 150.578125 C 301.996094 151.664062 301.660156 152.515625 300.734375 153.132812 Z M 300.734375 153.132812 " clip-rule="nonzero"/></clipPath><clipPath id="204b3453c8"><path d="M 266 138 L 271 138 L 271 143 L 266 143 Z M 266 138 " clip-rule="nonzero"/></clipPath><clipPath id="bbc3213c59"><path d="M 300.734375 153.132812 L 283.867188 164.257812 C 283.152344 164.730469 282.792969 165.394531 282.792969 166.253906 L 282.78125 186.253906 C 282.78125 187.226562 282.347656 187.933594 281.488281 188.378906 C 280.625 188.824219 279.796875 188.765625 279.007812 188.207031 L 263.863281 177.460938 C 263.050781 176.886719 262.207031 176.835938 261.332031 177.3125 L 246.863281 185.230469 C 245.941406 185.734375 245.066406 185.660156 244.242188 185.011719 C 243.414062 184.359375 243.136719 183.527344 243.40625 182.511719 L 247.988281 165.402344 C 248.238281 164.472656 248.007812 163.679688 247.300781 163.027344 L 235.179688 151.855469 C 234.417969 151.152344 234.207031 150.308594 234.542969 149.324219 C 234.878906 148.34375 235.566406 147.804688 236.601562 147.714844 L 257.945312 145.875 C 258.65625 145.8125 259.226562 145.496094 259.652344 144.925781 L 274.371094 125.28125 C 275.007812 124.429688 275.84375 124.136719 276.875 124.398438 C 277.902344 124.664062 278.496094 125.320312 278.652344 126.371094 L 281.351562 144.980469 C 281.429688 145.519531 281.664062 145.980469 282.058594 146.359375 C 282.453125 146.738281 282.917969 146.957031 283.460938 147.015625 L 299.679688 148.761719 C 300.785156 148.886719 301.472656 149.492188 301.734375 150.578125 C 301.996094 151.664062 301.660156 152.515625 300.734375 153.132812 Z M 300.734375 153.132812 " clip-rule="nonzero"/></clipPath></defs><path fill="#9dd6c9" d="M 112.40625 85.351562 C 112.40625 85.351562 222.335938 28.710938 279.722656 50.511719 C 279.722656 50.511719 195.429688 77.128906 155.078125 128.945312 L 120.621094 110.382812 Z M 112.40625 85.351562 " fill-opacity="1" fill-rule="nonzero"/><path fill="#84bcad" d="M 149.085938 94.160156 C 149.085938 94.160156 174.394531 80.78125 203.835938 68.878906 C 250.226562 50.125 279.726562 50.511719 279.726562 50.511719 C 279.726562 50.511719 252.359375 44.625 187.492188 69.960938 C 145.160156 86.496094 122.898438 101.207031 122.898438 101.207031 L 128.929688 105.960938 Z M 149.085938 94.160156 " fill-opacity="1" fill-rule="nonzero"/><path fill="#84bcad" d="M 140.96875 114.257812 C 140.96875 114.257812 225.261719 59.671875 279.722656 50.515625 C 279.722656 50.515625 233.582031 64.957031 200.398438 90.339844 C 176.5625 108.574219 155.078125 128.949219 155.078125 128.949219 Z M 140.96875 114.257812 " fill-opacity="1" fill-rule="nonzero"/><g clip-path="url(#d269e2d325)"><path fill="#fee359" d="M 89.585938 118.324219 L 107.539062 109.054688 C 107.894531 108.871094 108.1875 108.613281 108.414062 108.28125 C 108.640625 107.953125 108.777344 107.585938 108.820312 107.1875 L 110.953125 87.300781 C 111.003906 86.855469 111.164062 86.457031 111.433594 86.101562 C 111.707031 85.746094 112.050781 85.488281 112.46875 85.328125 C 112.886719 85.164062 113.3125 85.125 113.753906 85.203125 C 114.195312 85.28125 114.582031 85.464844 114.917969 85.761719 L 128.832031 98.054688 C 129.175781 98.355469 129.570312 98.546875 130.023438 98.621094 C 130.472656 98.695312 130.910156 98.644531 131.332031 98.46875 L 146.558594 92.136719 C 147 91.957031 147.457031 91.910156 147.925781 92 C 148.394531 92.089844 148.800781 92.304688 149.144531 92.636719 C 149.484375 92.972656 149.707031 93.371094 149.808594 93.835938 C 149.910156 94.304688 149.878906 94.761719 149.707031 95.207031 L 143.335938 111.726562 C 143.175781 112.144531 143.132812 112.570312 143.210938 113.007812 C 143.289062 113.445312 143.472656 113.832031 143.765625 114.164062 L 154.628906 126.566406 C 154.941406 126.921875 155.128906 127.335938 155.195312 127.804688 C 155.261719 128.273438 155.195312 128.722656 154.996094 129.148438 C 154.796875 129.578125 154.496094 129.917969 154.09375 130.167969 C 153.691406 130.421875 153.253906 130.542969 152.78125 130.53125 L 131.363281 130.09375 C 130.648438 130.082031 130.050781 130.335938 129.5625 130.855469 L 112.84375 148.824219 C 112.511719 149.179688 112.113281 149.410156 111.644531 149.519531 C 111.171875 149.632812 110.710938 149.601562 110.257812 149.433594 C 109.804688 149.265625 109.4375 148.988281 109.15625 148.597656 C 108.871094 148.207031 108.71875 147.769531 108.699219 147.285156 L 107.992188 128.492188 C 107.980469 128.226562 107.929688 127.96875 107.832031 127.722656 C 107.738281 127.476562 107.605469 127.25 107.433594 127.046875 C 107.265625 126.84375 107.066406 126.671875 106.839844 126.535156 C 106.613281 126.398438 106.367188 126.300781 106.109375 126.246094 L 90.171875 122.785156 C 89.679688 122.679688 89.261719 122.4375 88.921875 122.066406 C 88.582031 121.695312 88.378906 121.261719 88.3125 120.761719 C 88.246094 120.261719 88.332031 119.789062 88.5625 119.34375 C 88.796875 118.894531 89.136719 118.558594 89.585938 118.324219 Z M 89.585938 118.324219 " fill-opacity="1" fill-rule="nonzero"/></g><g clip-path="url(#bdff0bcbbc)"><g clip-path="url(#aab32c5c25)"><path fill="#fef8e2" d="M 115.308594 94.3125 C 116.511719 95.78125 117.816406 97.152344 119.222656 98.425781 C 119.382812 98.59375 119.570312 98.722656 119.78125 98.820312 C 119.996094 98.914062 120.21875 98.964844 120.449219 98.976562 C 120.683594 98.984375 120.90625 98.949219 121.128906 98.871094 C 121.347656 98.792969 121.542969 98.679688 121.71875 98.527344 C 121.890625 98.367188 122.023438 98.179688 122.121094 97.96875 C 122.21875 97.753906 122.269531 97.53125 122.28125 97.296875 C 122.289062 97.0625 122.253906 96.835938 122.171875 96.617188 C 122.09375 96.398438 121.976562 96.203125 121.816406 96.027344 C 120.414062 94.753906 119.109375 93.382812 117.90625 91.917969 C 116.460938 90.160156 113.863281 92.558594 115.308594 94.308594 Z M 115.308594 94.3125 " fill-opacity="1" fill-rule="nonzero"/></g></g><g clip-path="url(#1803be8d70)"><g clip-path="url(#4c2fe57d07)"><path fill="#fef8e2" d="M 122.433594 99.820312 L 122.332031 100.140625 C 122.261719 100.363281 122.234375 100.589844 122.253906 100.824219 C 122.273438 101.058594 122.335938 101.277344 122.445312 101.488281 C 122.550781 101.695312 122.695312 101.875 122.875 102.027344 C 123.054688 102.175781 123.253906 102.289062 123.480469 102.359375 C 123.703125 102.429688 123.929688 102.457031 124.164062 102.4375 C 124.398438 102.417969 124.617188 102.355469 124.828125 102.246094 C 125.035156 102.140625 125.214844 101.996094 125.367188 101.816406 C 125.519531 101.636719 125.628906 101.4375 125.699219 101.210938 L 125.800781 100.894531 C 125.871094 100.671875 125.898438 100.441406 125.878906 100.210938 C 125.859375 99.976562 125.796875 99.753906 125.6875 99.546875 C 125.578125 99.339844 125.4375 99.160156 125.257812 99.007812 C 125.078125 98.855469 124.875 98.746094 124.652344 98.675781 C 124.429688 98.601562 124.203125 98.578125 123.96875 98.597656 C 123.734375 98.617188 123.511719 98.679688 123.304688 98.789062 C 123.097656 98.894531 122.917969 99.039062 122.765625 99.21875 C 122.613281 99.398438 122.503906 99.597656 122.433594 99.820312 Z M 122.433594 99.820312 " fill-opacity="1" fill-rule="nonzero"/></g></g><g clip-path="url(#fe2e85cc54)"><g clip-path="url(#3200c5a09d)"><path fill="#fef8e2" d="M 142.355469 110.191406 L 143.453125 106.007812 C 143.519531 105.785156 143.542969 105.558594 143.519531 105.328125 C 143.496094 105.097656 143.433594 104.878906 143.324219 104.671875 C 143.21875 104.464844 143.078125 104.285156 142.902344 104.132812 C 142.726562 103.984375 142.527344 103.867188 142.308594 103.792969 C 142.085938 103.726562 141.859375 103.703125 141.625 103.722656 C 141.394531 103.742188 141.171875 103.808594 140.964844 103.914062 C 140.757812 104.023438 140.578125 104.164062 140.429688 104.339844 C 140.277344 104.519531 140.164062 104.71875 140.089844 104.9375 L 138.992188 109.121094 C 138.929688 109.347656 138.90625 109.574219 138.929688 109.804688 C 138.953125 110.035156 139.015625 110.253906 139.125 110.460938 C 139.230469 110.667969 139.371094 110.847656 139.546875 111 C 139.722656 111.148438 139.921875 111.265625 140.140625 111.339844 C 140.363281 111.40625 140.589844 111.429688 140.824219 111.410156 C 141.054688 111.390625 141.273438 111.324219 141.480469 111.21875 C 141.6875 111.109375 141.867188 110.96875 142.019531 110.792969 C 142.171875 110.613281 142.285156 110.414062 142.355469 110.191406 Z M 142.355469 110.191406 " fill-opacity="1" fill-rule="nonzero"/></g></g><g clip-path="url(#edefde62f8)"><g clip-path="url(#932c1634f7)"><path fill="#fef8e2" d="M 144.429688 102.730469 C 146.449219 101.6875 144.832031 98.546875 142.808594 99.589844 C 140.785156 100.632812 142.40625 103.773438 144.429688 102.730469 Z M 144.429688 102.730469 " fill-opacity="1" fill-rule="nonzero"/></g></g><g clip-path="url(#2eae1adb52)"><g clip-path="url(#93fe3851ad)"><path fill="#fef8e2" d="M 115.328125 142.453125 L 118.496094 138.375 C 118.621094 138.175781 118.699219 137.960938 118.738281 137.730469 C 118.78125 137.5 118.773438 137.273438 118.722656 137.042969 C 118.671875 136.816406 118.578125 136.605469 118.445312 136.414062 C 118.3125 136.222656 118.144531 136.0625 117.949219 135.9375 C 117.75 135.816406 117.535156 135.738281 117.304688 135.699219 C 117.078125 135.664062 116.847656 135.667969 116.621094 135.71875 C 116.394531 135.769531 116.183594 135.863281 115.992188 135.992188 C 115.800781 136.125 115.640625 136.289062 115.511719 136.480469 L 112.339844 140.558594 C 112.21875 140.757812 112.136719 140.972656 112.097656 141.203125 C 112.058594 141.433594 112.0625 141.664062 112.113281 141.890625 C 112.164062 142.121094 112.257812 142.328125 112.390625 142.519531 C 112.527344 142.714844 112.691406 142.871094 112.886719 143 C 113.085938 143.121094 113.300781 143.199219 113.53125 143.234375 C 113.761719 143.273438 113.988281 143.265625 114.214844 143.214844 C 114.445312 143.164062 114.652344 143.074219 114.84375 142.941406 C 115.035156 142.808594 115.199219 142.648438 115.328125 142.453125 Z M 115.328125 142.453125 " fill-opacity="1" fill-rule="nonzero"/></g></g><g clip-path="url(#afeac15710)"><g clip-path="url(#3201b71556)"><path fill="#fef8e2" d="M 121.257812 135.902344 C 123.277344 134.859375 121.660156 131.71875 119.636719 132.761719 C 117.613281 133.804688 119.234375 136.945312 121.257812 135.902344 Z M 121.257812 135.902344 " fill-opacity="1" fill-rule="nonzero"/></g></g><path fill="#9dd6c9" d="M 281.542969 188.34375 C 281.542969 188.34375 178.261719 256.351562 118.878906 240.769531 C 118.878906 240.769531 199.867188 205.34375 234.480469 149.53125 L 270.722656 164.328125 Z M 281.542969 188.34375 " fill-opacity="1" fill-rule="nonzero"/><path fill="#84bcad" d="M 244.136719 183.484375 C 244.136719 183.484375 220.394531 199.476562 192.382812 214.441406 C 148.25 238.023438 118.878906 240.773438 118.878906 240.773438 C 118.878906 240.773438 146.71875 243.71875 208.519531 211.632812 C 248.859375 190.691406 269.425781 173.695312 269.425781 173.695312 L 262.929688 169.609375 Z M 244.136719 183.484375 " fill-opacity="1" fill-rule="nonzero"/><path fill="#84bcad" d="M 250.070312 162.636719 C 250.070312 162.636719 172.054688 225.875 118.882812 240.769531 C 118.882812 240.769531 163.226562 221.507812 193.519531 192.738281 C 215.285156 172.074219 234.480469 149.53125 234.480469 149.53125 Z M 250.070312 162.636719 " fill-opacity="1" fill-rule="nonzero"/><g clip-path="url(#2ed9299c69)"><path fill="#fee359" d="M 300.734375 153.132812 L 283.867188 164.257812 C 283.53125 164.480469 283.269531 164.765625 283.078125 165.121094 C 282.886719 165.472656 282.792969 165.851562 282.792969 166.253906 L 282.78125 186.253906 C 282.78125 186.703125 282.664062 187.117188 282.429688 187.496094 C 282.199219 187.878906 281.882812 188.171875 281.488281 188.378906 C 281.089844 188.582031 280.667969 188.667969 280.222656 188.640625 C 279.777344 188.609375 279.371094 188.464844 279.007812 188.207031 L 263.863281 177.460938 C 263.492188 177.195312 263.074219 177.050781 262.617188 177.023438 C 262.160156 177 261.734375 177.09375 261.332031 177.3125 L 246.863281 185.230469 C 246.445312 185.460938 245.996094 185.554688 245.519531 185.511719 C 245.042969 185.472656 244.617188 185.304688 244.242188 185.011719 C 243.863281 184.714844 243.601562 184.339844 243.449219 183.886719 C 243.296875 183.433594 243.285156 182.976562 243.40625 182.511719 L 247.988281 165.402344 C 248.105469 164.972656 248.101562 164.546875 247.976562 164.121094 C 247.851562 163.691406 247.628906 163.328125 247.300781 163.027344 L 235.179688 151.855469 C 234.835938 151.535156 234.601562 151.144531 234.488281 150.683594 C 234.371094 150.226562 234.390625 149.773438 234.542969 149.324219 C 234.695312 148.875 234.960938 148.507812 235.332031 148.214844 C 235.707031 147.921875 236.128906 147.757812 236.601562 147.714844 L 257.945312 145.875 C 258.65625 145.8125 259.226562 145.496094 259.652344 144.925781 L 274.371094 125.28125 C 274.660156 124.894531 275.035156 124.621094 275.488281 124.460938 C 275.945312 124.300781 276.40625 124.28125 276.875 124.398438 C 277.34375 124.519531 277.738281 124.757812 278.0625 125.117188 C 278.382812 125.476562 278.582031 125.894531 278.652344 126.371094 L 281.351562 144.980469 C 281.390625 145.242188 281.46875 145.492188 281.589844 145.726562 C 281.710938 145.964844 281.867188 146.171875 282.058594 146.359375 C 282.25 146.542969 282.464844 146.691406 282.707031 146.800781 C 282.945312 146.914062 283.199219 146.984375 283.460938 147.015625 L 299.679688 148.761719 C 300.175781 148.820312 300.613281 149.011719 300.992188 149.347656 C 301.367188 149.679688 301.617188 150.089844 301.734375 150.578125 C 301.851562 151.066406 301.820312 151.542969 301.636719 152.011719 C 301.453125 152.480469 301.152344 152.855469 300.734375 153.132812 Z M 300.734375 153.132812 " fill-opacity="1" fill-rule="nonzero"/></g><g clip-path="url(#dbab1c6a8f)"><g clip-path="url(#1f36745fd7)"><path fill="#fef8e2" d="M 277.710938 179.742188 C 276.359375 178.410156 274.914062 177.1875 273.382812 176.066406 C 273.203125 175.917969 273.003906 175.808594 272.78125 175.738281 C 272.5625 175.664062 272.335938 175.636719 272.101562 175.652344 C 271.871094 175.667969 271.648438 175.726562 271.441406 175.828125 C 271.230469 175.925781 271.046875 176.0625 270.890625 176.234375 C 270.734375 176.410156 270.621094 176.609375 270.546875 176.832031 C 270.476562 177.054688 270.445312 177.28125 270.460938 177.515625 C 270.476562 177.75 270.535156 177.96875 270.640625 178.179688 C 270.742188 178.390625 270.878906 178.574219 271.054688 178.726562 C 272.585938 179.847656 274.03125 181.070312 275.382812 182.402344 C 277.007812 183.996094 279.332031 181.332031 277.710938 179.742188 Z M 277.710938 179.742188 " fill-opacity="1" fill-rule="nonzero"/></g></g><g clip-path="url(#f8c5ef217a)"><g clip-path="url(#0b867741cb)"><path fill="#fef8e2" d="M 270.039062 175.023438 L 270.105469 174.695312 C 270.167969 174.460938 270.175781 174.226562 270.140625 173.984375 C 270.105469 173.746094 270.019531 173.523438 269.894531 173.320312 C 269.765625 173.113281 269.601562 172.945312 269.402344 172.804688 C 269.203125 172.667969 268.988281 172.574219 268.75 172.527344 C 268.511719 172.476562 268.277344 172.476562 268.039062 172.527344 C 267.800781 172.574219 267.585938 172.667969 267.386719 172.804688 C 267.1875 172.945312 267.023438 173.117188 266.894531 173.320312 C 266.769531 173.527344 266.683594 173.746094 266.648438 173.988281 L 266.582031 174.3125 C 266.519531 174.546875 266.507812 174.785156 266.546875 175.023438 C 266.582031 175.261719 266.664062 175.484375 266.792969 175.6875 C 266.921875 175.894531 267.085938 176.066406 267.285156 176.203125 C 267.484375 176.339844 267.699219 176.433594 267.9375 176.484375 C 268.175781 176.53125 268.410156 176.53125 268.648438 176.484375 C 268.882812 176.433594 269.101562 176.339844 269.300781 176.203125 C 269.5 176.066406 269.664062 175.894531 269.789062 175.6875 C 269.917969 175.484375 270 175.261719 270.039062 175.023438 Z M 270.039062 175.023438 " fill-opacity="1" fill-rule="nonzero"/></g></g><g clip-path="url(#d66a936322)"><g clip-path="url(#8147b469d5)"><path fill="#fef8e2" d="M 249.125 166.828125 L 248.476562 171.105469 C 248.433594 171.332031 248.4375 171.5625 248.484375 171.789062 C 248.53125 172.019531 248.617188 172.230469 248.746094 172.421875 C 248.875 172.617188 249.035156 172.78125 249.226562 172.914062 C 249.417969 173.046875 249.625 173.136719 249.851562 173.191406 C 250.082031 173.234375 250.3125 173.234375 250.539062 173.1875 C 250.769531 173.144531 250.980469 173.058594 251.175781 172.929688 C 251.371094 172.800781 251.535156 172.636719 251.667969 172.445312 C 251.800781 172.253906 251.890625 172.042969 251.9375 171.8125 L 252.585938 167.539062 C 252.628906 167.308594 252.625 167.078125 252.578125 166.851562 C 252.53125 166.625 252.445312 166.414062 252.316406 166.21875 C 252.1875 166.023438 252.027344 165.859375 251.835938 165.726562 C 251.644531 165.59375 251.4375 165.503906 251.210938 165.453125 C 250.980469 165.40625 250.75 165.40625 250.523438 165.453125 C 250.292969 165.496094 250.082031 165.585938 249.886719 165.714844 C 249.691406 165.84375 249.527344 166.003906 249.394531 166.195312 C 249.261719 166.386719 249.171875 166.597656 249.125 166.828125 Z M 249.125 166.828125 " fill-opacity="1" fill-rule="nonzero"/></g></g><g clip-path="url(#b9b36e07a5)"><g clip-path="url(#973a052887)"><path fill="#fef8e2" d="M 247.859375 174.46875 C 245.960938 175.71875 247.902344 178.671875 249.804688 177.417969 C 251.707031 176.164062 249.757812 173.214844 247.859375 174.46875 Z M 247.859375 174.46875 " fill-opacity="1" fill-rule="nonzero"/></g></g><g clip-path="url(#e72dbf0aab)"><g clip-path="url(#000be5238e)"><path fill="#fef8e2" d="M 272.570312 131.875 L 269.855469 136.269531 C 269.753906 136.480469 269.695312 136.703125 269.679688 136.933594 C 269.664062 137.167969 269.695312 137.394531 269.769531 137.617188 C 269.84375 137.839844 269.957031 138.039062 270.109375 138.214844 C 270.261719 138.390625 270.445312 138.53125 270.652344 138.636719 C 270.863281 138.734375 271.085938 138.792969 271.316406 138.804688 C 271.546875 138.816406 271.773438 138.789062 271.996094 138.714844 C 272.214844 138.640625 272.414062 138.527344 272.589844 138.375 C 272.769531 138.222656 272.910156 138.046875 273.019531 137.839844 L 275.738281 133.445312 C 275.839844 133.234375 275.898438 133.015625 275.914062 132.78125 C 275.925781 132.546875 275.898438 132.320312 275.824219 132.097656 C 275.75 131.878906 275.632812 131.679688 275.480469 131.503906 C 275.328125 131.324219 275.148438 131.183594 274.9375 131.078125 C 274.730469 130.980469 274.507812 130.925781 274.273438 130.910156 C 274.042969 130.898438 273.816406 130.929688 273.597656 131.003906 C 273.375 131.078125 273.175781 131.191406 273 131.339844 C 272.824219 131.492188 272.679688 131.671875 272.570312 131.875 Z M 272.570312 131.875 " fill-opacity="1" fill-rule="nonzero"/></g></g><g clip-path="url(#204b3453c8)"><g clip-path="url(#bbc3213c59)"><path fill="#fef8e2" d="M 267.371094 139.023438 C 265.472656 140.273438 267.414062 143.226562 269.316406 141.972656 C 271.21875 140.71875 269.273438 137.769531 267.371094 139.023438 Z M 267.371094 139.023438 " fill-opacity="1" fill-rule="nonzero"/></g></g></svg>