<svg xmlns="http://www.w3.org/2000/svg" xmlns:xlink="http://www.w3.org/1999/xlink" width="519" zoomAndPan="magnify" viewBox="0 0 389.25 284.999983" height="380" preserveAspectRatio="xMidYMid meet" version="1.0"><defs><clipPath id="fe991d34ae"><path d="M 93.140625 1 L 294 1 L 294 229 L 93.140625 229 Z M 93.140625 1 " clip-rule="nonzero"/></clipPath><clipPath id="876d5938f2"><path d="M 157 236 L 220 236 L 220 284.726562 L 157 284.726562 Z M 157 236 " clip-rule="nonzero"/></clipPath></defs><g clip-path="url(#fe991d34ae)"><path fill="#ddcbfa" d="M 169.347656 227.535156 C 172.726562 216.710938 175.195312 205.683594 176.757812 194.453125 C 178.320312 183.222656 178.953125 171.941406 178.652344 160.605469 C 178.40625 151.25 178.378906 139.292969 170.839844 132.488281 C 167.765625 129.710938 163.5625 127.84375 159.367188 128.089844 C 158.367188 128.128906 157.390625 128.300781 156.433594 128.605469 C 155.480469 128.90625 154.582031 129.332031 153.742188 129.875 C 152.898438 130.417969 152.144531 131.058594 151.476562 131.804688 C 150.804688 132.550781 150.246094 133.371094 149.796875 134.265625 C 148.972656 136.0625 148.527344 137.949219 148.457031 139.921875 C 148.390625 141.898438 148.703125 143.808594 149.398438 145.660156 C 150.15625 147.65625 151.257812 149.4375 152.707031 151.007812 C 154.15625 152.574219 155.847656 153.8125 157.777344 154.722656 C 165.773438 158.628906 175.640625 157.738281 183.757812 154.664062 C 186.757812 153.519531 189.605469 152.085938 192.308594 150.359375 C 195.011719 148.628906 197.511719 146.644531 199.808594 144.402344 C 202.105469 142.164062 204.148438 139.710938 205.941406 137.050781 C 207.734375 134.390625 209.238281 131.574219 210.453125 128.605469 C 212.03125 124.734375 213.289062 120.332031 213.300781 116.117188 C 213.300781 113.894531 212.746094 111.496094 211.019531 109.964844 C 210.15625 109.246094 209.171875 108.761719 208.070312 108.523438 C 206.96875 108.28125 205.871094 108.308594 204.785156 108.605469 C 199.761719 109.769531 197.652344 114.996094 195.992188 119.308594 C 192.433594 128.570312 190.550781 139.757812 196.644531 148.441406 C 197.941406 150.355469 199.558594 151.945312 201.492188 153.210938 C 203.425781 154.476562 205.527344 155.320312 207.796875 155.746094 C 212.550781 156.570312 217.34375 155.554688 221.738281 153.691406 C 226.324219 151.636719 230.503906 148.945312 234.273438 145.621094 C 238.292969 142.207031 241.894531 138.402344 245.082031 134.199219 C 247.84375 130.578125 250.1875 125.464844 246.820312 121.398438 C 243.355469 117.222656 237.660156 120.21875 234.214844 122.800781 C 227.050781 128.160156 223.066406 136.511719 220.476562 144.851562 C 217.292969 155.117188 215.554688 165.960938 214.542969 176.644531 C 213.46875 188.023438 213.46875 199.402344 214.542969 210.78125 C 214.804688 213.5625 215.089844 216.363281 215.527344 219.132812 C 215.792969 221.109375 216.445312 222.949219 217.480469 224.648438 C 218.535156 226.265625 220.085938 227.570312 222.039062 227.738281 C 224.207031 227.921875 226.042969 226.695312 227.246094 224.988281 C 228.453125 223.28125 229.019531 221.25 229.722656 219.328125 C 230.371094 217.5625 231.082031 215.828125 231.851562 214.117188 C 233.433594 210.589844 235.199219 207.15625 237.144531 203.816406 C 245.050781 190.214844 255.324219 178.21875 264.980469 165.867188 C 274.636719 153.515625 283.816406 140.800781 289.242188 126.082031 C 294.917969 110.675781 295.21875 94.023438 291.480469 78.117188 C 289.609375 70.308594 286.808594 62.847656 283.085938 55.730469 C 279.367188 48.617188 274.832031 42.066406 269.488281 36.074219 C 264.179688 30.121094 258.265625 24.851562 251.742188 20.265625 C 245.214844 15.679688 238.253906 11.902344 230.855469 8.929688 C 223.230469 5.863281 215.351562 3.753906 207.214844 2.601562 C 199.078125 1.449219 190.925781 1.285156 182.75 2.109375 C 174.605469 2.929688 166.703125 4.785156 159.042969 7.671875 C 151.382812 10.558594 144.222656 14.378906 137.5625 19.136719 C 131.082031 23.863281 125.222656 29.261719 119.988281 35.335938 C 114.75 41.410156 110.273438 48 106.554688 55.105469 C 102.722656 62.355469 99.679688 69.925781 97.417969 77.808594 C 94.964844 86.390625 93.121094 95.398438 93.519531 104.316406 C 94.34375 122.957031 104.40625 138.917969 115.910156 152.9375 C 121.921875 160.257812 128.503906 167.09375 134.417969 174.492188 C 140.589844 182.21875 146.226562 190.609375 150.042969 199.757812 C 153.585938 208.226562 155.539062 217.53125 153.949219 226.648438 C 153.578125 228.742188 156.777344 229.640625 157.152344 227.535156 C 160.53125 208.703125 150.71875 190.511719 139.734375 175.964844 C 129.03125 161.785156 115.769531 149.679688 106.59375 134.335938 C 102.257812 127.085938 98.949219 119.234375 97.53125 110.882812 C 96.066406 102.253906 97.027344 93.640625 98.960938 85.171875 C 100.644531 77.65625 103.070312 70.386719 106.234375 63.363281 C 109.398438 56.34375 113.238281 49.714844 117.753906 43.476562 C 122.132812 37.433594 127.148438 31.984375 132.804688 27.121094 C 138.464844 22.257812 144.605469 18.113281 151.234375 14.695312 C 158.222656 11.195312 165.535156 8.621094 173.175781 6.972656 C 180.8125 5.328125 188.535156 4.65625 196.34375 4.96875 C 200.101562 5.105469 203.835938 5.457031 207.550781 6.019531 C 211.265625 6.578125 214.9375 7.347656 218.566406 8.328125 C 222.191406 9.304688 225.753906 10.484375 229.25 11.863281 C 232.746094 13.242188 236.148438 14.816406 239.464844 16.582031 C 242.785156 18.351562 245.988281 20.296875 249.085938 22.425781 C 252.183594 24.558594 255.148438 26.855469 257.984375 29.320312 C 260.820312 31.785156 263.511719 34.402344 266.050781 37.171875 C 268.589844 39.945312 270.964844 42.847656 273.179688 45.886719 C 277.640625 52.066406 281.289062 58.695312 284.125 65.777344 C 286.960938 72.855469 288.894531 80.171875 289.933594 87.722656 C 291.039062 95.4375 291.015625 103.152344 289.859375 110.859375 C 288.652344 118.089844 286.480469 125.023438 283.347656 131.652344 C 277.097656 145.066406 267.9375 156.851562 258.789062 168.382812 C 249.496094 180.109375 239.90625 191.730469 232.742188 204.863281 C 230.964844 208.125 229.359375 211.46875 227.929688 214.898438 C 227.242188 216.550781 226.628906 218.226562 226.015625 219.914062 C 225.503906 221.367188 224.832031 223.5625 223.277344 224.234375 C 220.019531 225.640625 218.839844 219.277344 218.582031 217.320312 C 217.871094 211.953125 217.40625 206.5625 217.195312 201.144531 C 216.738281 190.304688 217.261719 179.511719 218.769531 168.765625 C 220.109375 159.242188 221.914062 149.457031 225.496094 140.492188 C 226.941406 136.703125 228.917969 133.214844 231.421875 130.023438 C 232.691406 128.445312 234.121094 127.023438 235.710938 125.765625 C 237.3125 124.507812 239.261719 123.15625 241.265625 122.707031 C 243.273438 122.257812 244.757812 123.359375 245.109375 125.390625 C 245.492188 127.535156 244.269531 129.589844 243.097656 131.253906 C 240.195312 135.292969 236.863281 138.9375 233.101562 142.1875 C 229.578125 145.414062 225.671875 148.074219 221.382812 150.175781 C 217.472656 151.984375 212.960938 153.210938 208.65625 152.488281 C 199.425781 150.929688 195.441406 141.367188 196 132.882812 C 196.339844 127.765625 198.03125 122.707031 200.023438 118.011719 C 200.84375 116.058594 201.867188 113.945312 203.605469 112.667969 C 204.960938 111.679688 207.167969 111.117188 208.625 112.234375 C 210.082031 113.347656 210.042969 115.84375 209.882812 117.5625 C 209.671875 119.546875 209.28125 121.496094 208.714844 123.410156 C 207.625 127.246094 206.003906 130.84375 203.851562 134.199219 C 201.703125 137.570312 199.144531 140.589844 196.175781 143.261719 C 193.207031 145.9375 189.9375 148.164062 186.363281 149.945312 C 179.199219 153.496094 170.4375 155.273438 162.628906 153.074219 C 158.871094 152.019531 155.234375 149.863281 153.296875 146.355469 C 152.449219 144.84375 151.949219 143.21875 151.804688 141.492188 C 151.65625 139.761719 151.871094 138.078125 152.453125 136.441406 C 152.765625 135.65625 153.191406 134.941406 153.730469 134.292969 C 154.269531 133.644531 154.894531 133.09375 155.609375 132.644531 C 156.320312 132.191406 157.085938 131.863281 157.902344 131.652344 C 158.71875 131.445312 159.546875 131.367188 160.390625 131.417969 C 162.292969 131.539062 164.089844 132.046875 165.777344 132.933594 C 167.464844 133.824219 168.894531 135.023438 170.070312 136.527344 C 172.886719 140.082031 174.058594 144.742188 174.628906 149.15625 C 175.1875 154.242188 175.445312 159.339844 175.40625 164.453125 C 175.5 175.144531 174.746094 185.773438 173.152344 196.34375 C 171.585938 206.632812 169.25 216.746094 166.144531 226.683594 C 165.496094 228.726562 168.710938 229.609375 169.347656 227.570312 Z M 169.347656 227.535156 " fill-opacity="1" fill-rule="nonzero"/></g><g clip-path="url(#876d5938f2)"><path fill="#ddcbfa" d="M 159.660156 240.597656 C 170.3125 240.199219 180.972656 240.285156 191.628906 240.453125 C 196.90625 240.53125 202.179688 240.636719 207.460938 240.707031 L 211.007812 240.746094 L 213.925781 240.746094 C 213.996094 240.746094 214.578125 240.78125 214.34375 240.746094 C 214.515625 240.777344 214.6875 240.816406 214.855469 240.871094 C 214.855469 240.871094 215.363281 241.082031 215.089844 240.949219 C 215.238281 241.023438 215.382812 241.105469 215.519531 241.199219 C 215.925781 241.464844 215.339844 241.003906 215.691406 241.335938 C 216.085938 241.671875 216.34375 242.09375 216.464844 242.597656 C 216.601562 243.050781 216.609375 243.503906 216.492188 243.960938 C 216.375 244.414062 216.148438 244.808594 215.8125 245.140625 C 215.609375 245.34375 215.375 245.503906 215.109375 245.628906 C 214.640625 245.886719 214.148438 246.121094 213.652344 246.355469 C 212.625 246.84375 211.578125 247.277344 210.507812 247.660156 C 206.183594 249.09375 201.761719 250.097656 197.242188 250.667969 C 192.035156 251.425781 186.824219 251.84375 181.617188 252.449219 C 176.40625 253.054688 170.96875 253.789062 166.300781 256.21875 C 164.347656 257.25 162.492188 258.742188 161.644531 260.867188 C 161.402344 261.492188 161.261719 262.136719 161.21875 262.808594 C 161.179688 263.476562 161.242188 264.136719 161.40625 264.789062 C 161.570312 265.4375 161.828125 266.046875 162.183594 266.617188 C 162.539062 267.1875 162.972656 267.6875 163.484375 268.121094 C 166.667969 270.664062 171.257812 270.390625 175.085938 270.382812 C 180.339844 270.382812 185.589844 270.179688 190.835938 270.207031 C 195.800781 270.179688 200.742188 270.515625 205.65625 271.21875 C 207.351562 271.4375 209.015625 271.796875 210.648438 272.292969 C 211.257812 272.457031 211.828125 272.707031 212.363281 273.042969 C 212.5 273.121094 212.628906 273.203125 212.761719 273.296875 C 212.480469 273.101562 212.859375 273.378906 212.882812 273.414062 C 212.910156 273.445312 213.085938 273.609375 213.183594 273.71875 C 212.9375 273.433594 213.269531 273.863281 213.3125 273.941406 C 213.542969 274.324219 213.15625 273.628906 213.351562 274.03125 C 213.351562 274.097656 213.457031 274.539062 213.40625 274.128906 C 213.40625 274.253906 213.40625 274.898438 213.40625 274.585938 C 213.261719 275.378906 212.949219 276.097656 212.46875 276.742188 C 212.351562 276.917969 212.234375 277.09375 212.109375 277.257812 C 212.382812 276.898438 212.140625 277.21875 212.078125 277.257812 C 211.90625 277.433594 211.746094 277.59375 211.570312 277.757812 C 211.511719 277.808594 211.183594 278.0625 211.515625 277.808594 C 211.417969 277.886719 211.3125 277.960938 211.210938 278.03125 C 210.953125 278.207031 210.683594 278.367188 210.410156 278.511719 C 210.160156 278.652344 209.90625 278.769531 209.652344 278.890625 C 209.21875 279.09375 209.964844 278.769531 209.511719 278.949219 L 209.160156 279.085938 C 208.539062 279.320312 207.90625 279.519531 207.265625 279.6875 C 206.613281 279.863281 205.929688 280.003906 205.257812 280.136719 C 204.589844 280.265625 203.625 280.410156 203.175781 280.46875 C 197.316406 281.203125 191.363281 281.023438 185.472656 280.808594 C 184.554688 280.773438 183.636719 280.734375 182.71875 280.722656 C 180.574219 280.683594 180.574219 283.980469 182.71875 284.042969 C 188.167969 284.140625 193.605469 284.472656 199.058594 284.15625 C 202.246094 284.042969 205.382812 283.59375 208.46875 282.800781 C 210.929688 282.109375 213.417969 281.027344 214.980469 278.890625 C 215.96875 277.550781 216.847656 275.804688 216.699219 274.082031 C 216.613281 273.285156 216.347656 272.546875 215.910156 271.871094 C 215.472656 271.199219 214.90625 270.65625 214.210938 270.253906 C 211.261719 268.296875 207.210938 268.03125 203.792969 267.589844 C 193.199219 266.214844 182.507812 267.179688 171.886719 266.996094 C 170.101562 267.058594 168.363281 266.789062 166.679688 266.1875 C 166.097656 265.996094 165.609375 265.667969 165.214844 265.199219 C 164.824219 264.726562 164.582031 264.1875 164.5 263.582031 C 164.5 263.484375 164.5 263.886719 164.5 263.550781 C 164.5 263.433594 164.5 263.320312 164.5 263.203125 C 164.5 263.085938 164.5 262.976562 164.5 262.867188 C 164.5 262.753906 164.550781 262.492188 164.5 262.8125 C 164.53125 262.59375 164.582031 262.375 164.640625 262.160156 C 164.640625 262.0625 164.707031 261.964844 164.738281 261.863281 C 164.816406 261.613281 164.578125 262.136719 164.738281 261.824219 C 164.851562 261.632812 164.941406 261.445312 165.058594 261.261719 C 165.175781 261.082031 165.183594 261.085938 165.246094 260.996094 C 165.3125 260.90625 165.15625 261.113281 165.15625 261.113281 C 165.15625 261.113281 165.246094 260.996094 165.300781 260.945312 C 165.457031 260.78125 165.605469 260.609375 165.773438 260.449219 L 166.035156 260.214844 C 166.085938 260.167969 166.40625 259.90625 166.242188 260.039062 C 166.082031 260.167969 166.367188 259.945312 166.417969 259.914062 L 166.730469 259.699219 C 166.984375 259.535156 167.246094 259.378906 167.507812 259.230469 C 168.015625 258.949219 168.527344 258.695312 169.054688 258.46875 C 168.789062 258.585938 169.054688 258.46875 169.191406 258.414062 L 169.601562 258.253906 C 169.90625 258.136719 170.214844 258.023438 170.519531 257.921875 C 171.132812 257.71875 171.757812 257.53125 172.382812 257.359375 C 173.6875 257.003906 174.988281 256.710938 176.289062 256.460938 C 176.941406 256.335938 177.632812 256.226562 178.300781 256.117188 L 179.257812 255.972656 L 179.734375 255.90625 L 179.96875 255.875 C 179.792969 255.875 179.863281 255.875 179.96875 255.875 C 182.261719 255.574219 184.527344 255.359375 186.859375 255.160156 C 189.710938 254.910156 192.554688 254.507812 195.394531 254.148438 C 200.066406 253.625 204.667969 252.730469 209.199219 251.464844 C 211.4375 250.792969 213.605469 249.949219 215.710938 248.929688 C 217.441406 248.082031 218.839844 246.976562 219.484375 245.105469 C 219.609375 244.722656 219.691406 244.332031 219.734375 243.929688 C 219.777344 243.53125 219.78125 243.128906 219.742188 242.730469 C 219.707031 242.328125 219.628906 241.9375 219.511719 241.550781 C 219.390625 241.167969 219.238281 240.796875 219.046875 240.445312 C 218.851562 240.089844 218.628906 239.761719 218.367188 239.453125 C 218.109375 239.144531 217.820312 238.867188 217.503906 238.617188 C 217.1875 238.367188 216.851562 238.152344 216.492188 237.972656 C 216.132812 237.789062 215.757812 237.648438 215.371094 237.542969 C 214.320312 237.359375 213.261719 237.296875 212.195312 237.355469 L 208.164062 237.308594 C 205.414062 237.277344 202.667969 237.238281 199.925781 237.183594 C 189.105469 237.007812 178.277344 236.785156 167.449219 236.976562 C 164.816406 237.019531 162.1875 237.089844 159.554688 237.191406 C 157.425781 237.269531 157.414062 240.597656 159.554688 240.511719 Z M 159.660156 240.597656 " fill-opacity="1" fill-rule="nonzero"/></g></svg>