<svg xmlns="http://www.w3.org/2000/svg" xmlns:xlink="http://www.w3.org/1999/xlink" width="520" zoomAndPan="magnify" viewBox="0 0 390 284.999983" height="380" preserveAspectRatio="xMidYMid meet" version="1.0"><defs><clipPath id="1a3606ca73"><path d="M 191 14.53125 L 196 14.53125 L 196 53 L 191 53 Z M 191 14.53125 " clip-rule="nonzero"/></clipPath><clipPath id="3d12933c29"><path d="M 26.894531 150 L 362.894531 150 L 362.894531 194 L 26.894531 194 Z M 26.894531 150 " clip-rule="nonzero"/></clipPath><clipPath id="6263a7b104"><path d="M 26.894531 133 L 362.894531 133 L 362.894531 177 L 26.894531 177 Z M 26.894531 133 " clip-rule="nonzero"/></clipPath><clipPath id="43a0a754dc"><path d="M 161 88 L 226 88 L 226 163.972656 L 161 163.972656 Z M 161 88 " clip-rule="nonzero"/></clipPath><clipPath id="967ce4bc79"><path d="M 121.800781 153 C 121.800781 153 186.882812 176.855469 265.945312 153 C 265.945312 153 277.871094 64.054688 193.894531 63.90625 C 110.445312 63.757812 121.800781 153 121.800781 153 Z M 121.800781 153 " clip-rule="nonzero"/></clipPath><clipPath id="4243b7b375"><path d="M 186 102 L 202 102 L 202 130 L 186 130 Z M 186 102 " clip-rule="nonzero"/></clipPath><clipPath id="ef7f7ad891"><path d="M 121.800781 153 C 121.800781 153 186.882812 176.855469 265.945312 153 C 265.945312 153 277.871094 64.054688 193.894531 63.90625 C 110.445312 63.757812 121.800781 153 121.800781 153 Z M 121.800781 153 " clip-rule="nonzero"/></clipPath><clipPath id="9cb7ac2d80"><path d="M 142 104 L 247 104 L 247 163.972656 L 142 163.972656 Z M 142 104 " clip-rule="nonzero"/></clipPath><clipPath id="a96e2b8fe2"><path d="M 121.800781 153 C 121.800781 153 186.882812 176.855469 265.945312 153 C 265.945312 153 277.871094 64.054688 193.894531 63.90625 C 110.445312 63.757812 121.800781 153 121.800781 153 Z M 121.800781 153 " clip-rule="nonzero"/></clipPath><clipPath id="735b3dc368"><path d="M 194 107 L 199 107 L 199 113 L 194 113 Z M 194 107 " clip-rule="nonzero"/></clipPath><clipPath id="ac681e3d8e"><path d="M 121.800781 153 C 121.800781 153 186.882812 176.855469 265.945312 153 C 265.945312 153 277.871094 64.054688 193.894531 63.90625 C 110.445312 63.757812 121.800781 153 121.800781 153 Z M 121.800781 153 " clip-rule="nonzero"/></clipPath><clipPath id="66ee8ab1a2"><path d="M 145 66 L 228 66 L 228 145 L 145 145 Z M 145 66 " clip-rule="nonzero"/></clipPath><clipPath id="150eb137c9"><path d="M 121.800781 153 C 121.800781 153 186.882812 176.855469 265.945312 153 C 265.945312 153 277.871094 64.054688 193.894531 63.90625 C 110.445312 63.757812 121.800781 153 121.800781 153 Z M 121.800781 153 " clip-rule="nonzero"/></clipPath><clipPath id="d2335c9788"><path d="M 121.21875 63.726562 L 264 63.726562 L 264 163.972656 L 121.21875 163.972656 Z M 121.21875 63.726562 " clip-rule="nonzero"/></clipPath><clipPath id="9cb9595665"><path d="M 121.800781 153 C 121.800781 153 186.882812 176.855469 265.945312 153 C 265.945312 153 277.871094 64.054688 193.894531 63.90625 C 110.445312 63.757812 121.800781 153 121.800781 153 Z M 121.800781 153 " clip-rule="nonzero"/></clipPath><clipPath id="f800adca74"><path d="M 122 63.726562 L 267 63.726562 L 267 163.972656 L 122 163.972656 Z M 122 63.726562 " clip-rule="nonzero"/></clipPath><clipPath id="a76db4870b"><path d="M 121.800781 153 C 121.800781 153 186.882812 176.855469 265.945312 153 C 265.945312 153 277.871094 64.054688 193.894531 63.90625 C 110.445312 63.757812 121.800781 153 121.800781 153 Z M 121.800781 153 " clip-rule="nonzero"/></clipPath><clipPath id="b8da34f5df"><path d="M 137 122 L 163 122 L 163 163.972656 L 137 163.972656 Z M 137 122 " clip-rule="nonzero"/></clipPath><clipPath id="ddcd5dac6f"><path d="M 121.800781 153 C 121.800781 153 186.882812 176.855469 265.945312 153 C 265.945312 153 277.871094 64.054688 193.894531 63.90625 C 110.445312 63.757812 121.800781 153 121.800781 153 Z M 121.800781 153 " clip-rule="nonzero"/></clipPath><clipPath id="4667c2378f"><path d="M 228 119 L 253 119 L 253 163.972656 L 228 163.972656 Z M 228 119 " clip-rule="nonzero"/></clipPath><clipPath id="c1172bfba2"><path d="M 121.800781 153 C 121.800781 153 186.882812 176.855469 265.945312 153 C 265.945312 153 277.871094 64.054688 193.894531 63.90625 C 110.445312 63.757812 121.800781 153 121.800781 153 Z M 121.800781 153 " clip-rule="nonzero"/></clipPath></defs><g clip-path="url(#1a3606ca73)"><path stroke-linecap="round" transform="matrix(1.319199, 0, 0, 1.319014, -4.105698, -45.751961)" fill="none" stroke-linejoin="miter" d="M 150.100147 72.762391 L 150.100147 47.376479 " stroke="#17112a" stroke-width="3" stroke-opacity="1" stroke-miterlimit="10"/></g><path fill="#b3aaab" d="M 209.339844 65.652344 C 209.339844 66.664062 209.242188 67.667969 209.042969 68.664062 C 208.84375 69.65625 208.550781 70.621094 208.164062 71.558594 C 207.777344 72.492188 207.300781 73.382812 206.738281 74.226562 C 206.175781 75.066406 205.535156 75.847656 204.820312 76.5625 C 204.101562 77.28125 203.324219 77.917969 202.480469 78.484375 C 201.636719 79.046875 200.75 79.519531 199.8125 79.910156 C 198.875 80.296875 197.910156 80.589844 196.917969 80.785156 C 195.921875 80.984375 194.917969 81.082031 193.90625 81.082031 C 192.894531 81.082031 191.890625 80.984375 190.894531 80.785156 C 189.902344 80.589844 188.9375 80.296875 188 79.910156 C 187.0625 79.519531 186.175781 79.046875 185.332031 78.484375 C 184.488281 77.917969 183.710938 77.28125 182.992188 76.5625 C 182.277344 75.847656 181.636719 75.066406 181.074219 74.226562 C 180.511719 73.382812 180.035156 72.492188 179.648438 71.558594 C 179.257812 70.621094 178.96875 69.65625 178.769531 68.664062 C 178.570312 67.667969 178.472656 66.664062 178.472656 65.652344 C 178.472656 64.640625 178.570312 63.636719 178.769531 62.640625 C 178.96875 61.648438 179.257812 60.683594 179.648438 59.746094 C 180.035156 58.8125 180.511719 57.921875 181.074219 57.078125 C 181.636719 56.238281 182.277344 55.457031 182.992188 54.742188 C 183.710938 54.023438 184.488281 53.382812 185.332031 52.820312 C 186.175781 52.257812 187.0625 51.78125 188 51.394531 C 188.9375 51.007812 189.902344 50.714844 190.894531 50.515625 C 191.890625 50.320312 192.894531 50.222656 193.90625 50.222656 C 194.917969 50.222656 195.921875 50.320312 196.917969 50.515625 C 197.910156 50.714844 198.875 51.007812 199.8125 51.394531 C 200.75 51.78125 201.636719 52.257812 202.480469 52.820312 C 203.324219 53.382812 204.101562 54.023438 204.820312 54.742188 C 205.535156 55.457031 206.175781 56.238281 206.738281 57.078125 C 207.300781 57.921875 207.777344 58.8125 208.164062 59.746094 C 208.550781 60.683594 208.84375 61.648438 209.042969 62.640625 C 209.242188 63.636719 209.339844 64.640625 209.339844 65.652344 Z M 209.339844 65.652344 " fill-opacity="1" fill-rule="nonzero"/><path fill="#17112a" d="M 246.226562 227.972656 L 250.710938 225.382812 L 265.035156 250.191406 C 265.402344 250.097656 265.773438 250.027344 266.148438 249.980469 C 266.519531 249.933594 266.898438 249.910156 267.273438 249.90625 C 267.652344 249.902344 268.027344 249.921875 268.402344 249.964844 C 268.777344 250.007812 269.148438 250.070312 269.515625 250.15625 C 269.886719 250.242188 270.246094 250.351562 270.601562 250.480469 C 270.953125 250.609375 271.300781 250.761719 271.636719 250.929688 C 271.972656 251.101562 272.300781 251.292969 272.613281 251.503906 C 272.925781 251.710938 273.226562 251.941406 273.511719 252.183594 C 273.800781 252.429688 274.070312 252.691406 274.328125 252.972656 C 274.582031 253.25 274.820312 253.539062 275.039062 253.847656 C 275.261719 254.152344 275.460938 254.472656 275.644531 254.800781 C 275.828125 255.132812 275.988281 255.472656 276.128906 255.824219 C 276.273438 256.171875 276.390625 256.53125 276.492188 256.894531 C 276.589844 257.257812 276.667969 257.628906 276.722656 258 C 276.777344 258.375 276.808594 258.75 276.820312 259.125 C 276.828125 259.503906 276.816406 259.878906 276.78125 260.257812 C 276.746094 260.632812 276.691406 261.003906 276.609375 261.375 C 276.53125 261.742188 276.429688 262.105469 276.308594 262.460938 C 276.183594 262.820312 276.042969 263.167969 275.875 263.507812 C 275.710938 263.847656 275.527344 264.175781 275.324219 264.492188 C 275.121094 264.8125 274.898438 265.117188 274.660156 265.40625 C 274.417969 265.699219 274.160156 265.972656 273.886719 266.234375 C 273.617188 266.496094 273.328125 266.738281 273.027344 266.964844 C 272.722656 267.191406 272.410156 267.398438 272.082031 267.585938 C 271.753906 267.773438 271.417969 267.945312 271.070312 268.09375 C 270.722656 268.242188 270.367188 268.367188 270.007812 268.472656 C 269.644531 268.578125 269.277344 268.664062 268.90625 268.726562 C 268.53125 268.789062 268.15625 268.828125 267.78125 268.84375 C 267.402344 268.863281 267.027344 268.855469 266.648438 268.828125 C 266.273438 268.800781 265.898438 268.75 265.53125 268.679688 C 265.160156 268.605469 264.792969 268.511719 264.433594 268.394531 C 264.074219 268.28125 263.726562 268.140625 263.382812 267.984375 C 263.039062 267.828125 262.707031 267.648438 262.386719 267.449219 C 262.0625 267.253906 261.753906 267.039062 261.460938 266.800781 C 261.164062 266.566406 260.882812 266.316406 260.617188 266.046875 C 260.351562 265.78125 260.101562 265.496094 259.871094 265.199219 C 259.636719 264.902344 259.425781 264.589844 259.230469 264.269531 C 259.035156 263.945312 258.859375 263.609375 258.707031 263.265625 C 258.550781 262.921875 258.417969 262.570312 258.304688 262.210938 C 258.191406 261.851562 258.101562 261.484375 258.03125 261.113281 C 257.960938 260.742188 257.914062 260.367188 257.890625 259.992188 C 257.867188 259.617188 257.867188 259.238281 257.886719 258.863281 C 257.90625 258.484375 257.949219 258.109375 258.015625 257.738281 C 258.082031 257.367188 258.167969 257 258.277344 256.640625 C 258.386719 256.277344 258.515625 255.925781 258.667969 255.578125 C 258.820312 255.234375 258.992188 254.898438 259.183594 254.570312 C 259.375 254.246094 259.582031 253.933594 259.8125 253.632812 C 260.042969 253.335938 260.289062 253.046875 260.550781 252.777344 Z M 246.226562 227.972656 " fill-opacity="1" fill-rule="nonzero"/><path fill="#17112a" d="M 141.585938 227.972656 L 137.101562 225.382812 L 122.773438 250.191406 C 122.410156 250.097656 122.039062 250.027344 121.664062 249.980469 C 121.289062 249.933594 120.914062 249.910156 120.535156 249.90625 C 120.160156 249.902344 119.78125 249.921875 119.40625 249.964844 C 119.03125 250.007812 118.660156 250.070312 118.292969 250.15625 C 117.925781 250.242188 117.566406 250.351562 117.210938 250.480469 C 116.855469 250.609375 116.511719 250.761719 116.171875 250.929688 C 115.835938 251.101562 115.511719 251.292969 115.199219 251.503906 C 114.882812 251.710938 114.582031 251.941406 114.296875 252.183594 C 114.011719 252.429688 113.738281 252.691406 113.484375 252.972656 C 113.230469 253.25 112.992188 253.539062 112.769531 253.847656 C 112.550781 254.152344 112.347656 254.472656 112.167969 254.800781 C 111.984375 255.132812 111.820312 255.472656 111.679688 255.824219 C 111.539062 256.171875 111.417969 256.53125 111.320312 256.894531 C 111.21875 257.257812 111.144531 257.628906 111.089844 258 C 111.035156 258.375 111 258.75 110.992188 259.125 C 110.980469 259.503906 110.992188 259.878906 111.027344 260.257812 C 111.0625 260.632812 111.121094 261.003906 111.199219 261.375 C 111.277344 261.742188 111.378906 262.105469 111.503906 262.460938 C 111.625 262.820312 111.769531 263.167969 111.933594 263.507812 C 112.097656 263.847656 112.28125 264.175781 112.488281 264.492188 C 112.691406 264.8125 112.914062 265.117188 113.152344 265.40625 C 113.390625 265.699219 113.648438 265.972656 113.921875 266.234375 C 114.195312 266.496094 114.484375 266.738281 114.785156 266.964844 C 115.085938 267.191406 115.402344 267.398438 115.730469 267.585938 C 116.054688 267.773438 116.394531 267.945312 116.742188 268.09375 C 117.085938 268.242188 117.441406 268.367188 117.804688 268.472656 C 118.167969 268.578125 118.535156 268.664062 118.90625 268.726562 C 119.277344 268.789062 119.652344 268.828125 120.03125 268.84375 C 120.40625 268.863281 120.785156 268.855469 121.160156 268.828125 C 121.539062 268.800781 121.910156 268.75 122.28125 268.679688 C 122.652344 268.605469 123.015625 268.511719 123.375 268.394531 C 123.734375 268.28125 124.085938 268.140625 124.429688 267.984375 C 124.773438 267.828125 125.105469 267.648438 125.425781 267.449219 C 125.746094 267.253906 126.054688 267.039062 126.351562 266.800781 C 126.648438 266.566406 126.929688 266.316406 127.195312 266.046875 C 127.460938 265.78125 127.707031 265.496094 127.941406 265.199219 C 128.171875 264.902344 128.386719 264.589844 128.582031 264.269531 C 128.773438 263.945312 128.949219 263.609375 129.105469 263.265625 C 129.257812 262.921875 129.394531 262.570312 129.507812 262.210938 C 129.617188 261.851562 129.710938 261.484375 129.777344 261.113281 C 129.847656 260.742188 129.894531 260.367188 129.917969 259.992188 C 129.945312 259.617188 129.945312 259.238281 129.925781 258.863281 C 129.90625 258.484375 129.863281 258.109375 129.796875 257.738281 C 129.730469 257.367188 129.644531 257 129.535156 256.640625 C 129.425781 256.277344 129.292969 255.925781 129.144531 255.578125 C 128.992188 255.234375 128.820312 254.898438 128.628906 254.570312 C 128.4375 254.246094 128.226562 253.933594 128 253.632812 C 127.769531 253.335938 127.523438 253.046875 127.261719 252.777344 Z M 141.585938 227.972656 " fill-opacity="1" fill-rule="nonzero"/><path fill="#232563" d="M 313.992188 164.789062 C 313.992188 166.710938 313.890625 168.625 313.695312 170.539062 C 313.644531 171.097656 313.574219 171.65625 313.484375 172.214844 C 312.738281 177.699219 311.234375 182.96875 308.976562 188.023438 C 294.125 221.566406 247.914062 246.023438 193.226562 246.023438 C 138.296875 246.023438 91.925781 221.355469 77.285156 187.605469 C 75.109375 182.679688 73.667969 177.550781 72.953125 172.214844 C 72.847656 171.515625 72.777344 170.816406 72.707031 170.117188 C 72.53125 168.351562 72.445312 166.589844 72.445312 164.789062 C 72.445312 162.316406 72.613281 159.855469 72.949219 157.402344 C 73.035156 156.703125 73.144531 156.003906 73.265625 155.324219 C 74.199219 149.914062 75.867188 144.746094 78.277344 139.8125 C 108.46875 136.074219 149.5625 133.785156 194.847656 133.785156 C 238.421875 133.785156 278.121094 135.917969 307.960938 139.394531 C 310.464844 144.453125 312.199219 149.765625 313.167969 155.324219 C 313.273438 155.867188 313.363281 156.40625 313.433594 156.96875 C 313.804688 159.5625 313.992188 162.167969 313.992188 164.789062 Z M 313.992188 164.789062 " fill-opacity="1" fill-rule="nonzero"/><g clip-path="url(#3d12933c29)"><path fill="#17112a" d="M 299.160156 155.328125 C 270.507812 152.410156 234.265625 150.667969 194.84375 150.667969 C 155.425781 150.667969 119.183594 152.410156 90.53125 155.328125 L 26.871094 155.328125 L 26.871094 172.210938 C 26.871094 184.109375 102.074219 193.757812 194.84375 193.757812 C 287.617188 193.757812 362.820312 184.109375 362.820312 172.210938 L 362.820312 155.328125 Z M 299.160156 155.328125 " fill-opacity="1" fill-rule="nonzero"/></g><g clip-path="url(#6263a7b104)"><path fill="#814c9e" d="M 362.808594 155.324219 C 362.808594 158.328125 358.023438 161.191406 349.390625 163.777344 C 340.917969 166.328125 328.722656 168.617188 313.695312 170.539062 C 309.136719 171.132812 304.296875 171.691406 299.210938 172.214844 C 270.558594 175.132812 234.304688 176.878906 194.851562 176.878906 C 155.398438 176.878906 119.128906 175.132812 90.476562 172.214844 C 84.167969 171.570312 78.226562 170.871094 72.707031 170.121094 C 61.742188 168.800781 50.933594 166.683594 40.28125 163.777344 C 31.648438 161.175781 26.878906 158.328125 26.878906 155.324219 C 26.878906 149.226562 46.589844 143.738281 78.28125 139.808594 C 108.472656 136.070312 149.566406 133.78125 194.855469 133.78125 C 238.429688 133.78125 278.125 135.914062 307.96875 139.390625 C 341.667969 143.339844 362.808594 149.015625 362.808594 155.324219 Z M 362.808594 155.324219 " fill-opacity="1" fill-rule="nonzero"/></g><path fill="#e8e8e8" d="M 121.800781 153 C 121.800781 153 186.882812 176.855469 265.945312 153 C 265.945312 153 277.871094 64.054688 193.894531 63.90625 C 110.445312 63.757812 121.800781 153 121.800781 153 Z M 121.800781 153 " fill-opacity="1" fill-rule="nonzero"/><g clip-path="url(#43a0a754dc)"><g clip-path="url(#967ce4bc79)"><path fill="#a1cf6d" d="M 186.0625 88.363281 L 201.75 88.363281 C 202.539062 88.363281 203.332031 88.402344 204.117188 88.480469 C 204.90625 88.558594 205.6875 88.671875 206.464844 88.828125 C 207.242188 88.980469 208.007812 89.171875 208.765625 89.402344 C 209.523438 89.632812 210.269531 89.898438 211 90.203125 C 211.730469 90.503906 212.445312 90.84375 213.144531 91.21875 C 213.84375 91.589844 214.523438 91.996094 215.179688 92.4375 C 215.839844 92.875 216.472656 93.347656 217.085938 93.847656 C 217.699219 94.351562 218.285156 94.882812 218.84375 95.441406 C 219.402344 96.003906 219.933594 96.589844 220.4375 97.199219 C 220.9375 97.8125 221.410156 98.449219 221.851562 99.105469 C 222.289062 99.765625 222.695312 100.441406 223.070312 101.140625 C 223.441406 101.839844 223.78125 102.554688 224.085938 103.285156 C 224.386719 104.015625 224.652344 104.761719 224.882812 105.519531 C 225.113281 106.277344 225.304688 107.042969 225.460938 107.820312 C 225.613281 108.59375 225.730469 109.378906 225.808594 110.164062 C 225.886719 110.953125 225.925781 111.742188 225.925781 112.535156 L 225.925781 189.097656 C 225.925781 189.890625 225.886719 190.679688 225.808594 191.464844 C 225.730469 192.253906 225.613281 193.035156 225.460938 193.8125 C 225.304688 194.589844 225.113281 195.355469 224.882812 196.113281 C 224.652344 196.871094 224.386719 197.617188 224.085938 198.347656 C 223.78125 199.078125 223.441406 199.792969 223.070312 200.492188 C 222.695312 201.191406 222.289062 201.867188 221.851562 202.527344 C 221.410156 203.183594 220.9375 203.820312 220.4375 204.433594 C 219.933594 205.042969 219.402344 205.628906 218.84375 206.191406 C 218.285156 206.75 217.699219 207.28125 217.085938 207.78125 C 216.472656 208.285156 215.839844 208.753906 215.179688 209.195312 C 214.523438 209.636719 213.84375 210.042969 213.144531 210.414062 C 212.445312 210.789062 211.730469 211.125 211 211.429688 C 210.269531 211.730469 209.523438 212 208.765625 212.230469 C 208.007812 212.457031 207.242188 212.652344 206.464844 212.804688 C 205.6875 212.960938 204.90625 213.074219 204.117188 213.152344 C 203.332031 213.230469 202.539062 213.269531 201.75 213.269531 L 186.0625 213.269531 C 185.273438 213.269531 184.480469 213.230469 183.695312 213.152344 C 182.90625 213.074219 182.125 212.960938 181.347656 212.804688 C 180.570312 212.652344 179.804688 212.457031 179.046875 212.230469 C 178.289062 212 177.542969 211.730469 176.8125 211.429688 C 176.082031 211.125 175.367188 210.789062 174.667969 210.414062 C 173.96875 210.042969 173.289062 209.636719 172.632812 209.195312 C 171.972656 208.753906 171.339844 208.285156 170.726562 207.78125 C 170.113281 207.28125 169.527344 206.75 168.96875 206.191406 C 168.410156 205.628906 167.878906 205.042969 167.375 204.433594 C 166.875 203.820312 166.402344 203.183594 165.960938 202.527344 C 165.523438 201.867188 165.117188 201.191406 164.742188 200.492188 C 164.371094 199.792969 164.03125 199.078125 163.726562 198.347656 C 163.425781 197.617188 163.160156 196.871094 162.929688 196.113281 C 162.699219 195.355469 162.507812 194.589844 162.351562 193.8125 C 162.199219 193.035156 162.082031 192.253906 162.003906 191.464844 C 161.925781 190.679688 161.886719 189.890625 161.886719 189.097656 L 161.886719 112.535156 C 161.886719 111.742188 161.925781 110.953125 162.003906 110.164062 C 162.082031 109.378906 162.199219 108.59375 162.351562 107.820312 C 162.507812 107.042969 162.699219 106.277344 162.929688 105.519531 C 163.160156 104.761719 163.425781 104.015625 163.726562 103.285156 C 164.03125 102.554688 164.371094 101.839844 164.742188 101.140625 C 165.117188 100.441406 165.523438 99.765625 165.960938 99.105469 C 166.402344 98.449219 166.875 97.8125 167.375 97.199219 C 167.878906 96.589844 168.410156 96.003906 168.96875 95.441406 C 169.527344 94.882812 170.113281 94.351562 170.726562 93.847656 C 171.339844 93.347656 171.972656 92.875 172.632812 92.4375 C 173.289062 91.996094 173.96875 91.589844 174.667969 91.21875 C 175.367188 90.84375 176.082031 90.503906 176.8125 90.203125 C 177.542969 89.898438 178.289062 89.632812 179.046875 89.402344 C 179.804688 89.171875 180.570312 88.980469 181.347656 88.828125 C 182.125 88.671875 182.90625 88.558594 183.695312 88.480469 C 184.480469 88.402344 185.273438 88.363281 186.0625 88.363281 Z M 186.0625 88.363281 " fill-opacity="1" fill-rule="nonzero"/></g></g><g clip-path="url(#4243b7b375)"><g clip-path="url(#ef7f7ad891)"><path fill="#160f2b" d="M 192.074219 102.605469 L 195.738281 102.605469 C 196.109375 102.605469 196.476562 102.640625 196.839844 102.710938 C 197.203125 102.785156 197.554688 102.890625 197.898438 103.035156 C 198.242188 103.175781 198.566406 103.351562 198.875 103.554688 C 199.183594 103.761719 199.46875 103.996094 199.730469 104.257812 C 199.992188 104.519531 200.226562 104.804688 200.433594 105.113281 C 200.636719 105.421875 200.8125 105.746094 200.953125 106.089844 C 201.09375 106.429688 201.203125 106.785156 201.273438 107.148438 C 201.347656 107.511719 201.382812 107.878906 201.382812 108.25 L 201.382812 124.183594 C 201.382812 124.550781 201.347656 124.917969 201.273438 125.285156 C 201.203125 125.648438 201.09375 126 200.953125 126.34375 C 200.8125 126.683594 200.636719 127.011719 200.433594 127.316406 C 200.226562 127.625 199.992188 127.910156 199.730469 128.171875 C 199.46875 128.4375 199.183594 128.667969 198.875 128.875 C 198.566406 129.082031 198.242188 129.253906 197.898438 129.398438 C 197.554688 129.539062 197.203125 129.644531 196.839844 129.71875 C 196.476562 129.792969 196.109375 129.828125 195.738281 129.828125 L 192.074219 129.828125 C 191.703125 129.828125 191.335938 129.792969 190.972656 129.71875 C 190.609375 129.644531 190.253906 129.539062 189.914062 129.398438 C 189.570312 129.253906 189.246094 129.082031 188.9375 128.875 C 188.628906 128.667969 188.34375 128.4375 188.082031 128.171875 C 187.820312 127.910156 187.585938 127.625 187.378906 127.316406 C 187.171875 127.011719 187 126.683594 186.855469 126.34375 C 186.714844 126 186.609375 125.648438 186.535156 125.285156 C 186.464844 124.917969 186.425781 124.550781 186.425781 124.183594 L 186.425781 108.25 C 186.425781 107.878906 186.464844 107.511719 186.535156 107.148438 C 186.609375 106.785156 186.714844 106.429688 186.855469 106.089844 C 187 105.746094 187.171875 105.421875 187.378906 105.113281 C 187.585938 104.804688 187.820312 104.519531 188.082031 104.257812 C 188.34375 103.996094 188.628906 103.761719 188.9375 103.554688 C 189.246094 103.351562 189.570312 103.175781 189.914062 103.035156 C 190.253906 102.890625 190.609375 102.785156 190.972656 102.710938 C 191.335938 102.640625 191.703125 102.605469 192.074219 102.605469 Z M 192.074219 102.605469 " fill-opacity="1" fill-rule="nonzero"/></g></g><g clip-path="url(#9cb7ac2d80)"><g clip-path="url(#a96e2b8fe2)"><path stroke-linecap="round" transform="matrix(1.319199, 0, 0, 1.319014, -4.105698, -45.751961)" fill="none" stroke-linejoin="miter" d="M 139.150083 142.073157 C 139.150083 142.073157 150.100147 153.993164 161.663154 142.73357 " stroke="#160f2b" stroke-width="2" stroke-opacity="1" stroke-miterlimit="10"/></g></g><g clip-path="url(#735b3dc368)"><g clip-path="url(#ac681e3d8e)"><path fill="#ffffff" d="M 196.285156 107.140625 L 197.140625 107.140625 C 197.316406 107.140625 197.484375 107.175781 197.644531 107.242188 C 197.808594 107.308594 197.949219 107.402344 198.074219 107.527344 C 198.195312 107.652344 198.292969 107.792969 198.359375 107.957031 C 198.425781 108.117188 198.460938 108.285156 198.460938 108.460938 L 198.460938 111.28125 C 198.460938 111.457031 198.425781 111.625 198.359375 111.785156 C 198.292969 111.949219 198.195312 112.089844 198.074219 112.214844 C 197.949219 112.339844 197.808594 112.433594 197.644531 112.5 C 197.484375 112.566406 197.316406 112.601562 197.140625 112.601562 L 196.285156 112.601562 C 196.109375 112.601562 195.941406 112.566406 195.78125 112.5 C 195.617188 112.433594 195.476562 112.339844 195.351562 112.214844 C 195.226562 112.089844 195.132812 111.949219 195.066406 111.785156 C 195 111.625 194.964844 111.457031 194.964844 111.28125 L 194.964844 108.460938 C 194.964844 108.285156 195 108.117188 195.066406 107.957031 C 195.132812 107.792969 195.226562 107.652344 195.351562 107.527344 C 195.476562 107.402344 195.617188 107.308594 195.78125 107.242188 C 195.941406 107.175781 196.109375 107.140625 196.285156 107.140625 Z M 196.285156 107.140625 " fill-opacity="1" fill-rule="nonzero"/></g></g><g clip-path="url(#66ee8ab1a2)"><g clip-path="url(#150eb137c9)"><path stroke-linecap="round" transform="matrix(1.319199, 0, 0, 1.319014, -4.105698, -45.751961)" fill="none" stroke-linejoin="miter" d="M 146.928833 115.849143 C 146.928833 115.849143 145.273591 117.042624 141.963107 113.633947 " stroke="#160f2b" stroke-width="2" stroke-opacity="1" stroke-miterlimit="10"/></g></g><g clip-path="url(#d2335c9788)"><g clip-path="url(#9cb9595665)"><path stroke-linecap="round" transform="matrix(1.319199, 0, 0, 1.319014, -4.105698, -45.751961)" fill="none" stroke-linejoin="miter" d="M 122.594699 104.657663 L 132.360333 113.432565 " stroke="#a1cf6d" stroke-width="5" stroke-opacity="1" stroke-miterlimit="10"/></g></g><g clip-path="url(#f800adca74)"><g clip-path="url(#a76db4870b)"><path stroke-linecap="round" transform="matrix(1.319199, 0, 0, 1.319014, -4.105698, -45.751961)" fill="none" stroke-linejoin="miter" d="M 176.151706 105.300307 L 166.383112 114.075209 " stroke="#a1cf6d" stroke-width="5" stroke-opacity="1" stroke-miterlimit="10"/></g></g><g clip-path="url(#b8da34f5df)"><g clip-path="url(#ddcd5dac6f)"><path fill="#a1cf6d" d="M 161.308594 171.179688 C 156.816406 167.324219 153.457031 164.558594 154.90625 158.515625 C 155.679688 155.292969 156.683594 153.171875 156.257812 149.722656 C 155.929688 147.054688 154.996094 144.621094 153.453125 142.421875 C 151.777344 140.023438 142.464844 134.035156 148.460938 130.601562 C 153.339844 127.808594 148.941406 120.257812 144.050781 123.058594 C 134.253906 128.671875 136.246094 138.398438 143.503906 144.917969 C 151.257812 151.882812 143.558594 155.789062 144.691406 163.503906 C 145.503906 169.042969 151.171875 173.957031 155.136719 177.355469 C 159.382812 180.996094 165.589844 174.847656 161.3125 171.175781 Z M 161.308594 171.179688 " fill-opacity="1" fill-rule="nonzero"/></g></g><g clip-path="url(#4667c2378f)"><g clip-path="url(#c1172bfba2)"><path fill="#a1cf6d" d="M 235.46875 172.648438 C 239.550781 170.710938 243.75 168.019531 244.605469 163.203125 C 245.59375 157.640625 241.207031 152.226562 241.761719 146.796875 C 242.234375 142.128906 248.753906 140.019531 250.800781 135.679688 C 251.332031 134.527344 251.703125 133.324219 251.914062 132.074219 C 252.128906 130.824219 252.175781 129.566406 252.054688 128.300781 C 251.933594 127.039062 251.652344 125.8125 251.207031 124.625 C 250.761719 123.433594 250.171875 122.324219 249.429688 121.292969 C 246.386719 116.589844 238.820312 120.964844 241.886719 125.703125 C 246.535156 132.878906 234.660156 136.863281 233.285156 143.75 C 231.980469 150.28125 238.957031 161.359375 231.058594 165.105469 C 225.984375 167.515625 230.414062 175.046875 235.46875 172.648438 Z M 235.46875 172.648438 " fill-opacity="1" fill-rule="nonzero"/></g></g><path fill="#fce45b" d="M 61.816406 181.824219 C 67.4375 181.824219 67.445312 173.089844 61.816406 173.089844 C 56.1875 173.089844 56.1875 181.824219 61.816406 181.824219 Z M 61.816406 181.824219 " fill-opacity="1" fill-rule="nonzero"/><path fill="#fce45b" d="M 83.945312 185.316406 C 89.566406 185.316406 89.578125 176.582031 83.945312 176.582031 C 78.316406 176.582031 78.316406 185.316406 83.945312 185.316406 Z M 83.945312 185.316406 " fill-opacity="1" fill-rule="nonzero"/><path fill="#fce45b" d="M 105.496094 177.746094 L 104.914062 177.746094 C 104.625 177.746094 104.34375 177.773438 104.0625 177.832031 C 103.78125 177.886719 103.507812 177.96875 103.242188 178.078125 C 102.976562 178.1875 102.726562 178.324219 102.484375 178.484375 C 102.246094 178.640625 102.027344 178.824219 101.824219 179.027344 C 101.621094 179.230469 101.441406 179.449219 101.28125 179.6875 C 101.121094 179.925781 100.988281 180.179688 100.878906 180.441406 C 100.769531 180.707031 100.683594 180.980469 100.628906 181.261719 C 100.574219 181.542969 100.546875 181.828125 100.546875 182.113281 C 100.546875 182.402344 100.574219 182.683594 100.628906 182.964844 C 100.683594 183.246094 100.769531 183.519531 100.878906 183.785156 C 100.988281 184.050781 101.121094 184.300781 101.28125 184.539062 C 101.441406 184.777344 101.621094 185 101.824219 185.203125 C 102.027344 185.40625 102.246094 185.585938 102.484375 185.746094 C 102.726562 185.90625 102.976562 186.039062 103.242188 186.148438 C 103.507812 186.257812 103.78125 186.339844 104.0625 186.398438 C 104.34375 186.453125 104.625 186.480469 104.914062 186.480469 L 105.496094 186.480469 C 105.78125 186.480469 106.066406 186.453125 106.347656 186.398438 C 106.628906 186.339844 106.902344 186.257812 107.167969 186.148438 C 107.429688 186.039062 107.683594 185.90625 107.921875 185.746094 C 108.160156 185.585938 108.378906 185.40625 108.582031 185.203125 C 108.785156 185 108.96875 184.777344 109.125 184.539062 C 109.285156 184.300781 109.421875 184.050781 109.53125 183.785156 C 109.640625 183.519531 109.722656 183.246094 109.777344 182.964844 C 109.835938 182.683594 109.863281 182.402344 109.863281 182.113281 C 109.863281 181.828125 109.835938 181.542969 109.777344 181.261719 C 109.722656 180.980469 109.640625 180.707031 109.53125 180.441406 C 109.421875 180.179688 109.285156 179.925781 109.125 179.6875 C 108.96875 179.449219 108.785156 179.230469 108.582031 179.027344 C 108.378906 178.824219 108.160156 178.640625 107.921875 178.484375 C 107.683594 178.324219 107.429688 178.1875 107.167969 178.078125 C 106.902344 177.96875 106.628906 177.886719 106.347656 177.832031 C 106.066406 177.773438 105.78125 177.746094 105.496094 177.746094 Z M 105.496094 177.746094 " fill-opacity="1" fill-rule="nonzero"/><path fill="#fce45b" d="M 129.957031 188.8125 C 135.578125 188.8125 135.585938 180.078125 129.957031 180.078125 C 124.328125 180.078125 124.328125 188.8125 129.957031 188.8125 Z M 129.957031 188.8125 " fill-opacity="1" fill-rule="nonzero"/><path fill="#fce45b" d="M 152.667969 189.976562 C 158.289062 189.976562 158.300781 181.242188 152.667969 181.242188 C 147.039062 181.242188 147.039062 189.976562 152.667969 189.976562 Z M 152.667969 189.976562 " fill-opacity="1" fill-rule="nonzero"/><path fill="#fce45b" d="M 174.800781 181.242188 L 174.21875 181.242188 C 173.933594 181.242188 173.648438 181.269531 173.367188 181.328125 C 173.085938 181.382812 172.8125 181.464844 172.550781 181.574219 C 172.285156 181.6875 172.035156 181.820312 171.796875 181.980469 C 171.558594 182.140625 171.335938 182.320312 171.136719 182.523438 C 170.933594 182.726562 170.753906 182.945312 170.59375 183.183594 C 170.433594 183.421875 170.300781 183.675781 170.191406 183.9375 C 170.082031 184.203125 170 184.476562 169.941406 184.757812 C 169.886719 185.039062 169.859375 185.320312 169.859375 185.609375 C 169.859375 185.894531 169.886719 186.179688 169.941406 186.460938 C 170 186.742188 170.082031 187.011719 170.191406 187.277344 C 170.300781 187.542969 170.433594 187.792969 170.59375 188.03125 C 170.753906 188.269531 170.933594 188.492188 171.136719 188.695312 C 171.335938 188.894531 171.558594 189.078125 171.796875 189.238281 C 172.035156 189.394531 172.285156 189.53125 172.550781 189.640625 C 172.8125 189.75 173.085938 189.832031 173.367188 189.890625 C 173.648438 189.945312 173.933594 189.976562 174.21875 189.976562 L 174.800781 189.976562 C 175.085938 189.976562 175.371094 189.945312 175.652344 189.890625 C 175.933594 189.832031 176.203125 189.75 176.46875 189.640625 C 176.734375 189.53125 176.984375 189.394531 177.222656 189.238281 C 177.460938 189.078125 177.679688 188.894531 177.882812 188.695312 C 178.085938 188.492188 178.265625 188.269531 178.425781 188.03125 C 178.585938 187.792969 178.71875 187.542969 178.828125 187.277344 C 178.9375 187.011719 179.019531 186.742188 179.074219 186.460938 C 179.132812 186.179688 179.160156 185.894531 179.160156 185.609375 C 179.160156 185.320312 179.132812 185.039062 179.074219 184.757812 C 179.019531 184.476562 178.9375 184.203125 178.828125 183.9375 C 178.71875 183.675781 178.585938 183.421875 178.425781 183.183594 C 178.265625 182.945312 178.085938 182.726562 177.882812 182.523438 C 177.679688 182.320312 177.460938 182.140625 177.222656 181.980469 C 176.984375 181.820312 176.734375 181.6875 176.46875 181.574219 C 176.203125 181.464844 175.933594 181.382812 175.652344 181.328125 C 175.371094 181.269531 175.085938 181.242188 174.800781 181.242188 Z M 174.800781 181.242188 " fill-opacity="1" fill-rule="nonzero"/><path fill="#fce45b" d="M 201.007812 189.976562 C 206.628906 189.976562 206.640625 181.242188 201.007812 181.242188 C 195.378906 181.242188 195.378906 189.976562 201.007812 189.976562 Z M 201.007812 189.976562 " fill-opacity="1" fill-rule="nonzero"/><path fill="#fce45b" d="M 224.886719 188.230469 L 225.46875 188.230469 C 225.753906 188.230469 226.039062 188.203125 226.320312 188.144531 C 226.601562 188.089844 226.875 188.007812 227.140625 187.898438 C 227.40625 187.785156 227.65625 187.652344 227.894531 187.492188 C 228.132812 187.332031 228.355469 187.152344 228.554688 186.949219 C 228.757812 186.746094 228.941406 186.527344 229.097656 186.289062 C 229.257812 186.050781 229.394531 185.796875 229.503906 185.535156 C 229.613281 185.269531 229.695312 184.996094 229.75 184.714844 C 229.808594 184.433594 229.835938 184.148438 229.835938 183.863281 C 229.835938 183.574219 229.808594 183.292969 229.75 183.011719 C 229.695312 182.730469 229.613281 182.457031 229.503906 182.191406 C 229.394531 181.925781 229.257812 181.675781 229.097656 181.4375 C 228.941406 181.195312 228.757812 180.976562 228.554688 180.773438 C 228.355469 180.570312 228.132812 180.390625 227.894531 180.230469 C 227.65625 180.070312 227.40625 179.9375 227.140625 179.828125 C 226.875 179.71875 226.601562 179.632812 226.320312 179.578125 C 226.039062 179.523438 225.753906 179.496094 225.46875 179.496094 L 224.886719 179.496094 C 224.597656 179.496094 224.316406 179.523438 224.035156 179.578125 C 223.753906 179.632812 223.480469 179.71875 223.214844 179.828125 C 222.949219 179.9375 222.699219 180.070312 222.460938 180.230469 C 222.222656 180.390625 222 180.570312 221.796875 180.773438 C 221.59375 180.976562 221.414062 181.195312 221.253906 181.4375 C 221.09375 181.675781 220.960938 181.925781 220.851562 182.191406 C 220.742188 182.457031 220.65625 182.730469 220.601562 183.011719 C 220.546875 183.292969 220.519531 183.574219 220.519531 183.863281 C 220.519531 184.148438 220.546875 184.433594 220.601562 184.714844 C 220.65625 184.996094 220.742188 185.269531 220.851562 185.535156 C 220.960938 185.796875 221.09375 186.050781 221.253906 186.289062 C 221.414062 186.527344 221.59375 186.746094 221.796875 186.949219 C 222 187.152344 222.222656 187.332031 222.460938 187.492188 C 222.699219 187.652344 222.949219 187.785156 223.214844 187.898438 C 223.480469 188.007812 223.753906 188.089844 224.035156 188.144531 C 224.316406 188.203125 224.597656 188.230469 224.886719 188.230469 Z M 224.886719 188.230469 " fill-opacity="1" fill-rule="nonzero"/><path fill="#fce45b" d="M 249.347656 189.976562 C 254.96875 189.976562 254.976562 181.242188 249.347656 181.242188 C 243.714844 181.242188 243.714844 189.976562 249.347656 189.976562 Z M 249.347656 189.976562 " fill-opacity="1" fill-rule="nonzero"/><path fill="#fce45b" d="M 269.730469 188.8125 L 270.3125 188.8125 C 270.601562 188.8125 270.882812 188.785156 271.167969 188.726562 C 271.449219 188.671875 271.722656 188.589844 271.988281 188.480469 C 272.253906 188.371094 272.503906 188.238281 272.742188 188.078125 C 272.984375 187.917969 273.203125 187.738281 273.40625 187.535156 C 273.609375 187.332031 273.792969 187.109375 273.953125 186.871094 C 274.109375 186.632812 274.246094 186.382812 274.355469 186.117188 C 274.464844 185.851562 274.550781 185.578125 274.605469 185.296875 C 274.660156 185.015625 274.6875 184.730469 274.6875 184.445312 C 274.6875 184.15625 274.660156 183.871094 274.605469 183.589844 C 274.550781 183.308594 274.464844 183.035156 274.355469 182.769531 C 274.246094 182.503906 274.109375 182.253906 273.953125 182.015625 C 273.792969 181.777344 273.609375 181.554688 273.40625 181.351562 C 273.203125 181.148438 272.984375 180.96875 272.742188 180.808594 C 272.503906 180.648438 272.253906 180.515625 271.988281 180.40625 C 271.722656 180.296875 271.449219 180.214844 271.167969 180.160156 C 270.882812 180.101562 270.601562 180.074219 270.3125 180.078125 L 269.730469 180.078125 C 269.445312 180.074219 269.160156 180.101562 268.878906 180.160156 C 268.597656 180.214844 268.324219 180.296875 268.058594 180.40625 C 267.792969 180.515625 267.539062 180.648438 267.300781 180.808594 C 267.0625 180.96875 266.839844 181.148438 266.636719 181.351562 C 266.433594 181.554688 266.253906 181.777344 266.09375 182.015625 C 265.933594 182.253906 265.796875 182.503906 265.6875 182.769531 C 265.578125 183.035156 265.496094 183.308594 265.4375 183.589844 C 265.382812 183.871094 265.355469 184.15625 265.355469 184.445312 C 265.355469 184.730469 265.382812 185.015625 265.4375 185.296875 C 265.496094 185.578125 265.578125 185.851562 265.6875 186.117188 C 265.796875 186.382812 265.933594 186.632812 266.09375 186.871094 C 266.253906 187.109375 266.433594 187.332031 266.636719 187.535156 C 266.839844 187.738281 267.0625 187.917969 267.300781 188.078125 C 267.539062 188.238281 267.792969 188.371094 268.058594 188.480469 C 268.324219 188.589844 268.597656 188.671875 268.878906 188.726562 C 269.160156 188.785156 269.445312 188.8125 269.730469 188.8125 Z M 269.730469 188.8125 " fill-opacity="1" fill-rule="nonzero"/><path fill="#fce45b" d="M 295.9375 186.480469 L 296.519531 186.480469 C 296.808594 186.480469 297.089844 186.453125 297.371094 186.398438 C 297.652344 186.339844 297.925781 186.257812 298.191406 186.148438 C 298.457031 186.039062 298.707031 185.90625 298.945312 185.746094 C 299.183594 185.585938 299.40625 185.40625 299.609375 185.203125 C 299.8125 185 299.992188 184.777344 300.152344 184.539062 C 300.3125 184.300781 300.445312 184.050781 300.554688 183.785156 C 300.664062 183.519531 300.746094 183.246094 300.804688 182.964844 C 300.859375 182.683594 300.886719 182.402344 300.886719 182.113281 C 300.886719 181.828125 300.859375 181.542969 300.804688 181.261719 C 300.746094 180.980469 300.664062 180.707031 300.554688 180.441406 C 300.445312 180.179688 300.3125 179.925781 300.152344 179.6875 C 299.992188 179.449219 299.8125 179.230469 299.609375 179.027344 C 299.40625 178.824219 299.183594 178.640625 298.945312 178.484375 C 298.707031 178.324219 298.457031 178.1875 298.191406 178.078125 C 297.925781 177.96875 297.652344 177.886719 297.371094 177.832031 C 297.089844 177.773438 296.808594 177.746094 296.519531 177.746094 L 295.9375 177.746094 C 295.652344 177.746094 295.367188 177.773438 295.085938 177.832031 C 294.804688 177.886719 294.53125 177.96875 294.265625 178.078125 C 294 178.1875 293.75 178.324219 293.511719 178.484375 C 293.273438 178.640625 293.050781 178.824219 292.847656 179.027344 C 292.648438 179.230469 292.464844 179.449219 292.304688 179.6875 C 292.148438 179.925781 292.011719 180.179688 291.902344 180.441406 C 291.792969 180.707031 291.710938 180.980469 291.652344 181.261719 C 291.597656 181.542969 291.570312 181.828125 291.570312 182.113281 C 291.570312 182.402344 291.597656 182.683594 291.652344 182.964844 C 291.710938 183.246094 291.792969 183.519531 291.902344 183.785156 C 292.011719 184.050781 292.148438 184.300781 292.304688 184.539062 C 292.464844 184.777344 292.648438 185 292.847656 185.203125 C 293.050781 185.40625 293.273438 185.585938 293.511719 185.746094 C 293.75 185.90625 294 186.039062 294.265625 186.148438 C 294.53125 186.257812 294.804688 186.339844 295.085938 186.398438 C 295.367188 186.453125 295.652344 186.480469 295.9375 186.480469 Z M 295.9375 186.480469 " fill-opacity="1" fill-rule="nonzero"/><path fill="#fce45b" d="M 318.652344 183.570312 C 324.273438 183.570312 324.28125 174.835938 318.652344 174.835938 C 313.023438 174.835938 313.023438 183.570312 318.652344 183.570312 Z M 318.652344 183.570312 " fill-opacity="1" fill-rule="nonzero"/><path fill="#fce45b" d="M 336.707031 171.34375 L 336.125 171.34375 C 335.839844 171.34375 335.554688 171.371094 335.273438 171.425781 C 334.992188 171.484375 334.71875 171.566406 334.457031 171.675781 C 334.191406 171.785156 333.941406 171.921875 333.703125 172.082031 C 333.464844 172.242188 333.246094 172.421875 333.042969 172.625 C 332.839844 172.828125 332.660156 173.046875 332.5 173.285156 C 332.339844 173.523438 332.207031 173.773438 332.097656 174.039062 C 331.988281 174.304688 331.90625 174.578125 331.847656 174.859375 C 331.792969 175.140625 331.765625 175.421875 331.765625 175.710938 C 331.765625 175.996094 331.792969 176.277344 331.847656 176.558594 C 331.90625 176.839844 331.988281 177.113281 332.097656 177.378906 C 332.207031 177.644531 332.339844 177.894531 332.5 178.132812 C 332.660156 178.371094 332.839844 178.589844 333.042969 178.792969 C 333.246094 178.996094 333.464844 179.179688 333.703125 179.335938 C 333.941406 179.496094 334.191406 179.632812 334.457031 179.742188 C 334.71875 179.851562 334.992188 179.933594 335.273438 179.992188 C 335.554688 180.046875 335.839844 180.074219 336.125 180.078125 L 336.707031 180.078125 C 336.992188 180.078125 337.277344 180.050781 337.558594 179.992188 C 337.839844 179.9375 338.117188 179.855469 338.378906 179.746094 C 338.644531 179.636719 338.898438 179.503906 339.136719 179.34375 C 339.375 179.183594 339.597656 179.003906 339.800781 178.800781 C 340.003906 178.597656 340.183594 178.375 340.34375 178.136719 C 340.503906 177.898438 340.640625 177.648438 340.75 177.382812 C 340.859375 177.117188 340.941406 176.84375 341 176.5625 C 341.054688 176.28125 341.082031 175.996094 341.082031 175.710938 C 341.082031 175.421875 341.054688 175.136719 341 174.855469 C 340.941406 174.574219 340.859375 174.300781 340.75 174.035156 C 340.640625 173.769531 340.503906 173.519531 340.34375 173.28125 C 340.183594 173.042969 340.003906 172.820312 339.800781 172.617188 C 339.597656 172.414062 339.375 172.234375 339.136719 172.074219 C 338.898438 171.914062 338.644531 171.78125 338.378906 171.671875 C 338.117188 171.5625 337.839844 171.480469 337.558594 171.425781 C 337.277344 171.367188 336.992188 171.339844 336.707031 171.34375 Z M 336.707031 171.34375 " fill-opacity="1" fill-rule="nonzero"/><path fill="#fce45b" d="M 353.597656 175.417969 C 359.21875 175.417969 359.226562 166.683594 353.597656 166.683594 C 347.964844 166.683594 347.964844 175.417969 353.597656 175.417969 Z M 353.597656 175.417969 " fill-opacity="1" fill-rule="nonzero"/><path fill="#ffffff" d="M 226.753906 86.894531 C 228.8125 88.082031 230.722656 89.472656 232.480469 91.070312 C 234.238281 92.667969 235.804688 94.433594 237.179688 96.371094 C 238.554688 98.308594 239.703125 100.371094 240.632812 102.558594 C 241.558594 104.746094 242.242188 107.007812 242.679688 109.34375 C 243.785156 114.851562 252.207031 112.519531 251.101562 107.023438 C 250.519531 104.140625 249.636719 101.351562 248.460938 98.65625 C 247.285156 95.964844 245.835938 93.425781 244.117188 91.039062 C 242.398438 88.652344 240.445312 86.476562 238.261719 84.507812 C 236.078125 82.535156 233.714844 80.820312 231.164062 79.355469 C 226.296875 76.523438 221.890625 84.066406 226.753906 86.894531 Z M 226.753906 86.894531 " fill-opacity="1" fill-rule="nonzero"/><path fill="#ffffff" d="M 245.558594 125.515625 C 245.671875 125.6875 245.777344 125.863281 245.875 126.042969 C 246.085938 126.472656 246.066406 126.402344 245.820312 125.832031 C 245.972656 126.101562 246.066406 126.394531 246.101562 126.703125 C 246.140625 126.851562 246.171875 127 246.199219 127.148438 C 246.261719 127.484375 246.242188 127.347656 246.148438 126.746094 C 246.28125 126.808594 246.160156 127.824219 246.148438 127.964844 C 246.152344 128.25 246.179688 128.535156 246.238281 128.816406 C 246.292969 129.09375 246.378906 129.367188 246.488281 129.632812 C 246.597656 129.894531 246.734375 130.148438 246.894531 130.386719 C 247.050781 130.625 247.234375 130.84375 247.433594 131.046875 C 247.636719 131.25 247.859375 131.429688 248.097656 131.589844 C 248.332031 131.746094 248.585938 131.882812 248.847656 131.992188 C 249.113281 132.101562 249.386719 132.1875 249.667969 132.242188 C 249.945312 132.300781 250.230469 132.332031 250.515625 132.332031 C 251.09375 132.320312 251.644531 132.199219 252.171875 131.972656 C 252.703125 131.746094 253.167969 131.429688 253.578125 131.023438 C 253.984375 130.617188 254.300781 130.148438 254.527344 129.621094 C 254.753906 129.089844 254.871094 128.539062 254.882812 127.964844 C 255.015625 125.492188 254.421875 123.207031 253.101562 121.113281 C 252.953125 120.871094 252.785156 120.644531 252.59375 120.433594 C 252.402344 120.226562 252.191406 120.035156 251.964844 119.867188 C 251.734375 119.699219 251.492188 119.554688 251.238281 119.433594 C 250.980469 119.3125 250.714844 119.214844 250.4375 119.144531 C 250.164062 119.078125 249.886719 119.035156 249.601562 119.019531 C 249.320312 119.003906 249.035156 119.015625 248.753906 119.054688 C 248.472656 119.09375 248.199219 119.160156 247.933594 119.253906 C 247.664062 119.347656 247.40625 119.464844 247.164062 119.609375 C 246.917969 119.753906 246.6875 119.917969 246.476562 120.105469 C 246.261719 120.292969 246.070312 120.5 245.898438 120.726562 C 245.726562 120.949219 245.578125 121.191406 245.449219 121.445312 C 245.324219 121.699219 245.226562 121.964844 245.152344 122.238281 C 245.074219 122.511719 245.027344 122.789062 245.007812 123.070312 C 244.988281 123.355469 244.996094 123.636719 245.03125 123.917969 C 245.066406 124.199219 245.128906 124.476562 245.214844 124.746094 C 245.304688 125.015625 245.417969 125.273438 245.558594 125.519531 Z M 245.558594 125.515625 " fill-opacity="1" fill-rule="nonzero"/><path fill="#fce45b" d="M 42.636719 175.59375 L 43.21875 175.011719 C 43.421875 174.808594 43.601562 174.589844 43.761719 174.351562 C 43.921875 174.113281 44.054688 173.859375 44.167969 173.597656 C 44.277344 173.332031 44.359375 173.058594 44.414062 172.777344 C 44.472656 172.496094 44.5 172.210938 44.5 171.925781 C 44.5 171.636719 44.472656 171.351562 44.414062 171.070312 C 44.359375 170.789062 44.277344 170.519531 44.167969 170.253906 C 44.054688 169.988281 43.921875 169.734375 43.761719 169.496094 C 43.601562 169.257812 43.421875 169.039062 43.21875 168.835938 C 43.015625 168.632812 42.796875 168.453125 42.558594 168.292969 C 42.320312 168.132812 42.066406 168 41.800781 167.890625 C 41.535156 167.777344 41.265625 167.695312 40.984375 167.640625 C 40.703125 167.585938 40.417969 167.554688 40.128906 167.554688 C 39.84375 167.554688 39.558594 167.585938 39.277344 167.640625 C 38.996094 167.695312 38.722656 167.777344 38.457031 167.890625 C 38.195312 168 37.941406 168.132812 37.703125 168.292969 C 37.464844 168.453125 37.246094 168.632812 37.042969 168.835938 L 36.460938 169.417969 C 36.257812 169.621094 36.074219 169.839844 35.917969 170.078125 C 35.757812 170.316406 35.621094 170.570312 35.511719 170.835938 C 35.402344 171.097656 35.320312 171.371094 35.265625 171.652344 C 35.207031 171.933594 35.179688 172.21875 35.179688 172.507812 C 35.179688 172.792969 35.207031 173.078125 35.265625 173.359375 C 35.320312 173.640625 35.402344 173.914062 35.511719 174.175781 C 35.621094 174.441406 35.757812 174.695312 35.917969 174.933594 C 36.074219 175.171875 36.257812 175.390625 36.460938 175.59375 C 36.664062 175.796875 36.882812 175.976562 37.121094 176.136719 C 37.359375 176.296875 37.613281 176.429688 37.875 176.542969 C 38.140625 176.652344 38.414062 176.734375 38.695312 176.789062 C 38.976562 176.847656 39.261719 176.875 39.546875 176.875 C 39.835938 176.875 40.121094 176.847656 40.402344 176.789062 C 40.683594 176.734375 40.957031 176.652344 41.21875 176.542969 C 41.484375 176.429688 41.738281 176.296875 41.976562 176.136719 C 42.214844 175.976562 42.433594 175.796875 42.636719 175.59375 Z M 42.636719 175.59375 " fill-opacity="1" fill-rule="nonzero"/></svg>