<svg xmlns="http://www.w3.org/2000/svg" xmlns:xlink="http://www.w3.org/1999/xlink" width="520" zoomAndPan="magnify" viewBox="0 0 390 284.999983" height="380" preserveAspectRatio="xMidYMid meet" version="1.0"><defs><clipPath id="fc5b593404"><path d="M 213 181 L 226 181 L 226 194 L 213 194 Z M 213 181 " clip-rule="nonzero"/></clipPath><clipPath id="f41f4b1c26"><path d="M 260.789062 189.046875 L 242.101562 196.769531 C 240.9375 197.25 239.734375 197.378906 238.496094 197.148438 C 237.261719 196.917969 236.183594 196.371094 235.269531 195.503906 L 219.429688 180.480469 C 218.515625 179.617188 217.441406 179.070312 216.203125 178.839844 C 214.964844 178.609375 213.761719 178.734375 212.601562 179.214844 C 211.4375 179.695312 210.496094 180.453125 209.785156 181.492188 C 209.070312 182.527344 208.695312 183.671875 208.660156 184.929688 L 208.054688 206.746094 C 208.023438 208.003906 207.648438 209.148438 206.933594 210.183594 C 206.21875 211.222656 205.28125 211.980469 204.117188 212.460938 L 185.425781 220.183594 C 184.242188 220.671875 183.289062 221.453125 182.574219 222.515625 C 181.859375 223.578125 181.496094 224.753906 181.488281 226.035156 C 181.480469 227.316406 181.832031 228.492188 182.535156 229.566406 C 183.238281 230.636719 184.179688 231.425781 185.355469 231.929688 L 204.644531 240.167969 C 205.730469 240.628906 206.617188 241.339844 207.308594 242.296875 C 208 243.25 208.394531 244.316406 208.496094 245.492188 L 210.285156 266.679688 C 210.394531 267.964844 210.855469 269.113281 211.660156 270.125 C 212.46875 271.132812 213.492188 271.832031 214.722656 272.21875 C 215.957031 272.609375 217.195312 272.621094 218.4375 272.257812 C 219.675781 271.898438 220.710938 271.21875 221.542969 270.226562 L 238.605469 249.804688 C 240.035156 248.09375 241.863281 247.339844 244.082031 247.542969 L 270.597656 249.960938 C 271.886719 250.078125 273.097656 249.828125 274.234375 249.207031 C 275.371094 248.589844 276.238281 247.707031 276.835938 246.558594 C 277.433594 245.414062 277.660156 244.199219 277.519531 242.914062 C 277.378906 241.628906 276.890625 240.492188 276.058594 239.503906 L 262.351562 223.242188 C 261.59375 222.339844 261.121094 221.304688 260.933594 220.140625 C 260.75 218.976562 260.875 217.847656 261.316406 216.753906 L 269.15625 197.316406 C 269.632812 196.125 269.742188 194.898438 269.480469 193.644531 C 269.222656 192.386719 268.632812 191.308594 267.722656 190.40625 C 266.808594 189.503906 265.722656 188.929688 264.460938 188.679688 C 263.199219 188.433594 261.976562 188.558594 260.789062 189.046875 Z M 260.789062 189.046875 " clip-rule="nonzero"/></clipPath><clipPath id="991e7bff46"><path d="M 226 193 L 232 193 L 232 200 L 226 200 Z M 226 193 " clip-rule="nonzero"/></clipPath><clipPath id="5e1494e904"><path d="M 260.789062 189.046875 L 242.101562 196.769531 C 240.9375 197.25 239.734375 197.378906 238.496094 197.148438 C 237.261719 196.917969 236.183594 196.371094 235.269531 195.503906 L 219.429688 180.480469 C 218.515625 179.617188 217.441406 179.070312 216.203125 178.839844 C 214.964844 178.609375 213.761719 178.734375 212.601562 179.214844 C 211.4375 179.695312 210.496094 180.453125 209.785156 181.492188 C 209.070312 182.527344 208.695312 183.671875 208.660156 184.929688 L 208.054688 206.746094 C 208.023438 208.003906 207.648438 209.148438 206.933594 210.183594 C 206.21875 211.222656 205.28125 211.980469 204.117188 212.460938 L 185.425781 220.183594 C 184.242188 220.671875 183.289062 221.453125 182.574219 222.515625 C 181.859375 223.578125 181.496094 224.753906 181.488281 226.035156 C 181.480469 227.316406 181.832031 228.492188 182.535156 229.566406 C 183.238281 230.636719 184.179688 231.425781 185.355469 231.929688 L 204.644531 240.167969 C 205.730469 240.628906 206.617188 241.339844 207.308594 242.296875 C 208 243.25 208.394531 244.316406 208.496094 245.492188 L 210.285156 266.679688 C 210.394531 267.964844 210.855469 269.113281 211.660156 270.125 C 212.46875 271.132812 213.492188 271.832031 214.722656 272.21875 C 215.957031 272.609375 217.195312 272.621094 218.4375 272.257812 C 219.675781 271.898438 220.710938 271.21875 221.542969 270.226562 L 238.605469 249.804688 C 240.035156 248.09375 241.863281 247.339844 244.082031 247.542969 L 270.597656 249.960938 C 271.886719 250.078125 273.097656 249.828125 274.234375 249.207031 C 275.371094 248.589844 276.238281 247.707031 276.835938 246.558594 C 277.433594 245.414062 277.660156 244.199219 277.519531 242.914062 C 277.378906 241.628906 276.890625 240.492188 276.058594 239.503906 L 262.351562 223.242188 C 261.59375 222.339844 261.121094 221.304688 260.933594 220.140625 C 260.75 218.976562 260.875 217.847656 261.316406 216.753906 L 269.15625 197.316406 C 269.632812 196.125 269.742188 194.898438 269.480469 193.644531 C 269.222656 192.386719 268.632812 191.308594 267.722656 190.40625 C 266.808594 189.503906 265.722656 188.929688 264.460938 188.679688 C 263.199219 188.433594 261.976562 188.558594 260.789062 189.046875 Z M 260.789062 189.046875 " clip-rule="nonzero"/></clipPath><clipPath id="8c16fe608e"><path d="M 251 198 L 264 198 L 264 218 L 251 218 Z M 251 198 " clip-rule="nonzero"/></clipPath><clipPath id="ab3f9c8030"><path d="M 260.789062 189.046875 L 242.101562 196.769531 C 240.9375 197.25 239.734375 197.378906 238.496094 197.148438 C 237.261719 196.917969 236.183594 196.371094 235.269531 195.503906 L 219.429688 180.480469 C 218.515625 179.617188 217.441406 179.070312 216.203125 178.839844 C 214.964844 178.609375 213.761719 178.734375 212.601562 179.214844 C 211.4375 179.695312 210.496094 180.453125 209.785156 181.492188 C 209.070312 182.527344 208.695312 183.671875 208.660156 184.929688 L 208.054688 206.746094 C 208.023438 208.003906 207.648438 209.148438 206.933594 210.183594 C 206.21875 211.222656 205.28125 211.980469 204.117188 212.460938 L 185.425781 220.183594 C 184.242188 220.671875 183.289062 221.453125 182.574219 222.515625 C 181.859375 223.578125 181.496094 224.753906 181.488281 226.035156 C 181.480469 227.316406 181.832031 228.492188 182.535156 229.566406 C 183.238281 230.636719 184.179688 231.425781 185.355469 231.929688 L 204.644531 240.167969 C 205.730469 240.628906 206.617188 241.339844 207.308594 242.296875 C 208 243.25 208.394531 244.316406 208.496094 245.492188 L 210.285156 266.679688 C 210.394531 267.964844 210.855469 269.113281 211.660156 270.125 C 212.46875 271.132812 213.492188 271.832031 214.722656 272.21875 C 215.957031 272.609375 217.195312 272.621094 218.4375 272.257812 C 219.675781 271.898438 220.710938 271.21875 221.542969 270.226562 L 238.605469 249.804688 C 240.035156 248.09375 241.863281 247.339844 244.082031 247.542969 L 270.597656 249.960938 C 271.886719 250.078125 273.097656 249.828125 274.234375 249.207031 C 275.371094 248.589844 276.238281 247.707031 276.835938 246.558594 C 277.433594 245.414062 277.660156 244.199219 277.519531 242.914062 C 277.378906 241.628906 276.890625 240.492188 276.058594 239.503906 L 262.351562 223.242188 C 261.59375 222.339844 261.121094 221.304688 260.933594 220.140625 C 260.75 218.976562 260.875 217.847656 261.316406 216.753906 L 269.15625 197.316406 C 269.632812 196.125 269.742188 194.898438 269.480469 193.644531 C 269.222656 192.386719 268.632812 191.308594 267.722656 190.40625 C 266.808594 189.503906 265.722656 188.929688 264.460938 188.679688 C 263.199219 188.433594 261.976562 188.558594 260.789062 189.046875 Z M 260.789062 189.046875 " clip-rule="nonzero"/></clipPath><clipPath id="3dd293234f"><path d="M 261 191 L 267 191 L 267 198 L 261 198 Z M 261 191 " clip-rule="nonzero"/></clipPath><clipPath id="76212927f8"><path d="M 260.789062 189.046875 L 242.101562 196.769531 C 240.9375 197.25 239.734375 197.378906 238.496094 197.148438 C 237.261719 196.917969 236.183594 196.371094 235.269531 195.503906 L 219.429688 180.480469 C 218.515625 179.617188 217.441406 179.070312 216.203125 178.839844 C 214.964844 178.609375 213.761719 178.734375 212.601562 179.214844 C 211.4375 179.695312 210.496094 180.453125 209.785156 181.492188 C 209.070312 182.527344 208.695312 183.671875 208.660156 184.929688 L 208.054688 206.746094 C 208.023438 208.003906 207.648438 209.148438 206.933594 210.183594 C 206.21875 211.222656 205.28125 211.980469 204.117188 212.460938 L 185.425781 220.183594 C 184.242188 220.671875 183.289062 221.453125 182.574219 222.515625 C 181.859375 223.578125 181.496094 224.753906 181.488281 226.035156 C 181.480469 227.316406 181.832031 228.492188 182.535156 229.566406 C 183.238281 230.636719 184.179688 231.425781 185.355469 231.929688 L 204.644531 240.167969 C 205.730469 240.628906 206.617188 241.339844 207.308594 242.296875 C 208 243.25 208.394531 244.316406 208.496094 245.492188 L 210.285156 266.679688 C 210.394531 267.964844 210.855469 269.113281 211.660156 270.125 C 212.46875 271.132812 213.492188 271.832031 214.722656 272.21875 C 215.957031 272.609375 217.195312 272.621094 218.4375 272.257812 C 219.675781 271.898438 220.710938 271.21875 221.542969 270.226562 L 238.605469 249.804688 C 240.035156 248.09375 241.863281 247.339844 244.082031 247.542969 L 270.597656 249.960938 C 271.886719 250.078125 273.097656 249.828125 274.234375 249.207031 C 275.371094 248.589844 276.238281 247.707031 276.835938 246.558594 C 277.433594 245.414062 277.660156 244.199219 277.519531 242.914062 C 277.378906 241.628906 276.890625 240.492188 276.058594 239.503906 L 262.351562 223.242188 C 261.59375 222.339844 261.121094 221.304688 260.933594 220.140625 C 260.75 218.976562 260.875 217.847656 261.316406 216.753906 L 269.15625 197.316406 C 269.632812 196.125 269.742188 194.898438 269.480469 193.644531 C 269.222656 192.386719 268.632812 191.308594 267.722656 190.40625 C 266.808594 189.503906 265.722656 188.929688 264.460938 188.679688 C 263.199219 188.433594 261.976562 188.558594 260.789062 189.046875 Z M 260.789062 189.046875 " clip-rule="nonzero"/></clipPath><clipPath id="ae12298723"><path d="M 245 103 L 322.640625 103 L 322.640625 177 L 245 177 Z M 245 103 " clip-rule="nonzero"/></clipPath><clipPath id="fd643f1e14"><path d="M 299 106 L 305 106 L 305 118 L 299 118 Z M 299 106 " clip-rule="nonzero"/></clipPath><clipPath id="6065664cda"><path d="M 320.09375 139.617188 L 306.585938 131.1875 C 305.746094 130.664062 305.113281 129.953125 304.695312 129.054688 C 304.273438 128.15625 304.132812 127.21875 304.269531 126.238281 L 306.644531 109.21875 C 306.785156 108.238281 306.644531 107.296875 306.226562 106.398438 C 305.804688 105.5 305.175781 104.789062 304.335938 104.265625 C 303.492188 103.738281 302.578125 103.484375 301.585938 103.503906 C 300.59375 103.519531 299.6875 103.804688 298.863281 104.359375 L 284.601562 113.960938 C 283.777344 114.511719 282.871094 114.796875 281.878906 114.816406 C 280.886719 114.832031 279.972656 114.578125 279.132812 114.054688 L 265.625 105.621094 C 264.765625 105.085938 263.832031 104.832031 262.820312 104.859375 C 261.808594 104.886719 260.890625 105.191406 260.066406 105.777344 C 259.238281 106.359375 258.640625 107.121094 258.277344 108.0625 C 257.910156 109.007812 257.839844 109.972656 258.058594 110.957031 L 261.609375 127.074219 C 261.808594 127.980469 261.761719 128.875 261.464844 129.753906 C 261.167969 130.636719 260.664062 131.375 259.957031 131.976562 L 247.195312 142.824219 C 246.417969 143.484375 245.890625 144.300781 245.613281 145.28125 C 245.335938 146.261719 245.355469 147.234375 245.667969 148.203125 C 245.984375 149.171875 246.542969 149.96875 247.34375 150.597656 C 248.144531 151.226562 249.054688 151.578125 250.070312 151.652344 L 270.976562 153.230469 C 272.730469 153.363281 274.046875 154.1875 274.933594 155.703125 L 285.523438 173.78125 C 286.035156 174.664062 286.75 175.324219 287.667969 175.769531 C 288.585938 176.210938 289.546875 176.363281 290.558594 176.222656 C 291.566406 176.082031 292.449219 175.671875 293.210938 174.992188 C 293.96875 174.3125 294.472656 173.480469 294.726562 172.492188 L 298.878906 156.273438 C 299.109375 155.371094 299.554688 154.597656 300.21875 153.945312 C 300.878906 153.292969 301.660156 152.855469 302.566406 152.636719 L 318.617188 148.753906 C 319.601562 148.515625 320.433594 148.027344 321.121094 147.285156 C 321.808594 146.542969 322.234375 145.675781 322.394531 144.675781 C 322.554688 143.679688 322.425781 142.71875 322.007812 141.800781 C 321.589844 140.878906 320.949219 140.152344 320.09375 139.617188 Z M 320.09375 139.617188 " clip-rule="nonzero"/></clipPath><clipPath id="9b7d02a7b2"><path d="M 298 120 L 303 120 L 303 125 L 298 125 Z M 298 120 " clip-rule="nonzero"/></clipPath><clipPath id="38585b317b"><path d="M 320.09375 139.617188 L 306.585938 131.1875 C 305.746094 130.664062 305.113281 129.953125 304.695312 129.054688 C 304.273438 128.15625 304.132812 127.21875 304.269531 126.238281 L 306.644531 109.21875 C 306.785156 108.238281 306.644531 107.296875 306.226562 106.398438 C 305.804688 105.5 305.175781 104.789062 304.335938 104.265625 C 303.492188 103.738281 302.578125 103.484375 301.585938 103.503906 C 300.59375 103.519531 299.6875 103.804688 298.863281 104.359375 L 284.601562 113.960938 C 283.777344 114.511719 282.871094 114.796875 281.878906 114.816406 C 280.886719 114.832031 279.972656 114.578125 279.132812 114.054688 L 265.625 105.621094 C 264.765625 105.085938 263.832031 104.832031 262.820312 104.859375 C 261.808594 104.886719 260.890625 105.191406 260.066406 105.777344 C 259.238281 106.359375 258.640625 107.121094 258.277344 108.0625 C 257.910156 109.007812 257.839844 109.972656 258.058594 110.957031 L 261.609375 127.074219 C 261.808594 127.980469 261.761719 128.875 261.464844 129.753906 C 261.167969 130.636719 260.664062 131.375 259.957031 131.976562 L 247.195312 142.824219 C 246.417969 143.484375 245.890625 144.300781 245.613281 145.28125 C 245.335938 146.261719 245.355469 147.234375 245.667969 148.203125 C 245.984375 149.171875 246.542969 149.96875 247.34375 150.597656 C 248.144531 151.226562 249.054688 151.578125 250.070312 151.652344 L 270.976562 153.230469 C 272.730469 153.363281 274.046875 154.1875 274.933594 155.703125 L 285.523438 173.78125 C 286.035156 174.664062 286.75 175.324219 287.667969 175.769531 C 288.585938 176.210938 289.546875 176.363281 290.558594 176.222656 C 291.566406 176.082031 292.449219 175.671875 293.210938 174.992188 C 293.96875 174.3125 294.472656 173.480469 294.726562 172.492188 L 298.878906 156.273438 C 299.109375 155.371094 299.554688 154.597656 300.21875 153.945312 C 300.878906 153.292969 301.660156 152.855469 302.566406 152.636719 L 318.617188 148.753906 C 319.601562 148.515625 320.433594 148.027344 321.121094 147.285156 C 321.808594 146.542969 322.234375 145.675781 322.394531 144.675781 C 322.554688 143.679688 322.425781 142.71875 322.007812 141.800781 C 321.589844 140.878906 320.949219 140.152344 320.09375 139.617188 Z M 320.09375 139.617188 " clip-rule="nonzero"/></clipPath><clipPath id="3e33019def"><path d="M 298 143 L 315 143 L 315 150 L 298 150 Z M 298 143 " clip-rule="nonzero"/></clipPath><clipPath id="adabb97308"><path d="M 320.09375 139.617188 L 306.585938 131.1875 C 305.746094 130.664062 305.113281 129.953125 304.695312 129.054688 C 304.273438 128.15625 304.132812 127.21875 304.269531 126.238281 L 306.644531 109.21875 C 306.785156 108.238281 306.644531 107.296875 306.226562 106.398438 C 305.804688 105.5 305.175781 104.789062 304.335938 104.265625 C 303.492188 103.738281 302.578125 103.484375 301.585938 103.503906 C 300.59375 103.519531 299.6875 103.804688 298.863281 104.359375 L 284.601562 113.960938 C 283.777344 114.511719 282.871094 114.796875 281.878906 114.816406 C 280.886719 114.832031 279.972656 114.578125 279.132812 114.054688 L 265.625 105.621094 C 264.765625 105.085938 263.832031 104.832031 262.820312 104.859375 C 261.808594 104.886719 260.890625 105.191406 260.066406 105.777344 C 259.238281 106.359375 258.640625 107.121094 258.277344 108.0625 C 257.910156 109.007812 257.839844 109.972656 258.058594 110.957031 L 261.609375 127.074219 C 261.808594 127.980469 261.761719 128.875 261.464844 129.753906 C 261.167969 130.636719 260.664062 131.375 259.957031 131.976562 L 247.195312 142.824219 C 246.417969 143.484375 245.890625 144.300781 245.613281 145.28125 C 245.335938 146.261719 245.355469 147.234375 245.667969 148.203125 C 245.984375 149.171875 246.542969 149.96875 247.34375 150.597656 C 248.144531 151.226562 249.054688 151.578125 250.070312 151.652344 L 270.976562 153.230469 C 272.730469 153.363281 274.046875 154.1875 274.933594 155.703125 L 285.523438 173.78125 C 286.035156 174.664062 286.75 175.324219 287.667969 175.769531 C 288.585938 176.210938 289.546875 176.363281 290.558594 176.222656 C 291.566406 176.082031 292.449219 175.671875 293.210938 174.992188 C 293.96875 174.3125 294.472656 173.480469 294.726562 172.492188 L 298.878906 156.273438 C 299.109375 155.371094 299.554688 154.597656 300.21875 153.945312 C 300.878906 153.292969 301.660156 152.855469 302.566406 152.636719 L 318.617188 148.753906 C 319.601562 148.515625 320.433594 148.027344 321.121094 147.285156 C 321.808594 146.542969 322.234375 145.675781 322.394531 144.675781 C 322.554688 143.679688 322.425781 142.71875 322.007812 141.800781 C 321.589844 140.878906 320.949219 140.152344 320.09375 139.617188 Z M 320.09375 139.617188 " clip-rule="nonzero"/></clipPath><clipPath id="370b0ffdbe"><path d="M 315 141 L 321 141 L 321 147 L 315 147 Z M 315 141 " clip-rule="nonzero"/></clipPath><clipPath id="a8c134313c"><path d="M 320.09375 139.617188 L 306.585938 131.1875 C 305.746094 130.664062 305.113281 129.953125 304.695312 129.054688 C 304.273438 128.15625 304.132812 127.21875 304.269531 126.238281 L 306.644531 109.21875 C 306.785156 108.238281 306.644531 107.296875 306.226562 106.398438 C 305.804688 105.5 305.175781 104.789062 304.335938 104.265625 C 303.492188 103.738281 302.578125 103.484375 301.585938 103.503906 C 300.59375 103.519531 299.6875 103.804688 298.863281 104.359375 L 284.601562 113.960938 C 283.777344 114.511719 282.871094 114.796875 281.878906 114.816406 C 280.886719 114.832031 279.972656 114.578125 279.132812 114.054688 L 265.625 105.621094 C 264.765625 105.085938 263.832031 104.832031 262.820312 104.859375 C 261.808594 104.886719 260.890625 105.191406 260.066406 105.777344 C 259.238281 106.359375 258.640625 107.121094 258.277344 108.0625 C 257.910156 109.007812 257.839844 109.972656 258.058594 110.957031 L 261.609375 127.074219 C 261.808594 127.980469 261.761719 128.875 261.464844 129.753906 C 261.167969 130.636719 260.664062 131.375 259.957031 131.976562 L 247.195312 142.824219 C 246.417969 143.484375 245.890625 144.300781 245.613281 145.28125 C 245.335938 146.261719 245.355469 147.234375 245.667969 148.203125 C 245.984375 149.171875 246.542969 149.96875 247.34375 150.597656 C 248.144531 151.226562 249.054688 151.578125 250.070312 151.652344 L 270.976562 153.230469 C 272.730469 153.363281 274.046875 154.1875 274.933594 155.703125 L 285.523438 173.78125 C 286.035156 174.664062 286.75 175.324219 287.667969 175.769531 C 288.585938 176.210938 289.546875 176.363281 290.558594 176.222656 C 291.566406 176.082031 292.449219 175.671875 293.210938 174.992188 C 293.96875 174.3125 294.472656 173.480469 294.726562 172.492188 L 298.878906 156.273438 C 299.109375 155.371094 299.554688 154.597656 300.21875 153.945312 C 300.878906 153.292969 301.660156 152.855469 302.566406 152.636719 L 318.617188 148.753906 C 319.601562 148.515625 320.433594 148.027344 321.121094 147.285156 C 321.808594 146.542969 322.234375 145.675781 322.394531 144.675781 C 322.554688 143.679688 322.425781 142.71875 322.007812 141.800781 C 321.589844 140.878906 320.949219 140.152344 320.09375 139.617188 Z M 320.09375 139.617188 " clip-rule="nonzero"/></clipPath><clipPath id="ced3110492"><path d="M 68 12.042969 L 242 12.042969 L 242 184 L 68 184 Z M 68 12.042969 " clip-rule="nonzero"/></clipPath><clipPath id="8614f63ddb"><path d="M 143 18 L 163 18 L 163 43 L 143 43 Z M 143 18 " clip-rule="nonzero"/></clipPath><clipPath id="4a090155fd"><path d="M 227.289062 50.28125 L 190.339844 56.613281 C 188.039062 57.007812 185.820312 56.746094 183.675781 55.824219 C 181.53125 54.90625 179.808594 53.476562 178.511719 51.539062 L 156.003906 17.917969 C 154.707031 15.980469 152.984375 14.550781 150.839844 13.632812 C 148.699219 12.710938 146.476562 12.449219 144.175781 12.84375 C 141.875 13.238281 139.867188 14.222656 138.152344 15.804688 C 136.441406 17.386719 135.292969 19.308594 134.714844 21.566406 L 124.707031 60.757812 C 124.128906 63.019531 122.984375 64.9375 121.269531 66.519531 C 119.554688 68.101562 117.546875 69.089844 115.246094 69.480469 L 78.296875 75.8125 C 75.953125 76.214844 73.914062 77.234375 72.183594 78.867188 C 70.449219 80.496094 69.316406 82.472656 68.777344 84.789062 C 68.238281 87.105469 68.386719 89.378906 69.222656 91.605469 C 70.054688 93.832031 71.4375 95.640625 73.367188 97.035156 L 104.871094 119.800781 C 106.640625 121.082031 107.957031 122.726562 108.816406 124.734375 C 109.675781 126.746094 109.953125 128.835938 109.652344 131 L 104.230469 170.039062 C 103.898438 172.414062 104.257812 174.675781 105.308594 176.832031 C 106.355469 178.984375 107.914062 180.667969 109.984375 181.875 C 112.054688 183.082031 114.289062 183.609375 116.679688 183.460938 C 119.074219 183.3125 121.222656 182.507812 123.128906 181.054688 L 162.328125 151.101562 C 163.871094 149.921875 165.601562 149.167969 167.515625 148.839844 C 169.429688 148.511719 171.308594 148.648438 173.15625 149.246094 L 220.105469 164.433594 C 222.386719 165.171875 224.679688 165.214844 226.984375 164.558594 C 229.289062 163.902344 231.21875 162.660156 232.769531 160.835938 C 234.320312 159.007812 235.230469 156.902344 235.5 154.523438 C 235.769531 152.144531 235.355469 149.890625 234.25 147.761719 L 216.125 112.761719 C 215.121094 110.820312 214.6875 108.757812 214.824219 106.578125 C 214.964844 104.394531 215.65625 102.40625 216.902344 100.605469 L 239.015625 68.652344 C 240.367188 66.695312 241.066406 64.527344 241.109375 62.148438 C 241.15625 59.773438 240.539062 57.582031 239.257812 55.574219 C 237.976562 53.570312 236.25 52.085938 234.074219 51.125 C 231.894531 50.160156 229.636719 49.882812 227.289062 50.28125 Z M 227.289062 50.28125 " clip-rule="nonzero"/></clipPath><clipPath id="ff67b72e94"><path d="M 161 45 L 172 45 L 172 57 L 161 57 Z M 161 45 " clip-rule="nonzero"/></clipPath><clipPath id="a335b135c1"><path d="M 227.289062 50.28125 L 190.339844 56.613281 C 188.039062 57.007812 185.820312 56.746094 183.675781 55.824219 C 181.53125 54.90625 179.808594 53.476562 178.511719 51.539062 L 156.003906 17.917969 C 154.707031 15.980469 152.984375 14.550781 150.839844 13.632812 C 148.699219 12.710938 146.476562 12.449219 144.175781 12.84375 C 141.875 13.238281 139.867188 14.222656 138.152344 15.804688 C 136.441406 17.386719 135.292969 19.308594 134.714844 21.566406 L 124.707031 60.757812 C 124.128906 63.019531 122.984375 64.9375 121.269531 66.519531 C 119.554688 68.101562 117.546875 69.089844 115.246094 69.480469 L 78.296875 75.8125 C 75.953125 76.214844 73.914062 77.234375 72.183594 78.867188 C 70.449219 80.496094 69.316406 82.472656 68.777344 84.789062 C 68.238281 87.105469 68.386719 89.378906 69.222656 91.605469 C 70.054688 93.832031 71.4375 95.640625 73.367188 97.035156 L 104.871094 119.800781 C 106.640625 121.082031 107.957031 122.726562 108.816406 124.734375 C 109.675781 126.746094 109.953125 128.835938 109.652344 131 L 104.230469 170.039062 C 103.898438 172.414062 104.257812 174.675781 105.308594 176.832031 C 106.355469 178.984375 107.914062 180.667969 109.984375 181.875 C 112.054688 183.082031 114.289062 183.609375 116.679688 183.460938 C 119.074219 183.3125 121.222656 182.507812 123.128906 181.054688 L 162.328125 151.101562 C 163.871094 149.921875 165.601562 149.167969 167.515625 148.839844 C 169.429688 148.511719 171.308594 148.648438 173.15625 149.246094 L 220.105469 164.433594 C 222.386719 165.171875 224.679688 165.214844 226.984375 164.558594 C 229.289062 163.902344 231.21875 162.660156 232.769531 160.835938 C 234.320312 159.007812 235.230469 156.902344 235.5 154.523438 C 235.769531 152.144531 235.355469 149.890625 234.25 147.761719 L 216.125 112.761719 C 215.121094 110.820312 214.6875 108.757812 214.824219 106.578125 C 214.964844 104.394531 215.65625 102.40625 216.902344 100.605469 L 239.015625 68.652344 C 240.367188 66.695312 241.066406 64.527344 241.109375 62.148438 C 241.15625 59.773438 240.539062 57.582031 239.257812 55.574219 C 237.976562 53.570312 236.25 52.085938 234.074219 51.125 C 231.894531 50.160156 229.636719 49.882812 227.289062 50.28125 Z M 227.289062 50.28125 " clip-rule="nonzero"/></clipPath><clipPath id="98fff6c4dd"><path d="M 200 67 L 228 67 L 228 101 L 200 101 Z M 200 67 " clip-rule="nonzero"/></clipPath><clipPath id="f6a4c37af1"><path d="M 227.289062 50.28125 L 190.339844 56.613281 C 188.039062 57.007812 185.820312 56.746094 183.675781 55.824219 C 181.53125 54.90625 179.808594 53.476562 178.511719 51.539062 L 156.003906 17.917969 C 154.707031 15.980469 152.984375 14.550781 150.839844 13.632812 C 148.699219 12.710938 146.476562 12.449219 144.175781 12.84375 C 141.875 13.238281 139.867188 14.222656 138.152344 15.804688 C 136.441406 17.386719 135.292969 19.308594 134.714844 21.566406 L 124.707031 60.757812 C 124.128906 63.019531 122.984375 64.9375 121.269531 66.519531 C 119.554688 68.101562 117.546875 69.089844 115.246094 69.480469 L 78.296875 75.8125 C 75.953125 76.214844 73.914062 77.234375 72.183594 78.867188 C 70.449219 80.496094 69.316406 82.472656 68.777344 84.789062 C 68.238281 87.105469 68.386719 89.378906 69.222656 91.605469 C 70.054688 93.832031 71.4375 95.640625 73.367188 97.035156 L 104.871094 119.800781 C 106.640625 121.082031 107.957031 122.726562 108.816406 124.734375 C 109.675781 126.746094 109.953125 128.835938 109.652344 131 L 104.230469 170.039062 C 103.898438 172.414062 104.257812 174.675781 105.308594 176.832031 C 106.355469 178.984375 107.914062 180.667969 109.984375 181.875 C 112.054688 183.082031 114.289062 183.609375 116.679688 183.460938 C 119.074219 183.3125 121.222656 182.507812 123.128906 181.054688 L 162.328125 151.101562 C 163.871094 149.921875 165.601562 149.167969 167.515625 148.839844 C 169.429688 148.511719 171.308594 148.648438 173.15625 149.246094 L 220.105469 164.433594 C 222.386719 165.171875 224.679688 165.214844 226.984375 164.558594 C 229.289062 163.902344 231.21875 162.660156 232.769531 160.835938 C 234.320312 159.007812 235.230469 156.902344 235.5 154.523438 C 235.769531 152.144531 235.355469 149.890625 234.25 147.761719 L 216.125 112.761719 C 215.121094 110.820312 214.6875 108.757812 214.824219 106.578125 C 214.964844 104.394531 215.65625 102.40625 216.902344 100.605469 L 239.015625 68.652344 C 240.367188 66.695312 241.066406 64.527344 241.109375 62.148438 C 241.15625 59.773438 240.539062 57.582031 239.257812 55.574219 C 237.976562 53.570312 236.25 52.085938 234.074219 51.125 C 231.894531 50.160156 229.636719 49.882812 227.289062 50.28125 Z M 227.289062 50.28125 " clip-rule="nonzero"/></clipPath><clipPath id="e39f40c704"><path d="M 225 55 L 237 55 L 237 67 L 225 67 Z M 225 55 " clip-rule="nonzero"/></clipPath><clipPath id="7a8371bac4"><path d="M 227.289062 50.28125 L 190.339844 56.613281 C 188.039062 57.007812 185.820312 56.746094 183.675781 55.824219 C 181.53125 54.90625 179.808594 53.476562 178.511719 51.539062 L 156.003906 17.917969 C 154.707031 15.980469 152.984375 14.550781 150.839844 13.632812 C 148.699219 12.710938 146.476562 12.449219 144.175781 12.84375 C 141.875 13.238281 139.867188 14.222656 138.152344 15.804688 C 136.441406 17.386719 135.292969 19.308594 134.714844 21.566406 L 124.707031 60.757812 C 124.128906 63.019531 122.984375 64.9375 121.269531 66.519531 C 119.554688 68.101562 117.546875 69.089844 115.246094 69.480469 L 78.296875 75.8125 C 75.953125 76.214844 73.914062 77.234375 72.183594 78.867188 C 70.449219 80.496094 69.316406 82.472656 68.777344 84.789062 C 68.238281 87.105469 68.386719 89.378906 69.222656 91.605469 C 70.054688 93.832031 71.4375 95.640625 73.367188 97.035156 L 104.871094 119.800781 C 106.640625 121.082031 107.957031 122.726562 108.816406 124.734375 C 109.675781 126.746094 109.953125 128.835938 109.652344 131 L 104.230469 170.039062 C 103.898438 172.414062 104.257812 174.675781 105.308594 176.832031 C 106.355469 178.984375 107.914062 180.667969 109.984375 181.875 C 112.054688 183.082031 114.289062 183.609375 116.679688 183.460938 C 119.074219 183.3125 121.222656 182.507812 123.128906 181.054688 L 162.328125 151.101562 C 163.871094 149.921875 165.601562 149.167969 167.515625 148.839844 C 169.429688 148.511719 171.308594 148.648438 173.15625 149.246094 L 220.105469 164.433594 C 222.386719 165.171875 224.679688 165.214844 226.984375 164.558594 C 229.289062 163.902344 231.21875 162.660156 232.769531 160.835938 C 234.320312 159.007812 235.230469 156.902344 235.5 154.523438 C 235.769531 152.144531 235.355469 149.890625 234.25 147.761719 L 216.125 112.761719 C 215.121094 110.820312 214.6875 108.757812 214.824219 106.578125 C 214.964844 104.394531 215.65625 102.40625 216.902344 100.605469 L 239.015625 68.652344 C 240.367188 66.695312 241.066406 64.527344 241.109375 62.148438 C 241.15625 59.773438 240.539062 57.582031 239.257812 55.574219 C 237.976562 53.570312 236.25 52.085938 234.074219 51.125 C 231.894531 50.160156 229.636719 49.882812 227.289062 50.28125 Z M 227.289062 50.28125 " clip-rule="nonzero"/></clipPath></defs><path fill="#fee359" d="M 260.789062 189.046875 L 242.101562 196.769531 C 241.53125 197.007812 240.941406 197.15625 240.328125 197.21875 C 239.714844 197.285156 239.105469 197.261719 238.496094 197.148438 C 237.890625 197.035156 237.316406 196.839844 236.765625 196.558594 C 236.214844 196.28125 235.71875 195.929688 235.269531 195.503906 L 219.429688 180.480469 C 218.980469 180.058594 218.484375 179.707031 217.933594 179.425781 C 217.386719 179.148438 216.808594 178.953125 216.203125 178.839844 C 215.597656 178.726562 214.988281 178.703125 214.375 178.765625 C 213.761719 178.832031 213.167969 178.980469 212.601562 179.214844 C 212.03125 179.449219 211.507812 179.761719 211.027344 180.148438 C 210.546875 180.535156 210.132812 180.984375 209.785156 181.492188 C 209.433594 181.996094 209.164062 182.542969 208.972656 183.128906 C 208.78125 183.714844 208.675781 184.316406 208.660156 184.929688 L 208.054688 206.746094 C 208.039062 207.359375 207.933594 207.960938 207.742188 208.546875 C 207.554688 209.132812 207.28125 209.679688 206.933594 210.183594 C 206.582031 210.691406 206.167969 211.140625 205.6875 211.527344 C 205.210938 211.914062 204.6875 212.226562 204.117188 212.460938 L 185.425781 220.183594 C 184.847656 220.421875 184.3125 220.742188 183.828125 221.140625 C 183.34375 221.535156 182.925781 221.996094 182.574219 222.515625 C 182.222656 223.035156 181.957031 223.59375 181.773438 224.195312 C 181.585938 224.792969 181.492188 225.40625 181.488281 226.035156 C 181.484375 226.660156 181.574219 227.277344 181.75 227.875 C 181.929688 228.476562 182.1875 229.042969 182.535156 229.566406 C 182.878906 230.089844 183.289062 230.554688 183.769531 230.957031 C 184.25 231.359375 184.78125 231.683594 185.355469 231.929688 L 204.644531 240.167969 C 205.175781 240.394531 205.667969 240.6875 206.121094 241.050781 C 206.574219 241.410156 206.96875 241.828125 207.308594 242.296875 C 207.648438 242.765625 207.917969 243.269531 208.121094 243.8125 C 208.320312 244.355469 208.445312 244.914062 208.496094 245.492188 L 210.285156 266.679688 C 210.339844 267.308594 210.484375 267.914062 210.71875 268.503906 C 210.953125 269.089844 211.265625 269.628906 211.660156 270.125 C 212.058594 270.617188 212.515625 271.042969 213.035156 271.398438 C 213.558594 271.757812 214.121094 272.03125 214.722656 272.21875 C 215.328125 272.410156 215.945312 272.507812 216.578125 272.515625 C 217.210938 272.523438 217.828125 272.4375 218.4375 272.257812 C 219.042969 272.082031 219.609375 271.820312 220.140625 271.472656 C 220.667969 271.128906 221.136719 270.710938 221.542969 270.226562 L 238.605469 249.804688 C 239.277344 249.003906 240.097656 248.402344 241.066406 248 C 242.035156 247.601562 243.039062 247.449219 244.082031 247.542969 L 270.597656 249.960938 C 271.226562 250.015625 271.851562 249.980469 272.472656 249.851562 C 273.089844 249.726562 273.679688 249.511719 274.234375 249.207031 C 274.789062 248.90625 275.289062 248.527344 275.730469 248.078125 C 276.175781 247.625 276.542969 247.121094 276.835938 246.558594 C 277.128906 246 277.332031 245.410156 277.449219 244.789062 C 277.566406 244.167969 277.589844 243.542969 277.519531 242.914062 C 277.453125 242.285156 277.292969 241.679688 277.042969 241.101562 C 276.792969 240.519531 276.464844 239.988281 276.058594 239.503906 L 262.351562 223.242188 C 261.980469 222.796875 261.671875 222.3125 261.433594 221.789062 C 261.191406 221.261719 261.027344 220.714844 260.933594 220.140625 C 260.84375 219.570312 260.828125 218.996094 260.894531 218.421875 C 260.960938 217.847656 261.101562 217.292969 261.316406 216.753906 L 269.15625 197.316406 C 269.390625 196.730469 269.535156 196.128906 269.589844 195.503906 C 269.644531 194.878906 269.609375 194.257812 269.480469 193.644531 C 269.355469 193.027344 269.140625 192.445312 268.839844 191.894531 C 268.542969 191.34375 268.167969 190.847656 267.722656 190.40625 C 267.273438 189.964844 266.773438 189.597656 266.21875 189.300781 C 265.664062 189.007812 265.078125 188.800781 264.460938 188.679688 C 263.84375 188.5625 263.222656 188.53125 262.597656 188.59375 C 261.972656 188.65625 261.371094 188.808594 260.789062 189.046875 Z M 260.789062 189.046875 " fill-opacity="1" fill-rule="nonzero"/><g clip-path="url(#fc5b593404)"><g clip-path="url(#f41f4b1c26)"><path fill="#fef8e2" d="M 214.492188 186.890625 C 216.566406 188.890625 218.699219 190.824219 220.886719 192.695312 C 223.625 195.035156 227.011719 190.578125 224.273438 188.242188 C 222.082031 186.371094 219.953125 184.4375 217.878906 182.441406 C 217.582031 182.21875 217.253906 182.0625 216.898438 181.96875 C 216.539062 181.875 216.175781 181.855469 215.808594 181.90625 C 215.441406 181.953125 215.097656 182.074219 214.777344 182.257812 C 214.457031 182.441406 214.1875 182.683594 213.960938 182.976562 C 213.746094 183.273438 213.59375 183.601562 213.503906 183.957031 C 213.414062 184.316406 213.394531 184.675781 213.445312 185.039062 C 213.492188 185.40625 213.609375 185.746094 213.792969 186.066406 C 213.972656 186.386719 214.207031 186.660156 214.496094 186.890625 Z M 214.492188 186.890625 " fill-opacity="1" fill-rule="nonzero"/></g></g><g clip-path="url(#991e7bff46)"><g clip-path="url(#5e1494e904)"><path fill="#fef8e2" d="M 230.089844 199.171875 C 233.417969 197.800781 231.285156 192.628906 227.953125 194.007812 C 224.617188 195.382812 226.757812 200.550781 230.089844 199.171875 Z M 230.089844 199.171875 " fill-opacity="1" fill-rule="nonzero"/></g></g><g clip-path="url(#8c16fe608e)"><g clip-path="url(#ab3f9c8030)"><path fill="#fef8e2" d="M 257.292969 216.332031 C 259.671875 211.910156 261.714844 207.339844 263.429688 202.625 C 264.539062 199.21875 259.378906 197.050781 258.261719 200.480469 C 256.546875 205.199219 254.503906 209.765625 252.125 214.1875 C 250.519531 217.417969 255.695312 219.542969 257.292969 216.332031 Z M 257.292969 216.332031 " fill-opacity="1" fill-rule="nonzero"/></g></g><g clip-path="url(#3dd293234f)"><g clip-path="url(#76212927f8)"><path fill="#fef8e2" d="M 261.347656 195.335938 L 261.402344 195.464844 C 261.546875 195.804688 261.746094 196.109375 262.011719 196.367188 C 262.273438 196.628906 262.574219 196.832031 262.917969 196.972656 C 263.257812 197.113281 263.617188 197.1875 263.984375 197.1875 C 264.355469 197.1875 264.714844 197.113281 265.054688 196.972656 C 265.398438 196.832031 265.699219 196.628906 265.960938 196.367188 C 266.226562 196.109375 266.425781 195.804688 266.570312 195.464844 C 266.710938 195.121094 266.785156 194.765625 266.785156 194.394531 C 266.785156 194.027344 266.714844 193.667969 266.574219 193.328125 L 266.519531 193.199219 C 266.378906 192.855469 266.175781 192.550781 265.914062 192.289062 C 265.652344 192.027344 265.351562 191.824219 265.007812 191.679688 C 264.664062 191.539062 264.308594 191.46875 263.9375 191.46875 C 263.5625 191.464844 263.207031 191.539062 262.863281 191.679688 C 262.519531 191.820312 262.21875 192.023438 261.957031 192.285156 C 261.691406 192.546875 261.488281 192.851562 261.347656 193.191406 C 261.207031 193.535156 261.136719 193.894531 261.136719 194.265625 C 261.136719 194.636719 261.207031 194.992188 261.347656 195.335938 Z M 261.347656 195.335938 " fill-opacity="1" fill-rule="nonzero"/></g></g><g clip-path="url(#ae12298723)"><path fill="#fee359" d="M 320.09375 139.617188 L 306.585938 131.1875 C 306.171875 130.929688 305.808594 130.621094 305.484375 130.257812 C 305.164062 129.894531 304.898438 129.496094 304.695312 129.054688 C 304.488281 128.617188 304.351562 128.15625 304.277344 127.675781 C 304.207031 127.199219 304.203125 126.71875 304.269531 126.238281 L 306.644531 109.21875 C 306.714844 108.738281 306.710938 108.257812 306.640625 107.777344 C 306.570312 107.296875 306.429688 106.839844 306.226562 106.398438 C 306.019531 105.960938 305.757812 105.558594 305.433594 105.195312 C 305.113281 104.832031 304.746094 104.519531 304.335938 104.265625 C 303.921875 104.007812 303.484375 103.8125 303.015625 103.683594 C 302.546875 103.554688 302.070312 103.492188 301.585938 103.503906 C 301.097656 103.511719 300.625 103.589844 300.164062 103.734375 C 299.699219 103.878906 299.265625 104.089844 298.863281 104.359375 L 284.601562 113.960938 C 284.199219 114.230469 283.765625 114.4375 283.300781 114.585938 C 282.839844 114.730469 282.367188 114.808594 281.878906 114.816406 C 281.394531 114.824219 280.917969 114.761719 280.449219 114.632812 C 279.984375 114.503906 279.542969 114.308594 279.132812 114.054688 L 265.625 105.621094 C 265.207031 105.359375 264.757812 105.164062 264.28125 105.035156 C 263.800781 104.902344 263.316406 104.847656 262.820312 104.859375 C 262.328125 104.875 261.84375 104.957031 261.375 105.113281 C 260.90625 105.269531 260.46875 105.492188 260.066406 105.777344 C 259.660156 106.0625 259.304688 106.398438 259 106.789062 C 258.699219 107.175781 258.457031 107.601562 258.277344 108.0625 C 258.097656 108.523438 257.992188 109 257.953125 109.496094 C 257.914062 109.988281 257.949219 110.476562 258.058594 110.957031 L 261.609375 127.074219 C 261.808594 127.980469 261.761719 128.875 261.464844 129.753906 C 261.167969 130.636719 260.664062 131.375 259.957031 131.976562 L 247.195312 142.824219 C 246.816406 143.144531 246.492188 143.515625 246.222656 143.933594 C 245.953125 144.355469 245.75 144.800781 245.613281 145.28125 C 245.476562 145.761719 245.414062 146.25 245.421875 146.746094 C 245.433594 147.242188 245.515625 147.730469 245.667969 148.203125 C 245.824219 148.675781 246.042969 149.117188 246.328125 149.523438 C 246.613281 149.933594 246.953125 150.289062 247.34375 150.597656 C 247.738281 150.90625 248.164062 151.148438 248.628906 151.328125 C 249.09375 151.507812 249.574219 151.617188 250.070312 151.652344 L 270.976562 153.230469 C 271.800781 153.292969 272.5625 153.542969 273.261719 153.980469 C 273.960938 154.417969 274.519531 154.992188 274.933594 155.703125 L 285.523438 173.78125 C 285.773438 174.210938 286.082031 174.597656 286.449219 174.933594 C 286.8125 175.273438 287.21875 175.550781 287.667969 175.769531 C 288.117188 175.984375 288.585938 176.132812 289.078125 176.210938 C 289.570312 176.289062 290.0625 176.292969 290.558594 176.222656 C 291.050781 176.152344 291.523438 176.011719 291.976562 175.804688 C 292.425781 175.59375 292.839844 175.324219 293.210938 174.992188 C 293.582031 174.660156 293.894531 174.28125 294.152344 173.855469 C 294.410156 173.429688 294.601562 172.972656 294.726562 172.492188 L 298.878906 156.273438 C 298.992188 155.832031 299.164062 155.414062 299.390625 155.015625 C 299.617188 154.621094 299.894531 154.265625 300.21875 153.945312 C 300.542969 153.625 300.902344 153.351562 301.300781 153.132812 C 301.699219 152.910156 302.121094 152.746094 302.566406 152.636719 L 318.617188 148.753906 C 319.097656 148.636719 319.550781 148.457031 319.980469 148.207031 C 320.40625 147.953125 320.785156 147.648438 321.121094 147.285156 C 321.457031 146.921875 321.734375 146.519531 321.953125 146.074219 C 322.167969 145.628906 322.316406 145.164062 322.394531 144.675781 C 322.472656 144.1875 322.480469 143.699219 322.414062 143.210938 C 322.347656 142.71875 322.210938 142.25 322.007812 141.800781 C 321.804688 141.351562 321.539062 140.941406 321.210938 140.566406 C 320.886719 140.195312 320.511719 139.878906 320.09375 139.617188 Z M 320.09375 139.617188 " fill-opacity="1" fill-rule="nonzero"/></g><g clip-path="url(#fd643f1e14)"><g clip-path="url(#6065664cda)"><path fill="#fef8e2" d="M 300.277344 108.988281 C 299.945312 111.230469 299.679688 113.480469 299.484375 115.738281 C 299.238281 118.5625 303.640625 118.6875 303.894531 115.867188 C 304.089844 113.609375 304.355469 111.359375 304.6875 109.117188 C 304.695312 108.828125 304.644531 108.542969 304.542969 108.273438 C 304.4375 108 304.285156 107.757812 304.085938 107.546875 C 303.882812 107.335938 303.652344 107.167969 303.386719 107.046875 C 303.121094 106.929688 302.84375 106.863281 302.550781 106.851562 C 302.261719 106.851562 301.980469 106.902344 301.710938 107.011719 C 301.441406 107.117188 301.199219 107.269531 300.988281 107.46875 C 300.777344 107.667969 300.613281 107.898438 300.492188 108.160156 C 300.367188 108.421875 300.300781 108.699219 300.285156 108.988281 Z M 300.277344 108.988281 " fill-opacity="1" fill-rule="nonzero"/></g></g><g clip-path="url(#9b7d02a7b2)"><g clip-path="url(#38585b317b)"><path fill="#fef8e2" d="M 299.546875 124.597656 C 299.792969 124.738281 300.058594 124.828125 300.339844 124.867188 C 300.625 124.90625 300.902344 124.894531 301.179688 124.824219 C 301.457031 124.753906 301.710938 124.636719 301.941406 124.46875 C 302.171875 124.300781 302.363281 124.09375 302.511719 123.855469 C 302.664062 123.613281 302.765625 123.351562 302.8125 123.070312 C 302.863281 122.789062 302.859375 122.511719 302.800781 122.230469 C 302.742188 121.953125 302.632812 121.695312 302.472656 121.457031 C 302.3125 121.222656 302.117188 121.023438 301.878906 120.863281 C 301.632812 120.722656 301.367188 120.632812 301.085938 120.59375 C 300.804688 120.554688 300.523438 120.570312 300.246094 120.636719 C 299.972656 120.707031 299.71875 120.828125 299.488281 120.992188 C 299.257812 121.160156 299.066406 121.367188 298.914062 121.609375 C 298.761719 121.847656 298.664062 122.109375 298.613281 122.390625 C 298.5625 122.671875 298.570312 122.953125 298.628906 123.230469 C 298.6875 123.507812 298.796875 123.765625 298.953125 124.003906 C 299.113281 124.238281 299.308594 124.4375 299.546875 124.597656 Z M 299.546875 124.597656 " fill-opacity="1" fill-rule="nonzero"/></g></g><g clip-path="url(#3e33019def)"><g clip-path="url(#adabb97308)"><path fill="#fef8e2" d="M 300.996094 149.867188 C 304.921875 149.363281 308.789062 148.582031 312.597656 147.519531 C 315.289062 146.671875 314.3125 142.378906 311.605469 143.230469 C 307.796875 144.292969 303.929688 145.074219 300.003906 145.578125 C 297.199219 146.027344 298.207031 150.316406 300.996094 149.867188 Z M 300.996094 149.867188 " fill-opacity="1" fill-rule="nonzero"/></g></g><g clip-path="url(#370b0ffdbe)"><g clip-path="url(#a8c134313c)"><path fill="#fef8e2" d="M 316.316406 142.851562 L 316.257812 142.945312 C 316.089844 143.191406 315.976562 143.464844 315.917969 143.757812 C 315.863281 144.050781 315.863281 144.34375 315.925781 144.636719 C 315.988281 144.929688 316.105469 145.199219 316.277344 145.445312 C 316.449219 145.691406 316.660156 145.890625 316.914062 146.050781 C 317.167969 146.207031 317.445312 146.3125 317.738281 146.359375 C 318.035156 146.40625 318.328125 146.390625 318.621094 146.320312 C 318.910156 146.246094 319.175781 146.117188 319.414062 145.9375 C 319.652344 145.757812 319.847656 145.539062 319.996094 145.277344 L 320.054688 145.183594 C 320.222656 144.9375 320.335938 144.667969 320.394531 144.371094 C 320.449219 144.078125 320.449219 143.785156 320.386719 143.492188 C 320.324219 143.199219 320.207031 142.929688 320.035156 142.6875 C 319.863281 142.441406 319.652344 142.238281 319.398438 142.078125 C 319.144531 141.921875 318.867188 141.820312 318.574219 141.773438 C 318.277344 141.726562 317.984375 141.738281 317.691406 141.8125 C 317.402344 141.882812 317.136719 142.011719 316.898438 142.191406 C 316.660156 142.371094 316.464844 142.59375 316.316406 142.851562 Z M 316.316406 142.851562 " fill-opacity="1" fill-rule="nonzero"/></g></g><g clip-path="url(#ced3110492)"><path fill="#fee359" d="M 227.289062 50.28125 L 190.339844 56.613281 C 189.214844 56.808594 188.085938 56.835938 186.949219 56.703125 C 185.816406 56.570312 184.722656 56.277344 183.675781 55.824219 C 182.625 55.375 181.660156 54.785156 180.78125 54.054688 C 179.902344 53.328125 179.148438 52.488281 178.511719 51.539062 L 156.003906 17.917969 C 155.367188 16.96875 154.613281 16.128906 153.734375 15.402344 C 152.855469 14.671875 151.890625 14.082031 150.839844 13.632812 C 149.792969 13.179688 148.699219 12.886719 147.566406 12.753906 C 146.433594 12.621094 145.300781 12.648438 144.175781 12.84375 C 143.050781 13.035156 141.976562 13.382812 140.949219 13.886719 C 139.925781 14.390625 138.992188 15.03125 138.152344 15.804688 C 137.316406 16.578125 136.601562 17.457031 136.019531 18.4375 C 135.433594 19.417969 135 20.460938 134.714844 21.566406 L 124.707031 60.757812 C 124.421875 61.863281 123.988281 62.90625 123.40625 63.886719 C 122.820312 64.867188 122.105469 65.746094 121.269531 66.519531 C 120.429688 67.292969 119.496094 67.933594 118.472656 68.4375 C 117.445312 68.941406 116.371094 69.289062 115.246094 69.480469 L 78.296875 75.8125 C 77.152344 76.011719 76.054688 76.367188 75.015625 76.886719 C 73.972656 77.40625 73.027344 78.066406 72.183594 78.867188 C 71.335938 79.664062 70.621094 80.566406 70.042969 81.574219 C 69.460938 82.585938 69.039062 83.65625 68.777344 84.789062 C 68.515625 85.921875 68.421875 87.070312 68.496094 88.230469 C 68.570312 89.390625 68.8125 90.515625 69.222656 91.605469 C 69.628906 92.695312 70.1875 93.699219 70.894531 94.625 C 71.597656 95.550781 72.421875 96.355469 73.367188 97.035156 L 104.871094 119.800781 C 105.738281 120.429688 106.507812 121.160156 107.179688 122 C 107.847656 122.835938 108.394531 123.75 108.816406 124.734375 C 109.238281 125.722656 109.519531 126.746094 109.660156 127.8125 C 109.804688 128.875 109.800781 129.9375 109.652344 131 L 104.230469 170.039062 C 104.070312 171.199219 104.078125 172.359375 104.261719 173.515625 C 104.445312 174.671875 104.792969 175.777344 105.308594 176.832031 C 105.820312 177.882812 106.472656 178.839844 107.269531 179.699219 C 108.066406 180.558594 108.972656 181.285156 109.984375 181.875 C 110.996094 182.464844 112.074219 182.894531 113.214844 183.164062 C 114.355469 183.433594 115.511719 183.535156 116.679688 183.460938 C 117.851562 183.386719 118.984375 183.144531 120.082031 182.734375 C 121.179688 182.324219 122.195312 181.765625 123.128906 181.054688 L 162.328125 151.101562 C 163.089844 150.519531 163.90625 150.039062 164.785156 149.65625 C 165.660156 149.273438 166.570312 149.003906 167.515625 148.839844 C 168.457031 148.679688 169.40625 148.632812 170.359375 148.699219 C 171.3125 148.769531 172.246094 148.949219 173.15625 149.246094 L 220.105469 164.433594 C 221.222656 164.796875 222.363281 164.988281 223.535156 165.007812 C 224.707031 165.027344 225.859375 164.878906 226.984375 164.558594 C 228.113281 164.238281 229.167969 163.761719 230.15625 163.125 C 231.140625 162.492188 232.011719 161.726562 232.769531 160.835938 C 233.527344 159.941406 234.140625 158.957031 234.605469 157.882812 C 235.070312 156.808594 235.367188 155.6875 235.5 154.523438 C 235.632812 153.359375 235.589844 152.203125 235.378906 151.050781 C 235.167969 149.898438 234.789062 148.800781 234.25 147.761719 L 216.125 112.761719 C 215.632812 111.808594 215.273438 110.808594 215.054688 109.757812 C 214.832031 108.707031 214.757812 107.648438 214.824219 106.578125 C 214.894531 105.507812 215.105469 104.464844 215.457031 103.449219 C 215.808594 102.4375 216.289062 101.488281 216.902344 100.605469 L 239.015625 68.652344 C 239.675781 67.695312 240.1875 66.664062 240.542969 65.554688 C 240.898438 64.449219 241.089844 63.3125 241.109375 62.148438 C 241.132812 60.988281 240.984375 59.84375 240.667969 58.726562 C 240.355469 57.605469 239.882812 56.554688 239.257812 55.574219 C 238.632812 54.59375 237.875 53.726562 236.992188 52.96875 C 236.109375 52.210938 235.136719 51.59375 234.074219 51.125 C 233.007812 50.652344 231.898438 50.347656 230.742188 50.203125 C 229.585938 50.058594 228.4375 50.085938 227.289062 50.28125 Z M 227.289062 50.28125 " fill-opacity="1" fill-rule="nonzero"/></g><g clip-path="url(#8614f63ddb)"><g clip-path="url(#4a090155fd)"><path fill="#fef8e2" d="M 144.453125 27.484375 C 147.386719 31.941406 150.449219 36.308594 153.640625 40.585938 C 157.632812 45.933594 165.570312 39.257812 161.582031 33.917969 C 158.390625 29.640625 155.328125 25.273438 152.394531 20.816406 C 150.859375 18.476562 147.050781 18.53125 145.089844 20.183594 C 142.738281 22.15625 142.910156 25.136719 144.453125 27.484375 Z M 144.453125 27.484375 " fill-opacity="1" fill-rule="nonzero"/></g></g><g clip-path="url(#ff67b72e94)"><g clip-path="url(#a335b135c1)"><path fill="#fef8e2" d="M 167.640625 56.054688 C 174.21875 54.925781 172.476562 44.710938 165.886719 45.839844 C 159.300781 46.96875 161.054688 57.183594 167.640625 56.054688 Z M 167.640625 56.054688 " fill-opacity="1" fill-rule="nonzero"/></g></g><g clip-path="url(#98fff6c4dd)"><g clip-path="url(#f6a4c37af1)"><path fill="#fef8e2" d="M 209.804688 98.175781 C 215.667969 90.976562 221.734375 83.890625 226.503906 75.894531 C 229.902344 70.195312 221.460938 64.171875 218.035156 69.910156 C 213.269531 77.90625 207.199219 84.992188 201.339844 92.191406 C 197.117188 97.375 205.609375 103.328125 209.804688 98.175781 Z M 209.804688 98.175781 " fill-opacity="1" fill-rule="nonzero"/></g></g><g clip-path="url(#e39f40c704)"><g clip-path="url(#7a8371bac4)"><path fill="#fef8e2" d="M 225.726562 61.871094 L 225.769531 62.128906 C 225.828125 62.460938 225.921875 62.785156 226.042969 63.101562 C 226.167969 63.417969 226.320312 63.71875 226.503906 64.003906 C 226.6875 64.289062 226.894531 64.554688 227.128906 64.796875 C 227.363281 65.042969 227.617188 65.261719 227.894531 65.457031 C 228.171875 65.652344 228.46875 65.816406 228.777344 65.953125 C 229.085938 66.089844 229.40625 66.195312 229.738281 66.269531 C 230.070312 66.34375 230.402344 66.386719 230.742188 66.394531 C 231.082031 66.40625 231.417969 66.378906 231.75 66.324219 C 232.085938 66.265625 232.410156 66.175781 232.726562 66.054688 C 233.042969 65.933594 233.347656 65.785156 233.632812 65.605469 C 233.917969 65.425781 234.1875 65.21875 234.433594 64.984375 C 234.679688 64.753906 234.902344 64.5 235.097656 64.222656 C 235.292969 63.949219 235.460938 63.65625 235.601562 63.347656 C 235.742188 63.039062 235.851562 62.71875 235.925781 62.386719 C 236.003906 62.058594 236.046875 61.722656 236.058594 61.386719 C 236.070312 61.046875 236.046875 60.710938 235.992188 60.375 L 235.949219 60.121094 C 235.886719 59.789062 235.796875 59.464844 235.671875 59.148438 C 235.550781 58.832031 235.398438 58.53125 235.214844 58.246094 C 235.03125 57.960938 234.824219 57.695312 234.589844 57.449219 C 234.355469 57.207031 234.101562 56.988281 233.824219 56.792969 C 233.546875 56.597656 233.25 56.433594 232.941406 56.292969 C 232.632812 56.15625 232.3125 56.050781 231.980469 55.976562 C 231.648438 55.902344 231.316406 55.863281 230.976562 55.851562 C 230.636719 55.84375 230.300781 55.867188 229.96875 55.925781 C 229.632812 55.984375 229.308594 56.074219 228.992188 56.195312 C 228.675781 56.3125 228.371094 56.464844 228.085938 56.644531 C 227.796875 56.824219 227.53125 57.03125 227.285156 57.265625 C 227.039062 57.496094 226.816406 57.75 226.621094 58.027344 C 226.421875 58.300781 226.253906 58.59375 226.117188 58.902344 C 225.976562 59.210938 225.867188 59.53125 225.792969 59.859375 C 225.714844 60.191406 225.671875 60.523438 225.660156 60.863281 C 225.648438 61.203125 225.671875 61.539062 225.726562 61.871094 Z M 225.726562 61.871094 " fill-opacity="1" fill-rule="nonzero"/></g></g></svg>